<?xml version="1.0" encoding="UTF-8" standalone="no"?>
<svg
   xmlns:dc="http://purl.org/dc/elements/1.1/"
   xmlns:cc="http://creativecommons.org/ns#"
   xmlns:rdf="http://www.w3.org/1999/02/22-rdf-syntax-ns#"
   xmlns:svg="http://www.w3.org/2000/svg"
   xmlns="http://www.w3.org/2000/svg"
   xmlns:sodipodi="http://sodipodi.sourceforge.net/DTD/sodipodi-0.dtd"
   xmlns:inkscape="http://www.inkscape.org/namespaces/inkscape"
   version="1.1"
   id="svg2"
   xml:space="preserve"
   width="3200"
   height="1333.3333"
   viewBox="0 0 3200 1333.3333"
   sodipodi:docname="LOGO orizzontale 2021 OFFICIAL.ai"><metadata
     id="metadata8"><rdf:RDF><cc:Work
         rdf:about=""><dc:format>image/svg+xml</dc:format><dc:type
           rdf:resource="http://purl.org/dc/dcmitype/StillImage" /></cc:Work></rdf:RDF></metadata><defs
     id="defs6"><clipPath
       clipPathUnits="userSpaceOnUse"
       id="clipPath18"><path
         d="M 0,1000 H 2400 V 0 H 0 Z"
         id="path16" /></clipPath></defs><sodipodi:namedview
     pagecolor="#ffffff"
     bordercolor="#666666"
     borderopacity="1"
     objecttolerance="10"
     gridtolerance="10"
     guidetolerance="10"
     inkscape:pageopacity="0"
     inkscape:pageshadow="2"
     inkscape:window-width="640"
     inkscape:window-height="480"
     id="namedview4" /><g
     id="g10"
     inkscape:groupmode="layer"
     inkscape:label="LOGO orizzontale 2021 OFFICIAL"
     transform="matrix(1.3333333,0,0,-1.3333333,0,1333.3333)"><g
       id="g12"><g
         id="g14"
         clip-path="url(#clipPath18)"><g
           id="g20"
           transform="translate(1723.7031,253.4648)"><path
             d="m 0,0 h 121.374 l 15.169,222.062 c 2.757,37.24 0,82.75 0,82.75 h 1.371 c 0,0 16.556,-51.725 27.583,-82.75 L 217.22,79.313 h 103.447 l 51.716,142.749 c 11.034,31.025 27.591,82.75 27.591,82.75 h 1.385 c 0,0 -2.764,-45.51 0,-82.75 L 416.521,0 H 537.202 L 497.206,493.07 H 366.176 L 294.455,284.814 c -11.026,-31.727 -24.818,-81.37 -24.818,-81.37 h -1.379 c 0,0 -13.798,49.643 -24.826,81.37 L 171.711,493.07 H 40.688 Z"
             style="fill:#003399;fill-opacity:1;fill-rule:nonzero;stroke:none"
             id="path22" /></g><g
           id="g24"
           transform="translate(972.0469,453.4512)"><path
             d="m 0,0 28.272,95.862 c 8.971,31.033 19.998,84.82 19.998,84.82 h 1.378 c 0,0 11.039,-53.787 20.001,-84.82 L 97.232,0 Z M 112.406,293.084 H -14.481 l -167.579,-493.07 h 124.13 l 29.655,103.446 h 153.783 l 30.344,-103.446 h 124.126 z"
             style="fill:#003399;fill-opacity:1;fill-rule:nonzero;stroke:none"
             id="path26" /></g><g
           id="g28"
           transform="translate(1443.0361,356.9111)"><path
             d="M 0,0 H -49.646 V 286.185 H 0 c 81.378,0 134.483,-48.266 134.483,-142.049 C 134.483,49.652 83.445,0 0,0 m 4.836,389.624 h -175.164 v -493.07 H 4.836 c 155.159,0 254.463,92.42 254.463,247.582 0,155.162 -99.304,245.488 -254.463,245.488"
             style="fill:#003399;fill-opacity:1;fill-rule:nonzero;stroke:none"
             id="path30" /></g><g
           id="g32"
           transform="translate(660.187,709.0195)"><path
             d="M 0,0 H 14.462 L 7.288,17.235 Z m -13.034,-16.035 -0.257,0.229 v 1.487 l 0.257,0.228 c 1.391,0.019 2.287,0.09 2.687,0.215 0.4,0.123 0.758,0.371 1.072,0.743 0.315,0.371 0.948,1.586 1.9,3.644 l 3.001,6.516 7.775,17.606 c 1.467,3.45 2.925,6.898 4.373,10.347 h 1.858 l 12.204,-28.696 1.629,-3.83 c 0.476,-1.086 1.025,-2.267 1.644,-3.544 0.619,-1.277 1.048,-2.03 1.286,-2.258 0.238,-0.228 0.533,-0.405 0.886,-0.528 0.353,-0.125 1.138,-0.196 2.358,-0.215 l 0.229,-0.228 v -1.487 l -0.229,-0.229 c -2.02,0.172 -3.84,0.258 -5.459,0.258 -3.163,-0.096 -6.326,-0.181 -9.489,-0.258 l -0.229,0.229 v 1.487 l 0.229,0.228 c 2.134,0.038 3.468,0.129 4.001,0.272 0.534,0.142 0.801,0.471 0.801,0.986 0,0.418 -0.134,0.972 -0.401,1.658 l -3.515,8.717 H -0.972 l -3.115,-7.317 c -0.554,-1.315 -0.829,-2.277 -0.829,-2.887 0,-0.477 0.257,-0.829 0.771,-1.058 0.515,-0.228 1.811,-0.352 3.888,-0.371 L 0,-14.319 v -1.487 l -0.229,-0.229 c -2.458,0.153 -4.611,0.229 -6.459,0.229 -2.097,0 -4.212,-0.076 -6.346,-0.229"
             style="fill:#003399;fill-opacity:1;fill-rule:nonzero;stroke:none"
             id="path34" /></g><g
           id="g36"
           transform="translate(689.1406,638.5479)"><path
             d="m 0,0 v -0.857 l -0.115,-0.343 -1.4,-0.829 c -0.343,-0.21 -0.543,-0.372 -0.6,-0.486 -0.057,-0.114 -0.129,-0.682 -0.215,-1.701 -0.086,-1.019 -0.128,-2.263 -0.128,-3.73 0,-1.658 0.104,-3.458 0.314,-5.401 l -0.171,-0.287 c -5.221,-2 -10.585,-3.001 -16.092,-3.001 -4.23,0 -8.051,0.801 -11.461,2.401 -3.411,1.601 -6.117,3.973 -8.117,7.117 -2.001,3.144 -3.001,6.879 -3.001,11.204 0,6.593 2.253,11.833 6.759,15.72 4.506,3.887 10.389,5.831 17.649,5.831 5.335,0 10.127,-0.905 14.377,-2.716 l 0.2,-0.314 c -0.343,-1.276 -0.743,-3.954 -1.201,-8.031 l -0.228,-0.2 h -1.315 l -0.229,0.228 -0.143,3.03 c -0.056,0.991 -0.119,1.572 -0.185,1.743 -0.067,0.172 -0.272,0.396 -0.615,0.672 -0.343,0.276 -1.224,0.715 -2.644,1.315 -1.419,0.6 -2.843,1.038 -4.272,1.315 -1.43,0.276 -2.964,0.414 -4.602,0.414 -3.487,0 -6.574,-0.724 -9.26,-2.172 -2.687,-1.448 -4.712,-3.558 -6.074,-6.331 -1.363,-2.772 -2.044,-5.855 -2.044,-9.246 0,-3.506 0.733,-6.769 2.201,-9.79 1.466,-3.02 3.572,-5.378 6.316,-7.074 2.745,-1.696 5.935,-2.543 9.575,-2.543 1.581,0 3.197,0.157 4.845,0.472 1.648,0.314 3.005,0.757 4.073,1.328 0.172,0.61 0.257,1.839 0.257,3.688 v 3.172 c 0,1.505 -0.096,2.444 -0.286,2.816 -0.19,0.371 -0.662,0.633 -1.415,0.785 -0.753,0.153 -2.377,0.248 -4.873,0.286 l -0.257,0.258 V 0 l 0.257,0.257 1.744,-0.057 c 2.991,-0.096 5.431,-0.143 7.316,-0.143 1.087,0 2.678,0.058 4.774,0.172 z"
             style="fill:#003399;fill-opacity:1;fill-rule:nonzero;stroke:none"
             id="path38" /></g><g
           id="g40"
           transform="translate(652.8701,592.9141)"><path
             d="M 0,0 0.229,0.2 C 6.764,0.086 10.946,0.028 12.776,0.028 c 6.249,0 11.813,0.058 16.692,0.172 L 29.611,0 c -0.477,-1.829 -0.829,-4.697 -1.058,-8.603 l -0.172,-0.229 h -1.4 l -0.257,0.229 c 0.019,0.172 0.028,0.324 0.028,0.457 0,1.62 -0.124,3.163 -0.371,4.63 -1.2,0.534 -2.863,0.881 -4.987,1.044 -2.125,0.161 -3.721,0.243 -4.788,0.243 -1.505,0 -3.43,-0.105 -5.773,-0.314 l -0.115,-4.574 -0.086,-5.23 -0.085,-5.802 c 2.057,-0.115 3.953,-0.172 5.687,-0.172 1.753,0 3.22,0.057 4.402,0.172 1.181,0.114 1.872,0.233 2.072,0.357 0.2,0.124 0.353,0.362 0.458,0.714 0.104,0.353 0.195,0.977 0.271,1.872 l 0.114,1.773 0.229,0.228 h 1.315 l 0.228,-0.228 c -0.038,-2.077 -0.086,-4.164 -0.142,-6.26 l 0.142,-6.431 -0.228,-0.229 H 23.78 l -0.229,0.229 -0.2,1.715 c -0.171,1.334 -0.295,2.13 -0.372,2.387 -0.076,0.257 -0.252,0.48 -0.528,0.671 -0.277,0.19 -0.986,0.344 -2.129,0.457 -1.144,0.115 -2.716,0.172 -4.717,0.172 -1.105,0 -2.791,-0.048 -5.058,-0.143 -0.096,-1.6 -0.143,-4.268 -0.143,-8.003 0,-4.001 0.047,-6.945 0.143,-8.831 h 5.259 c 4.63,0 7.526,0.057 8.689,0.171 1.161,0.114 2.267,0.39 3.315,0.829 0.171,0.438 0.452,1.452 0.843,3.044 0.39,1.591 0.615,2.587 0.672,2.987 l 0.286,0.2 h 1.371 l 0.229,-0.2 c -0.171,-0.82 -0.338,-2.249 -0.5,-4.288 -0.162,-2.039 -0.243,-3.782 -0.243,-5.23 l -0.2,-0.229 c -3.64,0.115 -8.403,0.172 -14.291,0.172 l -7.774,0.057 c -1.81,0 -3.697,-0.076 -5.659,-0.229 l -0.229,0.229 v 0.943 l 0.229,0.286 c 1.123,0.572 1.767,0.929 1.929,1.072 0.161,0.143 0.295,1.81 0.4,5.002 0.105,3.191 0.157,5.626 0.157,7.302 v 10.49 l -0.028,6.488 c 0,1.41 -0.02,2.558 -0.057,3.444 -0.039,0.886 -0.106,1.519 -0.201,1.901 -0.095,0.381 -0.205,0.647 -0.328,0.8 -0.124,0.152 -0.324,0.281 -0.6,0.386 C 3.539,-1.967 3.067,-1.877 2.401,-1.8 L 0.229,-1.629 0,-1.429 Z"
             style="fill:#003399;fill-opacity:1;fill-rule:nonzero;stroke:none"
             id="path42" /></g><g
           id="g44"
           transform="translate(646.2251,482.2852)"><path
             d="M 0,0 -0.258,0.258 V 1.572 L 0,1.801 C 1.162,1.82 2.09,1.887 2.786,2.001 3.481,2.115 3.93,2.306 4.129,2.572 4.33,2.839 4.462,3.268 4.53,3.859 4.596,4.449 4.663,5.782 4.729,7.86 4.796,9.938 4.83,11.423 4.83,12.319 v 23.094 c 0,0.972 -0.176,1.691 -0.529,2.157 -0.353,0.468 -0.834,0.763 -1.444,0.888 -0.609,0.123 -1.648,0.194 -3.115,0.214 L -0.486,38.9 v 1.344 l 0.228,0.256 c 2.63,-0.095 4.354,-0.142 5.174,-0.142 1.924,0 3.505,0.047 4.744,0.142 L 18.778,28.667 32.183,11.861 C 33.802,9.822 35.451,7.889 37.127,6.06 v 22.122 c 0,0.686 -0.033,2.148 -0.1,4.387 -0.067,2.239 -0.148,3.659 -0.242,4.259 -0.097,0.6 -0.263,1.005 -0.501,1.215 -0.239,0.209 -0.686,0.367 -1.343,0.472 -0.658,0.104 -1.548,0.166 -2.672,0.185 l -0.229,0.229 v 1.315 l 0.229,0.256 c 1.543,-0.095 3.744,-0.142 6.602,-0.142 2.61,0 4.506,0.047 5.688,0.142 l 0.257,-0.256 V 38.929 L 44.587,38.7 c -1.257,-0.019 -2.229,-0.091 -2.915,-0.215 -0.686,-0.123 -1.115,-0.328 -1.287,-0.614 -0.171,-0.286 -0.29,-0.705 -0.357,-1.257 -0.067,-0.554 -0.133,-1.868 -0.2,-3.945 -0.067,-2.077 -0.1,-3.572 -0.1,-4.487 V 14.605 l 0.029,-7.86 C 39.795,4.174 39.833,1.591 39.871,-1 38.918,-0.676 37.27,-0.275 34.926,0.2 l -2.029,2.402 -6.088,7.43 -19.378,24.21 V 12.319 c 0,-0.877 0.033,-2.439 0.1,-4.688 C 7.597,5.383 7.678,4.021 7.774,3.545 7.869,3.068 7.993,2.739 8.146,2.558 8.298,2.377 8.626,2.21 9.131,2.059 9.636,1.905 10.679,1.82 12.261,1.801 L 12.49,1.572 V 0.229 L 12.261,0 C 11.27,0.134 9.67,0.2 7.459,0.2 4.62,0.2 2.134,0.134 0,0"
             style="fill:#003399;fill-opacity:1;fill-rule:nonzero;stroke:none"
             id="path46" /></g><g
           id="g48"
           transform="translate(650.1689,412.2705)"><path
             d="m 0,0 v 1.372 l 6.888,8.518 16.32,21.007 c 2.477,3.164 4.145,5.431 5.002,6.803 h -1.172 l -4.601,0.029 c -4.041,0 -7.293,-0.062 -9.761,-0.186 C 10.208,37.418 8.579,37.29 7.789,37.157 6.997,37.023 6.512,36.838 6.331,36.601 6.149,36.361 6.002,35.795 5.888,34.899 L 5.487,31.126 5.23,30.869 H 3.887 L 3.63,31.126 c 0.095,1.448 0.142,2.602 0.142,3.459 0,2.324 -0.047,4.163 -0.142,5.516 l 0.257,0.256 c 6.802,-0.151 11.557,-0.227 14.262,-0.227 4.497,0 10.404,0.076 17.721,0.227 l 0.257,-0.256 v -1.457 c -2.096,-2.478 -3.563,-4.25 -4.401,-5.316 L 7.917,2.659 19.493,2.459 c 2.305,0 4.63,0.058 6.974,0.172 2.343,0.114 3.887,0.227 4.63,0.342 0.743,0.115 1.252,0.281 1.529,0.501 0.276,0.218 0.462,0.438 0.558,0.657 0.094,0.219 0.247,0.872 0.457,1.958 l 0.628,3.83 0.258,0.228 H 35.87 L 36.099,9.919 C 35.965,8.699 35.832,5.384 35.698,-0.027 l -0.257,-0.23 c -8.041,0.153 -14.386,0.23 -19.035,0.23 -3.259,0 -8.641,-0.077 -16.149,-0.23 z"
             style="fill:#003399;fill-opacity:1;fill-rule:nonzero;stroke:none"
             id="path50" /></g><g
           id="g52"
           transform="translate(660.4868,382.3857)"><path
             d="m 0,0 3.573,-0.113 c 2.344,-0.077 3.877,-0.116 4.601,-0.116 0.648,0 3.383,0.077 8.203,0.229 l 0.229,-0.2 v -1.429 l -0.229,-0.2 C 15.063,-1.867 14.048,-1.925 13.333,-2.001 12.619,-2.076 12.099,-2.219 11.775,-2.43 11.451,-2.639 11.237,-3.129 11.133,-3.901 11.028,-4.673 10.976,-5.745 10.976,-7.116 l -0.058,-6.573 v -13.235 l 0.029,-5.573 c 0.019,-2.153 0.076,-3.544 0.171,-4.173 0.095,-0.629 0.234,-1.048 0.414,-1.258 0.181,-0.21 0.529,-0.385 1.044,-0.529 0.514,-0.143 1.781,-0.252 3.801,-0.328 l 0.229,-0.172 v -1.429 l -0.229,-0.228 c -0.095,0 -1.772,0.056 -5.03,0.171 -1.353,0.039 -2.41,0.057 -3.173,0.057 -0.591,0 -3.315,-0.076 -8.174,-0.228 l -0.229,0.228 v 1.429 L 0,-38.785 c 1.772,0.076 2.954,0.171 3.544,0.285 0.59,0.115 0.986,0.263 1.186,0.443 0.2,0.182 0.362,0.567 0.486,1.159 0.124,0.589 0.196,1.904 0.215,3.943 l 0.028,6.031 v 13.235 L 5.402,-8.117 C 5.383,-5.944 5.33,-4.545 5.245,-3.915 5.159,-3.286 5.025,-2.868 4.845,-2.657 4.663,-2.448 4.316,-2.276 3.801,-2.144 3.287,-2.01 2.019,-1.905 0,-1.829 l -0.229,0.2 V -0.2 Z"
             style="fill:#003399;fill-opacity:1;fill-rule:nonzero;stroke:none"
             id="path54" /></g><g
           id="g56"
           transform="translate(660.187,287.5635)"><path
             d="M 0,0 H 14.462 L 7.288,17.234 Z m -13.034,-16.035 -0.257,0.228 v 1.488 l 0.257,0.228 c 1.391,0.019 2.287,0.09 2.687,0.214 0.4,0.123 0.758,0.371 1.072,0.743 0.315,0.371 0.948,1.586 1.9,3.644 l 3.001,6.517 7.775,17.607 c 1.467,3.448 2.925,6.896 4.373,10.346 h 1.858 l 12.204,-28.696 1.629,-3.83 c 0.476,-1.086 1.025,-2.267 1.644,-3.544 0.619,-1.277 1.048,-2.029 1.286,-2.259 0.238,-0.227 0.533,-0.405 0.886,-0.528 0.353,-0.124 1.138,-0.195 2.358,-0.214 l 0.229,-0.228 v -1.488 l -0.229,-0.228 c -2.02,0.172 -3.84,0.257 -5.459,0.257 -3.163,-0.095 -6.326,-0.18 -9.489,-0.257 l -0.229,0.228 v 1.488 l 0.229,0.228 c 2.134,0.037 3.468,0.128 4.001,0.271 0.534,0.143 0.801,0.471 0.801,0.987 0,0.418 -0.134,0.971 -0.401,1.657 l -3.515,8.717 H -0.972 l -3.115,-7.316 c -0.554,-1.315 -0.829,-2.278 -0.829,-2.888 0,-0.476 0.257,-0.828 0.771,-1.057 0.515,-0.228 1.811,-0.352 3.888,-0.371 L 0,-14.319 v -1.488 l -0.229,-0.228 c -2.458,0.153 -4.611,0.228 -6.459,0.228 -2.097,0 -4.212,-0.075 -6.346,-0.228"
             style="fill:#003399;fill-opacity:1;fill-rule:nonzero;stroke:none"
             id="path58" /></g><path
           d="m 634.778,251.173 h -4.602 V 750 h 4.602 z"
           style="fill:#009245;fill-opacity:1;fill-rule:nonzero;stroke:none"
           id="path60" /><path
           d="m 708,250.516 h -4.602 V 749.344 H 708 Z"
           style="fill:#c1272d;fill-opacity:1;fill-rule:nonzero;stroke:none"
           id="path62" /><g
           id="g64"
           transform="translate(229.7061,652.2788)"><path
             d="M 0,0 3.411,1.541 4.129,-0.045 V -0.06 L 9.545,-11.969 7.436,-13.81 c -2.783,-2.423 -5.551,-5.011 -8.214,-7.719 -1.272,-1.302 -2.529,-2.634 -3.815,-4.04 -0.524,-0.569 -1.063,-1.167 -1.601,-1.765 l -2.798,2.453 h -0.015 v 0.015 0.015 l 0.868,6.418 v 0.045 c 0.673,0.703 1.347,1.407 2.035,2.095 0.853,0.883 1.72,1.735 2.603,2.604 1.301,1.256 2.618,2.483 3.935,3.68 l -0.883,1.93 -1.736,3.83 z"
             style="fill:#003399;fill-opacity:1;fill-rule:nonzero;stroke:none"
             id="path66" /></g><g
           id="g68"
           transform="translate(184.2383,569.2578)"><path
             d="M 0,0 -3.083,1.721 C -3.127,1.631 -3.172,1.556 -3.217,1.481 -3.875,0.329 -4.444,-0.673 -4.908,-1.541 -4.982,-1.691 -5.057,-1.825 -5.132,-1.96 l -1.601,-2.843 0.105,-0.059 4.129,-2.305 1.601,-0.897 c -1.122,-5.446 -1.915,-10.593 -2.424,-15.59 l -11.37,-2.349 -3.681,-0.763 h -0.015 v -0.03 l -0.119,-2.903 c -0.031,-0.942 -0.06,-2.663 -0.076,-4.742 -0.029,-5.222 -0.014,-12.613 0.076,-14.992 l 0.119,-2.932 15.066,-3.112 c 0.509,-4.862 1.317,-10.009 2.439,-15.575 l -13.45,-7.66 0.882,-2.858 c 0.464,-1.526 1.661,-5.326 2.903,-9.186 0.239,-0.733 0.479,-1.481 0.718,-2.215 l 0.538,-1.615 0.554,0.179 2.992,0.988 2.14,5.161 c 0.015,0.03 0.045,0.075 0.06,0.135 -0.404,1.287 -0.823,2.573 -1.197,3.756 v 0.014 c -0.239,0.763 -0.464,1.452 -0.674,2.11 l 2.379,1.347 4.594,2.618 h 0.015 l 5.042,7.959 c 0,0 -0.015,0 0,0.015 -0.015,0.06 -0.03,0.119 -0.045,0.18 -0.239,1.197 -0.464,2.364 -0.673,3.5 -0.973,5.222 -1.646,10.025 -2.02,14.573 l -0.225,2.783 -14.736,3.037 c -0.045,3.74 -0.045,9.59 0,13.346 l 14.736,3.037 0.225,2.798 c 0.508,6.343 1.526,12.911 3.112,20.093 l 0.598,2.708 -3.471,1.945 -3.082,1.721 z"
             style="fill:#003399;fill-opacity:1;fill-rule:nonzero;stroke:none"
             id="path70" /></g><g
           id="g72"
           transform="translate(487.3721,476.0176)"><path
             d="m 0,0 -2.334,0.764 -2.259,5.132 c 0.209,0.643 0.419,1.286 0.613,1.915 0.12,0.374 0.24,0.748 0.344,1.106 0.24,0.733 0.449,1.422 0.629,2.035 l -8.274,4.743 -2.394,1.376 2.244,4.609 0.464,-0.09 1.107,1.93 1.945,-1.107 13.54,-7.78 -0.613,-2.708 C 4.683,10.488 3.83,7.706 3.276,5.925 3.231,5.79 3.202,5.656 3.157,5.536 2.813,4.489 2.469,3.396 2.109,2.305 Z"
             style="fill:#003399;fill-opacity:1;fill-rule:nonzero;stroke:none"
             id="path74" /></g><g
           id="g76"
           transform="translate(331.6465,363.7432)"><path
             d="m 0,0 c -4.094,0 -8.199,0.027 -9.882,0.081 l -2.948,0.095 -3.117,15.091 c -4.994,0.513 -10.214,1.326 -15.581,2.424 l -7.493,-13.39 -2.848,0.815 c -3.24,0.928 -15.605,4.926 -18.821,6.117 l -2.744,1.018 1.723,15.299 c -4.8,2.129 -9.539,4.53 -14.146,7.166 l -11.252,-10.347 -2.434,1.586 c -2.562,1.668 -13.346,9.416 -16.041,11.629 l -2.214,1.815 6.309,14.009 c -4.141,3.78 -7.836,7.439 -11.205,11.093 l -13.927,-6.328 -1.818,2.271 c -0.441,0.55 -1.15,1.493 -2.013,2.67 l -0.725,0.996 c -1.116,1.534 -2.431,3.336 -3.704,5.1 l 6.064,4.381 c 1.268,-1.755 2.576,-3.55 3.686,-5.076 l 0.72,-0.988 c 0.024,-0.033 0.049,-0.066 0.074,-0.099 l 13.545,6.154 1.832,-2.061 c 4.189,-4.71 8.929,-9.412 14.491,-14.37 l 2.047,-1.826 -6.167,-13.694 c 2.964,-2.223 7.685,-5.633 10.745,-7.777 l 11.009,10.125 2.395,-1.428 c 5.876,-3.502 12.002,-6.606 18.209,-9.222 l 2.576,-1.087 -1.683,-14.952 c 3.564,-1.205 9.108,-3 12.705,-4.124 l 7.278,13.007 2.713,-0.598 c 7.019,-1.548 13.783,-2.595 20.102,-3.111 L -9.75,22.235 -6.706,7.509 C -2.948,7.473 2.87,7.472 6.612,7.508 l 2.913,14.556 2.754,0.274 c 7.419,0.735 13.999,1.791 20.117,3.226 l 2.724,0.638 7.417,-13.045 c 3.616,1.124 9.201,2.925 12.726,4.119 l -1.683,14.829 2.537,1.103 c 6.333,2.75 12.424,5.89 18.106,9.329 l 2.389,1.446 11.157,-10.148 c 3.003,2.105 7.688,5.541 10.708,7.801 l -6.287,13.579 2.116,1.844 c 5.588,4.87 10.3,9.581 14.406,14.403 l 1.822,2.139 13.753,-6.196 c 1.741,2.326 4.218,5.744 6.262,8.617 0.681,0.948 1.295,1.808 1.805,2.55 l 6.168,-4.23 c -0.536,-0.783 -1.182,-1.69 -1.889,-2.671 -2.465,-3.465 -6.721,-9.341 -8.299,-11.263 l -1.816,-2.212 -13.963,6.289 c -3.345,-3.748 -7.05,-7.444 -11.227,-11.202 L 107.78,39.35 105.435,37.523 C 103.028,35.65 92.358,27.754 89.405,25.914 L 87.003,24.418 75.688,34.71 C 71.199,32.104 66.49,29.68 61.633,27.473 L 63.357,12.286 60.654,11.249 C 57.583,10.07 45.168,6.083 41.792,5.116 L 38.963,4.306 31.367,17.668 C 26.503,16.634 21.36,15.815 15.777,15.186 L 12.773,0.18 9.81,0.081 C 8.181,0.027 4.096,0 0,0"
             style="fill:#003399;fill-opacity:1;fill-rule:nonzero;stroke:none"
             id="path78" /></g><g
           id="g80"
           transform="translate(451.7935,626.3208)"><path
             d="m 0,0 -2.947,-1.376 -6.493,-3.023 -1.841,2.125 c -4.473,5.131 -9.201,9.859 -14.452,14.438 l -2.095,1.825 6.194,13.63 c -1.96,1.481 -4.668,3.486 -7.197,5.311 -1.361,1.003 -2.588,1.87 -3.605,2.573 l -10.937,-10.158 -2.409,1.436 c -5.88,3.501 -11.999,6.613 -18.208,9.231 l -2.588,1.077 1.705,14.902 c -3.516,1.227 -9.111,3.037 -12.687,4.114 l -7.331,-13.091 -2.738,0.658 c -6.867,1.616 -13.435,2.663 -20.048,3.202 l -2.798,0.225 -3.052,14.662 c -3.681,0.09 -9.516,0.09 -13.301,0.015 l -2.932,-14.677 -2.798,-0.225 c -7.301,-0.613 -13.839,-1.661 -20.004,-3.202 l -2.738,-0.673 -7.57,13.091 c -3.531,-1.077 -9.097,-2.872 -12.612,-4.114 l 1.69,-14.887 -2.604,-1.092 c -6.104,-2.543 -12.178,-5.64 -18.058,-9.201 l -2.379,-1.437 -11.131,10.129 c -0.583,-0.418 -1.197,-0.852 -1.78,-1.271 -1.901,-1.362 -4.1,-2.963 -6.089,-4.444 0,-0.015 -0.016,-0.015 -0.016,-0.015 -0.284,-0.209 -0.553,-0.404 -0.822,-0.613 l -2.23,3.007 3.352,7.107 c 0.493,0.359 0.987,0.703 1.451,1.047 2.109,1.511 3.591,2.544 4.413,3.082 l 0.973,0.629 h 0.015 l 1.436,0.927 11.356,-10.323 c 4.593,2.678 9.306,5.072 14.049,7.166 l -1.721,15.082 2.634,1.077 c 3.306,1.331 15.709,5.356 18.896,6.179 l 2.753,0.718 7.66,-13.256 c 4.922,1.107 10.084,1.93 15.634,2.484 l 2.963,14.766 2.738,0.285 c 0.15,0.015 0.314,0.015 0.479,0.03 l 0.329,0.015 0.119,0.015 c 3.995,0.179 15.934,0.164 19.181,-0.06 l 2.813,-0.195 3.097,-14.856 c 5.162,-0.524 10.308,-1.347 15.605,-2.499 l 7.421,13.256 2.768,-0.688 c 3.351,-0.838 15.919,-4.878 19.105,-6.209 l 2.589,-1.093 -1.721,-15.051 c 4.803,-2.124 9.531,-4.533 14.139,-7.166 l 11.056,10.278 0.21,-0.134 h 0.014 l 2.185,-1.302 c 0.284,-0.165 0.598,-0.374 0.957,-0.613 1.661,-1.093 4.025,-2.768 5.461,-3.816 0.015,-0.014 0.045,-0.03 0.06,-0.045 1.511,-1.077 3.052,-2.199 4.474,-3.291 h 0.015 c 0.224,-0.15 0.448,-0.329 0.673,-0.494 2.05,-1.526 3.77,-2.857 4.623,-3.546 l 2.229,-1.825 -1.706,-3.755 -4.592,-10.144 c 3.964,-3.576 7.66,-7.271 11.191,-11.191 l 4.623,2.169 1.436,0.673 1.586,-3.396 z m -129.416,69.167 c -0.022,0 -0.045,-0.001 -0.068,-0.002 z"
             style="fill:#003399;fill-opacity:1;fill-rule:nonzero;stroke:none"
             id="path82" /></g><g
           id="g84"
           transform="translate(475.2832,519.5557)"><path
             d="m 0,0 v 0.015 l 0.045,0.494 2.947,0.524 h 0.015 l 0.21,0.044 11.61,2.394 c 0.09,3.666 0.09,9.471 0,13.316 L 0.045,19.705 -0.18,22.517 c -0.613,7.301 -1.66,13.839 -3.201,20.004 l -0.674,2.752 5.79,3.292 5.371,3.067 2.769,-0.284 1.062,-1.84 -0.868,-4.758 V 44.72 L 6.284,42.565 4.533,41.578 c 1.108,-4.922 1.93,-10.084 2.484,-15.62 l 7.795,-1.556 4.698,-0.942 c 0.987,-1.601 1.9,-3.083 2.738,-4.429 0.015,-0.284 0.029,-0.598 0.029,-0.943 0.045,-1.541 0.09,-3.695 0.09,-5.984 C 22.397,7.421 22.337,2.14 22.188,0.135 L 21.993,-2.693 7.017,-5.775 C 6.718,-8.737 6.299,-11.774 5.775,-14.961 l -0.449,0.074 -3.246,0.539 z"
             style="fill:#003399;fill-opacity:1;fill-rule:nonzero;stroke:none"
             id="path86" /></g><g
           id="g88"
           transform="translate(331.5474,489.123)"><path
             d="M 0,0 59.153,-40.844 38.587,27.914 95.698,71.625 23.965,73.252 0.013,141.124 -23.731,73.375 -95.555,71.641 -38.466,28.162 -59.038,-40.839 Z m -72.29,-59.101 25.178,84.444 -69.932,53.261 87.962,2.125 L -0.01,163.672 29.3,80.614 117.146,78.621 47.234,25.111 72.42,-59.096 0.003,-9.094 Z"
             style="fill:#003399;fill-opacity:1;fill-rule:nonzero;stroke:none"
             id="path90" /></g><g
           id="g92"
           transform="translate(331.5474,489.123)"><path
             d="M 0,0 59.153,-40.844 38.587,27.914 95.698,71.625 23.965,73.252 0.013,141.124 -23.731,73.375 -95.555,71.641 -38.466,28.162 -59.038,-40.839 Z m -72.29,-59.101 25.178,84.444 -69.932,53.261 87.962,2.125 L -0.01,163.672 29.3,80.614 117.146,78.621 47.234,25.111 72.42,-59.096 0.003,-9.094 Z"
             style="fill:none;stroke:#003399;stroke-width:4;stroke-linecap:butt;stroke-linejoin:miter;stroke-miterlimit:10;stroke-dasharray:none;stroke-opacity:1"
             id="path94" /></g><g
           id="g96"
           transform="translate(360.5557,569.8037)"><path
             d="m 0,0 2.521,-0.06 68.67,19.111 C 55.146,46.305 28.608,65.824 -2.323,73.119 l 2.06,-72.38 z m 3.082,-4.563 -6.279,0.149 -1.531,4.319 -2.246,78.814 2.787,-0.586 C 30.146,70.911 59.567,49.268 76.531,18.753 l 1.386,-2.489 z"
             style="fill:#003399;fill-opacity:1;fill-rule:nonzero;stroke:none"
             id="path98" /></g><g
           id="g100"
           transform="translate(232.1763,590.0449)"><path
             d="m 0,0 68.428,-20.195 2.153,0.055 0.336,0.963 3.094,72.308 C 43.198,46.274 16.481,27.095 0,0 m 67.838,-24.701 -74.601,22.017 1.42,2.466 C 12.12,30.13 41.748,51.394 75.943,58.122 l 2.798,0.55 -3.368,-78.704 -1.578,-4.514 z"
             style="fill:#003399;fill-opacity:1;fill-rule:nonzero;stroke:none"
             id="path102" /></g><g
           id="g104"
           transform="translate(224.1841,485.1387)"><path
             d="m 0,0 c 4.74,-11.454 11.215,-22.006 19.276,-31.413 l 40.975,59.806 0.417,1.405 -69.063,25.701 c -0.52,-5.56 -0.64,-11.148 -0.361,-16.682 3.179,0.937 6.915,1.307 8.46,0.083 v 0.002 C 1.366,37.562 1.616,35.279 0.447,32.119 1.973,31.162 2.617,28.883 3.073,26.487 3.863,21.658 2.113,9.182 0,0 m 19.735,-38.685 -1.908,2.12 C 8.378,-26.062 0.892,-14.108 -4.427,-1.034 l -0.27,0.664 0.165,0.698 c 2.31,9.767 3.799,21.626 3.185,25.378 -0.204,1.076 -0.4,1.762 -0.551,2.185 -0.001,0 -0.002,-10e-4 -0.004,-0.002 l -7.721,-5.877 5.859,11.661 c 0.269,0.724 0.382,1.218 0.427,1.536 -1.388,0.046 -4,-0.351 -6.467,-1.576 l -2.979,-1.478 -0.256,3.316 c -0.597,7.742 -0.433,15.615 0.489,23.403 l 0.334,2.834 75.525,-28.103 2.586,-1.983 -1.544,-5.185 z"
             style="fill:#003399;fill-opacity:1;fill-rule:nonzero;stroke:none"
             id="path106" /></g><g
           id="g108"
           transform="translate(285.376,422.835)"><path
             d="M 0,0 C 29.056,-12.51 61.995,-12.657 91.244,-0.408 L 46.152,58.1 Z m 46.07,-13.979 c -17.275,0 -34.532,3.691 -50.568,11.068 l -2.597,1.194 50.189,63.182 3.072,2.137 3.005,-2.067 0.216,-0.279 48.91,-63.462 -2.598,-1.163 C 79.897,-10.444 62.975,-13.979 46.07,-13.979"
             style="fill:#003399;fill-opacity:1;fill-rule:nonzero;stroke:none"
             id="path110" /></g><g
           id="g112"
           transform="translate(378.8306,513.0972)"><path
             d="m 0,0 40.064,-60.388 c 11.444,13.016 19.919,28.591 24.617,45.256 -1.255,2.67 -1.945,4.799 -2.161,6.653 -0.375,3.17 0.772,5.029 1.803,6.03 0.916,0.889 2.118,1.45 3.463,1.642 1.347,8.951 1.648,18.016 0.898,27.016 L -0.464,1.558 Z m 39.503,-67.661 -43.611,65.737 -1.597,5.352 2.438,1.896 0.339,0.121 75.497,26.914 0.306,-2.828 C 74.06,18.57 73.736,7.486 71.916,-3.412 l -0.362,-2.172 -2.18,0.322 c -0.832,0.123 -1.53,-0.026 -1.923,-0.406 -0.43,-0.418 -0.597,-1.23 -0.473,-2.286 0.173,-1.492 0.861,-3.446 2.105,-5.979 l 0.374,-0.762 -0.225,-0.819 c -5.089,-18.58 -14.698,-35.887 -27.79,-50.049 z"
             style="fill:#003399;fill-opacity:1;fill-rule:nonzero;stroke:none"
             id="path114" /></g><g
           id="g116"
           transform="translate(545.3779,490.8447)"><path
             d="M 0,0 C 0.269,-1.721 -0.12,-3.142 -1.152,-4.249 -2.185,-5.371 -4.16,-6.358 -7.077,-7.227 l -2.843,5.163 c 0.18,4.128 -1.197,8.079 -4.129,11.864 1.212,1.032 3.097,2.065 5.67,3.082 1.9,0.868 1.556,1.122 -1.017,0.778 -2.753,-0.509 -4.907,-1.197 -6.449,-2.065 h -0.523 c 1.556,5.506 4.039,10.742 7.48,15.725 0.853,2.244 0.345,2.154 -1.541,-0.255 -2.932,-4.114 -5.506,-8.498 -7.735,-13.151 -1.032,1.033 -1.81,2.933 -2.319,5.686 -0.688,3.261 -1.211,3.351 -1.556,0.254 0.524,-3.95 1.287,-6.792 2.319,-8.513 -3.785,-5.835 -6.792,-8.169 -9.021,-6.957 1.376,8.243 3.186,16.921 5.416,26.033 3.95,3.95 7.39,5.251 10.308,3.875 4.129,3.261 7.645,3.86 10.578,1.795 1.541,-2.573 2.229,-5.102 2.065,-7.6 -0.18,-2.499 -1.033,-5.281 -2.588,-8.379 3.276,0 4.982,-1.287 5.161,-3.86 C 0.822,10.398 -1.93,6.179 -6.044,3.605 -2.274,2.918 -0.255,1.721 0,0 m -7.721,-22.173 c -0.613,-4.294 -2.019,-7.989 -4.264,-11.086 -7.046,-8.08 -9.964,-12.897 -8.767,-14.438 1.9,-3.262 1.556,-6.957 -1.032,-11.086 -3.771,-4.639 -8.768,-9.8 -14.946,-15.471 1.72,-3.44 0.433,-6.358 -3.876,-8.767 -4.982,-2.752 -10.473,-5.147 -16.487,-7.211 11.161,8.422 18.043,17.445 20.616,27.065 3.606,3.262 6.793,5.416 9.546,6.448 2.409,1.541 2.828,2.23 1.286,2.065 -3.096,-1.212 -6.358,-3.097 -9.799,-5.67 3.261,6.522 5.58,13.57 6.957,21.14 6.703,6.523 10.922,11.685 12.642,15.47 2.409,3.606 2.484,4.384 0.255,2.319 -2.574,-4.309 -6.538,-8.857 -11.865,-13.674 2.409,7.39 4.564,15.649 6.449,24.76 0.852,5.327 0.598,6.27 -0.778,2.829 l -2.573,-9.022 c -1.198,3.606 -2.574,6.358 -4.13,8.243 l 3.352,-10.816 c -0.689,-4.295 -2.32,-10.399 -4.893,-18.314 -2.409,6.882 -5.58,13.062 -9.546,18.568 -3.605,4.473 -4.204,4.548 -1.795,0.254 3.95,-5.67 7.212,-13.151 9.8,-22.427 -2.064,-8.244 -4.473,-15.126 -7.226,-20.617 -2.065,3.082 -4.205,5.236 -6.449,6.433 -1.72,0.868 -1.72,0.344 0,-1.541 2.244,-2.229 4.04,-4.473 5.416,-6.703 -2.064,-4.981 -4.773,-9.365 -8.124,-13.15 -3.351,-3.785 -6.657,-6.957 -9.919,-9.546 4.129,6.358 5.506,13.405 4.129,21.14 0,1.377 1.062,2.499 3.217,3.367 2.154,0.852 2.873,1.796 2.199,2.828 -1.9,3.785 -2.842,6.792 -2.842,9.021 1.376,0.689 3.44,0.689 6.193,0 2.23,1.556 2.005,3.741 -0.658,6.583 -2.663,2.828 -4.339,6.912 -5.027,12.239 0,3.097 2.065,4.219 6.194,3.351 1.885,0.18 2.065,2.409 0.509,6.703 l -4.369,5.925 c -3.097,6.882 -1.81,9.38 3.86,7.481 l 6.703,-4.13 c 4.473,-1.705 6.613,1.301 6.448,9.037 0,1.705 1.332,2.094 3.995,1.152 2.663,-0.943 5.117,1.077 7.346,6.059 2.229,2.409 3.95,0.179 5.162,-6.702 -0.523,-9.112 1.705,-13.406 6.703,-12.897 0.852,-0.509 0.987,-2.918 0.388,-7.212 m -57.885,-57.242 c -3.441,-3.771 -4.549,-7.721 -3.352,-11.85 -4.817,-2.589 -9.456,-6.358 -13.929,-11.34 -4.458,-4.998 -7.855,-9.202 -10.174,-12.643 -2.318,-3.441 -4.772,-5.491 -7.346,-6.179 -2.932,-1.377 -6.283,-0.688 -10.053,2.065 l -1.033,-6.449 -17.28,-10.578 -8.498,-3.605 c 0.673,1.721 1.106,4.638 1.286,8.767 l 3.082,2.574 c 11.864,6.194 18.747,11.864 20.632,17.01 2.409,4.31 4.982,7.871 7.735,10.713 2.753,2.827 4.728,6.314 5.925,10.443 l 0.269,6.179 -0.778,6.449 c 2.753,-3.097 5.237,-3.786 7.481,-2.065 3.605,6.702 7.465,12.942 11.595,18.687 4.129,5.76 8.513,11.132 13.151,16.113 4.638,4.982 8.588,9.202 11.85,12.643 l -0.255,-6.449 c -10.308,-12.716 -16.757,-21.394 -19.33,-26.048 -8.768,-13.225 -14.692,-23.713 -17.789,-31.449 -1.9,-4.294 -4.638,-7.734 -8.259,-10.308 -2.738,-1.376 -4.803,-2.842 -6.179,-4.383 -1.212,-2.23 -0.523,-2.844 2.065,-1.811 1.72,1.721 3.605,3.007 5.67,3.875 3.785,1.885 11.849,10.832 24.238,26.811 l -0.269,9.021 2.842,4.893 c -0.18,-4.982 0.254,-7.72 1.287,-8.243 1.032,-0.509 2.453,0.897 4.249,4.249 1.81,3.35 6.238,12.596 13.286,27.723 -1.556,-4.638 -1.631,-8.677 -0.255,-12.119 -4.129,-2.918 -5.252,-7.915 -3.351,-14.962 z m -53.876,-76.05 c -4.474,0.689 -11.701,1.976 -21.664,3.876 l 9.021,3.082 c 4.818,-1.033 7.571,0 8.259,3.097 0.673,-3.606 2.139,-6.957 4.384,-10.055 m 19.33,-6.837 c 4.982,-0.419 8.767,-0.21 11.34,0.658 4.638,1.886 14.184,8.932 28.622,21.141 13.914,10.473 25.689,17.789 35.324,21.903 2.917,1.721 3.052,2.963 0.374,3.741 -2.663,0.778 -6.658,1.168 -11.985,1.168 -1.72,-1.377 -1.541,-2.499 0.524,-3.352 2.394,0.164 4.115,0 5.147,-0.524 -11.505,-6.014 -21.141,-12.029 -28.876,-18.043 0.688,3.95 1.287,10.742 1.811,20.362 -0.18,3.097 -1.212,5.85 -3.097,8.259 -1.197,1.72 0.433,3.261 4.907,4.637 l 3.606,1.033 v -5.67 l -4.907,1.286 0.523,-2.573 c 1.032,-1.9 2.918,-3.187 5.671,-3.875 l 13.914,-0.778 6.193,0.27 c 7.227,-0.18 10.743,-1.945 10.578,-5.297 -0.179,-3.352 0.075,-6.479 0.763,-9.411 1.212,-7.391 4.13,-14.438 8.768,-21.14 -1.033,-3.082 -3.261,-6.703 -6.703,-10.817 l -13.406,-8.768 c -11.52,-8.259 -27.154,-19.001 -46.918,-32.227 -14.094,-0.344 -31.03,0.763 -50.794,3.351 -14.259,1.886 -30.671,5.491 -49.239,10.832 l -4.129,1.018 1.81,1.81 c 2.918,3.786 4.504,6.314 4.773,7.601 0.254,1.302 -0.18,4.219 -1.302,8.768 -1.107,4.562 -4.338,9.933 -9.665,16.113 v 1.555 l 3.875,0.509 c 10.652,-0.688 20.153,-2.064 28.487,-4.129 8.333,-2.049 18.253,-3.95 29.773,-5.671 11.176,-2.064 19.256,-3.306 24.238,-3.74 m -36.865,-52.455 c -4.638,0 -7.571,-0.523 -8.768,-1.555 h -3.606 c -4.997,3.441 -8.946,6.627 -11.864,9.544 l -12.119,9.546 c 2.229,1.198 7.047,0.763 14.438,-1.301 z m 9.53,-2.843 2.843,-0.507 -1.032,-1.288 -6.703,-2.064 c -2.918,-2.589 -6.359,-4.294 -10.308,-5.162 l -4.384,0.778 -1.033,3.097 c 1.033,1.541 2.364,2.663 3.995,3.351 1.631,0.689 3.74,1.288 6.314,1.795 l 6.193,-1.032 z m -33.513,0.525 c -1.542,1.196 -1.976,2.393 -1.288,3.605 l 5.163,-4.384 c -1.033,-0.688 -2.319,-0.434 -3.875,0.779 m -28.098,36.61 -1.287,4.114 -6.972,-8.767 -5.67,-3.606 c -2.574,-2.229 -5.237,-3.096 -7.99,-2.573 l -9.022,4.384 4.639,2.318 1.286,-1.032 c -0.853,-2.573 0.18,-2.228 3.097,1.032 l 7.99,7.736 c 0.524,4.637 -0.598,10.607 -3.352,17.909 -2.737,7.316 -4.802,11.909 -6.179,13.794 -0.344,1.556 -4.294,1.9 -11.864,1.032 4.473,2.245 9.71,2.409 15.724,0.524 l 6.195,-2.588 3.351,1.451 1.795,-1.705 c 8.768,-9.456 13.72,-15.89 14.827,-19.33 1.122,-3.442 1.257,-6.793 0.389,-10.055 -3.262,-4.294 -5.581,-5.85 -6.957,-4.638 m -65.995,-8.379 c -8.947,-1.989 -17.026,-3.74 -24.238,-5.296 -18.044,-3.261 -35.833,-5.924 -53.367,-7.989 -4.473,1.212 -17.37,7.824 -38.676,19.854 -15.126,9.111 -25.688,16.503 -31.718,22.172 -6.867,7.391 -9.62,11.865 -8.243,13.406 4.473,7.391 7.48,13.915 9.021,19.599 0.689,2.394 0.868,4.294 0.524,5.671 -1.9,5.835 -0.524,8.842 4.114,9.022 11.521,0.688 19.256,0.852 23.206,0.509 1.72,-0.166 2.842,0.343 3.351,1.555 l 3.875,7.736 -2.319,1.032 -3.352,-5.162 -0.269,5.924 c 0,0.869 0.524,1.123 1.556,0.779 7.211,-1.885 10.563,-4.294 10.054,-7.227 -2.244,-3.77 -3.276,-8.064 -3.097,-12.882 l 0.254,-13.405 c -9.111,6.015 -18.896,11.341 -29.384,15.979 1.197,0.179 2.573,0.299 4.114,0.389 1.557,0.09 2.589,0.643 3.098,1.676 0.524,1.032 -0.419,1.631 -2.828,1.811 -5.326,0 -8.768,-0.435 -10.324,-1.288 -1.196,-1.376 -0.942,-2.842 0.779,-4.383 12.373,-6.195 23.295,-12.388 32.751,-18.568 14.946,-9.455 26.541,-17.19 34.799,-23.205 8.08,0.165 19.421,1.287 34.037,3.352 l 22.159,4.129 c 9.112,1.72 18.567,3.172 28.366,4.383 3.606,0.509 8.17,0.853 13.661,1.033 5.505,0.165 10.577,0.598 15.215,1.287 4.474,-8.424 7.212,-15.815 8.244,-22.173 0.524,-3.262 0.09,-5.072 -1.287,-5.416 -20.452,-7.57 -35.144,-12.328 -44.076,-14.304 m 6.179,-10.712 c -7.211,-7.047 -15.38,-13.75 -24.492,-20.108 l -3.097,1.032 c 5.327,3.277 12.897,8.603 22.696,15.994 l 4.384,4.893 -2.319,0.254 c -3.277,-2.917 -7.017,-5.88 -11.221,-8.887 -4.204,-3.008 -9.066,-5.895 -14.572,-8.633 l -7.466,-3.621 1.287,-1.541 5.67,-0.777 c 3.262,-2.066 4.638,-4.13 4.129,-6.18 -1.72,-2.588 -4.473,-2.932 -8.258,-1.032 l -6.179,3.351 c -2.244,2.23 -4.474,3.771 -6.703,4.638 l -2.589,2.066 1.033,2.573 7.735,-3.098 h 2.319 l -1.287,4.639 9.276,5.684 c 2.409,0.854 3.442,2.32 3.097,4.37 l 0.779,4.653 c 3.949,-0.868 8.243,-0.225 12.897,1.93 4.637,2.154 9.021,3.396 13.135,3.74 2.589,-1.721 2.499,-3.696 -0.254,-5.94 m -36.865,48.221 -15.47,-2.589 3.605,10.324 z m -59.561,62.135 2.842,3.605 6.703,-9.545 3.86,-6.957 1.301,-3.86 c -2.408,1.197 -4.473,3.008 -6.194,5.401 l -4.129,5.416 z m -12.119,24.222 1.556,1.556 7.211,-12.118 -0.763,-1.541 z m 47.442,-60.324 -3.351,4.384 c -1.032,1.212 -2.454,1.466 -4.249,0.777 -1.81,-0.687 -3.232,0.345 -4.264,3.098 -4.638,-2.753 -9.366,-1.721 -14.168,3.081 l -8.513,10.324 -7.99,13.659 -2.843,2.066 c -0.015,-0.016 -0.029,-0.016 -0.044,-0.016 -0.15,-0.104 -0.314,-0.194 -0.464,-0.284 -0.314,-0.164 -0.643,-0.314 -0.972,-0.448 h -0.016 c -1.017,-0.36 -2.125,-0.525 -3.292,-0.449 -0.239,0.014 -0.463,0.045 -0.703,0.075 -0.239,0.045 -0.463,0.074 -0.688,0.134 l -10.308,6.658 c -2.409,2.229 -7.571,11.087 -15.471,26.556 -10.487,19.929 -17.624,34.98 -21.409,45.109 -2.738,8.424 -4.549,13.75 -5.416,15.994 -0.853,2.23 -1.197,2.274 -1.018,0.12 0.165,-2.14 1.452,-6.957 3.861,-14.438 2.408,-7.466 6.882,-18.432 13.405,-32.87 5.67,-11.685 11.266,-22.337 16.757,-31.957 -12.717,13.749 -21.919,26.63 -27.589,38.66 -5.671,11.864 -9.441,22.86 -11.341,33.005 -0.853,3.605 -1.376,9.156 -1.541,16.637 -0.18,7.466 -0.09,11.639 0.254,12.492 0.853,2.589 2.065,3.696 3.606,3.352 1.033,0 3.396,-2.439 7.092,-7.346 3.695,-4.893 8.722,-15.889 15.081,-33.006 6.359,-17.1 10.278,-28.306 11.73,-33.632 1.466,-5.327 2.932,-9.98 4.383,-13.93 1.467,-3.949 3.232,-7.989 5.282,-12.118 3.097,-6.18 6.194,-10.399 9.291,-12.628 0.628,-0.434 1.212,-0.822 1.78,-1.152 0.33,-0.179 0.644,-0.359 0.943,-0.508 0.224,-0.106 0.449,-0.21 0.673,-0.315 0.269,-0.104 0.539,-0.21 0.793,-0.299 0.239,-0.089 0.479,-0.15 0.718,-0.21 0.225,-0.044 0.449,-0.089 0.659,-0.12 0.149,-0.029 0.314,-0.029 0.463,-0.029 0.045,-0.015 0.105,-0.015 0.15,-0.015 0.18,0 0.359,0.015 0.523,0.03 0.18,0.014 0.345,0.045 0.509,0.09 0.165,0.03 0.315,0.075 0.479,0.134 0.15,0.06 0.299,0.12 0.449,0.195 0.149,0.089 0.314,0.179 0.464,0.299 0.135,0.105 0.284,0.224 0.419,0.359 l -6.957,14.169 c -1.212,2.588 -1.048,5.116 -3.456,4.428 l 0.927,-1.661 c -0.838,0.36 -1.796,0.389 -2.887,0.075 -0.18,-0.015 -0.345,-0.015 -0.509,-0.015 h -0.09 c -0.045,0 -0.09,0 -0.135,0.015 -0.119,0 -0.224,0 -0.329,0.015 -0.703,0.06 -1.317,0.225 -1.84,0.494 -0.374,0.195 -0.703,0.449 -0.988,0.733 -0.089,0.12 -0.194,0.239 -0.284,0.359 -0.075,0.119 -0.164,0.254 -0.239,0.389 -0.105,0.194 -0.194,0.404 -0.284,0.629 -0.075,0.223 -0.15,0.464 -0.195,0.717 -0.045,0.254 -0.089,0.524 -0.12,0.793 -0.029,0.27 -0.044,0.554 -0.044,0.853 v 0.09 c 0,0.06 0,0.104 0.015,0.165 v 0.194 c 0,0.18 0.014,0.374 0.029,0.554 0.015,0.313 0.06,0.643 0.105,0.973 0.344,3.096 1.466,8.422 3.351,15.978 0.3,1.002 0.599,1.99 0.928,2.992 0.15,0.464 0.3,0.928 0.449,1.392 0.149,0.464 0.299,0.928 0.464,1.391 0.359,1.062 0.718,2.124 1.107,3.187 0.344,0.973 0.703,1.96 1.077,2.947 0.015,0.015 0.015,0.015 0.015,0.031 0.18,0.493 0.374,0.987 0.569,1.48 0.179,0.494 0.389,0.987 0.583,1.481 0,0.016 0,0.016 0.015,0.031 0.389,0.987 0.793,1.96 1.212,2.947 0.404,0.973 0.838,1.96 1.272,2.947 0.419,0.973 0.867,1.946 1.316,2.933 0.015,0.015 0.015,0.045 0.03,0.059 0.539,1.183 1.108,2.35 1.676,3.532 0.568,1.167 1.152,2.334 1.735,3.486 0.031,0.044 0.045,0.089 0.06,0.119 0.045,0.075 0.075,0.165 0.12,0.239 0.104,0.195 0.194,0.374 0.299,0.569 0.031,0.075 0.075,0.135 0.105,0.21 0.074,0.135 0.15,0.269 0.224,0.403 0.3,0.569 0.614,1.152 0.913,1.722 0.673,1.271 1.362,2.543 2.08,3.814 -0.599,-3.949 -1.002,-7.45 -1.182,-10.503 -0.015,-0.403 -0.045,-0.807 -0.06,-1.196 -0.03,-0.599 -0.045,-1.167 -0.045,-1.721 v -0.509 c -6.359,-14.258 -10.997,-25.778 -13.929,-34.545 -1.541,-6.36 -1.451,-9.456 0.269,-9.277 l 2.05,1.032 -1.541,3.606 1.032,2.828 3.097,-5.401 1.796,1.287 1.556,-2.32 -1.556,-2.334 11.61,-16.756 2.827,2.319 2.065,-2.319 c -3.441,-3.426 -4.818,-5.671 -4.129,-6.704 3.097,-5.669 5.939,-10.217 8.513,-13.659 5.162,-7.555 9.366,-9.71 12.627,-6.448 1.033,0.867 2.334,0.688 3.876,-0.509 1.541,-1.212 3.261,-3.785 5.161,-7.735 l -0.269,5.925 -9.531,9.021 -5.416,10.832 c -4.473,6.36 -7.645,11.251 -9.545,14.693 -1.885,3.441 -4.25,7.57 -7.092,12.373 -2.828,4.817 -6.314,10.233 -10.428,16.248 l 0.763,2.843 8.259,-10.054 c 7.39,-9.456 12.582,-16.638 15.59,-21.53 3.007,-4.908 4.772,-6.059 5.281,-3.486 l 1.556,4.893 2.319,-1.287 -1.541,-10.054 -0.524,-3.098 c -0.165,-2.393 0.299,-3.814 1.421,-4.249 1.108,-0.433 2.11,-2.019 2.963,-4.772 0.509,-1.721 3.217,-5.281 8.124,-10.697 4.892,-5.416 10.054,-9.965 15.47,-13.661 5.416,-3.695 9.875,-6.702 13.405,-9.021 3.516,-2.319 5.192,-4.593 5.028,-6.838 l 4.892,-1.032 -1.287,6.194 3.097,0.764 c 1.541,-1.018 2.828,-2.918 3.861,-5.671 4.473,-3.426 8.333,-6.18 11.609,-8.244 l -11.34,-2.065 -19.346,11.611 z m -81.719,193.616 c -1.721,-13.75 -3.187,-24.492 -4.384,-32.227 l -1.032,2.065 c -1.033,1.556 0.763,11.61 5.416,30.162 m 8.498,-76.573 c 0,3.442 -0.389,5.596 -1.152,6.448 -0.778,0.869 -1.556,2.455 -2.319,4.774 -0.778,2.318 -1.945,5.76 -3.486,10.308 -1.541,4.563 -2.663,8.647 -3.351,12.253 h -0.015 c -4.608,2.065 -7.99,5.566 -10.04,10.443 -2.064,4.893 -3.994,11.296 -5.805,19.211 -1.795,7.9 -2.528,17.355 -2.184,28.352 0.853,13.061 2.753,25.779 5.671,38.152 4.294,17.19 13.061,33.513 26.302,48.984 2.917,3.276 4.713,4.039 5.401,2.334 0.688,-6.883 0.643,-13.541 -0.12,-19.989 -0.778,-6.449 -2.454,-13.615 -5.027,-21.53 -6.702,-22.337 -10.742,-37.374 -12.119,-45.108 -2.573,-9.112 -5.415,-20.977 -8.513,-35.579 -1.376,7.047 -0.553,21.859 2.454,44.466 3.007,22.606 6.837,38.72 11.476,48.34 2.229,4.983 2.139,5.76 -0.255,2.319 -10.488,-17.879 -16.592,-44.256 -18.313,-79.146 -0.344,-12.209 0.344,-21.006 2.065,-26.422 1.72,-5.416 3.695,-8.558 5.924,-9.411 1.212,-0.688 2.499,-0.598 3.876,0.255 1.032,6.523 1.72,11.819 2.064,15.859 0.344,4.039 0.808,8.767 1.407,14.168 0.613,5.416 1.675,9.935 3.232,13.541 l 1.032,-1.033 c -1.721,-7.899 -2.634,-13.405 -2.708,-16.502 -0.09,-3.082 -0.3,-6.18 -0.644,-9.276 -0.344,-3.098 -0.688,-9.022 -1.032,-17.79 2.064,7.047 4.294,13.75 6.703,20.109 l 7.989,23.205 7.047,16.742 3.261,7.75 c 0.031,0.059 0.061,0.104 0.09,0.164 1.033,2.02 2.155,4.085 3.337,6.194 0.553,0.987 1.122,1.975 1.72,2.993 0.614,1.047 1.242,2.124 1.9,3.201 0.09,0.165 0.195,0.314 0.285,0.479 0.568,0.928 1.137,1.855 1.72,2.798 0.853,1.376 1.736,2.783 2.649,4.204 1.017,1.586 2.079,3.202 3.171,4.848 0.27,0.419 0.554,0.838 0.838,1.256 2.499,3.711 5.177,7.541 8.02,11.506 1.585,1.87 3.126,3.501 4.623,4.892 0.523,0.509 1.032,0.973 1.541,1.392 l 0.763,0.628 c 0.374,0.299 0.748,0.598 1.122,0.868 0.359,0.269 0.733,0.538 1.092,0.777 0.239,0.165 0.479,0.315 0.718,0.464 0.554,0.345 1.107,0.644 1.631,0.913 0.284,0.15 0.583,0.285 0.883,0.404 0.284,0.134 0.568,0.239 0.853,0.344 0.044,0.015 0.089,0.03 0.119,0.045 0.284,0.105 0.569,0.195 0.868,0.269 0.254,0.075 0.509,0.135 0.763,0.18 0.075,0.015 0.149,0.03 0.224,0.045 h 0.03 c 0.045,0.015 0.075,0.015 0.12,0.03 0.21,0.045 0.419,0.059 0.629,0.09 0.762,-1.108 1.032,-2.948 0.822,-5.551 v -0.06 c -0.015,-0.06 -0.015,-0.135 -0.015,-0.195 -0.03,-0.164 -0.045,-0.314 -0.059,-0.479 -0.031,-0.269 -0.061,-0.523 -0.105,-0.792 -0.045,-0.344 -0.105,-0.718 -0.165,-1.092 -0.075,-0.419 -0.149,-0.838 -0.239,-1.272 -0.015,-0.045 -0.031,-0.105 -0.031,-0.15 -0.059,-0.269 -0.119,-0.524 -0.179,-0.793 v -0.015 c 0,-0.045 -0.015,-0.104 -0.029,-0.164 -1.198,-5.342 -3.263,-10.922 -6.195,-16.757 -0.194,-0.075 -0.419,-0.18 -0.179,-0.314 -0.284,-0.539 -0.569,-1.078 -0.868,-1.601 -0.045,-0.105 -0.105,-0.21 -0.164,-0.314 -0.644,-1.167 -1.287,-2.304 -1.916,-3.426 -0.344,-0.614 -0.703,-1.212 -1.047,-1.826 -0.688,-1.197 -1.377,-2.379 -2.065,-3.531 -1.421,-2.378 -2.842,-4.653 -4.249,-6.852 -0.329,-0.539 -0.673,-1.062 -1.017,-1.571 -0.419,-0.643 -0.853,-1.287 -1.272,-1.915 -0.119,-0.195 -0.254,-0.374 -0.389,-0.569 -0.119,-0.194 -0.239,-0.374 -0.374,-0.553 -0.344,-0.509 -0.673,-0.988 -1.017,-1.481 -0.419,-0.599 -0.823,-1.182 -1.242,-1.766 -0.419,-0.583 -0.838,-1.167 -1.242,-1.721 -0.419,-0.568 -0.838,-1.122 -1.242,-1.675 -0.418,-0.554 -0.837,-1.092 -1.242,-1.631 -0.03,-0.03 -0.044,-0.06 -0.074,-0.09 -0.644,-0.838 -1.302,-1.66 -1.945,-2.453 -1.017,-1.257 -2.035,-2.454 -3.053,-3.606 -0.643,-0.733 -1.301,-1.451 -1.944,-2.154 -0.015,-0.016 -0.031,-0.016 -0.031,-0.031 -0.658,-0.703 -1.316,-1.391 -1.96,-2.049 -0.583,-0.584 -1.181,-1.167 -1.765,-1.721 -0.075,-0.074 -0.134,-0.135 -0.209,-0.209 -0.509,-0.479 -1.032,-0.958 -1.541,-1.422 h -0.015 c -0.135,-0.134 -0.285,-0.269 -0.419,-0.388 l 0.284,0.463 13.121,21.291 -3.845,0.433 c -0.074,-0.119 -0.164,-0.254 -0.239,-0.374 -0.329,-0.523 -0.658,-1.032 -0.987,-1.541 -0.329,-0.509 -0.629,-1.002 -0.943,-1.496 -2.11,-3.307 -3.92,-6.224 -5.461,-8.737 -0.404,-0.658 -0.778,-1.302 -1.137,-1.901 -0.314,-0.523 -0.614,-1.032 -0.898,-1.526 -0.314,-0.508 -0.598,-1.002 -0.867,-1.481 -0.659,-1.152 -1.227,-2.154 -1.691,-3.022 -0.15,-0.284 -0.3,-0.568 -0.434,-0.823 -3.426,-6.703 -6.777,-12.971 -10.054,-18.821 -3.262,-5.835 -5.416,-10.398 -6.434,-13.66 -1.032,-3.262 -3.186,-9.112 -6.448,-17.535 0,-1.541 1.032,-6.014 3.097,-13.406 2.05,-7.391 3.815,-11.73 5.281,-13.016 1.452,-1.287 1.586,-2.708 0.389,-4.249 -0.523,-1.377 -0.179,-3.965 1.033,-7.735 0.852,-4.129 2.827,-9.8 5.925,-17.026 l -0.778,-2.574 c -3.262,7.227 -6.18,15.126 -8.768,23.714 m 34.815,188.216 c 2.918,6.014 7.212,12.806 12.882,20.362 1.721,3.95 0.778,3.875 -2.828,-0.255 -8.423,-10.487 -18.222,-27.08 -29.399,-49.761 l 4.908,12.373 c 0.852,2.753 3.605,8.977 8.243,18.702 4.638,9.71 9.201,17.4 13.66,23.07 4.474,5.671 7.571,9.366 9.291,11.087 6.179,5.326 9.785,7.81 10.817,7.465 0.868,-0.673 1.122,-1.795 0.778,-3.351 l -12.627,-32.481 c -8.259,-15.979 -19.076,-32.646 -32.481,-50.016 -5.686,-6.179 -9.201,-10.144 -10.578,-11.85 -1.377,-1.72 -2.499,-3.351 -3.351,-4.907 l 1.032,4.383 4.892,7.736 c 6.882,11.176 15.126,26.99 24.761,47.443 M -386.32,87.405 c 1.197,7.72 2.828,14.767 4.892,21.14 l 2.065,-2.588 z m 8.498,-12.388 -5.147,-13.914 -3.62,-12.119 1.287,10.308 1.81,7.481 1.541,7.481 z m 11.611,28.112 c -3.622,-6.702 -6.359,-12.717 -8.259,-18.058 l -2.065,0.269 5.416,16.757 z m 56.194,92.552 c 2.753,1.541 4.639,2.139 5.671,1.81 0.688,-1.72 0.867,-4.084 0.524,-7.092 -0.345,-3.006 -2.589,-9.336 -6.703,-18.956 l -1.96,-3.815 -3.187,-6.194 -4.399,-8.558 c -6.702,-0.853 -13.061,-3.95 -19.075,-9.276 3.097,5.326 6.837,11.431 11.22,18.313 4.369,6.867 11.207,17.176 20.483,30.925 1.556,2.588 1.601,3.232 0.134,1.945 -1.466,-1.302 -5.371,-6.239 -11.73,-14.826 -6.358,-8.603 -14.871,-21.919 -25.523,-39.962 -0.464,-0.704 -1.018,-1.557 -1.676,-2.574 -0.255,-0.404 -0.539,-0.823 -0.824,-1.272 -0.374,-0.568 -0.777,-1.196 -1.211,-1.855 -0.209,-0.329 -0.434,-0.658 -0.659,-1.018 -0.239,-0.359 -0.478,-0.717 -0.733,-1.107 -0.194,-0.284 -0.389,-0.583 -0.583,-0.897 -0.404,-0.614 -0.823,-1.257 -1.257,-1.93 -0.224,-0.329 -0.433,-0.674 -0.658,-1.018 -0.224,-0.344 -0.449,-0.703 -0.688,-1.062 -0.239,-0.359 -0.479,-0.718 -0.718,-1.092 -0.24,-0.374 -0.494,-0.748 -0.733,-1.137 -0.464,-0.703 -0.943,-1.422 -1.422,-2.17 -0.314,-0.478 -0.643,-0.972 -0.958,-1.481 -0.508,-0.763 -1.017,-1.541 -1.541,-2.349 -0.059,-0.089 -0.119,-0.179 -0.164,-0.269 -0.584,-0.898 -1.182,-1.825 -1.81,-2.768 -0.315,-0.478 -0.629,-0.957 -0.943,-1.451 -0.389,-0.584 -0.778,-1.182 -1.167,-1.795 -0.793,-1.212 -1.616,-2.469 -2.453,-3.756 -0.135,-0.209 -0.27,-0.404 -0.389,-0.613 -0.345,-0.539 -0.704,-1.092 -1.062,-1.646 -0.869,-0.867 -3.442,-1.377 -7.736,-1.541 l -8.513,-25.016 c 0.688,-1.032 2.843,-0.688 6.448,1.033 -1.72,-3.262 -4.294,-5.072 -7.735,-5.416 l -2.065,1.541 -1.032,3.875 0.255,2.319 2.064,-0.255 9.023,22.936 -5.417,6.703 1.302,3.875 c 1.705,-3.605 3.351,-5.581 4.892,-5.925 2.409,4.638 5.88,10.952 10.443,18.942 4.549,7.989 9.92,16.113 16.114,24.372 l -0.255,2.05 c 0,1.211 0.599,1.301 1.796,0.269 l 12.897,18.552 -10.578,-18.298 c 1.721,-1.885 0.942,-3.187 -2.319,-3.875 -10.997,-14.602 -19.42,-29.13 -25.255,-43.567 l 2.573,-0.764 c 1.541,-0.688 3.007,-0.015 4.384,2.05 l 15.724,27.843 14.947,27.844 c 7.046,12.552 15.126,22.352 24.237,29.399 m 15.86,28.621 c 9.365,7.735 20.587,13.75 33.648,18.044 6.359,1.72 11.849,2.483 16.502,2.319 2.23,-0.524 2.828,-1.811 1.796,-3.875 l -5.671,-7.466 c -4.982,-0.688 -11.819,-3.531 -20.497,-8.513 -8.678,-4.982 -17.998,-11.595 -27.978,-19.854 l -3.606,-2.319 c -1.885,1.376 -5.326,0.778 -10.308,-1.795 15.814,13.225 29.564,23.28 41.249,30.162 7.555,3.77 11.939,6.433 13.151,7.99 -3.785,-1.033 -9.111,-3.397 -15.994,-7.092 -6.867,-3.696 -18.208,-11.386 -34.022,-23.071 l -15.216,-13.675 c 8.603,11.7 17.58,21.41 26.946,29.145 m 58.14,6.179 c 0,-3.261 -1.975,-6.867 -5.94,-10.832 -6.015,-5.491 -13.525,-10.563 -22.547,-15.201 -9.037,-4.638 -20.767,-10.144 -35.204,-16.502 v 1.541 c 17.535,13.061 33.783,23.729 48.729,31.972 3.95,2.409 3.606,3.097 -1.032,2.065 -5.147,-2.573 -10.817,-5.76 -17.011,-9.545 -10.309,-6.703 -20.363,-13.316 -30.163,-19.839 l 0.255,3.082 c 19.599,17.191 35.668,28.277 48.206,33.259 6.194,1.377 11.086,1.377 14.707,0 m -117.313,-277.923 -5.67,7.225 4.129,10.309 c -0.179,-5.67 0.344,-11.52 1.541,-17.534 m -16.877,21.529 c 0.809,3.591 1.915,7.226 3.322,10.907 3.501,9.216 8.887,18.701 16.143,28.412 -1.72,-7.048 -2.678,-12.284 -2.842,-15.725 -3.472,-5.999 -6.583,-11.984 -9.336,-17.939 -3.232,-7.031 -5.97,-14.018 -8.199,-20.991 -1.033,-3.949 -1.885,-8.678 -2.573,-14.183 -0.524,7.046 0.643,16.892 3.485,29.519 m 22.816,43.179 c 3.606,14.273 7.048,21.828 10.309,22.696 1.885,-4.982 3.441,-14.228 4.638,-27.723 1.197,-13.481 1.197,-25.644 0,-36.476 -1.541,-13.75 -3.875,-23.026 -6.957,-27.844 l -3.351,-7.211 c 0,7.495 0.06,14.019 0.194,19.555 0.045,2.079 0.105,4.024 0.165,5.819 0.015,0.225 0.015,0.435 0.03,0.659 0.254,6.702 0.508,15.605 0.763,26.691 0.254,11.072 0.987,23.669 2.199,37.763 0.688,3.441 0.508,4.204 -0.524,2.319 -2.752,-14.259 -4.383,-32.572 -4.892,-54.909 l -0.135,-7.839 -0.119,-6.868 -0.165,-6.583 -0.344,-13.016 -0.015,-0.509 -3.351,3.875 c -0.12,0.613 -0.24,1.212 -0.345,1.825 -0.179,0.928 -0.358,1.87 -0.508,2.813 -1.556,9.217 -2.334,18.761 -2.304,28.666 0,1.511 0.015,3.052 0.06,4.593 0.523,9.8 2.064,20.363 4.652,31.704 m 20.363,12.118 c 2.23,0.524 2.663,-0.509 1.287,-3.082 l -4.893,-7.226 c -0.224,1.87 -0.478,3.576 -0.778,5.102 -0.104,0.838 -0.209,1.691 -0.284,2.543 1.631,1.122 3.187,2.005 4.668,2.663 m 3.861,-13.914 c -0.315,-4.728 -1.078,-10.158 -2.29,-16.293 -0.778,-3.905 -1.735,-8.094 -2.857,-12.582 -0.18,9.455 -0.614,15.814 -1.287,19.076 l 1.152,3.201 1.167,3.247 c 0.164,2.229 -0.269,2.319 -1.302,0.254 l -0.509,-0.927 -1.032,-1.901 -0.254,5.147 0.449,0.569 3.411,4.339 c 2.588,2.573 3.696,1.196 3.352,-4.13 m 44.869,-145.41 c -2.409,-1.197 -4.818,-1.197 -7.226,0 l -4.13,3.097 c 1.376,3.441 3.187,4.548 5.416,3.352 l 4.129,-3.607 z m -11.999,11.086 c 1.466,0.689 3.321,0.509 5.55,-0.508 l 12.373,-5.94 21.141,-7.99 c 5.162,-5.505 8.334,-9.275 9.546,-11.341 -4.31,-0.523 -8.947,-0.867 -13.93,-1.032 l -11.087,7.735 c -4.472,5.326 -7.734,9.187 -9.799,11.596 -2.065,2.408 -4.04,4.129 -5.925,5.161 -2.753,1.541 -4.982,2.065 -6.702,1.541 -1.197,-0.344 -2.499,-2.064 -3.875,-5.146 l -0.509,0.508 c 0.688,2.917 1.765,4.728 3.217,5.416 m 88.047,-22.951 2.604,-2.468 -5.7,2.738 z m 49.508,1.302 c -0.868,2.918 0.165,5.236 3.082,6.957 2.753,2.065 5.76,2.918 9.022,2.573 1.376,-0.164 1.467,-2.663 0.269,-7.48 -1.032,-2.394 -6.104,-5.326 -15.215,-8.753 l -8.514,1.018 9.037,5.162 2.319,-3.607 h 1.287 z m -20.632,1.795 c 2.065,2.409 4.728,4.563 7.99,6.449 14.617,7.211 24.327,11.431 29.13,12.627 0.867,0.344 1.645,0.09 2.334,-0.763 l 2.049,-2.588 -2.827,-1.795 c -1.721,-1.377 -3.875,-1.975 -6.448,-1.811 -2.23,0.18 -5.237,-0.554 -9.022,-2.184 -3.786,-1.646 -5.85,-3.92 -6.195,-6.837 -0.688,-2.065 -1.63,-3.352 -2.827,-3.875 -3.786,-2.05 -7.227,-3.861 -10.309,-5.402 l -8.004,0.509 z m 78.279,68.435 c 2.184,0 5.266,-1.108 4.488,-2.963 -0.763,-1.84 -1.631,-4.967 -3.366,-5.162 -1.721,-0.195 -5.087,2.229 -5.087,4.414 0,2.17 1.766,3.711 3.965,3.711 m 14.153,25.793 c -0.957,0.778 -3.83,3.141 -8.647,7.091 -4.294,3.785 -5.671,7.227 -4.115,10.324 -1.212,1.541 -2.289,3.351 -3.232,5.401 -0.942,2.064 -0.732,4.085 0.644,6.06 1.376,1.974 4.563,1.077 9.545,-2.708 0.853,2.932 0.853,5.685 0,8.258 -0.853,2.574 -1.885,5.161 -3.097,7.735 -2.229,4.13 -4.384,7.645 -6.448,10.563 -1.002,2.11 -1.586,3.725 -1.75,4.847 0.134,0.599 0.269,1.197 0.374,1.796 0.029,0.03 0.059,0.045 0.089,0.06 1.033,0.523 2.663,-0.165 4.907,-2.065 4.295,4.653 7.122,5.984 8.498,4.01 1.377,-1.99 2.499,-5.297 3.352,-9.935 0.867,-4.638 0.943,-9.456 0.269,-14.437 l -1.032,-1.033 1.032,-1.032 c 0.329,-1.033 -0.09,-4.893 -1.301,-11.596 0,-1.361 0.418,-2.722 1.271,-4.084 0.015,-0.015 0.015,-0.03 0.03,-0.045 0,0.03 -0.015,0.045 -0.015,0.075 -0.329,2.035 -0.419,3.546 -0.254,4.563 0.179,0.868 0.733,2.888 1.676,6.06 0.942,3.186 1.421,4.982 1.421,5.416 0,0.433 0.045,0.733 -1.332,0.897 1.557,0.524 1.81,1.257 2.23,2.199 0.433,0.943 0.523,1.886 0.269,2.829 -0.269,0.957 -0.434,3.665 -0.524,8.124 -0.089,4.473 -0.508,7.869 -1.287,10.188 -0.777,2.319 -1.241,4.129 -1.421,5.416 -0.165,1.287 -1.197,2.02 -3.097,2.185 -1.885,0.179 -4.548,-1.721 -7.989,-5.671 1.556,7.391 3.142,12.328 4.772,14.827 1.631,2.498 3.307,3.217 5.027,2.2 1.721,-1.033 2.843,-2.155 3.352,-3.352 0.524,-1.212 1.287,-1.002 2.319,0.644 1.032,1.63 1.885,2.184 2.573,1.675 0.688,-0.524 1.422,-1.556 2.2,-3.097 0.778,-1.556 1.331,-3.187 1.675,-4.908 0.344,-1.705 0.644,-4.847 0.898,-9.41 0.03,-0.419 0.045,-0.838 0.045,-1.227 0.09,-3.531 -0.374,-6.029 -1.422,-7.51 -0.074,-0.15 -0.194,-0.285 -0.299,-0.405 -1.376,-1.555 -2.064,-3.44 -2.064,-5.67 0.343,-8.947 1.032,-13.376 2.064,-13.286 1.032,0.09 2.275,0.779 3.741,2.065 1.466,1.287 2.753,1.765 3.875,1.422 0.897,-0.285 1.481,-1.96 1.78,-5.042 0.06,-0.734 0.12,-1.541 0.15,-2.439 0.164,-4.639 0.598,-5.117 1.286,-1.422 0.689,3.695 1.975,5.551 3.861,5.551 1.9,0 2.244,-4.982 1.032,-14.961 -6.703,-6.015 -11.506,-10.997 -14.438,-14.947 -1.032,4.294 -1.062,7.302 -0.12,9.022 0.943,1.72 1.796,3.651 2.574,5.805 0.778,2.14 1.421,4.084 1.93,5.79 0.164,0.478 0.299,0.912 0.419,1.286 0.838,2.754 0.508,2.783 -0.988,0.106 -0.06,-0.106 -0.119,-0.225 -0.194,-0.36 -1.032,-2.064 -1.945,-3.86 -2.708,-5.416 -0.778,-1.541 -1.676,-3.082 -2.709,-4.638 -0.284,2.275 -1.107,6.03 -2.453,11.251 -0.269,1.078 -0.569,2.245 -0.898,3.456 -1.555,4.803 -1.975,4.713 -1.286,-0.269 0.164,-1.002 0.329,-2.005 0.493,-3.007 1.092,-7.017 1.885,-13.825 2.334,-20.453 -2.917,3.098 -5.88,5.761 -8.887,7.99 -0.718,0.538 -1.406,1.077 -2.079,1.646 -2.155,1.75 -4.085,3.62 -5.791,5.58 -1.885,1.197 -2.229,1.033 -1.032,-0.524 1.481,-1.96 3.471,-4.188 5.97,-6.642 0.987,-0.973 2.049,-1.975 3.186,-3.023 4.041,-3.695 6.494,-6.133 7.347,-7.345 0.852,-1.198 1.376,-2.23 1.541,-3.098 -1.541,-2.064 -3.351,-4.204 -5.401,-6.433 -0.434,0.24 -0.808,0.553 -1.092,0.912 -0.554,0.659 -0.869,1.511 -0.973,2.559 -0.18,1.631 -0.734,2.843 -1.676,3.606 m 45.782,73.505 c 1.033,0.344 3.351,0.06 5.581,0.06 -2.394,-13.061 -5.176,-27.364 -7.406,-36.312 l -3.621,2.066 c 3.097,12.373 4.758,26.286 5.446,34.186 m -8.408,12.089 c -1.795,2.663 -4.384,6.748 -7.735,12.254 -3.351,5.505 -5.79,9.964 -7.346,13.405 -1.541,3.441 -1.796,6.957 -0.764,10.563 0.09,0.299 0.165,0.598 0.255,0.883 0.554,1.929 1.048,3.605 1.496,4.997 0.3,0.912 0.569,1.705 0.823,2.379 0.689,1.885 0.599,2.229 -0.254,1.032 -0.359,-0.644 -0.703,-1.272 -1.032,-1.9 -1.347,-2.603 -2.379,-5.162 -3.083,-7.675 -0.104,-0.344 -0.194,-0.674 -0.269,-1.003 l -0.254,0.718 -4.908,13.989 c 0.195,2.155 0.734,4.549 1.631,7.152 1.526,4.444 4.07,9.53 7.646,15.276 1.72,3.082 1.555,3.351 -0.509,0.762 -4.025,-5.356 -6.942,-10.772 -8.768,-16.233 -0.523,-1.541 -0.957,-3.097 -1.286,-4.638 l -1.915,4.249 -6.075,13.54 c -0.179,3.262 1.886,9.441 6.179,18.553 2.245,4.817 1.721,4.638 -1.541,-0.509 -2.752,-5.162 -4.727,-9.964 -5.924,-14.438 -0.778,3.127 -1.527,6.104 -2.275,8.932 -1.047,3.935 -2.08,7.571 -3.097,10.922 -0.538,1.796 -1.062,3.516 -1.601,5.147 l -1.795,0.524 0.733,-2.036 0.299,-0.807 c 0.913,-5.79 2.08,-11.087 3.501,-15.874 0.659,-2.304 1.392,-4.489 2.17,-6.553 -1.511,1.346 -3.097,2.573 -4.788,3.695 -1.974,1.331 -4.084,2.498 -6.299,3.531 -2.244,1.197 -2.244,0.943 0,-0.778 2.035,-1.197 3.875,-2.394 5.521,-3.606 2.364,-1.705 4.294,-3.441 5.82,-5.162 2.065,-4.817 3.95,-9.201 5.671,-13.151 -1.796,1.287 -4.294,2.693 -7.526,4.234 -2.349,1.108 -5.087,2.275 -8.199,3.502 -2.753,0.523 -2.753,0.179 0,-1.033 3.531,-1.436 6.538,-2.873 9.052,-4.279 2.858,-1.616 5.072,-3.201 6.613,-4.773 0.658,-0.688 1.182,-1.361 1.601,-2.034 l 5.161,-13.66 c -1.885,0 -4.383,2.828 -7.48,8.513 -2.574,4.802 -9.022,9.441 -19.331,13.914 -2.064,0.868 -3.007,2.663 -2.842,5.416 0.344,1.885 2.319,2.663 5.939,2.319 -1.032,2.918 -2.244,5.237 -3.62,6.957 l -2.05,3.097 c -2.753,5.671 -1.122,8.513 4.893,8.513 -2.23,3.441 -3.008,6.104 -2.32,7.99 -0.029,0.583 -0.029,1.152 -0.015,1.735 0.135,2.663 0.928,5.252 2.335,7.81 1.032,2.05 1.81,4.114 2.318,6.179 3.262,-1.885 6.239,-3.486 8.902,-4.772 2.663,-1.287 4.07,-3.651 4.25,-7.092 l -1.287,-7.99 c 0.509,-1.541 1.885,-1.032 4.114,1.556 2.245,3.082 4.04,4.893 5.416,5.416 1.9,-0.867 3.696,-2.408 5.417,-4.652 1.72,-3.262 1.122,-9.277 -1.796,-18.044 l -2.843,-7.212 c 5.85,7.736 10.578,11.431 14.184,11.087 1.197,-0.868 1.586,-2.633 1.152,-5.296 -0.419,-2.664 -0.419,-5.447 0,-8.379 0.434,-2.918 -0.554,-5.416 -2.963,-7.466 -2.408,-2.064 -4.039,-5.415 -4.892,-10.054 5.491,4.115 7.735,3.351 6.703,-2.334 l -3.097,-11.086 c -0.853,-5.327 0,-7.81 2.573,-7.466 2.588,0.344 4.174,0 4.773,-1.032 0.599,-1.033 0.733,-2.843 0.389,-5.417 -1.541,-3.605 -2.229,-5.969 -2.065,-7.091 0.179,-1.122 0.643,-2.065 1.422,-2.828 0.777,-0.778 2.453,-0.613 5.027,0.509 2.573,1.122 3.859,0.344 3.859,-2.319 0,-2.663 0.045,-5.252 0.135,-7.735 0.09,-2.499 0.898,-4.937 2.454,-7.346 1.152,-1.661 2.618,-2.753 4.428,-3.277 0.075,-0.03 0.135,-0.06 0.21,-0.075 l 2.319,2.828 c -3.441,-0.164 -5.027,2.065 -4.773,6.703 0.255,4.653 0.225,8.258 -0.119,10.832 -1.377,3.261 -2.753,5.072 -4.13,5.416 -1.376,0.344 -4.563,8.932 -9.545,25.778 l 5.416,-0.254 c 3.95,-14.437 7.137,-22.218 9.546,-23.34 2.408,-1.107 3.515,-2.393 3.35,-3.86 -0.179,-1.466 0.255,-4.593 1.287,-9.41 3.098,0.852 4.893,3.695 5.416,8.513 0.853,4.458 -0.433,7.899 -3.875,10.308 -3.606,2.065 -5.67,3.95 -6.178,5.67 -1.033,2.918 0.074,4.728 3.35,5.416 1.886,1.033 -2.662,5.162 -13.674,12.373 -5.67,3.951 -7.391,7.481 -5.147,10.578 0.853,1.542 2.454,1.497 4.773,-0.134 2.319,-1.631 3.815,-2.02 4.503,-1.167 1.212,2.408 0.254,4.084 -2.828,5.027 -3.096,0.957 -4.563,2.02 -4.383,3.232 -0.18,5.326 -0.09,8.932 0.254,10.832 0.345,1.885 0.165,4.114 -0.524,6.702 -1.885,2.738 -5.49,2.573 -10.816,-0.524 1.196,2.918 1.496,5.761 0.897,8.514 -0.598,2.752 -1.93,5.416 -3.995,7.989 l -2.573,7.99 c -0.688,2.752 0.853,4.638 4.638,5.67 -1.212,5.326 -1.212,9.111 0,11.341 1.197,2.408 2.065,4.384 2.574,5.939 0.523,1.541 2.064,1.721 4.637,0.509 2.589,-1.197 6.703,-5.76 12.373,-13.66 2.754,3.097 5.417,1.975 8.005,-3.351 3.082,-4.818 4.294,-10.578 3.606,-17.281 6.358,3.441 8.588,1.123 6.702,-6.957 2.753,-5.67 4.429,-10.099 5.028,-13.271 0.598,-3.187 0.089,-6.148 -1.557,-8.901 -1.63,-2.753 -2.394,-4.848 -2.319,-6.314 0.09,-1.467 0.689,-1.422 1.811,0.134 1.122,1.541 3.396,2.828 6.837,3.861 2.23,-4.818 3.172,-7.99 2.828,-9.531 0,-1.9 -1.152,-3.965 -3.471,-6.194 -2.334,-2.229 -3.666,-4.892 -4.01,-7.99 0,-1.556 0.779,-2.318 2.334,-2.318 l 4.638,1.286 c 2.409,0.344 2.484,-1.556 0.254,-5.67 -2.408,-4.474 -4.174,-8.259 -5.281,-11.341 -1.122,-3.097 -1.676,-5.596 -1.676,-7.481 -0.179,-3.949 -0.867,-6.269 -2.064,-6.957 0.344,4.982 0.209,10.174 -0.389,15.59 -0.598,5.416 -1.676,11.475 -3.217,18.178 1.361,1.197 3.262,5.237 5.67,12.119 1.198,3.441 0.943,3.86 -0.778,1.287 -1.885,-5.162 -3.785,-8.334 -5.67,-9.546 -1.885,6.359 -3.95,14.094 -6.194,23.205 2.589,4.294 4.219,9.71 4.907,16.248 0.165,5.506 -0.179,5.925 -1.032,1.287 -1.033,-6.523 -2.917,-11.595 -5.671,-15.216 -2.244,7.227 -4.637,14.019 -7.226,20.378 0.868,3.606 1.212,7.81 1.032,12.628 -0.164,4.817 -0.598,4.982 -1.286,0.523 0,-3.621 -0.434,-6.718 -1.287,-9.291 l -5.67,14.438 -3.606,8.258 c -1.212,2.739 -1.646,2.739 -1.301,0 l 3.351,-10.832 c -2.574,2.918 -4.982,5.073 -7.211,6.449 -2.23,1.376 -2.663,1.287 -1.287,-0.269 3.77,-3.262 7.046,-6.778 9.799,-10.563 2.23,-5.506 4.459,-11.177 6.704,-17.011 -6.539,5.491 -11.087,8.588 -13.676,9.276 -3.261,1.197 -3.261,0.598 0,-1.81 4.638,-2.918 10.144,-8.08 16.503,-15.471 2.065,-6.014 4.039,-11.849 5.925,-17.52 -3.262,1.886 -7.211,5.671 -11.85,11.341 -2.064,2.065 -2.154,1.721 -0.254,-1.032 3.77,-5.67 8.154,-10.653 13.136,-14.961 l 3.875,-15.725 c -3.95,3.965 -9.111,8.004 -15.47,12.119 -2.753,1.72 -2.918,1.376 -0.524,-1.033 5.506,-3.95 11.266,-9.799 17.281,-17.52 1.72,-4.817 2.498,-13.674 2.319,-26.556 -0.165,-3.277 -2.574,-5.671 -7.212,-7.226 l -0.045,-0.524 -0.987,-11.85 -6.448,-0.254 c -3.442,4.802 -6.06,8.543 -7.87,11.206 m -62.778,128.519 c -0.165,2.065 1.63,3.232 5.415,3.486 3.786,0.255 4.385,1.332 1.811,3.232 -4.982,1.706 -9.111,4.638 -12.373,8.752 -2.244,2.933 -2.244,4.997 0,6.194 l 3.86,1.033 1.811,2.318 -2.32,9.022 c -0.688,4.639 0.599,7.9 3.86,9.8 4.638,0.688 9.202,-0.688 13.66,-4.129 0.18,2.409 1.766,3.141 4.773,2.199 3.007,-0.957 5.805,-7.346 8.378,-19.21 l 4.13,-1.557 c 1.376,3.277 2.498,4.908 3.351,4.908 1.376,0 2.753,-2.843 4.13,-8.513 3.426,-3.097 5.071,-8.154 4.892,-15.201 -2.23,-2.932 -3.441,-6.538 -3.606,-10.832 l -2.065,4.638 c -1.196,5.162 -1.72,10.578 -1.541,16.248 -0.179,2.394 -0.434,2.394 -0.778,0 -0.523,-4.997 -0.598,-9.201 -0.254,-12.642 -4.638,6.014 -9.635,11.43 -14.962,16.248 -1.032,3.785 -1.376,8.079 -1.032,12.882 -0.508,4.129 -0.942,5.072 -1.286,2.842 -0.344,-5.162 -0.165,-9.964 0.523,-14.437 -3.965,3.949 -8.603,9.71 -13.929,17.28 -1.376,2.394 -1.975,2.917 -1.81,1.541 3.276,-6.194 6.717,-11.341 10.323,-15.47 3.606,-4.13 6.523,-7.391 8.767,-9.8 -4.473,1.377 -8.348,2.274 -11.61,2.708 -3.261,0.434 -6.269,1.332 -9.022,2.708 -2.572,0.524 -2.483,-0.089 0.255,-1.81 1.556,-1.018 4.683,-1.975 9.411,-2.828 4.728,-0.868 9.156,-2.319 13.286,-4.384 2.229,-1.376 5.236,-4.892 9.021,-10.577 l 3.097,-6.957 c -4.817,2.588 -10.144,4.383 -15.994,5.416 -5.834,1.032 -9.276,1.974 -10.308,2.842 -4.474,1.885 -4.982,1.706 -1.541,-0.523 1.032,-1.033 4.683,-2.185 10.952,-3.472 6.269,-1.301 12.328,-3.74 18.178,-7.36 l 0.509,-1.541 c -1.198,-1.377 -1.631,-3.262 -1.287,-5.671 l 1.811,-5.162 c -1.557,1.9 -3.696,1.033 -6.449,-2.573 1.032,2.229 0.778,4.294 -0.778,6.194 -2.409,3.606 -8.244,7.466 -17.535,11.595 l -1.541,-2.842 c -7.555,2.408 -12.283,6.882 -14.183,13.405 m -5.402,4.908 c -9.635,-0.165 -11.565,0.059 -12.118,1.555 -0.359,1.137 -0.554,2.185 2.827,4.115 l 1.751,2.932 c -5.596,2.544 -10.757,5.581 -11.026,12.538 l 4.638,1.81 c 2.064,2.394 2.109,4.204 0.134,5.401 -1.99,1.212 -3.052,4.384 -3.231,9.546 1.899,4.129 6.538,4.129 13.928,0 3.262,6.358 7.212,8.244 11.85,5.67 -4.982,0 -7.9,-2.154 -8.768,-6.448 -0.508,-2.753 -0.508,-6.104 0,-10.054 -1.705,2.408 -3.77,4.473 -6.178,6.194 -4.639,2.408 -5.506,2.139 -2.574,-0.779 2.918,-2.917 5.491,-5.924 7.735,-9.021 -3.785,-3.097 -7.914,-4.474 -12.388,-4.129 -1.541,-0.689 -1.287,-1.108 0.778,-1.287 2.065,-0.509 4.473,-0.344 7.226,0.523 -0.343,-2.753 0.554,-7.315 1.751,-10.068 1.631,-2.35 3.815,-4.414 6.359,-6.299 -1.197,-0.344 -2.185,-0.988 -2.694,-2.199 m -20.631,24.746 -8.767,2.842 0.508,5.925 -4.892,-1.033 c -4.638,-1.541 -9.277,-0.164 -13.914,4.13 -3.098,-0.524 -4.384,0.688 -3.876,3.606 1.197,2.573 0.868,3.95 -1.032,4.129 l -7.481,-0.778 c -4.802,0.688 -7.989,2.065 -9.53,4.129 -1.033,1.721 -0.345,3.861 2.065,6.449 -4.639,1.885 -7.526,3.95 -8.648,6.179 -1.107,2.229 -0.419,4.04 2.064,5.416 2.499,1.376 7.092,1.631 13.795,0.778 -1.541,1.885 -1.975,3.86 -1.287,5.924 0.18,2.065 4.639,0.943 13.406,-3.351 l 5.161,-3.097 c 1.377,2.589 3.696,3.352 6.958,2.319 3.949,-1.885 7.645,-4.159 11.086,-6.822 3.441,-2.663 7.302,-6.493 11.595,-11.476 3.621,2.409 6.194,1.885 7.735,-1.556 l 0.778,-6.179 c -3.785,3.606 -8.423,3.861 -13.914,0.779 l -3.621,1.541 c -4.981,6.014 -7.989,10.562 -9.021,13.659 -1.033,3.95 -1.541,4.294 -1.541,1.033 0.164,-3.441 2.229,-7.825 6.179,-13.151 -7.556,2.408 -13.107,5.505 -16.622,9.291 -3.532,3.77 -6.24,6.957 -8.125,9.53 -1.885,3.097 -2.663,3.097 -2.319,0 2.065,-3.77 4.893,-7.301 8.514,-10.563 -2.753,1.197 -5.327,2.409 -7.736,3.606 -6.014,2.573 -11.011,3.95 -14.961,4.129 -1.886,0 -1.975,-0.344 -0.254,-1.032 6.702,-1.721 11.565,-3.307 14.572,-4.773 3.007,-1.466 5.027,-2.798 6.06,-3.995 -4.818,-2.064 -9.8,-3.007 -14.962,-2.842 -3.261,0.179 -4.728,0.09 -4.384,-0.255 0.345,-0.344 1.377,-0.688 3.097,-1.032 6.179,-0.688 12.463,0 18.822,2.065 4.638,-2.409 10.054,-4.728 16.233,-6.957 -3.77,-0.868 -7.466,-2.574 -11.071,-5.162 -1.377,-1.72 -0.688,-1.795 2.049,-0.254 2.753,2.064 6.883,3.351 12.389,3.86 l 4.368,-1.796 c -0.344,-4.638 0.778,-9.366 3.351,-14.183 z M 2.708,5.671 c 4.997,7.046 5.595,13.405 1.81,19.075 1.377,9.292 0.434,15.127 -2.843,17.535 -3.426,2.409 -7.645,1.631 -12.627,-2.319 -2.918,1.541 -6.867,0.09 -11.864,-4.383 0.867,2.229 0.957,4.203 0.269,5.924 4.458,2.065 7.346,4.339 8.632,6.837 1.287,2.484 1.93,6.404 1.93,11.73 0.524,3.262 3.531,9.112 9.023,17.535 3.784,8.423 1.122,11.341 -7.99,8.768 4.982,4.458 7.481,8.333 7.481,11.595 0.344,3.096 -0.943,7.047 -3.876,11.864 -1.196,2.738 -3.007,3.262 -5.401,1.541 0.853,1.721 1.317,3.785 1.407,6.194 0.09,2.394 -1.496,7.466 -4.773,15.201 -0.509,10.144 -2.917,14.363 -7.211,12.643 -0.688,5.326 -2.409,10.398 -5.162,15.2 -4.114,6.194 -7.391,7.825 -9.784,4.908 -6.718,9.964 -12.987,14.093 -18.822,12.373 -0.179,4.294 -1.646,8.169 -4.384,11.595 -1.556,6.538 -3.441,11.086 -5.67,13.675 -3.098,1.196 -5.252,-0.524 -6.449,-5.162 -0.523,3.785 -1.72,7.735 -3.605,11.864 -1.901,4.115 -4.908,6.269 -9.037,6.434 -1.541,0.18 -3.008,-0.075 -4.384,-0.763 -2.738,1.72 -5.057,2.573 -6.957,2.573 -5.835,6.194 -11.176,6.703 -15.979,1.541 l -0.778,5.416 c -1.72,6.359 -5.162,7.735 -10.308,4.13 -8.423,8.767 -15.65,14.527 -21.664,17.28 -4.983,1.706 -8.244,1.287 -9.785,-1.302 -2.589,2.589 -5.342,4.22 -8.259,4.908 -2.917,0.688 -5.67,1.451 -8.244,2.319 -3.965,0.164 -5.67,-1.975 -5.161,-6.449 -6.18,-0.344 -10.443,-1.421 -12.763,-3.216 -2.318,-1.811 -2.917,-4.339 -1.795,-7.616 1.107,-3.261 3.651,-5.924 7.601,-7.989 -1.033,-1.197 -1.467,-3.097 -1.287,-5.671 0.164,-2.573 2.918,-4.728 8.244,-6.448 3.949,-1.032 7.824,-1.107 11.61,-0.254 -0.868,-3.95 0.508,-6.448 4.114,-7.481 4.982,-5.147 11.177,-6.433 18.567,-3.86 l -0.778,-4.907 10.054,-4.115 c 0.344,-4.817 2.588,-8.259 6.703,-10.323 l 3.95,-1.691 c -0.853,-0.105 -4.548,-3.157 -4.593,-3.651 -0.599,-0.672 -1.9,-3.336 -0.599,-5.161 0.524,-0.703 1.437,-1.302 2.933,-1.586 1.81,-0.21 3.68,-0.404 5.58,-0.539 2.424,-0.194 4.878,-0.299 7.287,-0.254 0.104,-1.257 0.882,-3.321 1.69,-4.788 0.733,-1.541 2.529,-3.815 5.536,-7.076 2.798,-3.037 8.064,-6.03 12.508,-7.915 -0.3,-0.314 -1.511,-3.665 -2.618,-6.747 -0.674,-1.856 -1.183,-4.28 -1.212,-6.659 -0.03,-2.438 0.448,-4.817 1.78,-6.478 -0.583,0.285 -3.052,-1.436 -3.92,-2.813 -3.217,-4.952 3.741,-12.073 4.848,-14.527 -0.539,0.06 -2.469,-0.913 -3.486,-1.631 -2.394,-1.706 -1.572,-10.248 5.221,-11.715 1.706,-0.823 9.501,-5.356 13.406,-9.321 0.762,-0.778 2.947,-4.892 6.074,-8.992 1.661,-2.184 3.411,-5.864 7.496,-5.969 0.179,-0.569 0.359,-1.122 0.538,-1.691 2.948,-8.932 7.182,-17.579 12.254,-26.048 0.404,-0.703 0.823,-1.406 1.256,-2.094 1.018,-1.676 2.08,-3.322 3.158,-4.982 0,-0.374 6.717,-7.526 9.141,-14.004 -0.808,-4.19 -0.719,-7.796 -0.733,-8.005 -0.883,-8.288 -2.379,-15.904 -4.474,-22.831 -7.301,3.531 -8.513,-1.257 -9.59,-5.984 -0.105,0.239 -3.411,0.598 -3.875,-0.973 0.075,0.658 -0.12,1.302 -0.494,1.885 -1.227,1.93 -4.383,3.142 -6.029,1.975 -0.06,-0.045 -2.349,-1.646 -3.771,-2.723 -0.479,-0.374 -0.898,2.364 -1.047,4.384 -0.075,1.406 -0.359,6.179 0.539,8.064 0.06,0.105 0.314,0.448 0.688,0.943 0.613,0.852 1.571,2.139 2.259,3.351 1.661,2.992 1.122,10.922 -0.434,18.283 -0.478,2.229 -1.032,4.398 -1.66,6.358 -0.808,2.544 -2.484,3.756 -3.951,4.339 -0.598,0.225 -4.442,0.015 -5.176,-2.947 -0.209,1.676 -2.917,2.678 -4.923,3.157 -5.64,1.331 -11.669,-9.486 -10.996,-19.555 -1.257,0.987 -2.633,1.586 -3.92,1.75 -2.932,0.435 -5.416,-1.256 -4.952,-5.176 0.224,-1.93 1.107,-4.234 2.319,-6.703 3.726,-7.586 10.562,-16.741 10.832,-21.515 -3.546,3.158 -11.595,3.247 -11.61,-4.443 0,-2.334 1.9,-6.299 2.693,-7.989 -1.631,-8.214 7.825,-14.214 15.56,-21.948 -0.135,-3.233 0.823,-3.652 1.87,-4.684 0.134,-0.149 0.284,-0.299 0.419,-0.464 -1.407,-2.154 -10.054,-15.784 -10.159,-16.113 -0.418,-0.164 -6.388,3.187 -8.348,1.451 -2.095,-1.855 -3.8,-4.368 -4.773,-5.88 l 1.032,-9.53 c 0.689,-3.965 -1.421,-8.378 -6.313,-13.286 -4.893,-4.892 -8.124,-9.41 -9.665,-13.54 -0.868,-3.081 -4.22,-6.433 -10.055,-10.054 -0.343,1.032 -1.72,2.663 -4.129,4.907 -0.344,0.689 -1.032,0.943 -2.065,0.778 -5.834,-1.556 -17.609,-6.717 -35.309,-15.47 -3.097,-1.556 -7.48,-6.104 -13.151,-13.675 h -10.054 c -2.753,1.557 -5.67,3.696 -8.767,6.449 -2.244,1.72 -6.194,1.122 -11.864,-1.81 -5.327,1.212 -10.653,0.089 -15.979,-3.352 -3.277,-1.197 -5.671,-1.451 -7.227,-0.763 l -12.627,13.66 c -26.123,10.997 -40.396,15.904 -42.805,14.692 -2.573,-1.541 -4.459,-3.771 -5.671,-6.702 -2.573,1.211 -6.448,4.472 -11.595,9.799 l -7.989,9.022 c -5.85,6.538 -8.259,12.717 -7.227,18.567 l 1.288,7.99 c 0.179,1.196 0,2.154 -0.509,2.843 -1.901,2.048 -5.237,3.305 -6.958,3.65 -0.374,0.149 -1.496,0.538 -2.752,-4.114 0.329,-1.122 -8.259,11.31 -8.379,11.714 0.195,0.209 0.389,0.434 0.599,0.704 2.378,2.992 6.014,9.814 8.154,17.654 2.663,9.665 3.89,20.317 3.77,24.387 0.404,0.763 0.509,0.972 0.987,1.436 1.556,1.197 3.262,6.254 4.713,12.403 2.289,9.68 3.905,22.039 3.217,26.257 -0.524,2.754 -1.167,4.175 -1.93,4.264 -0.778,0.076 -1.511,-0.134 -2.2,-0.658 l 1.557,3.097 c 0.853,2.245 0.853,3.696 0,4.384 -0.524,0.539 -5.087,0.479 -9.097,-1.511 -0.045,-0.015 -0.075,-0.045 -0.119,-0.06 -0.479,4.474 -2.604,11.041 -3.696,13.42 -0.374,0.793 -1.482,-0.059 -1.526,-0.074 -7.211,-4.369 -10.414,-13.944 -12.987,-25.809 l -2.064,-1.9 c -2.05,-2.558 -4.01,-5.222 -5.85,-7.974 -0.808,-1.212 -1.601,-2.439 -2.364,-3.681 -2.918,-4.757 -5.461,-9.77 -7.541,-15.021 -1.72,-4.354 -3.097,-8.888 -4.069,-13.585 -1.541,2.393 -2.424,5.88 -3.801,10.443 -1.376,4.548 -1.81,7.6 -1.286,9.142 1.376,2.408 0.943,4.638 -1.302,6.702 -1.706,1.721 -3.95,9.456 -6.702,23.205 0.179,3.606 1.645,9.022 4.383,16.249 2.753,7.211 7.346,16.352 13.376,26.676 0.314,0.449 2.992,3.336 3.815,3.545 0.942,0.24 2.229,1.018 3.77,2.26 11.864,9.575 38.93,46.41 40.845,69.047 0.179,2.154 0.134,4.174 -0.165,6.029 0.359,0.105 2.633,3.801 5.462,8.782 2.662,4.639 5.789,10.399 8.317,15.411 2.38,4.698 4.22,8.737 4.639,10.623 l 2.184,0.703 2.589,1.032 c 8.587,3.441 15.889,7.122 22.591,10.204 l 10.398,5.536 c 7.227,3.082 14.094,7.301 20.633,12.627 6.866,6.015 10.562,12.283 11.086,18.822 -1.212,1.541 -4.728,2.408 -10.578,2.573 3.097,3.441 4.728,7.047 4.907,10.832 -2.244,3.097 -8.947,3.606 -20.108,1.541 -11.685,-2.917 -21.918,-7.466 -30.686,-13.66 -8.932,-5.67 -16.966,-12.597 -24.102,-20.751 -7.137,-8.169 -12.852,-16.638 -17.147,-25.405 l 5.162,11.865 c 2.574,5.67 5.327,12.283 8.244,19.854 0.853,3.605 0.897,6.193 0.135,7.734 -0.779,1.542 -2.454,1.976 -5.027,1.287 -2.753,-0.688 -7.735,-4.294 -14.962,-10.832 -7.899,-8.079 -14.901,-18.043 -21.005,-29.908 -6.105,-11.849 -10.279,-21.215 -12.509,-28.097 1.198,7.735 1.033,14.347 -0.508,19.854 -0.868,2.229 -2.753,2.842 -5.686,1.81 -2.737,-1.9 -5.49,-4.728 -8.243,-8.513 -2.753,-3.786 -5.416,-7.436 -7.99,-10.952 -2.573,-3.531 -5.625,-8.558 -9.156,-15.081 -3.516,-6.538 -6.613,-14.274 -9.276,-23.206 -2.663,-8.946 -4.683,-20.796 -6.06,-35.578 -0.867,-9.455 -0.179,-19.599 2.065,-30.431 2.753,-10.817 5.491,-18.822 8.244,-23.969 2.753,-5.161 5.326,-8.169 7.735,-9.021 1.541,-3.786 3.606,-10.054 6.194,-18.822 1.376,-4.129 1.975,-7.271 1.795,-9.411 -0.164,-2.154 0.389,-3.651 1.676,-4.518 1.286,-0.852 2.364,-2.574 3.232,-5.147 2.229,-8.259 5.236,-15.903 9.021,-22.95 -0.688,-3.786 -1.032,-7.556 -1.032,-11.341 -8.258,23.893 -14.961,41.936 -20.108,54.13 -9.979,22.173 -17.789,32.317 -23.46,30.432 -2.753,-1.032 -4.473,-3.531 -5.161,-7.481 -0.165,-1.541 -0.165,-5.506 0,-11.864 0.179,-6.359 0.778,-13.062 1.81,-20.109 5.147,-22.861 14.004,-41.936 26.557,-57.227 l 18.806,-22.173 c 3.786,-3.785 7.391,-6.569 10.832,-8.378 3.441,-1.811 6.613,-2.275 9.545,-1.422 4.295,-6.867 9.71,-14.094 16.234,-21.648 4.129,-6.36 8.423,-9.367 12.896,-9.023 1.885,-4.129 4.728,-6.194 8.514,-6.194 l 3.86,0.509 c 5.326,-5.147 10.143,-9.276 14.438,-12.373 l -4.893,-13.915 c -8.603,-1.211 -16.502,-1.9 -23.729,-2.064 -6.702,4.817 -16.143,11.341 -28.352,19.6 l -0.778,15.455 c -0.344,5.341 0.598,9.8 2.843,13.42 0.508,2.918 -1.122,5.581 -4.907,7.99 -5.671,2.753 -9.711,3.859 -12.119,3.35 -1.033,-0.343 -1.631,-1.286 -1.796,-2.841 v -8.499 l -24.491,-0.524 c -2.245,0 -4.085,-0.852 -5.551,-2.573 -1.451,-1.721 -1.496,-5.162 -0.12,-10.323 0.165,-1.885 0.075,-3.516 -0.269,-4.893 -1.197,-5.506 -4.384,-12.208 -9.531,-20.108 -0.688,-1.197 -0.388,-3.007 0.898,-5.416 1.287,-2.408 4.518,-6.179 9.665,-11.341 2.244,-2.229 5.64,-4.982 10.189,-8.259 4.548,-3.261 12.583,-8.243 24.103,-14.946 13.585,-8.079 26.557,-14.782 38.93,-20.109 2.588,-0.178 19.764,2.156 51.572,6.957 l 0.254,-2.827 c -9.111,-6.883 -14.962,-9.71 -17.535,-8.513 -3.605,-0.344 -4.727,-3.007 -3.351,-7.99 1.032,-2.244 2.917,-3.785 5.67,-4.637 l 3.351,-3.875 9.546,-5.671 c 3.606,-1.032 7.047,-1.032 10.308,0 3.098,1.197 5.162,3.875 6.194,7.99 l 11.341,11.341 7.481,5.684 c 5.835,1.018 9.62,3.082 11.341,6.18 0.344,2.753 1.107,4.474 2.319,5.161 l 9.021,6.18 c 0.344,0.867 4.04,-0.599 11.087,-4.384 3.441,-0.852 6.448,-0.688 9.022,0.524 l 6.703,3.86 c 6.014,-1.377 16.592,-8.843 31.718,-22.428 -0.18,-1.541 0.763,-3.35 2.827,-5.416 1.197,-1.541 4.474,-2.827 9.8,-3.859 l 3.606,-6.703 3.606,-1.287 c 5.341,-0.18 10.323,1.706 14.961,5.67 l 5.671,1.795 c 2.917,2.245 4.203,4.474 3.86,6.704 l -2.32,2.319 -4.892,1.301 c -6.194,2.918 -12.463,6.868 -18.821,11.849 l -4.13,3.098 c 18.732,-3.262 42.027,-5.851 69.87,-7.735 3.442,-0.689 8.034,1.077 13.795,5.281 5.76,4.22 23.16,16.637 52.2,37.254 4.309,4.653 7.735,9.979 10.323,15.994 -2.588,2.408 -4.862,5.835 -6.837,10.308 -1.975,4.474 -3.217,8.244 -3.74,11.341 -0.689,2.933 -0.763,5.551 -0.255,7.869 0.509,2.32 -0.254,4.504 -2.318,6.569 -0.869,1.212 -2.843,1.974 -5.925,2.319 -5.506,0.524 -11.7,0.434 -18.567,-0.255 -3.262,0.345 -5.162,1.122 -5.671,2.32 l 0.254,6.194 c 0.509,2.753 -0.254,3.949 -2.318,3.605 -7.571,-1.885 -12.119,-3.785 -13.66,-5.671 -2.244,-2.408 -2.154,-4.981 0.254,-7.734 1.885,-1.721 2.828,-3.695 2.828,-5.925 -1.018,-11.356 -1.975,-19.001 -2.828,-22.951 -12.552,-9.964 -21.051,-16.068 -25.524,-18.312 -3.606,-1.198 -11.685,-0.674 -24.238,1.555 -2.753,2.409 -4.727,6.524 -5.925,12.373 4.294,2.574 8.843,5.671 13.66,9.277 3.262,0.523 6.015,1.167 8.259,1.945 2.229,0.763 3.351,2.872 3.351,6.313 2.23,0.853 3.861,2.753 4.893,5.67 l 14.947,18.044 c 4.817,4.129 10.053,6.538 15.738,7.227 6.868,0.509 15.8,4.383 26.812,11.595 1.72,1.884 1.72,4.547 0,7.989 3.261,1.9 8.588,7.226 15.978,15.994 2.918,4.114 3.606,8.678 2.065,13.66 6.868,8.243 10.743,14.781 11.596,19.584 0.688,4.309 0.598,8.947 -0.255,13.929 3.261,2.065 5.55,3.831 6.838,5.282 1.286,1.466 1.929,3.485 1.929,6.06 0,2.588 -0.942,4.727 -2.842,6.448"
             style="fill:#003399;fill-opacity:1;fill-rule:evenodd;stroke:none"
             id="path118" /></g><g
           id="g120"
           transform="translate(302.582,309.2529)"><path
             d="M 0,0 C 2.302,0.605 4.604,1.21 6.316,3.53 L 7.488,1.822 6.227,10.461 5.657,9.861 C 5.717,5.245 4.597,1.785 0.57,0.583 c -5.764,-0.649 -8.124,5.082 -9.383,10.84 -0.64,5.76 -0.164,12.666 5.615,13.323 3.447,0.603 6.366,-2.223 7.578,-6.259 l 0.607,0.008 -1.279,7.481 -0.585,-0.008 0.023,-1.722 c -2.317,1.11 -4.047,1.67 -6.968,1.05 -6.303,-0.64 -9.699,-7.041 -9.02,-14.522 C -11.59,3.298 -6.321,-1.251 0,0"
             style="fill:#003399;fill-opacity:1;fill-rule:nonzero;stroke:none"
             id="path122" /></g><g
           id="g124"
           transform="translate(371.2061,334.4512)"><path
             d="M 0,0 0.015,-1.143 C 1.15,-1.128 2.3,-1.702 2.315,-2.843 2.895,-4 2.36,-6.297 2.375,-7.462 L 0.79,-18.437 c 0.014,-1.138 -0.498,-4.032 -1.108,-4.608 -0.577,-1.162 -1.712,-1.177 -2.835,-1.191 l 0.007,-0.568 c 1.732,-0.559 2.858,-0.546 4.609,-0.522 1.715,-0.536 2.883,-0.521 4.615,-1.115 l -0.015,1.174 c -1.132,-0.014 -2.282,-0.03 -2.304,1.676 -0.008,0.599 -0.045,3.461 0.497,4.643 l 1.036,10.934 c 0.532,1.199 0.502,3.479 1.1,4.642 0.532,1.174 2.233,1.196 2.852,1.204 l 0.574,0.563 C 8.074,-1.628 6.361,-1.061 4.617,-1.083 3.467,-1.098 1.698,-0.546 0,0"
             style="fill:#003399;fill-opacity:1;fill-rule:nonzero;stroke:none"
             id="path126" /></g><g
           id="g128"
           transform="translate(281.3506,329.1455)"><path
             d="m 0,0 c 0.015,-1.155 0.603,-3.428 0.618,-4.592 l 1.876,-10.966 c 0.015,-1.129 0.622,-3.419 0.06,-4.576 0.022,-1.747 -1.113,-1.762 -2.27,-1.777 l 0.008,-0.555 c 1.727,0.023 3.449,0.044 4.594,0.614 l 4.607,0.06 -0.015,1.175 c -1.131,-0.015 -2.298,-0.029 -2.915,1.109 -0.555,0.569 -1.17,3.45 -1.185,4.58 L 4.072,-3.982 C 3.487,-2.817 3.457,-0.548 3.441,0.653 3.997,1.768 5.154,2.382 5.732,2.39 L 5.724,2.972 C 4.564,2.956 2.84,2.352 1.127,2.329 -0.03,2.314 -1.782,2.292 -3.499,1.67 L -2.917,1.12 C -2.324,1.127 -1.189,1.143 0,0"
             style="fill:#003399;fill-opacity:1;fill-rule:nonzero;stroke:none"
             id="path130" /></g><g
           id="g132"
           transform="translate(153.1777,350.001)"><path
             d="m 0,0 5.102,6.964 c 0.585,0.008 0.577,0.592 1.172,0.599 0,0 1.164,-0.569 1.737,-1.12 C 9.753,5.294 9.791,2.417 8.093,0.104 4.686,-3.978 2.949,-2.284 0,0 M 2.963,-3.409 C 5.844,-5.137 8.73,-5.1 11.567,-1.575 14.417,2.477 12.073,5.324 9.156,7.602 8.559,8.161 7.409,9.318 6.244,9.86 4.492,10.993 3.32,12.128 1.561,13.271 L 1.575,12.105 C 2.16,11.546 3.335,10.979 2.792,9.816 2.198,8.666 0.5,6.347 -0.075,5.757 l -6.221,-8.761 c -0.563,-1.123 -2.275,-3.457 -3.427,-4.057 -1.135,-0.57 -1.718,-0.022 -2.892,0.547 l -0.541,-0.591 c 1.722,-0.534 2.89,-1.693 4.081,-2.798 1.141,-0.58 2.313,-1.722 3.471,-2.287 l 0.569,0.587 c -1.157,0.578 -1.742,1.135 -1.757,2.292 0.563,1.163 2.24,3.474 2.828,4.629 l 2.822,3.509 C 0.03,-2.322 0.03,-2.322 0.052,-4.037 l -0.465,-9.229 -0.535,-2.901 c 0.58,-0.568 1.747,-0.553 2.354,-1.11 0.558,-0.584 1.143,-1.16 1.76,-1.727 l 0.55,0.582 c -1.182,1.159 -1.19,1.725 -1.212,3.464 z"
             style="fill:#003399;fill-opacity:1;fill-rule:nonzero;stroke:none"
             id="path134" /></g><g
           id="g136"
           transform="translate(252.231,302.4199)"><path
             d="m 0,0 c -1.135,-0.015 -2.285,-0.029 -2.895,1.12 -0.594,1.14 -0.617,2.892 -1.182,4.037 l -0.645,5.179 1.128,0.015 c 1.175,0.015 2.317,0.586 4.032,0.052 C 1.604,9.296 2.797,8.126 2.827,5.812 3.437,2.939 2.31,0.63 0,0 m -6.058,21.262 c 0,0 1.194,0.015 1.765,0.59 2.275,0.03 3.446,-1.095 4.061,-3.967 0.023,-1.715 0.045,-3.438 -1.076,-4.607 -0.591,-0.576 -1.736,-0.59 -2.859,-1.229 l -0.577,-0.008 -1.292,7.491 z M 3.927,11.004 c -1.182,1.135 -2.917,1.112 -4.661,1.09 2.287,1.221 4.609,2.947 3.969,6.401 -0.632,4.611 -4.677,5.161 -8.121,4.515 -1.194,-0.016 -2.343,-0.614 -3.457,-0.628 -1.754,-0.023 -2.904,-0.037 -4.648,-0.643 l 0.007,-0.567 c 1.177,0.015 2.319,0.03 2.917,-1.093 0.599,-0.592 1.202,-3.439 1.217,-4.611 L -7.566,4.522 c 0.015,-1.132 0.613,-3.455 0.628,-4.612 0.022,-1.731 -1.687,-1.754 -2.253,-1.761 l 0.015,-1.123 c 1.699,0.59 3.417,1.167 5.189,1.191 1.13,0.014 2.874,0.037 3.425,0.636 1.744,0.022 4.051,0.052 5.773,1.815 1.117,1.179 2.262,2.916 2.225,5.806 -0.598,1.705 -1.794,3.415 -3.509,4.53"
             style="fill:#003399;fill-opacity:1;fill-rule:nonzero;stroke:none"
             id="path138" /></g><g
           id="g140"
           transform="translate(261.4858,303.6973)"><path
             d="m 0,0 0.008,-0.589 c 5.186,0.656 10.95,1.872 16.151,2.522 l 1.7,0.021 -0.632,6.927 -1.15,-0.597 C 16.1,6.534 16.122,4.812 14.962,3.657 13.85,2.468 12.083,2.444 10.95,1.865 6.914,1.23 5.757,2.362 5.104,6.981 L 3.811,17.893 c -0.016,1.201 -0.625,4.048 -0.64,5.204 0.558,1.144 1.709,1.159 2.852,1.174 L 5.458,25.424 C 4.323,24.81 2.564,24.787 0.839,24.765 -0.313,24.188 -2.055,24.166 -3.78,24.144 l 0.597,-1.13 c 0.6,0.576 2.292,0.597 2.892,-0.535 0.015,-1.182 0.635,-4.04 0.65,-5.197 L 2.22,6.944 C 2.235,5.797 2.848,2.9 2.288,1.753 2.302,0.588 1.153,0.573 0,0"
             style="fill:#003399;fill-opacity:1;fill-rule:nonzero;stroke:none"
             id="path142" /></g><g
           id="g144"
           transform="translate(233.3374,299.8877)"><path
             d="m 0,0 c -1.143,-0.582 -2.288,-0.598 -2.909,0.518 -0.556,1.174 -1.18,3.481 -1.195,4.611 l -0.65,4.632 0.59,0.007 c 1.735,0.578 3.455,0.6 4.601,0.059 C 2.173,9.256 2.777,7.533 3.392,5.818 4.004,2.34 2.875,0.037 0,0 m -6.625,19.507 -0.015,1.147 c 0.587,0.597 1.737,0.613 1.737,0.613 2.867,0.604 4.067,-1.103 4.679,-3.993 0.022,-1.695 0.037,-2.886 -1.097,-4.051 -0.588,-1.146 -1.738,-1.16 -2.872,-1.175 L -5.334,11.493 Z M 4.46,11 c -1.143,0.604 -2.87,0.582 -4.61,0.56 2.278,1.152 3.997,2.88 3.385,6.352 -0.659,5.176 -5.293,5.689 -8.16,5.079 -1.143,-0.573 -2.278,-0.588 -4.044,-0.61 -1.138,-0.614 -2.88,-0.637 -4.012,-0.652 l 0.015,-1.157 c 1.125,0.604 2.309,0.619 2.882,-0.528 0.014,-1.132 0.629,-4.02 0.644,-5.152 L -7.563,4.495 c 0.015,-1.147 0.644,-4.029 0.659,-5.152 -0.577,-1.155 -1.752,-1.171 -2.889,-1.768 l 0.008,-0.599 c 2.319,0.03 3.444,0.644 5.778,0.674 1.127,0.597 2.278,0.612 4.029,0.635 1.74,0.023 4.027,0.617 5.169,1.782 C 6.93,1.827 8.023,3.549 7.429,5.871 7.399,8.158 6.224,9.902 4.46,11"
             style="fill:#003399;fill-opacity:1;fill-rule:nonzero;stroke:none"
             id="path146" /></g><g
           id="g148"
           transform="translate(318.9751,332.9355)"><path
             d="m 0,0 4.731,-9.168 -6.366,-0.648 z m -0.293,-20.633 -0.015,1.172 c -1.167,-0.015 -2.908,-0.637 -2.931,1.119 -0.573,1.131 0.532,4.035 0.51,5.757 l -0.015,1.149 7.488,1.294 2.384,-4.038 c 0.008,-0.572 0.573,-1.724 0.58,-2.297 0.618,-1.714 -1.12,-1.737 -1.669,-2.336 l 0.007,-0.565 c 1.15,0.015 2.869,0.602 4.594,0.624 1.152,0.608 2.877,0.63 4.02,0.645 l -0.015,1.137 c -1.143,-0.014 -2.283,-0.029 -2.875,0.548 -0.607,1.122 -1.777,2.866 -2.362,3.996 L 0.514,5.327 -0.629,5.312 -3.344,-10.246 c -0.528,-2.354 -0.498,-4.649 -1.028,-7.527 -0.577,-1.748 -1.137,-2.355 -2.847,-2.95 l 0.008,-0.567 c 1.167,0.015 2.284,0.029 3.444,0.612 z"
             style="fill:#003399;fill-opacity:1;fill-rule:nonzero;stroke:none"
             id="path150" /></g><g
           id="g152"
           transform="translate(474.1396,317.7627)"><path
             d="M 0,0 -5.739,-2.971 -7.61,6.816 Z m -5.634,-11.021 c 0.622,-2.287 0.037,-2.883 -1.125,-4.032 l 0.599,-0.559 c 0.578,0.575 1.72,1.155 2.88,1.737 1.142,0.605 1.665,1.185 2.835,1.792 l -0.59,0.56 c -0.588,-0.576 -2.26,-1.189 -2.87,-0.038 -0.595,1.691 -1.189,4.585 -1.204,5.735 l -0.607,1.147 6.874,3.554 2.912,-2.294 C 5.229,-3.944 5.816,-5.095 6.394,-5.677 7.016,-6.818 5.854,-7.981 4.699,-7.996 l 0.597,-1.15 c 1.128,1.171 2.879,1.77 4.022,2.357 1.135,1.165 2.852,1.777 4.014,2.357 L 12.74,-3.848 C 12.155,-3.854 10.996,-4.462 9.855,-3.885 8.698,-3.359 6.948,-1.632 6.334,-1.058 L -8.82,11.988 -9.994,11.974 -6.908,-3.562 c 0.622,-2.279 1.243,-5.134 1.274,-7.459"
             style="fill:#003399;fill-opacity:1;fill-rule:nonzero;stroke:none"
             id="path154" /></g><g
           id="g156"
           transform="translate(479.3403,335.1357)"><path
             d="m 0,0 8.232,-11.414 c 1.165,-1.149 2.34,-2.85 2.97,-4.024 0.592,-1.714 0.029,-2.29 -1.113,-3.459 l 0.551,-0.576 c 1.169,1.181 1.727,1.761 2.879,2.343 1.149,0.587 2.285,1.17 2.839,2.352 l -0.007,0.59 c -1.145,-0.605 -2.28,-1.212 -3.454,-0.635 -1.147,1.133 -2.897,2.825 -3.522,3.989 L 1.737,-0.58 22.627,-7.199 c 1.175,-0.585 2.325,-1.136 3.475,-1.12 l 0.57,0.572 -9.379,12.598 C 16.082,6.54 13.75,9.38 13.161,10.54 c -0.615,1.697 0.552,1.713 1.119,2.885 l -0.591,0.609 C 12.531,13.401 11.97,12.847 11.42,11.675 10.244,11.085 9.099,10.487 7.956,9.897 L 8.548,9.313 c 1.71,0.615 2.317,1.198 4.035,0.052 1.182,-1.115 2.355,-3.431 3.521,-4.53 L 22.583,-3.763 -0.045,3.446 C -0.607,2.854 -1.742,2.272 -2.334,2.265 -2.912,1.116 -3.487,1.109 -4.629,0.539 l 0.608,-1.194 C -2.904,0.562 -1.72,0.576 0,0"
             style="fill:#003399;fill-opacity:1;fill-rule:nonzero;stroke:none"
             id="path158" /></g><g
           id="g160"
           transform="translate(193.3423,326.7568)"><path
             d="m 0,0 c -1.722,-2.9 -4.032,-3.498 -6.339,-1.803 -0.59,0.555 -1.174,0.547 -1.182,1.13 l 4.53,6.969 c 1.127,1.762 1.127,1.762 2.319,0.596 C 1.643,5.216 2.265,2.901 0,0 m 3.459,-1.676 c 2.85,4.097 0.476,7.511 -2.406,9.179 -1.158,0.577 -2.34,1.726 -3.49,2.268 -1.182,1.137 -2.924,1.686 -4.089,2.836 L -7.101,12.01 c 1.168,-0.56 2.325,-1.117 1.77,-2.832 C -5.896,8.543 -7.61,6.236 -8.153,5.089 L -13.8,-3.625 c -0.56,-1.182 -2.29,-3.477 -3.417,-4.099 -0.595,-1.165 -1.744,-0.022 -2.909,0.57 l 0.015,-1.187 c 1.165,-0.562 2.314,-1.678 3.481,-2.213 1.757,-1.176 2.942,-1.741 4.089,-2.859 l 0.568,0.565 c -1.182,1.14 -2.305,1.717 -1.745,2.882 -0.015,1.13 1.663,3.485 2.215,4.649 l 2.847,3.484 c 0,0 1.165,-1.142 1.75,-1.135 2.897,-2.252 7.531,-3.349 10.365,1.292"
             style="fill:#003399;fill-opacity:1;fill-rule:nonzero;stroke:none"
             id="path162" /></g><g
           id="g164"
           transform="translate(512.6875,346.0723)"><path
             d="m 0,0 -5.139,-4.111 -3.579,9.765 z m -3.885,-12.155 c 0.023,-1.754 0.03,-2.32 -1.105,-3.467 l 0.583,-1.157 c 0.567,1.172 1.743,1.79 2.311,2.328 1.145,0.579 2.268,1.203 2.845,1.786 l -0.6,1.147 c -0.55,-0.591 -1.685,-1.752 -2.85,-0.622 -0.604,1.145 -1.819,4.017 -1.841,5.746 l -0.575,0.568 6.321,4.692 3.462,-2.267 C 5.276,-3.976 6.44,-4.528 6.999,-5.094 7.595,-6.236 6.478,-7.423 5.9,-7.988 l 0.593,-0.595 c 1.117,1.175 2.279,1.79 3.404,2.951 1.121,1.163 2.288,1.745 3.44,2.343 l -0.015,1.157 C 12.17,-2.731 11.002,-3.319 9.86,-2.762 9.268,-2.77 6.946,-1.06 6.388,-0.499 l -16.926,11.325 -0.549,-0.607 4.82,-14.912 c 0.58,-2.287 1.195,-4.595 2.382,-7.462"
             style="fill:#003399;fill-opacity:1;fill-rule:nonzero;stroke:none"
             id="path166" /></g><g
           id="g168"
           transform="translate(212.5674,323.2461)"><path
             d="M 0,0 0.015,-1.131 C 0.6,-1.723 1.774,-2.275 0.63,-4.027 0.067,-5.167 -4.497,-9.296 -5.615,-10.46 l -7.446,-5.84 2.139,9.808 c 0.596,1.772 2.246,7.529 2.814,8.721 0.567,1.128 2.321,0.6 2.879,0.038 l 0.575,0.577 c -1.75,0.528 -2.902,1.67 -4.074,2.22 -1.147,0.568 -2.366,1.705 -3.5,2.28 l -0.549,-0.598 c 1.705,-1.712 1.17,-3.441 0.632,-5.754 l -4.908,-20.789 1.15,-0.592 14.842,12.895 c 2.295,1.752 4.575,4.652 6.899,2.984 l -0.007,0.55 c -0.6,0.575 -1.732,1.125 -2.914,1.7 C 2.317,-1.7 1.174,-1.115 0,0"
             style="fill:#003399;fill-opacity:1;fill-rule:nonzero;stroke:none"
             id="path170" /></g><g
           id="g172"
           transform="translate(441.1733,297.9551)"><path
             d="M 0,0 1.638,6.936 0.46,6.921 c -0.52,-2.295 -0.505,-3.46 -2.841,-4.657 -1.143,-0.58 -2.86,-0.037 -4.612,-0.06 -3.467,0.545 -4.049,1.688 -3.541,6.289 l 1.584,11.008 c 0.585,1.13 0.548,4.034 1.108,5.184 0.543,1.135 2.302,0.592 2.886,0.6 l 0.543,1.164 c -1.727,-0.021 -3.452,-0.044 -5.201,0.543 -1.16,-0.015 -2.902,0.486 -4.034,0.471 l -0.585,-0.531 c 1.15,0.014 2.292,-0.579 2.914,-1.729 0.015,-1.131 -0.555,-4.008 -0.54,-5.182 L -13.417,9.62 c -0.577,-1.172 -1.124,-4.069 -1.117,-4.627 -1.14,-1.162 -2.295,-1.177 -3.417,-1.191 l 0.007,-0.573 c 5.757,-1.092 10.958,-1.59 16.762,-2.68 0,0 1.175,0.015 1.182,-0.549"
             style="fill:#003399;fill-opacity:1;fill-rule:nonzero;stroke:none"
             id="path174" /></g><g
           id="g176"
           transform="translate(174.124,325.1709)"><path
             d="m 0,0 c -2.838,-2.863 -4.57,-2.32 -7.487,-0.618 -1.174,0.506 -2.332,1.699 -2.354,3.441 -0.015,1.13 1.112,2.32 1.682,3.46 l 3.409,5.237 c 2.898,-1.71 4.072,-2.845 1.808,-6.302 l 0.585,-0.595 c 1.131,1.189 1.702,2.32 2.822,4.066 0.585,1.159 1.737,2.314 2.839,4.092 L 2.729,12.774 C 1.035,10.987 -0.685,9.25 -4.172,12.102 l 5.094,7.563 c 1.153,1.165 1.153,1.165 1.71,0.583 l 1.755,-1.13 c 2.892,-2.275 4.089,-3.417 1.809,-6.882 l 0.583,-0.567 3.416,4.654 -12.242,8.519 -1.141,-0.635 c 1.157,-0.56 2.323,-1.127 1.761,-2.85 -0.567,-0.58 -2.262,-2.926 -2.812,-4.088 L -9.923,9.13 C -11.065,7.99 -12.788,5.663 -13.331,5.083 -14.49,4.466 -15.623,5.054 -16.24,5.618 L -16.783,5.038 -2.808,-5.16 0.578,0.007 Z"
             style="fill:#003399;fill-opacity:1;fill-rule:nonzero;stroke:none"
             id="path178" /></g><g
           id="g180"
           transform="translate(406.9521,314.0537)"><path
             d="M 0,0 4.519,9.296 6.378,-1.048 Z m 11.699,-10.211 c -0.568,1.157 -0.597,3.454 -1.229,4.597 L 6.759,13.944 5.609,14.479 -1.138,0.578 C -2.277,-1.752 -3.397,-4.064 -4.52,-6.384 -5.689,-8.121 -6.241,-8.728 -7.964,-8.75 l -0.553,-0.558 c 1.135,0.015 2.291,-0.57 3.477,-0.554 1.143,0.014 2.283,-0.536 3.45,-0.521 l -0.008,0.565 c -0.583,0.592 -2.307,0.57 -2.329,2.275 0.559,1.174 1.672,4.066 2.232,5.224 l 0.58,1.174 8.083,-1.062 0.625,-4.02 0.045,-3.471 c 0.015,-1.148 -1.707,-0.587 -2.292,-0.595 l -0.557,-1.189 c 1.725,0.022 3.432,0.044 4.613,-0.489 1.767,0.023 3.467,-0.54 4.61,-0.525 l -0.008,0.585 c -1.15,0.533 -1.732,0.525 -2.305,1.7"
             style="fill:#003399;fill-opacity:1;fill-rule:nonzero;stroke:none"
             id="path182" /></g><g
           id="g184"
           transform="translate(402.2715,324.0508)"><path
             d="m 0,0 0.607,-0.55 1.067,5.801 -19.661,3.206 -1.082,-5.8 1.165,-0.556 c 0.498,4.584 1.64,4.598 5.134,4.101 1.133,0.015 2.893,-0.553 2.317,-1.108 l -2.07,-17.907 c -0.513,-2.903 -1.123,-3.487 -4.584,-3.531 l 0.007,-0.565 c 1.745,-0.56 3.469,-0.537 5.226,-0.515 1.72,-0.55 3.467,-1.095 5.177,-1.073 l -0.008,0.567 c -2.881,1.118 -2.889,1.683 -2.926,4.59 l 2.635,17.897 c -0.015,1.13 1.751,0.604 3.479,0.627 C -0.625,4.639 0.555,3.47 0,0"
             style="fill:#003399;fill-opacity:1;fill-rule:nonzero;stroke:none"
             id="path186" /></g><g
           id="g188"
           transform="translate(451.4282,320.666)"><path
             d="m 0,0 c 0.008,-0.605 0.62,-3.46 0.635,-4.6 l 0.744,-10.945 c 0.015,-1.154 0.592,-3.447 0.059,-4.619 0.023,-1.715 -1.705,-1.737 -2.304,-1.745 l 0.008,-0.566 c 1.724,0.023 2.874,0.038 4.608,0.625 l 4.61,0.06 -0.007,0.568 c -1.133,-0.014 -2.28,-0.03 -2.883,1.111 -0.605,1.156 -0.642,4.021 -0.657,5.169 L 3.526,-4.562 3.459,0.604 c 0.528,1.182 1.727,1.198 2.87,1.212 L 6.313,2.971 C 4.581,2.948 2.837,2.344 1.695,2.329 L -2.915,2.27 -2.899,1.095 C -1.757,1.109 -0.573,1.727 0,0"
             style="fill:#003399;fill-opacity:1;fill-rule:nonzero;stroke:none"
             id="path190" /></g></g></g></g></svg>
