<?xml version="1.0" encoding="UTF-8" standalone="no"?>
<svg
   xmlns:dc="http://purl.org/dc/elements/1.1/"
   xmlns:cc="http://creativecommons.org/ns#"
   xmlns:rdf="http://www.w3.org/1999/02/22-rdf-syntax-ns#"
   xmlns:svg="http://www.w3.org/2000/svg"
   xmlns="http://www.w3.org/2000/svg"
   xmlns:sodipodi="http://sodipodi.sourceforge.net/DTD/sodipodi-0.dtd"
   xmlns:inkscape="http://www.inkscape.org/namespaces/inkscape"
   version="1.1"
   id="svg2"
   xml:space="preserve"
   width="3200"
   height="1333.3333"
   viewBox="0 0 3200 1333.3333"
   sodipodi:docname="LOGO orizzontale 2021 - BIANCO.ai"><metadata
     id="metadata8"><rdf:RDF><cc:Work
         rdf:about=""><dc:format>image/svg+xml</dc:format><dc:type
           rdf:resource="http://purl.org/dc/dcmitype/StillImage" /></cc:Work></rdf:RDF></metadata><defs
     id="defs6"><clipPath
       clipPathUnits="userSpaceOnUse"
       id="clipPath20"><path
         d="M 0,0 H 2400 V 1000 H 0 Z"
         id="path18" /></clipPath><clipPath
       clipPathUnits="userSpaceOnUse"
       id="clipPath72"><path
         d="M 0,1000 H 2400 V 0 H 0 Z"
         id="path70" /></clipPath></defs><sodipodi:namedview
     pagecolor="#ffffff"
     bordercolor="#666666"
     borderopacity="1"
     objecttolerance="10"
     gridtolerance="10"
     guidetolerance="10"
     inkscape:pageopacity="0"
     inkscape:pageshadow="2"
     inkscape:window-width="640"
     inkscape:window-height="480"
     id="namedview4" /><g
     id="g10"
     inkscape:groupmode="layer"
     inkscape:label="LOGO orizzontale 2021 - BIANCO"
     transform="matrix(1.3333333,0,0,-1.3333333,0,1333.3333)"><path
       d="M 0,0 H 2400 V 1000 H 0 Z M 1,999 H 2399 V 1 H 1 Z"
       style="fill:#000000;fill-opacity:1;fill-rule:nonzero;stroke:none"
       id="path12" /><g
       id="g14"><g
         id="g16"
         clip-path="url(#clipPath20)"><g
           id="g22"
           transform="translate(1723.7031,253.4648)"><path
             d="m 0,0 h 121.374 l 15.169,222.062 c 2.757,37.24 0,82.75 0,82.75 h 1.371 c 0,0 16.556,-51.725 27.583,-82.75 L 217.22,79.313 h 103.447 l 51.716,142.749 c 11.034,31.025 27.591,82.75 27.591,82.75 h 1.385 c 0,0 -2.764,-45.51 0,-82.75 L 416.521,0 H 537.202 L 497.206,493.07 H 366.176 L 294.455,284.814 c -11.026,-31.727 -24.818,-81.37 -24.818,-81.37 h -1.379 c 0,0 -13.798,49.643 -24.826,81.37 L 171.711,493.07 H 40.688 Z"
             style="fill:#ffffff;fill-opacity:1;fill-rule:nonzero;stroke:none"
             id="path24" /></g><g
           id="g26"
           transform="translate(972.0469,453.4512)"><path
             d="m 0,0 28.272,95.862 c 8.971,31.033 19.998,84.82 19.998,84.82 h 1.378 c 0,0 11.039,-53.787 20.001,-84.82 L 97.232,0 Z M 112.406,293.084 H -14.481 l -167.579,-493.07 h 124.13 l 29.655,103.446 h 153.783 l 30.344,-103.446 h 124.126 z"
             style="fill:#ffffff;fill-opacity:1;fill-rule:nonzero;stroke:none"
             id="path28" /></g><g
           id="g30"
           transform="translate(1443.0361,356.9111)"><path
             d="M 0,0 H -49.646 V 286.185 H 0 c 81.378,0 134.483,-48.266 134.483,-142.049 C 134.483,49.652 83.445,0 0,0 m 4.836,389.624 h -175.164 v -493.07 H 4.836 c 155.159,0 254.463,92.42 254.463,247.582 0,155.162 -99.304,245.488 -254.463,245.488"
             style="fill:#ffffff;fill-opacity:1;fill-rule:nonzero;stroke:none"
             id="path32" /></g><g
           id="g34"
           transform="translate(660.187,709.0195)"><path
             d="M 0,0 H 14.462 L 7.288,17.235 Z m -13.034,-16.035 -0.257,0.229 v 1.487 l 0.257,0.228 c 1.391,0.019 2.287,0.09 2.687,0.215 0.4,0.123 0.758,0.371 1.072,0.743 0.315,0.371 0.948,1.586 1.9,3.644 l 3.001,6.516 7.775,17.606 c 1.467,3.45 2.925,6.898 4.373,10.347 h 1.858 l 12.204,-28.696 1.629,-3.83 c 0.476,-1.086 1.025,-2.267 1.644,-3.544 0.619,-1.277 1.048,-2.03 1.286,-2.258 0.238,-0.228 0.533,-0.405 0.886,-0.528 0.353,-0.125 1.138,-0.196 2.358,-0.215 l 0.229,-0.228 v -1.487 l -0.229,-0.229 c -2.02,0.172 -3.84,0.258 -5.459,0.258 -3.163,-0.096 -6.326,-0.181 -9.489,-0.258 l -0.229,0.229 v 1.487 l 0.229,0.228 c 2.134,0.038 3.468,0.129 4.001,0.272 0.534,0.142 0.801,0.471 0.801,0.986 0,0.418 -0.134,0.972 -0.401,1.658 l -3.515,8.717 H -0.972 l -3.115,-7.317 c -0.554,-1.315 -0.829,-2.277 -0.829,-2.887 0,-0.477 0.257,-0.829 0.771,-1.058 0.515,-0.228 1.811,-0.352 3.888,-0.371 L 0,-14.319 v -1.487 l -0.229,-0.229 c -2.458,0.153 -4.611,0.229 -6.459,0.229 -2.097,0 -4.212,-0.076 -6.346,-0.229"
             style="fill:#ffffff;fill-opacity:1;fill-rule:nonzero;stroke:none"
             id="path36" /></g><g
           id="g38"
           transform="translate(689.1406,638.5479)"><path
             d="m 0,0 v -0.857 l -0.115,-0.343 -1.4,-0.829 c -0.343,-0.21 -0.543,-0.372 -0.6,-0.486 -0.057,-0.114 -0.129,-0.682 -0.215,-1.701 -0.086,-1.019 -0.128,-2.263 -0.128,-3.73 0,-1.658 0.104,-3.458 0.314,-5.401 l -0.171,-0.287 c -5.221,-2 -10.585,-3.001 -16.092,-3.001 -4.23,0 -8.051,0.801 -11.461,2.401 -3.411,1.601 -6.117,3.973 -8.117,7.117 -2.001,3.144 -3.001,6.879 -3.001,11.204 0,6.593 2.253,11.833 6.759,15.72 4.506,3.887 10.389,5.831 17.649,5.831 5.335,0 10.127,-0.905 14.377,-2.716 l 0.2,-0.314 c -0.343,-1.276 -0.743,-3.954 -1.201,-8.031 l -0.228,-0.2 h -1.315 l -0.229,0.228 -0.143,3.03 c -0.056,0.991 -0.119,1.572 -0.185,1.743 -0.067,0.172 -0.272,0.396 -0.615,0.672 -0.343,0.276 -1.224,0.715 -2.644,1.315 -1.419,0.6 -2.843,1.038 -4.272,1.315 -1.43,0.276 -2.964,0.414 -4.602,0.414 -3.487,0 -6.574,-0.724 -9.26,-2.172 -2.687,-1.448 -4.712,-3.558 -6.074,-6.331 -1.363,-2.772 -2.044,-5.855 -2.044,-9.246 0,-3.506 0.733,-6.769 2.201,-9.79 1.466,-3.02 3.572,-5.378 6.316,-7.074 2.745,-1.696 5.935,-2.543 9.575,-2.543 1.581,0 3.197,0.157 4.845,0.472 1.648,0.314 3.005,0.757 4.073,1.328 0.172,0.61 0.257,1.839 0.257,3.688 v 3.172 c 0,1.505 -0.096,2.444 -0.286,2.816 -0.19,0.371 -0.662,0.633 -1.415,0.785 -0.753,0.153 -2.377,0.248 -4.873,0.286 l -0.257,0.258 V 0 l 0.257,0.257 1.744,-0.057 c 2.991,-0.096 5.431,-0.143 7.316,-0.143 1.087,0 2.678,0.058 4.774,0.172 z"
             style="fill:#ffffff;fill-opacity:1;fill-rule:nonzero;stroke:none"
             id="path40" /></g><g
           id="g42"
           transform="translate(652.8701,592.9141)"><path
             d="M 0,0 0.229,0.2 C 6.764,0.086 10.946,0.028 12.776,0.028 c 6.249,0 11.813,0.058 16.692,0.172 L 29.611,0 c -0.477,-1.829 -0.829,-4.697 -1.058,-8.603 l -0.172,-0.229 h -1.4 l -0.257,0.229 c 0.019,0.172 0.028,0.324 0.028,0.457 0,1.62 -0.124,3.163 -0.371,4.63 -1.2,0.534 -2.863,0.881 -4.987,1.044 -2.125,0.161 -3.721,0.243 -4.788,0.243 -1.505,0 -3.43,-0.105 -5.773,-0.314 l -0.115,-4.574 -0.086,-5.23 -0.085,-5.802 c 2.057,-0.115 3.953,-0.172 5.687,-0.172 1.753,0 3.22,0.057 4.402,0.172 1.181,0.114 1.872,0.233 2.072,0.357 0.2,0.124 0.353,0.362 0.458,0.714 0.104,0.353 0.195,0.977 0.271,1.872 l 0.114,1.773 0.229,0.228 h 1.315 l 0.228,-0.228 c -0.038,-2.077 -0.086,-4.164 -0.142,-6.26 l 0.142,-6.431 -0.228,-0.229 H 23.78 l -0.229,0.229 -0.2,1.715 c -0.171,1.334 -0.295,2.13 -0.372,2.387 -0.076,0.257 -0.252,0.48 -0.528,0.671 -0.277,0.19 -0.986,0.344 -2.129,0.457 -1.144,0.115 -2.716,0.172 -4.717,0.172 -1.105,0 -2.791,-0.048 -5.058,-0.143 -0.096,-1.6 -0.143,-4.268 -0.143,-8.003 0,-4.001 0.047,-6.945 0.143,-8.831 h 5.259 c 4.63,0 7.526,0.057 8.689,0.171 1.161,0.114 2.267,0.39 3.315,0.829 0.171,0.438 0.452,1.452 0.843,3.044 0.39,1.591 0.615,2.587 0.672,2.987 l 0.286,0.2 h 1.371 l 0.229,-0.2 c -0.171,-0.82 -0.338,-2.249 -0.5,-4.288 -0.162,-2.039 -0.243,-3.782 -0.243,-5.23 l -0.2,-0.229 c -3.64,0.115 -8.403,0.172 -14.291,0.172 l -7.774,0.057 c -1.81,0 -3.697,-0.076 -5.659,-0.229 l -0.229,0.229 v 0.943 l 0.229,0.286 c 1.123,0.572 1.767,0.929 1.929,1.072 0.161,0.143 0.295,1.81 0.4,5.002 0.105,3.191 0.157,5.626 0.157,7.302 v 10.49 l -0.028,6.488 c 0,1.41 -0.02,2.558 -0.057,3.444 -0.039,0.886 -0.106,1.519 -0.201,1.901 -0.095,0.381 -0.205,0.647 -0.328,0.8 -0.124,0.152 -0.324,0.281 -0.6,0.386 C 3.539,-1.967 3.067,-1.877 2.401,-1.8 L 0.229,-1.629 0,-1.429 Z"
             style="fill:#ffffff;fill-opacity:1;fill-rule:nonzero;stroke:none"
             id="path44" /></g><g
           id="g46"
           transform="translate(646.2251,482.2852)"><path
             d="M 0,0 -0.258,0.258 V 1.572 L 0,1.801 C 1.162,1.82 2.09,1.887 2.786,2.001 3.481,2.115 3.93,2.306 4.129,2.572 4.33,2.839 4.462,3.268 4.53,3.859 4.596,4.449 4.663,5.782 4.729,7.86 4.796,9.938 4.83,11.423 4.83,12.319 v 23.094 c 0,0.972 -0.176,1.691 -0.529,2.157 -0.353,0.468 -0.834,0.763 -1.444,0.888 -0.609,0.123 -1.648,0.194 -3.115,0.214 L -0.486,38.9 v 1.344 l 0.228,0.256 c 2.63,-0.095 4.354,-0.142 5.174,-0.142 1.924,0 3.505,0.047 4.744,0.142 L 18.778,28.667 32.183,11.861 C 33.802,9.822 35.451,7.889 37.127,6.06 v 22.122 c 0,0.686 -0.033,2.148 -0.1,4.387 -0.067,2.239 -0.148,3.659 -0.242,4.259 -0.097,0.6 -0.263,1.005 -0.501,1.215 -0.239,0.209 -0.686,0.367 -1.343,0.472 -0.658,0.104 -1.548,0.166 -2.672,0.185 l -0.229,0.229 v 1.315 l 0.229,0.256 c 1.543,-0.095 3.744,-0.142 6.602,-0.142 2.61,0 4.506,0.047 5.688,0.142 l 0.257,-0.256 V 38.929 L 44.587,38.7 c -1.257,-0.019 -2.229,-0.091 -2.915,-0.215 -0.686,-0.123 -1.115,-0.328 -1.287,-0.614 -0.171,-0.286 -0.29,-0.705 -0.357,-1.257 -0.067,-0.554 -0.133,-1.868 -0.2,-3.945 -0.067,-2.077 -0.1,-3.572 -0.1,-4.487 V 14.605 l 0.029,-7.86 C 39.795,4.174 39.833,1.591 39.871,-1 38.918,-0.676 37.27,-0.275 34.926,0.2 l -2.029,2.402 -6.088,7.43 -19.378,24.21 V 12.319 c 0,-0.877 0.033,-2.439 0.1,-4.688 C 7.597,5.383 7.678,4.021 7.774,3.545 7.869,3.068 7.993,2.739 8.146,2.558 8.298,2.377 8.626,2.21 9.131,2.059 9.636,1.905 10.679,1.82 12.261,1.801 L 12.49,1.572 V 0.229 L 12.261,0 C 11.27,0.134 9.67,0.2 7.459,0.2 4.62,0.2 2.134,0.134 0,0"
             style="fill:#ffffff;fill-opacity:1;fill-rule:nonzero;stroke:none"
             id="path48" /></g><g
           id="g50"
           transform="translate(650.1689,412.2705)"><path
             d="m 0,0 v 1.372 l 6.888,8.518 16.32,21.007 c 2.477,3.164 4.145,5.431 5.002,6.803 h -1.172 l -4.601,0.029 c -4.041,0 -7.293,-0.062 -9.761,-0.186 C 10.208,37.418 8.579,37.29 7.789,37.157 6.997,37.023 6.512,36.838 6.331,36.601 6.149,36.361 6.002,35.795 5.888,34.899 L 5.487,31.126 5.23,30.869 H 3.887 L 3.63,31.126 c 0.095,1.448 0.142,2.602 0.142,3.459 0,2.324 -0.047,4.163 -0.142,5.516 l 0.257,0.256 c 6.802,-0.151 11.557,-0.227 14.262,-0.227 4.497,0 10.404,0.076 17.721,0.227 l 0.257,-0.256 v -1.457 c -2.096,-2.478 -3.563,-4.25 -4.401,-5.316 L 7.917,2.659 19.493,2.459 c 2.305,0 4.63,0.058 6.974,0.172 2.343,0.114 3.887,0.227 4.63,0.342 0.743,0.115 1.252,0.281 1.529,0.501 0.276,0.218 0.462,0.438 0.558,0.657 0.094,0.219 0.247,0.872 0.457,1.958 l 0.628,3.83 0.258,0.228 H 35.87 L 36.099,9.919 C 35.965,8.699 35.832,5.384 35.698,-0.027 l -0.257,-0.23 c -8.041,0.153 -14.386,0.23 -19.035,0.23 -3.259,0 -8.641,-0.077 -16.149,-0.23 z"
             style="fill:#ffffff;fill-opacity:1;fill-rule:nonzero;stroke:none"
             id="path52" /></g><g
           id="g54"
           transform="translate(660.4868,382.3857)"><path
             d="m 0,0 3.573,-0.113 c 2.344,-0.077 3.877,-0.116 4.601,-0.116 0.648,0 3.383,0.077 8.203,0.229 l 0.229,-0.2 v -1.429 l -0.229,-0.2 C 15.063,-1.867 14.048,-1.925 13.333,-2.001 12.619,-2.076 12.099,-2.219 11.775,-2.43 11.451,-2.639 11.237,-3.129 11.133,-3.901 11.028,-4.673 10.976,-5.745 10.976,-7.116 l -0.058,-6.573 v -13.235 l 0.029,-5.573 c 0.019,-2.153 0.076,-3.544 0.171,-4.173 0.095,-0.629 0.234,-1.048 0.414,-1.258 0.181,-0.21 0.529,-0.385 1.044,-0.529 0.514,-0.143 1.781,-0.252 3.801,-0.328 l 0.229,-0.172 v -1.429 l -0.229,-0.228 c -0.095,0 -1.772,0.056 -5.03,0.171 -1.353,0.039 -2.41,0.057 -3.173,0.057 -0.591,0 -3.315,-0.076 -8.174,-0.228 l -0.229,0.228 v 1.429 L 0,-38.785 c 1.772,0.076 2.954,0.171 3.544,0.285 0.59,0.115 0.986,0.263 1.186,0.443 0.2,0.182 0.362,0.567 0.486,1.159 0.124,0.589 0.196,1.904 0.215,3.943 l 0.028,6.031 v 13.235 L 5.402,-8.117 C 5.383,-5.944 5.33,-4.545 5.245,-3.915 5.159,-3.286 5.025,-2.868 4.845,-2.657 4.663,-2.448 4.316,-2.276 3.801,-2.144 3.287,-2.01 2.019,-1.905 0,-1.829 l -0.229,0.2 V -0.2 Z"
             style="fill:#ffffff;fill-opacity:1;fill-rule:nonzero;stroke:none"
             id="path56" /></g><g
           id="g58"
           transform="translate(660.187,287.5635)"><path
             d="M 0,0 H 14.462 L 7.288,17.234 Z m -13.034,-16.035 -0.257,0.228 v 1.488 l 0.257,0.228 c 1.391,0.019 2.287,0.09 2.687,0.214 0.4,0.123 0.758,0.371 1.072,0.743 0.315,0.371 0.948,1.586 1.9,3.644 l 3.001,6.517 7.775,17.607 c 1.467,3.448 2.925,6.896 4.373,10.346 h 1.858 l 12.204,-28.696 1.629,-3.83 c 0.476,-1.086 1.025,-2.267 1.644,-3.544 0.619,-1.277 1.048,-2.029 1.286,-2.259 0.238,-0.227 0.533,-0.405 0.886,-0.528 0.353,-0.124 1.138,-0.195 2.358,-0.214 l 0.229,-0.228 v -1.488 l -0.229,-0.228 c -2.02,0.172 -3.84,0.257 -5.459,0.257 -3.163,-0.095 -6.326,-0.18 -9.489,-0.257 l -0.229,0.228 v 1.488 l 0.229,0.228 c 2.134,0.037 3.468,0.128 4.001,0.271 0.534,0.143 0.801,0.471 0.801,0.987 0,0.418 -0.134,0.971 -0.401,1.657 l -3.515,8.717 H -0.972 l -3.115,-7.316 c -0.554,-1.315 -0.829,-2.278 -0.829,-2.888 0,-0.476 0.257,-0.828 0.771,-1.057 0.515,-0.228 1.811,-0.352 3.888,-0.371 L 0,-14.319 v -1.488 l -0.229,-0.228 c -2.458,0.153 -4.611,0.228 -6.459,0.228 -2.097,0 -4.212,-0.075 -6.346,-0.228"
             style="fill:#ffffff;fill-opacity:1;fill-rule:nonzero;stroke:none"
             id="path60" /></g><path
           d="m 634.778,251.173 h -4.602 V 750 h 4.602 z"
           style="fill:#009245;fill-opacity:1;fill-rule:nonzero;stroke:none"
           id="path62" /><path
           d="m 708,250.516 h -4.602 V 749.344 H 708 Z"
           style="fill:#c1272d;fill-opacity:1;fill-rule:nonzero;stroke:none"
           id="path64" /></g></g><g
       id="g66"><g
         id="g68"
         clip-path="url(#clipPath72)"><g
           id="g74"
           transform="translate(226.626,656.6948)"><path
             d="M 0,0 3.51,1.586 4.249,-0.046 V -0.062 L 9.822,-12.316 7.651,-14.21 c -2.863,-2.494 -5.711,-5.157 -8.452,-7.944 -1.308,-1.339 -2.601,-2.709 -3.926,-4.157 -0.538,-0.585 -1.092,-1.2 -1.647,-1.816 l -2.878,2.524 h -0.016 v 0.016 0.015 l 0.893,6.605 v 0.046 c 0.693,0.724 1.386,1.447 2.094,2.155 0.877,0.909 1.77,1.787 2.678,2.679 1.34,1.294 2.695,2.556 4.049,3.788 l -0.908,1.986 -1.786,3.941 z"
             style="fill:#ffffff;fill-opacity:1;fill-rule:nonzero;stroke:none"
             id="path76" /></g><g
           id="g78"
           transform="translate(179.8394,571.2661)"><path
             d="M 0,0 -3.171,1.771 C -3.217,1.678 -3.264,1.601 -3.31,1.524 -3.987,0.339 -4.572,-0.693 -5.049,-1.585 -5.126,-1.74 -5.204,-1.878 -5.28,-2.017 l -1.648,-2.925 0.108,-0.061 4.249,-2.372 1.648,-0.923 c -1.155,-5.604 -1.971,-10.9 -2.494,-16.042 l -11.701,-2.417 -3.787,-0.785 h -0.015 v -0.031 l -0.124,-2.987 c -0.031,-0.969 -0.061,-2.74 -0.077,-4.88 -0.03,-5.373 -0.015,-12.978 0.077,-15.426 l 0.124,-3.017 15.503,-3.203 c 0.523,-5.003 1.354,-10.299 2.509,-16.026 l -13.841,-7.883 0.909,-2.94 c 0.477,-1.57 1.709,-5.481 2.986,-9.453 0.247,-0.754 0.493,-1.524 0.74,-2.279 l 0.554,-1.663 0.569,0.186 3.079,1.016 2.202,5.311 c 0.015,0.031 0.046,0.077 0.062,0.139 -0.416,1.324 -0.847,2.647 -1.232,3.864 v 0.016 c -0.246,0.785 -0.477,1.493 -0.693,2.17 l 2.448,1.385 4.727,2.695 h 0.015 l 5.188,8.19 c 0,0 -0.015,0 0,0.016 -0.015,0.061 -0.031,0.123 -0.046,0.184 -0.247,1.232 -0.477,2.433 -0.693,3.603 -1.001,5.373 -1.693,10.315 -2.078,14.995 l -0.231,2.863 -15.165,3.126 c -0.046,3.848 -0.046,9.868 0,13.732 l 15.165,3.126 0.231,2.879 c 0.523,6.527 1.57,13.286 3.202,20.675 L 7.806,-4.372 4.234,-2.371 1.062,-0.6 Z"
             style="fill:#ffffff;fill-opacity:1;fill-rule:nonzero;stroke:none"
             id="path80" /></g><g
           id="g82"
           transform="translate(491.7642,475.3223)"><path
             d="m 0,0 -2.402,0.785 -2.324,5.281 c 0.215,0.663 0.431,1.324 0.631,1.971 0.123,0.385 0.246,0.77 0.354,1.139 0.246,0.755 0.462,1.463 0.647,2.094 l -8.514,4.88 -2.463,1.416 2.309,4.742 0.477,-0.092 1.139,1.986 2.002,-1.14 L 5.789,15.057 5.158,12.271 C 4.819,10.792 3.941,7.929 3.372,6.097 3.325,5.958 3.294,5.819 3.249,5.696 2.895,4.619 2.54,3.495 2.171,2.371 Z"
             style="fill:#ffffff;fill-opacity:1;fill-rule:nonzero;stroke:none"
             id="path84" /></g><g
           id="g86"
           transform="translate(331.5229,359.792)"><path
             d="m 0,0 c -4.213,0 -8.438,0.028 -10.169,0.084 l -3.033,0.097 -3.208,15.528 c -5.139,0.529 -10.509,1.365 -16.033,2.495 l -7.71,-13.778 -2.93,0.839 c -3.334,0.954 -16.058,5.068 -19.367,6.295 l -2.824,1.046 1.773,15.743 c -4.939,2.191 -9.815,4.661 -14.557,7.373 l -11.578,-10.647 -2.505,1.632 c -2.635,1.717 -13.732,9.69 -16.506,11.967 l -2.277,1.868 6.491,14.415 c -4.26,3.89 -8.063,7.654 -11.529,11.414 l -14.331,-6.511 -1.871,2.337 c -0.454,0.566 -1.183,1.535 -2.071,2.747 l -0.746,1.025 c -1.149,1.578 -2.502,3.433 -3.811,5.248 l 6.239,4.508 c 1.305,-1.806 2.651,-3.654 3.793,-5.224 l 0.741,-1.016 c 0.024,-0.034 0.05,-0.068 0.076,-0.102 l 13.938,6.333 1.885,-2.12 c 4.31,-4.848 9.188,-9.686 14.912,-14.787 l 2.106,-1.88 -6.346,-14.091 c 3.05,-2.287 7.908,-5.797 11.056,-8.001 l 11.329,10.416 2.464,-1.469 c 6.047,-3.603 12.35,-6.796 18.737,-9.489 l 2.651,-1.117 -1.732,-15.387 c 3.667,-1.239 9.372,-3.087 13.074,-4.243 l 7.489,13.385 2.792,-0.617 c 7.222,-1.591 14.181,-2.669 20.684,-3.201 L -10.033,22.88 -6.901,7.727 C -3.034,7.688 2.953,7.688 6.803,7.726 l 2.998,14.978 2.834,0.281 c 7.635,0.757 14.405,1.843 20.701,3.321 l 2.802,0.656 7.632,-13.423 c 3.721,1.156 9.469,3.009 13.095,4.238 l -1.732,15.259 2.612,1.135 c 6.515,2.83 12.783,6.059 18.63,9.6 l 2.458,1.488 11.481,-10.444 c 3.091,2.167 7.911,5.704 11.019,8.028 l -6.47,13.972 2.177,1.899 c 5.751,5.011 10.6,9.858 14.824,14.82 l 1.875,2.201 14.152,-6.375 c 1.792,2.394 4.34,5.911 6.444,8.867 0.7,0.975 1.332,1.86 1.856,2.625 l 6.348,-4.355 c -0.552,-0.805 -1.216,-1.738 -1.944,-2.748 -2.536,-3.565 -6.916,-9.611 -8.539,-11.59 l -1.869,-2.275 -14.369,6.471 c -3.441,-3.857 -7.254,-7.661 -11.552,-11.526 l 6.639,-14.338 -2.413,-1.88 C 106.016,36.685 95.036,28.559 91.998,26.665 L 89.526,25.126 77.883,35.717 C 73.263,33.035 68.417,30.54 63.42,28.27 L 65.194,12.642 62.413,11.575 C 59.252,10.362 46.478,6.26 43.003,5.265 L 40.092,4.431 32.276,18.181 C 27.271,17.116 21.979,16.273 16.234,15.626 L 13.143,0.185 10.094,0.084 C 8.418,0.028 4.214,0 0,0"
             style="fill:#ffffff;fill-opacity:1;fill-rule:nonzero;stroke:none"
             id="path88" /></g><g
           id="g90"
           transform="translate(455.1543,629.9839)"><path
             d="m 0,0 -3.033,-1.417 -6.682,-3.109 -1.893,2.186 c -4.603,5.28 -9.468,10.146 -14.872,14.857 l -2.155,1.878 6.373,14.025 c -2.017,1.524 -4.803,3.587 -7.405,5.465 -1.401,1.032 -2.664,1.925 -3.71,2.648 L -44.631,26.08 -47.11,27.558 c -6.05,3.602 -12.347,6.804 -18.736,9.499 l -2.663,1.108 1.755,15.334 c -3.618,1.262 -9.376,3.125 -13.056,4.233 l -7.543,-13.47 -2.817,0.677 c -7.067,1.663 -13.826,2.74 -20.63,3.294 l -2.879,0.231 -3.141,15.088 c -3.787,0.093 -9.791,0.093 -13.686,0.015 l -3.018,-15.103 -2.879,-0.231 c -7.513,-0.63 -14.241,-1.708 -20.583,-3.294 l -2.818,-0.693 -7.79,13.471 c -3.633,-1.108 -9.36,-2.956 -12.978,-4.234 l 1.74,-15.318 -2.679,-1.124 c -6.281,-2.617 -12.532,-5.804 -18.582,-9.468 l -2.448,-1.478 -11.454,10.423 c -0.601,-0.431 -1.232,-0.878 -1.832,-1.309 -1.955,-1.401 -4.218,-3.048 -6.266,-4.572 0,-0.015 -0.015,-0.015 -0.015,-0.015 -0.293,-0.216 -0.57,-0.416 -0.847,-0.632 l -2.294,3.094 3.448,7.313 c 0.509,0.37 1.016,0.724 1.494,1.078 2.17,1.555 3.695,2.617 4.541,3.171 l 1.001,0.647 h 0.015 l 1.479,0.955 11.685,-10.623 c 4.726,2.755 9.575,5.219 14.456,7.374 l -1.771,15.519 2.71,1.108 c 3.402,1.37 16.165,5.512 19.444,6.358 l 2.833,0.74 7.882,-13.641 c 5.065,1.139 10.377,1.986 16.088,2.556 l 3.048,15.195 2.818,0.292 c 0.154,0.016 0.323,0.016 0.493,0.031 l 0.338,0.016 0.123,0.015 c 4.111,0.185 16.396,0.169 19.737,-0.062 l 2.895,-0.2 3.186,-15.287 c 5.312,-0.539 10.608,-1.386 16.058,-2.571 l 7.636,13.64 2.848,-0.708 c 3.449,-0.862 16.381,-5.019 19.66,-6.389 l 2.663,-1.124 -1.77,-15.488 c 4.941,-2.186 9.807,-4.665 14.548,-7.374 l 11.377,10.577 0.216,-0.139 h 0.015 l 2.248,-1.339 c 0.293,-0.17 0.616,-0.386 0.985,-0.632 1.709,-1.124 4.142,-2.848 5.62,-3.925 0.015,-0.016 0.046,-0.031 0.061,-0.047 1.555,-1.108 3.141,-2.263 4.603,-3.387 h 0.016 c 0.231,-0.153 0.462,-0.338 0.693,-0.508 2.109,-1.57 3.879,-2.94 4.757,-3.648 l 2.294,-1.879 -1.755,-3.864 -4.727,-10.438 c 4.08,-3.679 7.883,-7.482 11.516,-11.516 l 4.757,2.233 1.478,0.693 1.632,-3.495 z m -133.169,71.172 c -0.023,0 -0.047,0 -0.071,-10e-4 z"
             style="fill:#ffffff;fill-opacity:1;fill-rule:nonzero;stroke:none"
             id="path92" /></g><g
           id="g94"
           transform="translate(479.3247,520.123)"><path
             d="M 0,0 V 0.015 L 0.046,0.523 3.079,1.062 H 3.095 L 3.31,1.108 15.257,3.572 c 0.092,3.771 0.092,9.745 0,13.701 L 0.046,20.275 -0.185,23.17 c -0.631,7.513 -1.709,14.241 -3.294,20.583 l -0.693,2.833 5.958,3.387 5.527,3.156 2.848,-0.293 1.093,-1.893 -0.893,-4.896 v -0.03 L 6.466,43.8 4.665,42.784 C 5.804,37.718 6.651,32.407 7.221,26.711 l 8.02,-1.601 4.835,-0.97 c 1.016,-1.647 1.955,-3.172 2.817,-4.557 0.015,-0.293 0.031,-0.616 0.031,-0.97 0.046,-1.586 0.092,-3.803 0.092,-6.158 C 23.047,7.636 22.985,2.202 22.832,0.139 l -0.201,-2.91 -15.41,-3.172 c -0.308,-3.048 -0.74,-6.173 -1.278,-9.453 l -0.462,0.078 -3.341,0.554 z"
             style="fill:#ffffff;fill-opacity:1;fill-rule:nonzero;stroke:none"
             id="path96" /></g><g
           id="g98"
           transform="translate(331.4199,491.2402)"><path
             d="M 0,0 -57.21,-39.57 -37.27,27.3 -92.58,69.42 -22.99,71.11 0.02,136.76 23.23,70.979 92.74,69.4 37.4,27.04 57.32,-39.58 Z M 126.28,80.34 31.58,82.49 -0.02,172.01 -31.35,82.6 -126.18,80.31 -50.79,22.89 -77.93,-68.13 0,-14.221 78.07,-68.12 50.92,22.66 Z"
             style="fill:#ffffff;fill-opacity:1;fill-rule:nonzero;stroke:none"
             id="path100" /></g><g
           id="g102"
           transform="translate(361.27,571.8281)"><path
             d="M 0,0 2.594,-0.062 73.256,19.604 C 56.745,47.648 29.437,67.732 -2.39,75.239 L -0.271,0.761 Z m 3.171,-4.695 -6.461,0.153 -1.575,4.444 -2.311,81.099 2.867,-0.603 c 35.33,-7.431 65.603,-29.702 83.06,-61.101 l 1.425,-2.561 z"
             style="fill:#ffffff;fill-opacity:1;fill-rule:nonzero;stroke:none"
             id="path104" /></g><g
           id="g106"
           transform="translate(229.168,592.6562)"><path
             d="m 0,0 70.413,-20.781 2.214,0.057 0.346,0.99 3.184,74.406 C 44.451,47.616 16.959,27.88 0,0 m 69.805,-25.417 -76.764,22.655 1.461,2.538 c 17.969,31.228 48.456,53.108 83.643,60.031 l 2.879,0.567 -3.465,-80.987 -1.624,-4.645 z"
             style="fill:#ffffff;fill-opacity:1;fill-rule:nonzero;stroke:none"
             id="path108" /></g><g
           id="g110"
           transform="translate(220.9443,484.708)"><path
             d="m 0,0 c 4.877,-11.786 11.541,-22.645 19.835,-32.324 l 42.163,61.54 0.43,1.446 -71.067,26.445 c -0.535,-5.719 -0.658,-11.47 -0.371,-17.165 3.271,0.965 7.115,1.345 8.705,0.086 V 40.03 C 1.406,38.65 1.663,36.302 0.46,33.05 2.03,32.065 2.692,29.721 3.162,27.255 3.975,22.285 2.174,9.447 0,0 m 20.307,-39.807 -1.964,2.181 C 8.621,-26.818 0.917,-14.518 -4.556,-1.064 l -0.277,0.683 0.169,0.718 c 2.377,10.05 3.909,22.253 3.278,26.114 -0.211,1.108 -0.412,1.813 -0.567,2.249 -0.002,-10e-4 -0.003,-0.002 -0.005,-0.002 l -7.944,-6.048 6.029,11.999 c 0.277,0.745 0.393,1.253 0.439,1.581 -1.428,0.047 -4.116,-0.361 -6.654,-1.622 l -3.066,-1.521 -0.263,3.413 c -0.615,7.966 -0.446,16.067 0.502,24.081 l 0.345,2.917 77.715,-28.919 2.661,-2.04 -1.59,-5.336 z"
             style="fill:#ffffff;fill-opacity:1;fill-rule:nonzero;stroke:none"
             id="path112" /></g><g
           id="g114"
           transform="translate(283.9102,420.5967)"><path
             d="m 0,0 c 29.899,-12.872 63.793,-13.023 93.891,-0.419 l -46.4,60.204 z m 47.407,-14.384 c -17.777,0 -35.534,3.798 -52.034,11.389 l -2.674,1.229 51.645,65.014 3.16,2.199 3.093,-2.127 0.223,-0.288 50.327,-65.302 -2.672,-1.197 C 82.215,-10.746 64.802,-14.384 47.407,-14.384"
             style="fill:#ffffff;fill-opacity:1;fill-rule:nonzero;stroke:none"
             id="path116" /></g><g
           id="g118"
           transform="translate(380.0752,513.4771)"><path
             d="m 0,0 41.226,-62.139 c 11.775,13.393 20.497,29.42 25.33,46.567 -1.291,2.748 -2.001,4.94 -2.223,6.847 -0.387,3.262 0.795,5.175 1.855,6.205 0.943,0.915 2.18,1.492 3.563,1.69 1.386,9.209 1.696,18.538 0.925,27.799 L -0.478,1.604 Z m 40.649,-69.624 -44.877,67.644 -1.643,5.507 2.51,1.952 0.348,0.125 77.686,27.693 0.315,-2.909 C 76.207,19.109 75.875,7.704 74.001,-3.511 l -0.373,-2.235 -2.243,0.331 c -0.855,0.127 -1.573,-0.026 -1.978,-0.418 -0.442,-0.43 -0.615,-1.265 -0.487,-2.352 0.179,-1.535 0.887,-3.546 2.166,-6.152 l 0.385,-0.784 -0.231,-0.843 c -5.237,-19.119 -15.125,-36.927 -28.596,-51.5 z"
             style="fill:#ffffff;fill-opacity:1;fill-rule:nonzero;stroke:none"
             id="path120" /></g><g
           id="g122"
           transform="translate(551.4521,490.5791)"><path
             d="M 0,0 C 0.277,-1.771 -0.124,-3.232 -1.186,-4.372 -2.248,-5.526 -4.28,-6.543 -7.282,-7.436 l -2.926,5.312 c 0.185,4.249 -1.231,8.313 -4.249,12.208 1.248,1.062 3.187,2.124 5.835,3.171 1.955,0.893 1.601,1.155 -1.046,0.801 -2.833,-0.523 -5.05,-1.232 -6.636,-2.124 h -0.539 c 1.601,5.665 4.157,11.053 7.698,16.18 0.877,2.309 0.354,2.217 -1.586,-0.262 -3.018,-4.233 -5.665,-8.744 -7.959,-13.532 -1.062,1.062 -1.863,3.017 -2.387,5.85 -0.708,3.356 -1.246,3.449 -1.6,0.262 0.538,-4.065 1.323,-6.99 2.385,-8.76 -3.895,-6.004 -6.989,-8.406 -9.283,-7.159 1.417,8.483 3.28,17.412 5.574,26.788 4.064,4.064 7.605,5.404 10.606,3.987 4.25,3.357 7.868,3.972 10.885,1.848 1.586,-2.648 2.294,-5.25 2.125,-7.821 -0.185,-2.571 -1.063,-5.435 -2.663,-8.622 3.371,0 5.126,-1.324 5.311,-3.972 C 0.846,10.7 -1.986,6.358 -6.22,3.711 -2.34,3.002 -0.262,1.771 0,0 m -7.944,-22.815 c -0.631,-4.419 -2.079,-8.222 -4.388,-11.409 -7.251,-8.313 -10.253,-13.27 -9.022,-14.856 1.956,-3.357 1.602,-7.159 -1.062,-11.408 -3.879,-4.773 -9.021,-10.084 -15.38,-15.919 1.771,-3.54 0.446,-6.543 -3.987,-9.022 -5.127,-2.832 -10.777,-5.296 -16.966,-7.42 11.485,8.667 18.567,17.951 21.215,27.85 3.71,3.356 6.99,5.573 9.822,6.636 2.479,1.586 2.91,2.294 1.324,2.124 -3.187,-1.247 -6.543,-3.187 -10.084,-5.834 3.356,6.712 5.743,13.963 7.159,21.753 6.897,6.713 11.238,12.023 13.009,15.919 2.479,3.71 2.555,4.51 0.262,2.386 -2.648,-4.434 -6.728,-9.114 -12.208,-14.071 2.478,7.605 4.695,16.103 6.635,25.479 0.877,5.481 0.615,6.451 -0.801,2.91 l -2.648,-9.283 c -1.231,3.709 -2.648,6.542 -4.249,8.482 l 3.449,-11.131 c -0.709,-4.418 -2.386,-10.699 -5.034,-18.844 -2.479,7.082 -5.743,13.441 -9.823,19.106 -3.71,4.603 -4.326,4.68 -1.847,0.262 4.064,-5.835 7.42,-13.533 10.084,-23.078 -2.125,-8.483 -4.603,-15.564 -7.436,-21.214 -2.125,3.17 -4.327,5.387 -6.636,6.62 -1.77,0.892 -1.77,0.353 0,-1.586 2.309,-2.294 4.157,-4.604 5.574,-6.898 -2.125,-5.127 -4.912,-9.637 -8.36,-13.532 -3.449,-3.895 -6.851,-7.159 -10.207,-9.822 4.249,6.543 5.665,13.794 4.249,21.754 0,1.416 1.092,2.57 3.31,3.464 2.217,0.876 2.956,1.846 2.263,2.909 -1.955,3.895 -2.925,6.99 -2.925,9.284 1.416,0.708 3.541,0.708 6.374,0 2.293,1.6 2.062,3.849 -0.678,6.773 -2.74,2.91 -4.465,7.113 -5.173,12.594 0,3.187 2.125,4.341 6.374,3.448 1.94,0.185 2.125,2.479 0.523,6.898 l -4.495,6.096 c -3.187,7.082 -1.863,9.653 3.972,7.698 l 6.897,-4.249 c 4.603,-1.756 6.805,1.339 6.635,9.299 0,1.754 1.37,2.155 4.111,1.185 2.74,-0.971 5.265,1.108 7.559,6.234 2.294,2.48 4.064,0.186 5.311,-6.896 -0.538,-9.376 1.755,-13.795 6.897,-13.271 0.878,-0.524 1.016,-3.002 0.401,-7.42 m -59.565,-58.903 c -3.541,-3.88 -4.68,-7.944 -3.448,-12.193 -4.958,-2.663 -9.73,-6.543 -14.334,-11.67 -4.587,-5.142 -8.082,-9.468 -10.468,-13.009 -2.387,-3.541 -4.911,-5.65 -7.559,-6.358 -3.017,-1.416 -6.466,-0.708 -10.346,2.125 l -1.062,-6.636 -17.782,-10.885 -8.744,-3.71 c 0.692,1.771 1.139,4.773 1.324,9.022 l 3.171,2.648 c 12.209,6.373 19.291,12.208 21.23,17.504 2.479,4.435 5.127,8.098 7.96,11.024 2.833,2.909 4.864,6.497 6.096,10.746 l 0.278,6.357 -0.801,6.636 c 2.832,-3.187 5.388,-3.895 7.698,-2.125 3.71,6.897 7.681,13.317 11.931,19.229 4.249,5.927 8.76,11.454 13.532,16.58 4.773,5.127 8.837,9.469 12.193,13.01 l -0.261,-6.636 c -10.608,-13.086 -17.243,-22.014 -19.891,-26.802 -9.022,-13.61 -15.119,-24.403 -18.305,-32.362 -1.955,-4.418 -4.773,-7.959 -8.498,-10.607 -2.818,-1.416 -4.942,-2.925 -6.359,-4.511 -1.247,-2.294 -0.538,-2.925 2.125,-1.863 1.77,1.77 3.71,3.095 5.835,3.987 3.894,1.941 12.193,11.147 24.94,27.589 l -0.277,9.283 2.925,5.034 c -0.185,-5.126 0.262,-7.943 1.324,-8.482 1.062,-0.523 2.525,0.924 4.373,4.372 1.862,3.448 6.419,12.963 13.67,28.527 -1.601,-4.772 -1.678,-8.928 -0.261,-12.469 -4.249,-3.002 -5.404,-8.145 -3.449,-15.396 z m -55.438,-78.255 c -4.603,0.708 -12.039,2.033 -22.293,3.988 l 9.284,3.172 c 4.957,-1.063 7.79,0 8.498,3.186 0.693,-3.71 2.201,-7.159 4.511,-10.346 m 19.89,-7.035 c 5.127,-0.431 9.022,-0.216 11.67,0.677 4.772,1.94 14.595,9.191 29.451,21.754 14.318,10.776 26.434,18.305 36.349,22.539 3.002,1.769 3.14,3.048 0.384,3.849 -2.74,0.8 -6.85,1.201 -12.331,1.201 -1.77,-1.417 -1.586,-2.572 0.539,-3.45 2.463,0.169 4.234,0 5.296,-0.539 -11.839,-6.188 -21.754,-12.377 -29.713,-18.566 0.708,4.064 1.324,11.054 1.863,20.953 -0.185,3.187 -1.247,6.02 -3.187,8.498 -1.232,1.771 0.446,3.357 5.049,4.773 l 3.711,1.062 v -5.835 l -5.05,1.324 0.539,-2.648 c 1.062,-1.955 3.002,-3.278 5.835,-3.987 l 14.318,-0.801 6.373,0.277 c 7.436,-0.184 11.054,-2.001 10.884,-5.45 -0.184,-3.448 0.077,-6.666 0.785,-9.684 1.248,-7.604 4.25,-14.856 9.022,-21.752 -1.062,-3.172 -3.355,-6.898 -6.897,-11.131 l -13.794,-9.022 c -11.854,-8.499 -27.942,-19.553 -48.28,-33.162 -14.502,-0.353 -31.929,0.785 -52.267,3.448 -14.672,1.941 -31.56,5.651 -50.666,11.147 l -4.249,1.047 1.863,1.863 c 3.002,3.894 4.634,6.497 4.911,7.82 0.262,1.34 -0.185,4.342 -1.339,9.022 -1.14,4.696 -4.465,10.222 -9.946,16.581 v 1.601 l 3.988,0.524 c 10.961,-0.709 20.737,-2.125 29.312,-4.249 8.575,-2.11 18.782,-4.065 30.637,-5.835 11.5,-2.125 19.814,-3.403 24.94,-3.849 m -37.934,-53.976 c -4.772,0 -7.79,-0.539 -9.021,-1.601 h -3.711 c -5.142,3.541 -9.206,6.819 -12.208,9.822 l -12.47,9.823 c 2.294,1.231 7.251,0.785 14.857,-1.34 z m 9.807,-2.925 2.925,-0.524 -1.062,-1.324 -6.897,-2.124 c -3.002,-2.664 -6.543,-4.419 -10.608,-5.311 l -4.51,0.799 -1.063,3.188 c 1.063,1.585 2.433,2.74 4.111,3.448 1.678,0.708 3.849,1.324 6.497,1.848 l 6.374,-1.063 z m -34.485,0.539 c -1.586,1.231 -2.033,2.463 -1.325,3.71 l 5.312,-4.511 c -1.062,-0.708 -2.386,-0.446 -3.987,0.801 m -28.913,37.672 -1.324,4.233 -7.174,-9.021 -5.835,-3.71 c -2.648,-2.294 -5.388,-3.187 -8.221,-2.649 l -9.283,4.511 4.772,2.387 1.324,-1.063 c -0.877,-2.647 0.185,-2.294 3.187,1.063 l 8.221,7.959 c 0.539,4.772 -0.616,10.916 -3.448,18.428 -2.818,7.529 -4.942,12.255 -6.359,14.195 -0.354,1.601 -4.418,1.955 -12.208,1.062 4.603,2.31 9.991,2.479 16.18,0.539 l 6.374,-2.664 3.449,1.494 1.847,-1.755 c 9.022,-9.73 14.118,-16.35 15.257,-19.891 1.155,-3.541 1.293,-6.989 0.4,-10.346 -3.356,-4.418 -5.743,-6.019 -7.159,-4.772 m -67.908,-8.621 c -9.207,-2.048 -17.52,-3.849 -24.941,-5.451 -18.567,-3.356 -36.872,-6.096 -54.915,-8.22 -4.603,1.247 -17.874,8.052 -39.797,20.429 -15.565,9.375 -26.434,16.981 -32.638,22.816 -7.067,7.605 -9.899,12.208 -8.483,13.794 4.603,7.605 7.698,14.318 9.284,20.168 0.708,2.463 0.893,4.419 0.539,5.835 -1.956,6.004 -0.539,9.098 4.233,9.283 11.854,0.708 19.814,0.878 23.878,0.523 1.77,-0.169 2.925,0.355 3.449,1.602 l 3.987,7.959 -2.386,1.062 -3.449,-5.311 -0.277,6.097 c 0,0.892 0.539,1.154 1.601,0.8 7.421,-1.94 10.869,-4.419 10.346,-7.436 -2.309,-3.879 -3.372,-8.298 -3.187,-13.255 l 0.262,-13.794 c -9.376,6.189 -19.445,11.669 -30.237,16.441 1.232,0.186 2.648,0.309 4.234,0.401 1.601,0.093 2.664,0.662 3.187,1.724 0.539,1.063 -0.431,1.678 -2.909,1.864 -5.481,0 -9.022,-0.448 -10.624,-1.325 -1.231,-1.416 -0.969,-2.925 0.801,-4.51 12.732,-6.374 23.97,-12.748 33.7,-19.107 15.38,-9.729 27.312,-17.688 35.81,-23.878 8.314,0.17 19.983,1.325 35.024,3.45 l 22.801,4.249 c 9.376,1.77 19.106,3.263 29.189,4.51 3.711,0.524 8.406,0.877 14.056,1.062 5.665,0.17 10.885,0.616 15.657,1.324 4.604,-8.667 7.421,-16.272 8.483,-22.815 0.539,-3.357 0.092,-5.219 -1.324,-5.574 -21.046,-7.79 -36.163,-12.685 -45.354,-14.717 m 6.358,-11.024 c -7.421,-7.251 -15.826,-14.148 -25.202,-20.691 l -3.187,1.062 c 5.48,3.372 13.271,8.853 23.354,16.458 l 4.511,5.035 -2.386,0.261 c -3.372,-3.002 -7.221,-6.051 -11.547,-9.145 -4.326,-3.094 -9.329,-6.066 -14.994,-8.883 l -7.683,-3.726 1.324,-1.586 5.835,-0.799 c 3.356,-2.125 4.773,-4.25 4.249,-6.359 -1.77,-2.664 -4.603,-3.017 -8.498,-1.062 l -6.358,3.448 c -2.309,2.294 -4.604,3.88 -6.897,4.772 l -2.664,2.125 1.063,2.648 7.959,-3.187 h 2.386 l -1.324,4.773 9.545,5.85 c 2.479,0.877 3.541,2.386 3.187,4.495 l 0.801,4.789 c 4.064,-0.893 8.483,-0.232 13.271,1.985 4.772,2.218 9.283,3.495 13.516,3.85 2.663,-1.771 2.572,-3.803 -0.261,-6.113 m -37.934,49.619 -15.919,-2.663 3.71,10.623 z m -61.289,63.937 2.925,3.711 6.897,-9.822 3.972,-7.16 1.339,-3.971 c -2.478,1.231 -4.603,3.094 -6.373,5.557 l -4.249,5.574 z m -12.47,24.926 1.601,1.6 7.42,-12.469 -0.785,-1.586 z m 48.818,-62.075 -3.449,4.511 c -1.062,1.247 -2.524,1.509 -4.372,0.801 -1.862,-0.708 -3.325,0.353 -4.387,3.186 -4.773,-2.833 -9.638,-1.77 -14.579,3.172 l -8.761,10.622 -8.221,14.057 -2.925,2.124 c -0.015,-0.015 -0.03,-0.015 -0.046,-0.015 -0.154,-0.108 -0.323,-0.201 -0.477,-0.293 -0.323,-0.169 -0.662,-0.323 -1.001,-0.461 h -0.015 c -1.047,-0.37 -2.187,-0.539 -3.387,-0.462 -0.247,0.015 -0.477,0.046 -0.724,0.077 -0.246,0.046 -0.477,0.077 -0.708,0.138 l -10.608,6.851 c -2.478,2.294 -7.79,11.408 -15.918,27.327 -10.792,20.506 -18.136,35.994 -22.031,46.417 -2.817,8.667 -4.68,14.148 -5.573,16.457 -0.877,2.294 -1.231,2.34 -1.047,0.123 0.17,-2.201 1.494,-7.158 3.972,-14.856 2.479,-7.682 7.082,-18.967 13.794,-33.823 5.835,-12.024 11.593,-22.986 17.243,-32.885 -13.086,14.148 -22.554,27.404 -28.389,39.782 -5.835,12.208 -9.715,23.523 -11.67,33.962 -0.877,3.71 -1.416,9.422 -1.585,17.119 -0.185,7.683 -0.093,11.978 0.262,12.855 0.877,2.664 2.124,3.803 3.71,3.449 1.062,0 3.495,-2.509 7.297,-7.559 3.803,-5.034 8.976,-16.35 15.519,-33.963 6.542,-17.596 10.576,-29.128 12.07,-34.608 1.508,-5.481 3.017,-10.269 4.511,-14.333 1.508,-4.065 3.325,-8.221 5.434,-12.47 3.187,-6.358 6.374,-10.7 9.56,-12.994 0.647,-0.446 1.247,-0.847 1.832,-1.185 0.34,-0.185 0.663,-0.37 0.97,-0.524 0.231,-0.107 0.462,-0.216 0.693,-0.323 0.277,-0.108 0.555,-0.216 0.816,-0.308 0.246,-0.093 0.493,-0.154 0.739,-0.216 0.231,-0.045 0.462,-0.091 0.677,-0.123 0.155,-0.031 0.324,-0.031 0.478,-0.031 0.046,-0.015 0.108,-0.015 0.154,-0.015 0.184,0 0.369,0.015 0.539,0.031 0.184,0.015 0.354,0.047 0.523,0.093 0.17,0.03 0.323,0.077 0.493,0.138 0.154,0.062 0.307,0.123 0.461,0.2 0.154,0.092 0.323,0.185 0.478,0.308 0.138,0.107 0.292,0.23 0.431,0.369 l -7.159,14.58 c -1.247,2.663 -1.077,5.265 -3.556,4.557 l 0.954,-1.709 c -0.862,0.369 -1.848,0.4 -2.971,0.077 -0.185,-0.016 -0.354,-0.016 -0.524,-0.016 h -0.092 c -0.046,0 -0.092,0 -0.138,0.016 -0.124,0 -0.231,0 -0.339,0.016 -0.724,0.061 -1.355,0.23 -1.894,0.507 -0.385,0.201 -0.724,0.462 -1.015,0.754 -0.093,0.123 -0.201,0.246 -0.293,0.37 -0.078,0.124 -0.17,0.262 -0.247,0.401 -0.107,0.199 -0.2,0.415 -0.292,0.646 -0.077,0.231 -0.154,0.477 -0.201,0.739 -0.046,0.261 -0.092,0.539 -0.122,0.816 -0.031,0.277 -0.047,0.569 -0.047,0.878 v 0.092 c 0,0.061 0,0.107 0.016,0.169 v 0.201 c 0,0.184 0.015,0.385 0.031,0.569 0.015,0.323 0.061,0.662 0.107,1 0.354,3.188 1.509,8.668 3.449,16.443 0.307,1.031 0.616,2.047 0.954,3.079 0.154,0.477 0.308,0.955 0.462,1.431 0.154,0.478 0.308,0.955 0.477,1.433 0.37,1.093 0.74,2.186 1.14,3.278 0.354,1.001 0.723,2.018 1.108,3.033 0.015,0.016 0.015,0.016 0.015,0.032 0.185,0.508 0.385,1.015 0.586,1.523 0.184,0.509 0.4,1.017 0.6,1.525 0,0.015 0,0.015 0.015,0.031 0.401,1.015 0.816,2.016 1.247,3.032 0.416,1.001 0.863,2.018 1.309,3.033 0.431,1.001 0.893,2.001 1.354,3.018 0.016,0.014 0.016,0.046 0.032,0.061 0.554,1.216 1.139,2.417 1.724,3.633 0.585,1.201 1.185,2.403 1.785,3.588 0.032,0.046 0.047,0.092 0.062,0.123 0.046,0.077 0.077,0.169 0.124,0.246 0.107,0.2 0.2,0.385 0.308,0.585 0.03,0.077 0.076,0.139 0.107,0.216 0.077,0.139 0.154,0.277 0.231,0.415 0.308,0.586 0.631,1.186 0.939,1.771 0.693,1.308 1.401,2.617 2.14,3.925 -0.616,-4.064 -1.031,-7.667 -1.216,-10.807 -0.015,-0.415 -0.047,-0.831 -0.062,-1.232 -0.03,-0.615 -0.046,-1.2 -0.046,-1.77 v -0.524 c -6.543,-14.672 -11.316,-26.525 -14.333,-35.548 -1.586,-6.543 -1.493,-9.729 0.277,-9.544 l 2.109,1.062 -1.585,3.71 1.062,2.91 3.187,-5.557 1.847,1.324 1.601,-2.387 -1.601,-2.401 11.947,-17.243 2.91,2.386 2.124,-2.386 c -3.541,-3.526 -4.957,-5.835 -4.249,-6.898 3.187,-5.835 6.112,-10.515 8.76,-14.056 5.312,-7.774 9.638,-9.991 12.994,-6.634 1.062,0.892 2.402,0.708 3.987,-0.525 1.586,-1.246 3.356,-3.894 5.312,-7.959 l -0.278,6.097 -9.806,9.283 -5.573,11.147 c -4.604,6.543 -7.867,11.577 -9.823,15.118 -1.94,3.541 -4.372,7.79 -7.297,12.732 -2.91,4.957 -6.497,10.529 -10.731,16.719 l 0.785,2.925 8.499,-10.346 c 7.605,-9.729 12.947,-17.119 16.041,-22.153 3.095,-5.05 4.912,-6.236 5.435,-3.588 l 1.602,5.035 2.386,-1.324 -1.586,-10.346 -0.539,-3.186 c -0.17,-2.464 0.308,-3.926 1.462,-4.374 1.14,-0.446 2.172,-2.078 3.049,-4.911 0.523,-1.77 3.31,-5.434 8.359,-11.006 5.035,-5.574 10.346,-10.254 15.919,-14.057 5.574,-3.803 10.161,-6.897 13.794,-9.283 3.618,-2.386 5.343,-4.727 5.173,-7.035 l 5.034,-1.063 -1.323,6.374 3.186,0.785 c 1.586,-1.047 2.91,-3.003 3.972,-5.835 4.604,-3.525 8.576,-6.358 11.947,-8.483 l -11.669,-2.124 -19.907,11.946 z m -84.089,199.231 c -1.77,-14.148 -3.279,-25.202 -4.511,-33.161 l -1.062,2.124 c -1.062,1.601 0.785,11.947 5.573,31.037 m 8.744,-78.793 c 0,3.541 -0.4,5.758 -1.185,6.636 -0.8,0.892 -1.601,2.524 -2.386,4.911 -0.801,2.386 -2.001,5.927 -3.587,10.607 -1.586,4.696 -2.74,8.898 -3.448,12.609 h -0.016 c -4.742,2.124 -8.221,5.727 -10.331,10.746 -2.124,5.034 -4.11,11.623 -5.973,19.767 -1.847,8.129 -2.601,17.859 -2.247,29.174 0.877,13.441 2.832,26.527 5.834,39.258 4.419,17.689 13.441,34.486 27.066,50.405 3.001,3.371 4.849,4.156 5.557,2.401 0.708,-7.081 0.662,-13.933 -0.123,-20.568 -0.801,-6.635 -2.525,-14.01 -5.173,-22.154 -6.897,-22.985 -11.054,-38.457 -12.47,-46.417 -2.648,-9.376 -5.573,-21.584 -8.76,-36.609 -1.416,7.251 -0.57,22.492 2.525,45.754 3.094,23.263 7.035,39.843 11.808,49.743 2.294,5.126 2.201,5.926 -0.262,2.386 -10.792,-18.398 -17.073,-45.54 -18.844,-81.442 -0.354,-12.562 0.354,-21.615 2.125,-27.188 1.77,-5.573 3.803,-8.806 6.096,-9.683 1.248,-0.709 2.571,-0.616 3.988,0.261 1.062,6.713 1.77,12.163 2.124,16.319 0.354,4.157 0.832,9.022 1.447,14.58 0.632,5.573 1.725,10.222 3.326,13.933 l 1.062,-1.063 c -1.77,-8.128 -2.71,-13.794 -2.786,-16.981 -0.093,-3.171 -0.308,-6.358 -0.662,-9.545 -0.354,-3.187 -0.708,-9.283 -1.062,-18.305 2.124,7.251 4.417,14.149 6.897,20.692 l 8.22,23.877 7.252,17.228 3.356,7.975 c 0.031,0.061 0.062,0.108 0.092,0.169 1.062,2.079 2.217,4.203 3.434,6.374 0.569,1.016 1.154,2.032 1.77,3.079 0.631,1.078 1.278,2.186 1.955,3.295 0.092,0.169 0.2,0.323 0.293,0.492 0.585,0.955 1.169,1.909 1.77,2.879 0.878,1.417 1.786,2.863 2.725,4.326 1.047,1.632 2.14,3.295 3.264,4.988 0.277,0.431 0.569,0.862 0.862,1.294 2.571,3.817 5.327,7.759 8.252,11.838 1.632,1.925 3.217,3.603 4.757,5.035 0.539,0.523 1.062,1.001 1.586,1.431 l 0.785,0.647 c 0.385,0.308 0.77,0.616 1.155,0.893 0.369,0.277 0.754,0.554 1.123,0.801 0.246,0.169 0.493,0.323 0.739,0.477 0.57,0.354 1.14,0.662 1.678,0.939 0.293,0.154 0.601,0.293 0.909,0.416 0.293,0.138 0.585,0.246 0.877,0.354 0.046,0.015 0.093,0.03 0.124,0.046 0.292,0.107 0.584,0.2 0.892,0.277 0.262,0.077 0.524,0.139 0.785,0.184 0.077,0.016 0.155,0.031 0.232,0.047 h 0.03 c 0.047,0.015 0.078,0.015 0.124,0.031 0.215,0.046 0.431,0.061 0.646,0.092 0.785,-1.139 1.063,-3.033 0.847,-5.712 v -0.061 c -0.016,-0.062 -0.016,-0.139 -0.016,-0.2 -0.031,-0.17 -0.046,-0.323 -0.061,-0.493 -0.031,-0.277 -0.062,-0.539 -0.108,-0.816 -0.046,-0.354 -0.108,-0.739 -0.169,-1.124 -0.077,-0.431 -0.154,-0.862 -0.246,-1.308 -0.016,-0.047 -0.032,-0.108 -0.032,-0.154 -0.061,-0.278 -0.123,-0.539 -0.184,-0.816 v -0.016 c 0,-0.046 -0.015,-0.107 -0.031,-0.169 -1.231,-5.496 -3.356,-11.239 -6.374,-17.243 -0.2,-0.077 -0.431,-0.184 -0.184,-0.323 -0.293,-0.554 -0.586,-1.109 -0.893,-1.647 -0.047,-0.108 -0.108,-0.216 -0.17,-0.323 -0.662,-1.202 -1.324,-2.371 -1.97,-3.526 -0.354,-0.632 -0.723,-1.247 -1.078,-1.878 -0.708,-1.232 -1.416,-2.448 -2.124,-3.634 -1.463,-2.447 -2.926,-4.788 -4.373,-7.051 -0.338,-0.554 -0.692,-1.093 -1.046,-1.616 -0.432,-0.662 -0.878,-1.324 -1.309,-1.971 -0.123,-0.2 -0.262,-0.385 -0.401,-0.585 -0.122,-0.2 -0.246,-0.385 -0.385,-0.569 -0.354,-0.524 -0.692,-1.017 -1.047,-1.525 -0.431,-0.616 -0.846,-1.216 -1.277,-1.816 -0.431,-0.601 -0.862,-1.201 -1.278,-1.771 -0.431,-0.585 -0.862,-1.155 -1.278,-1.724 -0.431,-0.57 -0.862,-1.124 -1.278,-1.678 -0.031,-0.031 -0.046,-0.062 -0.077,-0.092 -0.662,-0.863 -1.339,-1.709 -2.001,-2.525 -1.046,-1.294 -2.094,-2.525 -3.141,-3.711 -0.661,-0.754 -1.339,-1.493 -2.001,-2.217 -0.015,-0.015 -0.031,-0.015 -0.031,-0.03 -0.677,-0.724 -1.354,-1.432 -2.017,-2.109 -0.6,-0.601 -1.216,-1.201 -1.816,-1.771 -0.077,-0.077 -0.139,-0.138 -0.216,-0.216 -0.523,-0.492 -1.062,-0.985 -1.586,-1.462 h -0.015 c -0.138,-0.139 -0.292,-0.277 -0.431,-0.4 l 0.293,0.477 13.501,21.907 -3.956,0.447 c -0.077,-0.123 -0.169,-0.262 -0.247,-0.385 -0.338,-0.539 -0.677,-1.063 -1.016,-1.585 -0.338,-0.524 -0.646,-1.032 -0.97,-1.54 -2.17,-3.402 -4.033,-6.405 -5.619,-8.991 -0.416,-0.678 -0.8,-1.34 -1.17,-1.955 -0.323,-0.539 -0.631,-1.062 -0.924,-1.571 -0.323,-0.523 -0.616,-1.031 -0.892,-1.524 -0.678,-1.185 -1.263,-2.217 -1.74,-3.11 -0.154,-0.292 -0.308,-0.584 -0.447,-0.847 -3.525,-6.897 -6.974,-13.347 -10.346,-19.367 -3.356,-6.004 -5.572,-10.699 -6.62,-14.055 -1.062,-3.357 -3.279,-9.376 -6.634,-18.044 0,-1.586 1.062,-6.189 3.186,-13.794 2.109,-7.605 3.926,-12.07 5.435,-13.394 1.493,-1.325 1.631,-2.787 0.4,-4.372 -0.539,-1.416 -0.185,-4.08 1.063,-7.959 0.876,-4.249 2.909,-10.084 6.096,-17.521 l -0.801,-2.647 c -3.356,7.435 -6.358,15.564 -9.022,24.401 m 35.826,193.673 c 3.002,6.189 7.42,13.179 13.255,20.953 1.771,4.064 0.801,3.988 -2.91,-0.261 -8.667,-10.793 -18.751,-27.866 -30.252,-51.205 l 5.05,12.732 c 0.877,2.833 3.71,9.237 8.483,19.244 4.772,9.991 9.468,17.904 14.056,23.739 4.603,5.835 7.79,9.638 9.56,11.408 6.359,5.481 10.069,8.037 11.131,7.682 0.893,-0.693 1.154,-1.847 0.8,-3.448 l -12.993,-33.423 c -8.498,-16.443 -19.629,-33.593 -33.423,-51.467 -5.851,-6.358 -9.468,-10.438 -10.885,-12.193 -1.416,-1.77 -2.571,-3.448 -3.449,-5.05 l 1.063,4.511 5.034,7.959 c 7.082,11.501 15.565,27.774 25.48,48.819 m -38.997,-95.236 c 1.231,7.944 2.91,15.196 5.034,21.754 l 2.125,-2.663 z m 8.745,-12.747 -5.297,-14.317 -3.725,-12.47 1.324,10.607 1.863,7.697 1.586,7.698 z m 11.946,28.928 c -3.725,-6.897 -6.543,-13.086 -8.498,-18.582 l -2.125,0.277 5.574,17.243 z m 57.825,95.235 c 2.833,1.586 4.773,2.202 5.835,1.864 0.708,-1.771 0.893,-4.203 0.539,-7.298 -0.354,-3.094 -2.663,-9.607 -6.897,-19.506 l -2.017,-3.926 -3.279,-6.373 -4.527,-8.806 c -6.897,-0.878 -13.439,-4.065 -19.628,-9.545 3.187,5.48 7.035,11.761 11.546,18.843 4.495,7.067 11.531,17.674 21.076,31.823 1.601,2.663 1.648,3.325 0.139,2.001 -1.509,-1.339 -5.527,-6.42 -12.071,-15.257 -6.542,-8.852 -15.302,-22.554 -26.264,-41.121 -0.477,-0.723 -1.046,-1.601 -1.724,-2.648 -0.262,-0.416 -0.554,-0.846 -0.846,-1.308 -0.386,-0.585 -0.801,-1.232 -1.248,-1.909 -0.215,-0.339 -0.446,-0.678 -0.677,-1.047 -0.246,-0.37 -0.492,-0.739 -0.755,-1.14 -0.199,-0.292 -0.4,-0.6 -0.6,-0.923 -0.415,-0.632 -0.846,-1.293 -1.293,-1.986 -0.231,-0.339 -0.446,-0.693 -0.677,-1.047 -0.231,-0.354 -0.462,-0.724 -0.708,-1.093 -0.247,-0.37 -0.493,-0.739 -0.739,-1.124 -0.247,-0.385 -0.509,-0.77 -0.755,-1.17 -0.477,-0.724 -0.97,-1.463 -1.463,-2.232 -0.323,-0.493 -0.662,-1.001 -0.985,-1.525 -0.523,-0.785 -1.047,-1.586 -1.585,-2.417 -0.062,-0.092 -0.124,-0.184 -0.17,-0.277 -0.6,-0.923 -1.216,-1.878 -1.863,-2.848 -0.323,-0.492 -0.647,-0.985 -0.97,-1.493 -0.4,-0.6 -0.8,-1.217 -1.2,-1.848 -0.816,-1.247 -1.663,-2.54 -2.525,-3.864 -0.139,-0.216 -0.277,-0.416 -0.4,-0.631 -0.354,-0.554 -0.724,-1.124 -1.094,-1.694 -0.893,-0.892 -3.541,-1.416 -7.959,-1.585 l -8.76,-25.742 c 0.708,-1.062 2.926,-0.708 6.635,1.063 -1.77,-3.356 -4.418,-5.219 -7.959,-5.573 l -2.125,1.586 -1.062,3.987 0.262,2.386 2.124,-0.262 9.284,23.602 -5.573,6.897 1.34,3.987 c 1.754,-3.71 3.448,-5.742 5.033,-6.096 2.479,4.772 6.051,11.269 10.747,19.49 4.679,8.221 10.206,16.581 16.58,25.079 l -0.261,2.109 c 0,1.247 0.615,1.34 1.847,0.277 l 13.271,19.09 -10.885,-18.828 c 1.771,-1.94 0.97,-3.279 -2.386,-3.987 -11.316,-15.026 -19.983,-29.975 -25.988,-44.831 l 2.648,-0.786 c 1.586,-0.708 3.095,-0.015 4.511,2.109 l 16.181,28.651 15.38,28.651 c 7.251,12.917 15.565,23 24.94,30.251 m 16.32,29.452 c 9.637,7.959 21.183,14.148 34.624,18.567 6.542,1.77 12.192,2.555 16.98,2.386 2.294,-0.539 2.91,-1.863 1.848,-3.988 l -5.835,-7.682 c -5.127,-0.708 -12.162,-3.633 -21.092,-8.759 -8.929,-5.127 -18.52,-11.932 -28.789,-20.43 l -3.71,-2.386 c -1.94,1.416 -5.481,0.8 -10.608,-1.848 16.273,13.609 30.422,23.955 42.446,31.037 7.774,3.879 12.285,6.62 13.532,8.221 -3.895,-1.062 -9.376,-3.494 -16.458,-7.297 -7.066,-3.803 -18.736,-11.716 -35.009,-23.74 l -15.657,-14.071 c 8.853,12.039 18.09,22.031 27.728,29.99 m 59.826,6.358 c 0,-3.356 -2.033,-7.066 -6.113,-11.146 -6.189,-5.65 -13.917,-10.869 -23.2,-15.642 -9.299,-4.772 -21.369,-10.438 -36.225,-16.981 v 1.586 c 18.043,13.44 34.762,24.417 50.142,32.9 4.065,2.478 3.711,3.186 -1.062,2.124 -5.296,-2.648 -11.131,-5.927 -17.504,-9.822 -10.608,-6.897 -20.954,-13.702 -31.038,-20.414 l 0.262,3.171 c 20.168,17.689 36.703,29.098 49.604,34.224 6.373,1.417 11.408,1.417 15.134,0 m -120.715,-285.983 -5.835,7.435 4.249,10.608 c -0.185,-5.834 0.354,-11.855 1.586,-18.043 m -17.366,22.154 c 0.831,3.694 1.97,7.435 3.418,11.223 3.602,9.483 9.145,19.244 16.611,29.235 -1.77,-7.251 -2.756,-12.639 -2.925,-16.18 -3.572,-6.174 -6.774,-12.332 -9.606,-18.459 -3.326,-7.236 -6.143,-14.426 -8.437,-21.599 -1.063,-4.065 -1.94,-8.93 -2.648,-14.595 -0.539,7.251 0.662,17.381 3.587,30.375 m 23.478,44.431 c 3.71,14.687 7.251,22.461 10.607,23.354 1.94,-5.126 3.541,-14.641 4.773,-28.527 1.231,-13.871 1.231,-26.388 0,-37.534 -1.586,-14.149 -3.988,-23.694 -7.159,-28.651 l -3.449,-7.421 c 0,7.713 0.062,14.426 0.2,20.122 0.047,2.14 0.108,4.142 0.17,5.989 0.015,0.231 0.015,0.446 0.03,0.677 0.262,6.898 0.524,16.058 0.786,27.465 0.261,11.394 1.016,24.356 2.263,38.858 0.708,3.541 0.523,4.326 -0.539,2.387 -2.833,-14.672 -4.511,-33.516 -5.034,-56.501 l -0.139,-8.067 -0.123,-7.066 -0.169,-6.775 -0.354,-13.393 -0.016,-0.524 -3.448,3.987 c -0.123,0.631 -0.247,1.248 -0.354,1.878 -0.185,0.955 -0.37,1.925 -0.524,2.895 -1.601,9.483 -2.402,19.306 -2.371,29.497 0,1.556 0.016,3.141 0.062,4.727 0.539,10.084 2.124,20.953 4.788,32.623 m 20.953,12.47 c 2.294,0.538 2.74,-0.524 1.324,-3.172 l -5.035,-7.436 c -0.231,1.925 -0.492,3.68 -0.8,5.25 -0.108,0.862 -0.216,1.74 -0.292,2.617 1.678,1.155 3.279,2.063 4.803,2.741 m 3.972,-14.318 c -0.324,-4.865 -1.109,-10.453 -2.356,-16.766 -0.8,-4.018 -1.786,-8.329 -2.94,-12.947 -0.185,9.73 -0.631,16.273 -1.324,19.629 l 1.185,3.295 1.201,3.34 c 0.169,2.294 -0.277,2.386 -1.339,0.262 l -0.524,-0.954 -1.062,-1.956 -0.261,5.297 0.461,0.585 3.51,4.464 c 2.663,2.648 3.803,1.232 3.449,-4.249 m 46.17,-149.627 c -2.478,-1.231 -4.957,-1.231 -7.436,0 l -4.249,3.187 c 1.417,3.541 3.279,4.68 5.574,3.449 l 4.249,-3.711 z m -12.347,11.408 c 1.509,0.708 3.418,0.524 5.712,-0.523 l 12.732,-6.113 21.753,-8.22 c 5.311,-5.666 8.576,-9.546 9.823,-11.67 -4.434,-0.539 -9.206,-0.893 -14.333,-1.063 l -11.408,7.959 c -4.604,5.482 -7.96,9.453 -10.084,11.932 -2.125,2.478 -4.157,4.249 -6.097,5.311 -2.833,1.586 -5.127,2.125 -6.897,1.586 -1.232,-0.354 -2.571,-2.125 -3.987,-5.295 l -0.524,0.523 c 0.708,3.002 1.817,4.864 3.31,5.573 m 90.602,-23.617 2.678,-2.54 -5.865,2.817 z m 50.943,1.34 c -0.893,3.002 0.17,5.388 3.171,7.159 2.833,2.124 5.927,3.002 9.284,2.647 1.416,-0.168 1.508,-2.74 0.277,-7.697 -1.062,-2.464 -6.282,-5.481 -15.657,-9.007 l -8.76,1.047 9.298,5.312 2.387,-3.71 h 1.324 z m -21.23,1.848 c 2.125,2.478 4.864,4.695 8.221,6.634 15.041,7.421 25.033,11.763 29.974,12.994 0.894,0.354 1.694,0.092 2.402,-0.785 l 2.109,-2.664 -2.909,-1.846 c -1.771,-1.417 -3.988,-2.033 -6.636,-1.864 -2.294,0.185 -5.388,-0.569 -9.283,-2.247 -3.895,-1.694 -6.019,-4.034 -6.374,-7.036 -0.708,-2.124 -1.678,-3.448 -2.91,-3.987 -3.895,-2.11 -7.435,-3.972 -10.607,-5.558 l -8.236,0.524 z m 80.548,70.417 c 2.248,0 5.419,-1.139 4.619,-3.048 -0.786,-1.894 -1.679,-5.111 -3.464,-5.311 -1.771,-0.2 -5.235,2.293 -5.235,4.541 0,2.233 1.817,3.818 4.08,3.818 m 14.564,26.541 c -0.985,0.801 -3.941,3.234 -8.899,7.298 -4.418,3.895 -5.834,7.436 -4.233,10.623 -1.247,1.585 -2.356,3.449 -3.326,5.558 -0.969,2.124 -0.754,4.203 0.663,6.235 1.416,2.032 4.695,1.109 9.822,-2.787 0.877,3.018 0.877,5.851 0,8.498 -0.878,2.649 -1.94,5.312 -3.187,7.96 -2.294,4.249 -4.511,7.867 -6.635,10.869 -1.032,2.171 -1.632,3.833 -1.802,4.988 0.138,0.616 0.277,1.232 0.385,1.847 0.031,0.032 0.062,0.047 0.092,0.062 1.063,0.539 2.741,-0.169 5.05,-2.125 4.419,4.788 7.328,6.159 8.744,4.126 1.417,-2.047 2.572,-5.449 3.449,-10.222 0.893,-4.772 0.97,-9.73 0.277,-14.856 l -1.062,-1.063 1.062,-1.062 c 0.339,-1.062 -0.092,-5.034 -1.339,-11.932 0,-1.4 0.431,-2.802 1.309,-4.202 0.015,-0.016 0.015,-0.031 0.03,-0.047 0,0.031 -0.015,0.047 -0.015,0.077 -0.339,2.094 -0.431,3.65 -0.262,4.697 0.185,0.892 0.755,2.97 1.725,6.234 0.969,3.279 1.462,5.127 1.462,5.573 0,0.446 0.046,0.755 -1.37,0.924 1.601,0.539 1.863,1.293 2.294,2.264 0.446,0.969 0.539,1.939 0.277,2.909 -0.277,0.985 -0.447,3.771 -0.539,8.359 -0.092,4.604 -0.523,8.098 -1.324,10.485 -0.8,2.386 -1.278,4.249 -1.463,5.573 -0.169,1.324 -1.231,2.078 -3.187,2.247 -1.939,0.185 -4.68,-1.77 -8.221,-5.835 1.601,7.606 3.234,12.686 4.912,15.257 1.678,2.572 3.402,3.31 5.172,2.264 1.771,-1.063 2.926,-2.217 3.449,-3.449 0.539,-1.247 1.324,-1.032 2.386,0.662 1.062,1.678 1.94,2.248 2.648,1.724 0.708,-0.539 1.463,-1.601 2.263,-3.187 0.801,-1.601 1.37,-3.279 1.725,-5.049 0.354,-1.755 0.662,-4.988 0.923,-9.684 0.031,-0.431 0.047,-0.862 0.047,-1.262 0.092,-3.634 -0.386,-6.205 -1.463,-7.729 -0.077,-0.154 -0.2,-0.292 -0.308,-0.415 -1.416,-1.602 -2.125,-3.541 -2.125,-5.835 0.355,-9.206 1.063,-13.764 2.125,-13.671 1.062,0.092 2.34,0.801 3.849,2.124 1.509,1.324 2.833,1.817 3.988,1.463 0.923,-0.293 1.524,-2.017 1.832,-5.189 0.061,-0.754 0.123,-1.585 0.153,-2.508 0.17,-4.774 0.616,-5.266 1.324,-1.463 0.709,3.802 2.032,5.712 3.972,5.712 1.956,0 2.31,-5.127 1.063,-15.396 -6.898,-6.188 -11.84,-11.315 -14.857,-15.38 -1.062,4.418 -1.093,7.513 -0.123,9.283 0.97,1.771 1.848,3.757 2.648,5.974 0.801,2.201 1.462,4.203 1.986,5.958 0.169,0.492 0.308,0.938 0.431,1.323 0.863,2.833 0.523,2.865 -1.016,0.109 -0.062,-0.109 -0.123,-0.232 -0.2,-0.369 -1.063,-2.125 -2.001,-3.973 -2.787,-5.574 -0.8,-1.586 -1.724,-3.172 -2.786,-4.772 -0.293,2.34 -1.14,6.204 -2.525,11.577 -0.277,1.108 -0.585,2.31 -0.924,3.556 -1.601,4.942 -2.032,4.849 -1.324,-0.277 0.169,-1.032 0.339,-2.063 0.508,-3.094 1.124,-7.221 1.94,-14.226 2.402,-21.046 -3.002,3.187 -6.05,5.927 -9.145,8.221 -0.739,0.554 -1.447,1.109 -2.14,1.694 -2.217,1.8 -4.203,3.725 -5.958,5.742 -1.94,1.231 -2.294,1.062 -1.062,-0.539 1.524,-2.017 3.572,-4.311 6.143,-6.835 1.015,-1.001 2.109,-2.032 3.279,-3.111 4.157,-3.802 6.681,-6.311 7.559,-7.558 0.877,-1.232 1.416,-2.294 1.585,-3.188 -1.585,-2.124 -3.448,-4.325 -5.557,-6.619 -0.447,0.246 -0.831,0.57 -1.124,0.939 -0.57,0.677 -0.893,1.555 -1,2.633 -0.186,1.678 -0.755,2.925 -1.725,3.709 m 47.11,75.638 c 1.062,0.354 3.448,0.062 5.742,0.062 -2.463,-13.44 -5.326,-28.158 -7.621,-37.365 l -3.725,2.124 c 3.187,12.733 4.895,27.05 5.604,35.179 m -8.653,12.44 c -1.847,2.74 -4.51,6.943 -7.959,12.609 -3.448,5.665 -5.958,10.252 -7.559,13.793 -1.586,3.541 -1.847,7.159 -0.785,10.87 0.092,0.308 0.169,0.615 0.262,0.908 0.569,1.986 1.077,3.71 1.54,5.142 0.307,0.939 0.584,1.755 0.846,2.448 0.708,1.94 0.616,2.294 -0.262,1.062 -0.369,-0.662 -0.724,-1.308 -1.062,-1.955 -1.385,-2.679 -2.448,-5.311 -3.171,-7.898 -0.108,-0.354 -0.201,-0.693 -0.278,-1.032 l -0.261,0.74 -5.05,14.394 c 0.2,2.217 0.755,4.68 1.678,7.359 1.57,4.573 4.188,9.807 7.867,15.719 1.771,3.171 1.601,3.449 -0.523,0.785 -4.142,-5.512 -7.144,-11.084 -9.022,-16.704 -0.539,-1.586 -0.986,-3.187 -1.324,-4.773 l -1.971,4.373 -6.25,13.933 c -0.185,3.356 1.94,9.714 6.358,19.09 2.309,4.957 1.771,4.772 -1.586,-0.524 -2.832,-5.311 -4.864,-10.253 -6.096,-14.856 -0.801,3.217 -1.57,6.281 -2.34,9.191 -1.078,4.049 -2.14,7.79 -3.187,11.238 -0.554,1.848 -1.093,3.618 -1.648,5.297 l -1.847,0.538 0.754,-2.094 0.309,-0.831 c 0.939,-5.958 2.139,-11.408 3.602,-16.334 0.677,-2.371 1.432,-4.619 2.233,-6.743 -1.556,1.385 -3.187,2.648 -4.927,3.802 -2.032,1.37 -4.203,2.571 -6.482,3.634 -2.309,1.231 -2.309,0.97 0,-0.801 2.094,-1.231 3.988,-2.463 5.681,-3.71 2.433,-1.755 4.419,-3.541 5.989,-5.312 2.124,-4.957 4.064,-9.468 5.835,-13.532 -1.848,1.324 -4.419,2.771 -7.744,4.357 -2.417,1.139 -5.234,2.34 -8.436,3.602 -2.833,0.539 -2.833,0.185 0,-1.062 3.632,-1.478 6.727,-2.956 9.314,-4.403 2.94,-1.663 5.219,-3.295 6.804,-4.911 0.677,-0.709 1.217,-1.402 1.647,-2.094 l 5.312,-14.056 c -1.94,0 -4.511,2.91 -7.698,8.76 -2.648,4.942 -9.283,9.715 -19.891,14.318 -2.124,0.893 -3.094,2.74 -2.924,5.573 0.354,1.94 2.386,2.74 6.111,2.386 -1.062,3.002 -2.309,5.388 -3.725,7.159 l -2.11,3.187 c -2.832,5.835 -1.154,8.759 5.035,8.759 -2.294,3.542 -3.095,6.282 -2.387,8.222 -0.03,0.6 -0.03,1.185 -0.015,1.785 0.139,2.741 0.955,5.404 2.402,8.037 1.062,2.109 1.862,4.234 2.386,6.358 3.356,-1.94 6.42,-3.587 9.16,-4.911 2.741,-1.324 4.188,-3.756 4.373,-7.297 l -1.325,-8.221 c 0.524,-1.586 1.94,-1.063 4.234,1.601 2.31,3.171 4.157,5.034 5.573,5.572 1.955,-0.892 3.803,-2.478 5.573,-4.787 1.771,-3.357 1.155,-9.545 -1.847,-18.567 l -2.925,-7.42 c 6.02,7.959 10.884,11.762 14.595,11.408 1.231,-0.893 1.632,-2.71 1.185,-5.45 -0.431,-2.741 -0.431,-5.604 0,-8.622 0.447,-3.002 -0.569,-5.573 -3.048,-7.682 -2.479,-2.125 -4.157,-5.573 -5.034,-10.346 5.65,4.234 7.959,3.449 6.897,-2.402 l -3.187,-11.407 c -0.878,-5.481 0,-8.037 2.648,-7.683 2.663,0.354 4.295,0 4.911,-1.062 0.616,-1.062 0.754,-2.925 0.4,-5.573 -1.586,-3.71 -2.294,-6.143 -2.124,-7.298 0.184,-1.154 0.661,-2.124 1.462,-2.909 0.801,-0.801 2.525,-0.632 5.173,0.523 2.648,1.155 3.972,0.354 3.972,-2.386 0,-2.74 0.046,-5.404 0.138,-7.96 0.093,-2.57 0.924,-5.08 2.525,-7.558 1.186,-1.71 2.695,-2.833 4.558,-3.372 0.076,-0.03 0.138,-0.061 0.215,-0.077 l 2.387,2.91 c -3.541,-0.17 -5.174,2.124 -4.912,6.897 0.262,4.788 0.231,8.498 -0.123,11.146 -1.417,3.356 -2.833,5.219 -4.249,5.573 -1.416,0.354 -4.695,9.191 -9.822,26.526 l 5.573,-0.261 c 4.064,-14.857 7.344,-22.863 9.822,-24.017 2.479,-1.14 3.618,-2.463 3.448,-3.972 -0.184,-1.509 0.263,-4.727 1.325,-9.684 3.187,0.878 5.034,3.803 5.572,8.76 0.878,4.588 -0.445,8.129 -3.986,10.607 -3.711,2.125 -5.835,4.065 -6.359,5.835 -1.062,3.002 0.077,4.865 3.448,5.574 1.941,1.062 -2.739,5.311 -14.071,12.732 -5.834,4.064 -7.605,7.697 -5.296,10.884 0.878,1.586 2.525,1.539 4.911,-0.139 2.387,-1.678 3.926,-2.078 4.635,-1.2 1.247,2.478 0.261,4.203 -2.911,5.172 -3.186,0.986 -4.695,2.079 -4.51,3.326 -0.185,5.481 -0.092,9.191 0.262,11.146 0.354,1.94 0.169,4.233 -0.539,6.897 -1.94,2.817 -5.65,2.648 -11.131,-0.539 1.231,3.002 1.54,5.928 0.924,8.76 -0.616,2.833 -1.986,5.573 -4.111,8.221 l -2.648,8.221 c -0.708,2.833 0.877,4.773 4.773,5.835 -1.248,5.481 -1.248,9.376 0,11.67 1.231,2.479 2.124,4.511 2.648,6.112 0.538,1.585 2.124,1.77 4.772,0.523 2.663,-1.232 6.897,-5.927 12.732,-14.056 2.833,3.187 5.573,2.032 8.237,-3.449 3.171,-4.957 4.418,-10.883 3.71,-17.781 6.543,3.541 8.837,1.155 6.897,-7.159 2.833,-5.835 4.557,-10.392 5.173,-13.655 0.616,-3.28 0.092,-6.328 -1.601,-9.16 -1.678,-2.833 -2.464,-4.989 -2.387,-6.498 0.093,-1.508 0.709,-1.462 1.863,0.139 1.155,1.586 3.495,2.91 7.036,3.972 2.294,-4.957 3.264,-8.221 2.91,-9.807 0,-1.955 -1.186,-4.079 -3.572,-6.373 -2.402,-2.294 -3.772,-5.035 -4.126,-8.222 0,-1.601 0.801,-2.386 2.401,-2.386 l 4.773,1.324 c 2.479,0.354 2.556,-1.601 0.262,-5.835 -2.479,-4.603 -4.295,-8.498 -5.435,-11.669 -1.154,-3.187 -1.724,-5.758 -1.724,-7.698 -0.185,-4.064 -0.893,-6.45 -2.125,-7.158 0.354,5.126 0.216,10.468 -0.4,16.041 -0.616,5.573 -1.724,11.809 -3.31,18.706 1.401,1.231 3.356,5.388 5.835,12.47 1.232,3.541 0.97,3.972 -0.8,1.324 -1.94,-5.311 -3.896,-8.576 -5.835,-9.823 -1.94,6.543 -4.064,14.503 -6.374,23.879 2.664,4.418 4.341,9.991 5.049,16.719 0.17,5.666 -0.184,6.097 -1.062,1.324 -1.062,-6.712 -3.002,-11.931 -5.835,-15.657 -2.309,7.436 -4.772,14.425 -7.435,20.968 0.892,3.711 1.246,8.037 1.062,12.994 -0.17,4.957 -0.616,5.127 -1.324,0.539 0,-3.726 -0.446,-6.913 -1.324,-9.561 l -5.835,14.857 -3.71,8.498 c -1.247,2.817 -1.694,2.817 -1.339,0 l 3.448,-11.146 c -2.648,3.002 -5.127,5.219 -7.421,6.635 -2.294,1.417 -2.74,1.324 -1.323,-0.277 3.879,-3.356 7.251,-6.974 10.084,-10.869 2.293,-5.665 4.587,-11.5 6.897,-17.504 -6.728,5.65 -11.409,8.837 -14.072,9.545 -3.356,1.232 -3.356,0.615 0,-1.863 4.773,-3.002 10.438,-8.314 16.981,-15.919 2.125,-6.189 4.157,-12.193 6.097,-18.028 -3.356,1.94 -7.421,5.835 -12.193,11.67 -2.125,2.125 -2.217,1.77 -0.262,-1.062 3.88,-5.835 8.391,-10.962 13.517,-15.396 l 3.987,-16.18 c -4.064,4.079 -9.375,8.236 -15.918,12.47 -2.833,1.771 -3.003,1.416 -0.539,-1.062 5.665,-4.065 11.593,-10.084 17.782,-18.028 1.77,-4.958 2.57,-14.072 2.386,-27.327 -0.17,-3.372 -2.649,-5.835 -7.421,-7.436 l -0.046,-0.539 -1.016,-12.193 -6.635,-0.262 c -3.541,4.942 -6.236,8.791 -8.099,11.532 m -64.598,132.245 c -0.17,2.125 1.678,3.326 5.573,3.588 3.895,0.261 4.511,1.37 1.863,3.325 -5.127,1.755 -9.376,4.772 -12.732,9.006 -2.309,3.018 -2.309,5.142 0,6.374 l 3.972,1.062 1.863,2.386 -2.386,9.284 c -0.709,4.773 0.615,8.129 3.971,10.084 4.773,0.708 9.469,-0.708 14.056,-4.249 0.185,2.478 1.817,3.233 4.911,2.263 3.095,-0.986 5.974,-7.559 8.622,-19.768 l 4.249,-1.601 c 1.416,3.372 2.571,5.049 3.448,5.049 1.417,0 2.833,-2.924 4.249,-8.759 3.526,-3.187 5.22,-8.391 5.035,-15.642 -2.294,-3.017 -3.541,-6.727 -3.711,-11.146 l -2.124,4.773 c -1.232,5.311 -1.771,10.884 -1.586,16.719 -0.185,2.463 -0.446,2.463 -0.8,0 -0.539,-5.142 -0.616,-9.468 -0.262,-13.009 -4.773,6.188 -9.915,11.762 -15.396,16.719 -1.062,3.895 -1.416,8.314 -1.062,13.255 -0.523,4.25 -0.969,5.219 -1.323,2.925 -0.354,-5.311 -0.17,-10.253 0.538,-14.856 -4.08,4.064 -8.852,9.992 -14.333,17.782 -1.416,2.463 -2.032,3.002 -1.862,1.586 3.371,-6.374 6.912,-11.67 10.622,-15.919 3.71,-4.25 6.712,-7.606 9.022,-10.084 -4.604,1.416 -8.591,2.34 -11.947,2.786 -3.356,0.447 -6.451,1.37 -9.284,2.787 -2.647,0.539 -2.555,-0.093 0.263,-1.863 1.601,-1.047 4.818,-2.032 9.683,-2.91 4.865,-0.893 9.422,-2.386 13.671,-4.511 2.294,-1.416 5.388,-5.034 9.283,-10.884 l 3.187,-7.159 c -4.957,2.663 -10.438,4.511 -16.458,5.573 -6.004,1.063 -9.545,2.032 -10.607,2.925 -4.603,1.94 -5.126,1.755 -1.586,-0.539 1.063,-1.062 4.819,-2.247 11.27,-3.571 6.451,-1.34 12.685,-3.849 18.705,-7.575 l 0.524,-1.586 c -1.232,-1.416 -1.678,-3.356 -1.324,-5.835 l 1.862,-5.311 c -1.601,1.955 -3.802,1.062 -6.635,-2.648 1.062,2.294 0.801,4.419 -0.801,6.374 -2.478,3.71 -8.482,7.682 -18.043,11.931 l -1.585,-2.925 c -7.775,2.479 -12.64,7.082 -14.595,13.794 m -5.558,5.05 c -9.914,-0.169 -11.901,0.062 -12.47,1.601 -0.37,1.17 -0.57,2.248 2.91,4.234 l 1.801,3.017 c -5.758,2.617 -11.069,5.743 -11.346,12.901 l 4.772,1.864 c 2.125,2.463 2.171,4.325 0.138,5.557 -2.047,1.247 -3.14,4.511 -3.325,9.823 1.955,4.249 6.728,4.249 14.333,0 3.357,6.543 7.421,8.483 12.194,5.834 -5.127,0 -8.129,-2.217 -9.022,-6.635 -0.524,-2.833 -0.524,-6.281 0,-10.346 -1.755,2.479 -3.88,4.604 -6.358,6.374 -4.773,2.479 -5.666,2.201 -2.648,-0.801 3.002,-3.002 5.65,-6.096 7.959,-9.283 -3.895,-3.187 -8.144,-4.603 -12.747,-4.249 -1.586,-0.708 -1.325,-1.139 0.8,-1.324 2.124,-0.523 4.603,-0.354 7.436,0.539 -0.354,-2.833 0.569,-7.529 1.801,-10.361 1.678,-2.417 3.926,-4.542 6.543,-6.482 -1.232,-0.354 -2.247,-1.016 -2.771,-2.263 m -21.23,25.464 -9.022,2.925 0.524,6.096 -5.034,-1.062 c -4.773,-1.586 -9.546,-0.169 -14.318,4.249 -3.187,-0.539 -4.511,0.708 -3.988,3.711 1.232,2.648 0.893,4.064 -1.062,4.249 l -7.697,-0.801 c -4.942,0.709 -8.222,2.125 -9.808,4.249 -1.062,1.771 -0.354,3.972 2.125,6.635 -4.773,1.94 -7.744,4.065 -8.898,6.359 -1.14,2.294 -0.432,4.157 2.124,5.573 2.571,1.417 7.298,1.678 14.195,0.801 -1.586,1.939 -2.032,3.971 -1.324,6.096 0.184,2.125 4.773,0.97 13.794,-3.448 l 5.311,-3.187 c 1.417,2.663 3.803,3.448 7.159,2.386 4.064,-1.939 7.867,-4.28 11.408,-7.02 3.541,-2.74 7.513,-6.682 11.932,-11.809 3.725,2.479 6.373,1.94 7.959,-1.601 l 0.8,-6.358 c -3.895,3.71 -8.667,3.973 -14.317,0.801 l -3.726,1.586 c -5.127,6.189 -8.221,10.869 -9.283,14.055 -1.063,4.065 -1.586,4.419 -1.586,1.063 0.169,-3.541 2.294,-8.052 6.358,-13.532 -7.775,2.478 -13.486,5.665 -17.104,9.56 -3.633,3.879 -6.42,7.158 -8.36,9.806 -1.94,3.187 -2.74,3.187 -2.386,0 2.125,-3.879 5.034,-7.512 8.76,-10.868 -2.833,1.231 -5.481,2.478 -7.96,3.71 -6.189,2.647 -11.33,4.064 -15.395,4.249 -1.94,0 -2.032,-0.354 -0.261,-1.062 6.897,-1.771 11.9,-3.403 14.995,-4.912 3.094,-1.508 5.172,-2.878 6.235,-4.11 -4.957,-2.124 -10.084,-3.095 -15.395,-2.925 -3.356,0.184 -4.865,0.092 -4.511,-0.262 0.354,-0.354 1.416,-0.708 3.186,-1.062 6.359,-0.708 12.825,0 19.368,2.125 4.773,-2.479 10.345,-4.866 16.704,-7.16 -3.88,-0.893 -7.683,-2.648 -11.393,-5.311 -1.416,-1.77 -0.708,-1.847 2.109,-0.261 2.833,2.124 7.082,3.448 12.748,3.971 l 4.495,-1.847 c -0.354,-4.773 0.801,-9.638 3.449,-14.595 z M 2.786,5.835 c 5.142,7.251 5.758,13.794 1.863,19.629 1.416,9.561 0.447,15.565 -2.925,18.043 -3.526,2.479 -7.867,1.679 -12.994,-2.386 -3.001,1.586 -7.066,0.092 -12.208,-4.511 0.893,2.294 0.985,4.326 0.277,6.097 4.588,2.125 7.559,4.464 8.883,7.036 1.324,2.555 1.986,6.589 1.986,12.07 0.539,3.355 3.633,9.375 9.284,18.042 3.894,8.668 1.154,11.67 -8.222,9.022 5.127,4.588 7.698,8.576 7.698,11.932 0.354,3.187 -0.97,7.251 -3.988,12.208 -1.231,2.818 -3.094,3.357 -5.557,1.586 0.877,1.771 1.355,3.895 1.447,6.374 0.092,2.463 -1.539,7.682 -4.911,15.641 -0.523,10.438 -3.002,14.779 -7.42,13.009 -0.708,5.481 -2.479,10.7 -5.312,15.642 -4.233,6.374 -7.605,8.052 -10.068,5.049 -6.913,10.254 -13.364,14.503 -19.368,12.733 -0.185,4.418 -1.693,8.406 -4.511,11.931 -1.601,6.727 -3.541,11.408 -5.835,14.071 -3.186,1.232 -5.403,-0.538 -6.635,-5.311 -0.539,3.895 -1.77,7.96 -3.71,12.208 -1.956,4.234 -5.05,6.451 -9.299,6.62 -1.586,0.185 -3.094,-0.077 -4.511,-0.785 -2.817,1.771 -5.204,2.648 -7.159,2.648 -6.004,6.374 -11.5,6.898 -16.442,1.586 l -0.8,5.573 c -1.771,6.543 -5.312,7.959 -10.608,4.249 -8.667,9.022 -16.103,14.949 -22.292,17.782 -5.127,1.755 -8.483,1.324 -10.069,-1.34 -2.663,2.664 -5.496,4.342 -8.498,5.05 -3.002,0.708 -5.835,1.493 -8.483,2.386 -4.08,0.17 -5.835,-2.032 -5.311,-6.635 -6.359,-0.354 -10.746,-1.462 -13.132,-3.31 -2.387,-1.863 -3.002,-4.465 -1.848,-7.837 1.14,-3.355 3.757,-6.096 7.821,-8.22 -1.062,-1.232 -1.509,-3.187 -1.324,-5.835 0.169,-2.648 3.002,-4.865 8.483,-6.635 4.064,-1.063 8.052,-1.14 11.947,-0.262 -0.893,-4.065 0.523,-6.635 4.234,-7.698 5.126,-5.296 11.5,-6.62 19.105,-3.972 l -0.801,-5.05 10.346,-4.233 c 0.354,-4.958 2.664,-8.499 6.897,-10.623 l 4.065,-1.74 c -0.878,-0.107 -4.681,-3.248 -4.727,-3.756 -0.615,-0.693 -1.955,-3.434 -0.615,-5.311 0.538,-0.724 1.478,-1.34 3.017,-1.632 1.862,-0.216 3.787,-0.416 5.742,-0.555 2.494,-0.2 5.019,-0.308 7.498,-0.262 0.107,-1.293 0.908,-3.417 1.74,-4.926 0.754,-1.586 2.601,-3.926 5.696,-7.282 2.879,-3.125 8.298,-6.204 12.871,-8.144 -0.309,-0.323 -1.556,-3.772 -2.695,-6.944 -0.693,-1.908 -1.216,-4.402 -1.247,-6.85 -0.031,-2.51 0.462,-4.958 1.832,-6.667 -0.6,0.293 -3.14,-1.477 -4.034,-2.894 -3.31,-5.095 3.85,-12.424 4.989,-14.948 -0.554,0.061 -2.541,-0.94 -3.588,-1.679 -2.463,-1.755 -1.616,-10.546 5.373,-12.054 1.755,-0.847 9.777,-5.512 13.795,-9.592 0.785,-0.8 3.033,-5.034 6.25,-9.252 1.709,-2.248 3.511,-6.035 7.713,-6.143 0.185,-0.585 0.37,-1.154 0.554,-1.739 3.034,-9.191 7.39,-18.09 12.609,-26.804 0.416,-0.723 0.847,-1.447 1.293,-2.155 1.048,-1.725 2.14,-3.418 3.249,-5.127 0,-0.385 6.912,-7.744 9.406,-14.41 -0.831,-4.311 -0.739,-8.021 -0.754,-8.236 -0.908,-8.529 -2.448,-16.366 -4.603,-23.494 -7.513,3.633 -8.76,-1.292 -9.869,-6.158 -0.107,0.246 -3.51,0.616 -3.987,-1.001 0.077,0.678 -0.123,1.34 -0.508,1.941 -1.262,1.985 -4.51,3.232 -6.204,2.031 -0.062,-0.046 -2.417,-1.692 -3.88,-2.802 -0.493,-0.385 -0.924,2.433 -1.077,4.512 -0.077,1.446 -0.37,6.357 0.553,8.298 0.062,0.107 0.324,0.462 0.709,0.97 0.631,0.877 1.616,2.201 2.324,3.448 1.71,3.079 1.155,11.239 -0.446,18.813 -0.492,2.294 -1.062,4.526 -1.709,6.543 -0.831,2.617 -2.555,3.864 -4.065,4.465 -0.615,0.231 -4.571,0.015 -5.326,-3.033 -0.216,1.724 -3.002,2.756 -5.065,3.248 -5.804,1.37 -12.008,-9.76 -11.316,-20.122 -1.293,1.016 -2.709,1.633 -4.033,1.802 -3.018,0.446 -5.573,-1.293 -5.096,-5.327 0.231,-1.986 1.139,-4.357 2.386,-6.897 3.834,-7.806 10.869,-17.228 11.147,-22.139 -3.649,3.248 -11.932,3.341 -11.948,-4.572 0,-2.401 1.956,-6.481 2.772,-8.221 -1.678,-8.452 8.052,-14.626 16.011,-22.585 -0.139,-3.326 0.846,-3.756 1.924,-4.819 0.139,-0.153 0.293,-0.308 0.432,-0.478 -1.448,-2.216 -10.346,-16.241 -10.454,-16.58 -0.431,-0.169 -6.574,3.28 -8.591,1.494 -2.155,-1.91 -3.91,-4.496 -4.91,-6.051 l 1.062,-9.807 c 0.708,-4.08 -1.463,-8.621 -6.497,-13.671 -5.035,-5.034 -8.36,-9.683 -9.945,-13.932 -0.893,-3.171 -4.342,-6.621 -10.346,-10.346 -0.354,1.062 -1.771,2.74 -4.249,5.05 -0.355,0.708 -1.063,0.969 -2.125,0.8 -6.004,-1.601 -18.12,-6.913 -36.333,-15.918 -3.187,-1.602 -7.697,-6.282 -13.532,-14.072 h -10.346 c -2.833,1.601 -5.835,3.803 -9.022,6.636 -2.309,1.77 -6.373,1.154 -12.208,-1.863 -5.481,1.247 -10.962,0.092 -16.442,-3.449 -3.372,-1.232 -5.835,-1.494 -7.436,-0.785 l -12.994,14.056 c -26.88,11.315 -41.567,16.365 -44.046,15.118 -2.648,-1.586 -4.588,-3.88 -5.835,-6.897 -2.648,1.247 -6.635,4.603 -11.931,10.084 l -8.221,9.283 c -6.02,6.728 -8.498,13.087 -7.436,19.106 l 1.324,8.221 c 0.185,1.231 0,2.217 -0.523,2.925 -1.956,2.109 -5.389,3.402 -7.16,3.757 -0.384,0.154 -1.539,0.553 -2.832,-4.234 0.339,-1.155 -8.498,11.639 -8.622,12.054 0.2,0.216 0.401,0.447 0.616,0.724 2.448,3.079 6.189,10.099 8.391,18.167 2.74,9.945 4.002,20.906 3.879,25.093 0.416,0.786 0.523,1.001 1.016,1.479 1.602,1.231 3.357,6.435 4.85,12.763 2.355,9.961 4.018,22.677 3.31,27.018 -0.539,2.833 -1.201,4.296 -1.986,4.388 -0.801,0.077 -1.555,-0.139 -2.263,-0.677 l 1.601,3.186 c 0.878,2.31 0.878,3.803 0,4.511 -0.539,0.555 -5.235,0.493 -9.361,-1.555 -0.046,-0.015 -0.077,-0.046 -0.123,-0.061 -0.492,4.603 -2.679,11.361 -3.802,13.809 -0.385,0.816 -1.525,-0.061 -1.571,-0.077 -7.42,-4.495 -10.715,-14.348 -13.363,-26.557 l -2.124,-1.955 c -2.109,-2.632 -4.126,-5.373 -6.02,-8.205 -0.831,-1.247 -1.647,-2.51 -2.432,-3.788 -3.003,-4.896 -5.62,-10.053 -7.759,-15.456 -1.771,-4.481 -3.187,-9.146 -4.188,-13.98 -1.586,2.464 -2.494,6.051 -3.911,10.746 -1.416,4.681 -1.862,7.822 -1.324,9.406 1.417,2.479 0.97,4.773 -1.339,6.898 -1.755,1.77 -4.065,9.729 -6.897,23.878 0.184,3.71 1.693,9.284 4.511,16.72 2.832,7.42 7.559,16.826 13.763,27.449 0.324,0.462 3.079,3.433 3.926,3.649 0.97,0.246 2.294,1.047 3.88,2.324 12.208,9.854 40.059,47.757 42.029,71.05 0.184,2.217 0.138,4.295 -0.17,6.204 0.37,0.108 2.71,3.911 5.62,9.037 2.74,4.773 5.958,10.7 8.56,15.858 2.447,4.834 4.341,8.991 4.772,10.931 l 2.248,0.723 2.663,1.062 c 8.837,3.541 16.35,7.328 23.247,10.5 l 10.7,5.696 c 7.436,3.171 14.502,7.513 21.23,12.994 7.066,6.189 10.87,12.639 11.408,19.367 -1.247,1.586 -4.865,2.478 -10.885,2.648 3.187,3.541 4.866,7.251 5.05,11.146 -2.309,3.187 -9.206,3.71 -20.691,1.586 -12.024,-3.002 -22.554,-7.682 -31.576,-14.056 -9.191,-5.835 -17.458,-12.963 -24.802,-21.353 -7.343,-8.406 -13.224,-17.12 -17.643,-26.142 l 5.311,12.209 c 2.649,5.835 5.481,12.64 8.484,20.43 0.877,3.71 0.923,6.373 0.138,7.959 -0.801,1.586 -2.525,2.032 -5.172,1.324 -2.833,-0.708 -7.96,-4.419 -15.396,-11.146 -8.129,-8.314 -15.333,-18.567 -21.615,-30.776 -6.281,-12.193 -10.577,-21.83 -12.871,-28.912 1.232,7.959 1.063,14.764 -0.523,20.43 -0.893,2.293 -2.833,2.925 -5.85,1.862 -2.818,-1.955 -5.65,-4.864 -8.483,-8.759 -2.833,-3.895 -5.574,-7.652 -8.221,-11.27 -2.648,-3.633 -5.789,-8.806 -9.422,-15.519 -3.618,-6.727 -6.805,-14.687 -9.545,-23.877 -2.741,-9.207 -4.819,-21.4 -6.235,-36.611 -0.893,-9.729 -0.185,-20.167 2.124,-31.314 2.833,-11.131 5.65,-19.367 8.483,-24.663 2.833,-5.311 5.481,-8.406 7.959,-9.283 1.586,-3.896 3.711,-10.346 6.374,-19.368 1.416,-4.249 2.032,-7.481 1.847,-9.683 -0.169,-2.217 0.401,-3.757 1.725,-4.65 1.324,-0.877 2.432,-2.648 3.325,-5.296 2.294,-8.498 5.388,-16.365 9.283,-23.616 -0.708,-3.895 -1.062,-7.774 -1.062,-11.67 -8.498,24.586 -15.396,43.154 -20.691,55.7 -10.269,22.816 -18.305,33.254 -24.14,31.315 -2.833,-1.063 -4.603,-3.634 -5.311,-7.698 -0.17,-1.586 -0.17,-5.665 0,-12.208 0.184,-6.543 0.8,-13.441 1.863,-20.692 5.296,-23.524 14.409,-43.153 27.326,-58.888 l 19.352,-22.815 c 3.895,-3.894 7.605,-6.759 11.146,-8.621 3.541,-1.863 6.805,-2.341 9.823,-1.463 4.418,-7.066 9.991,-14.502 16.704,-22.276 4.249,-6.543 8.667,-9.638 13.27,-9.284 1.94,-4.249 4.865,-6.374 8.761,-6.374 l 3.971,0.524 c 5.481,-5.296 10.438,-9.545 14.857,-12.732 l -5.035,-14.318 c -8.852,-1.247 -16.98,-1.955 -24.417,-2.125 -6.897,4.958 -16.611,11.67 -29.174,20.168 l -0.8,15.903 c -0.355,5.497 0.615,10.084 2.925,13.81 0.523,3.002 -1.155,5.742 -5.05,8.222 -5.835,2.832 -9.992,3.971 -12.47,3.448 -1.062,-0.354 -1.678,-1.324 -1.848,-2.925 v -8.745 l -25.202,-0.539 c -2.309,0 -4.203,-0.877 -5.712,-2.648 -1.493,-1.77 -1.539,-5.311 -0.122,-10.623 0.169,-1.939 0.077,-3.617 -0.277,-5.034 -1.232,-5.665 -4.511,-12.562 -9.807,-20.691 -0.709,-1.232 -0.401,-3.094 0.923,-5.573 1.324,-2.479 4.65,-6.358 9.946,-11.669 2.309,-2.294 5.804,-5.127 10.484,-8.498 4.68,-3.357 12.948,-8.484 24.802,-15.38 13.979,-8.315 27.326,-15.211 40.059,-20.692 2.663,-0.185 20.337,2.217 53.067,7.159 l 0.262,-2.91 c -9.376,-7.082 -15.396,-9.992 -18.044,-8.76 -3.71,-0.354 -4.864,-3.094 -3.448,-8.221 1.062,-2.31 3.002,-3.895 5.835,-4.773 l 3.448,-3.987 9.823,-5.835 c 3.71,-1.062 7.251,-1.062 10.607,0 3.187,1.232 5.311,3.987 6.374,8.221 l 11.669,11.67 7.698,5.85 c 6.004,1.047 9.899,3.171 11.67,6.359 0.354,2.832 1.138,4.602 2.386,5.31 l 9.283,6.359 c 0.354,0.893 4.157,-0.616 11.408,-4.511 3.541,-0.877 6.636,-0.708 9.284,0.539 l 6.897,3.972 c 6.189,-1.416 17.073,-9.099 32.638,-23.077 -0.185,-1.586 0.785,-3.449 2.909,-5.574 1.232,-1.586 4.603,-2.909 10.084,-3.971 l 3.71,-6.898 3.711,-1.324 c 5.496,-0.185 10.623,1.755 15.395,5.835 l 5.835,1.848 c 3.002,2.309 4.326,4.603 3.972,6.897 l -2.386,2.386 -5.035,1.34 c -6.373,3.002 -12.824,7.066 -19.367,12.193 l -4.249,3.187 c 19.275,-3.357 43.245,-6.02 71.896,-7.96 3.541,-0.708 8.267,1.108 14.195,5.434 5.927,4.342 23.832,17.12 53.714,38.335 4.434,4.788 7.959,10.269 10.623,16.457 -2.664,2.479 -5.004,6.005 -7.036,10.608 -2.032,4.603 -3.31,8.483 -3.849,11.669 -0.708,3.018 -0.785,5.712 -0.261,8.098 0.523,2.387 -0.262,4.634 -2.387,6.759 -0.893,1.247 -2.925,2.032 -6.096,2.387 -5.665,0.538 -12.039,0.446 -19.106,-0.263 -3.356,0.354 -5.311,1.155 -5.835,2.387 l 0.262,6.374 c 0.523,2.832 -0.262,4.064 -2.386,3.71 -7.79,-1.94 -12.471,-3.896 -14.056,-5.835 -2.31,-2.479 -2.217,-5.126 0.261,-7.959 1.94,-1.771 2.91,-3.803 2.91,-6.097 -1.047,-11.686 -2.032,-19.552 -2.91,-23.616 -12.916,-10.254 -21.66,-16.535 -26.264,-18.845 -3.71,-1.231 -12.023,-0.692 -24.94,1.602 -2.833,2.478 -4.865,6.713 -6.097,12.732 4.418,2.648 9.099,5.835 14.056,9.545 3.357,0.539 6.189,1.2 8.499,2.001 2.293,0.785 3.448,2.956 3.448,6.497 2.294,0.878 3.972,2.833 5.034,5.835 l 15.38,18.566 c 4.957,4.249 10.346,6.728 16.196,7.436 7.066,0.524 16.258,4.512 27.589,11.932 1.77,1.94 1.77,4.68 0,8.221 3.356,1.955 8.837,7.436 16.442,16.457 3.001,4.235 3.709,8.93 2.125,14.057 7.065,8.482 11.053,15.21 11.931,20.152 0.708,4.434 0.615,9.206 -0.263,14.333 3.357,2.124 5.712,3.942 7.037,5.435 1.323,1.509 1.985,3.587 1.985,6.235 0,2.663 -0.97,4.864 -2.925,6.635"
             style="fill:#ffffff;fill-opacity:1;fill-rule:evenodd;stroke:none"
             id="path124" /></g><g
           id="g126"
           transform="translate(301.6157,303.7217)"><path
             d="M 0,0 C 2.369,0.622 4.737,1.245 6.5,3.632 L 7.705,1.875 6.407,10.764 5.82,10.146 C 5.882,5.396 4.73,1.837 0.586,0.6 c -5.931,-0.669 -8.359,5.229 -9.655,11.154 -0.658,5.927 -0.168,13.033 5.777,13.71 3.548,0.619 6.551,-2.287 7.799,-6.441 l 0.624,0.008 -1.316,7.698 -0.602,-0.008 0.023,-1.773 c -2.383,1.143 -4.163,1.719 -7.17,1.081 -6.484,-0.658 -9.98,-7.245 -9.28,-14.943 C -11.926,3.394 -6.505,-1.288 0,0"
             style="fill:#ffffff;fill-opacity:1;fill-rule:nonzero;stroke:none"
             id="path128" /></g><g
           id="g130"
           transform="translate(372.2295,329.6504)"><path
             d="M 0,0 0.015,-1.176 C 1.183,-1.161 2.367,-1.752 2.382,-2.925 2.979,-4.116 2.428,-6.48 2.444,-7.678 L 0.812,-18.972 c 0.015,-1.171 -0.512,-4.148 -1.139,-4.741 -0.594,-1.196 -1.762,-1.211 -2.918,-1.225 l 0.008,-0.585 c 1.783,-0.577 2.941,-0.561 4.743,-0.538 1.765,-0.551 2.966,-0.536 4.748,-1.147 L 6.239,-26 c -1.165,-0.015 -2.348,-0.03 -2.371,1.725 -0.008,0.617 -0.046,3.562 0.512,4.778 l 1.065,11.251 c 0.548,1.233 0.517,3.579 1.132,4.775 0.548,1.209 2.298,1.232 2.935,1.24 l 0.591,0.58 C 8.308,-1.675 6.546,-1.092 4.751,-1.114 3.568,-1.13 1.747,-0.562 0,0"
             style="fill:#ffffff;fill-opacity:1;fill-rule:nonzero;stroke:none"
             id="path132" /></g><g
           id="g134"
           transform="translate(279.7686,324.1914)"><path
             d="m 0,0 c 0.015,-1.188 0.62,-3.527 0.635,-4.726 l 1.931,-11.283 c 0.016,-1.163 0.641,-3.519 0.061,-4.71 0.024,-1.798 -1.144,-1.812 -2.335,-1.828 L 0.3,-23.118 c 1.777,0.023 3.549,0.046 4.727,0.633 l 4.741,0.061 -0.016,1.208 c -1.163,-0.014 -2.364,-0.03 -2.999,1.142 -0.571,0.585 -1.204,3.551 -1.219,4.714 L 4.189,-4.099 C 3.587,-2.899 3.557,-0.563 3.541,0.672 4.113,1.818 5.303,2.45 5.897,2.458 L 5.89,3.057 C 4.696,3.041 2.922,2.419 1.16,2.396 -0.031,2.381 -1.833,2.357 -3.601,1.718 l 0.6,-0.567 C -2.392,1.159 -1.224,1.175 0,0"
             style="fill:#ffffff;fill-opacity:1;fill-rule:nonzero;stroke:none"
             id="path136" /></g><g
           id="g138"
           transform="translate(147.8784,345.6514)"><path
             d="m 0,0 5.25,7.165 c 0.602,0.008 0.594,0.61 1.206,0.618 0,0 1.198,-0.587 1.787,-1.153 C 10.037,5.447 10.075,2.486 8.328,0.107 4.822,-4.093 3.035,-2.351 0,0 m 3.05,-3.509 c 2.964,-1.777 5.934,-1.738 8.853,1.888 2.932,4.17 0.52,7.1 -2.482,9.442 -0.614,0.576 -1.797,1.768 -2.996,2.325 -1.802,1.166 -3.008,2.333 -4.82,3.508 L 1.621,12.456 C 2.223,11.88 3.432,11.297 2.873,10.101 2.261,8.917 0.515,6.53 -0.077,5.923 l -6.402,-9.014 c -0.579,-1.156 -2.341,-3.557 -3.526,-4.175 -1.168,-0.587 -1.767,-0.023 -2.976,0.563 l -0.556,-0.609 c 1.772,-0.548 2.974,-1.741 4.2,-2.878 1.173,-0.597 2.379,-1.773 3.57,-2.354 l 0.587,0.605 c -1.192,0.593 -1.794,1.168 -1.809,2.358 0.579,1.196 2.305,3.575 2.909,4.764 l 2.905,3.61 C 0.031,-2.39 0.031,-2.39 0.054,-4.154 l -0.479,-9.496 -0.55,-2.986 c 0.597,-0.585 1.797,-0.569 2.422,-1.142 0.574,-0.602 1.176,-1.194 1.811,-1.777 l 0.566,0.599 c -1.217,1.193 -1.224,1.774 -1.247,3.564 z"
             style="fill:#ffffff;fill-opacity:1;fill-rule:nonzero;stroke:none"
             id="path140" /></g><g
           id="g142"
           transform="translate(249.8042,296.6904)"><path
             d="M 0,0 C -1.168,-0.015 -2.351,-0.03 -2.979,1.152 -3.59,2.325 -3.614,4.128 -4.195,5.307 l -0.664,5.329 1.161,0.015 c 1.208,0.016 2.384,0.602 4.149,0.054 C 1.651,9.564 2.878,8.361 2.909,5.98 3.536,3.024 2.376,0.648 0,0 m -6.233,21.878 c 0,0 1.228,0.016 1.815,0.607 2.341,0.031 3.547,-1.127 4.18,-4.082 0.022,-1.765 0.045,-3.537 -1.107,-4.74 -0.609,-0.593 -1.788,-0.607 -2.943,-1.265 L -4.881,12.391 -6.21,20.099 Z M 4.041,11.322 c -1.216,1.168 -3.001,1.145 -4.796,1.122 2.353,1.257 4.742,3.033 4.084,6.587 -0.651,4.745 -4.813,5.311 -8.357,4.646 -1.228,-0.017 -2.411,-0.631 -3.556,-0.646 -1.806,-0.023 -2.989,-0.039 -4.784,-0.662 l 0.008,-0.584 c 1.211,0.016 2.386,0.031 3.001,-1.124 0.617,-0.608 1.236,-3.539 1.252,-4.745 L -7.785,4.653 c 0.015,-1.165 0.63,-3.554 0.646,-4.745 0.023,-1.783 -1.737,-1.805 -2.319,-1.813 l 0.016,-1.156 c 1.749,0.608 3.516,1.202 5.339,1.225 1.163,0.016 2.958,0.039 3.524,0.655 1.795,0.024 4.169,0.054 5.941,1.868 1.15,1.213 2.328,3.001 2.289,5.974 -0.614,1.755 -1.846,3.514 -3.61,4.661"
             style="fill:#ffffff;fill-opacity:1;fill-rule:nonzero;stroke:none"
             id="path144" /></g><g
           id="g146"
           transform="translate(259.3276,298.0049)"><path
             d="m 0,0 0.008,-0.606 c 5.337,0.675 11.267,1.925 16.62,2.594 L 18.377,2.011 17.726,9.139 16.543,8.523 C 16.566,6.724 16.589,4.951 15.396,3.763 14.251,2.539 12.434,2.516 11.268,1.919 7.114,1.266 5.923,2.431 5.252,7.184 L 3.921,18.411 c -0.016,1.236 -0.643,4.167 -0.658,5.355 0.573,1.178 1.759,1.193 2.934,1.209 L 5.616,26.161 C 4.448,25.528 2.638,25.505 0.863,25.482 -0.323,24.89 -2.115,24.867 -3.89,24.844 l 0.615,-1.163 c 0.616,0.592 2.358,0.615 2.975,-0.55 0.016,-1.216 0.654,-4.156 0.669,-5.348 L 2.284,7.146 C 2.3,5.965 2.93,2.984 2.354,1.803 2.369,0.604 1.186,0.59 0,0"
             style="fill:#ffffff;fill-opacity:1;fill-rule:nonzero;stroke:none"
             id="path148" /></g><g
           id="g150"
           transform="translate(230.3628,294.085)"><path
             d="m 0,0 c -1.175,-0.6 -2.354,-0.615 -2.994,0.532 -0.571,1.209 -1.214,3.583 -1.229,4.745 l -0.669,4.766 0.607,0.008 C -2.5,10.646 -0.73,10.668 0.45,10.112 2.236,9.523 2.858,7.751 3.49,5.987 4.121,2.407 2.958,0.038 0,0 m -6.817,20.072 -0.016,1.181 c 0.604,0.614 1.788,0.63 1.788,0.63 2.95,0.622 4.184,-1.135 4.815,-4.108 0.022,-1.744 0.038,-2.97 -1.13,-4.17 -0.604,-1.177 -1.787,-1.193 -2.955,-1.209 L -5.489,11.825 Z M 4.589,11.319 c -1.176,0.622 -2.953,0.599 -4.743,0.576 2.343,1.186 4.113,2.963 3.483,6.536 -0.679,5.327 -5.447,5.854 -8.397,5.226 -1.176,-0.589 -2.344,-0.604 -4.161,-0.628 -1.171,-0.632 -2.963,-0.655 -4.129,-0.67 l 0.016,-1.191 c 1.157,0.622 2.376,0.638 2.965,-0.543 0.015,-1.165 0.648,-4.136 0.663,-5.302 L -7.782,4.625 c 0.015,-1.181 0.662,-4.146 0.678,-5.302 -0.594,-1.188 -1.803,-1.204 -2.973,-1.818 l 0.008,-0.617 c 2.386,0.031 3.544,0.663 5.946,0.694 1.16,0.614 2.343,0.629 4.146,0.652 1.79,0.024 4.143,0.636 5.319,1.835 1.789,1.811 2.914,3.582 2.302,5.972 -0.031,2.354 -1.24,4.148 -3.055,5.278"
             style="fill:#ffffff;fill-opacity:1;fill-rule:nonzero;stroke:none"
             id="path152" /></g><g
           id="g154"
           transform="translate(318.4839,328.0908)"><path
             d="m 0,0 4.869,-9.434 -6.551,-0.667 z m -0.301,-21.231 -0.016,1.206 c -1.201,-0.016 -2.993,-0.656 -3.016,1.152 -0.589,1.163 0.548,4.151 0.525,5.923 l -0.016,1.183 7.705,1.331 2.454,-4.155 c 0.008,-0.589 0.589,-1.774 0.597,-2.364 0.635,-1.764 -1.153,-1.787 -1.719,-2.404 l 0.008,-0.581 c 1.183,0.015 2.953,0.62 4.728,0.642 1.185,0.625 2.96,0.649 4.135,0.663 l -0.015,1.171 c -1.175,-0.015 -2.348,-0.03 -2.958,0.564 -0.624,1.154 -1.828,2.949 -2.43,4.112 L 0.528,5.481 -0.647,5.467 -3.441,-10.543 c -0.543,-2.422 -0.512,-4.783 -1.058,-7.746 -0.594,-1.798 -1.17,-2.423 -2.929,-3.034 l 0.008,-0.584 c 1.2,0.015 2.351,0.03 3.544,0.63 z"
             style="fill:#ffffff;fill-opacity:1;fill-rule:nonzero;stroke:none"
             id="path156" /></g><g
           id="g158"
           transform="translate(478.1484,312.4785)"><path
             d="M 0,0 -5.905,-3.058 -7.832,7.014 Z m -5.798,-11.341 c 0.64,-2.352 0.038,-2.968 -1.157,-4.148 l 0.617,-0.576 c 0.593,0.591 1.769,1.188 2.963,1.788 1.175,0.622 1.713,1.217 2.916,1.842 l -0.606,0.577 c -0.605,-0.592 -2.326,-1.224 -2.954,-0.038 -0.611,1.739 -1.223,4.717 -1.239,5.901 l -0.625,1.18 7.074,3.657 2.996,-2.362 C 5.38,-4.06 5.985,-5.243 6.579,-5.842 7.219,-7.017 6.023,-8.214 4.835,-8.229 L 5.45,-9.412 c 1.16,1.206 2.962,1.821 4.138,2.426 1.167,1.198 2.934,1.828 4.13,2.424 l -0.609,0.603 C 12.507,-3.967 11.314,-4.593 10.141,-3.998 8.95,-3.457 7.149,-1.68 6.518,-1.089 l -15.594,13.425 -1.209,-0.017 3.177,-15.984 c 0.639,-2.346 1.279,-5.283 1.31,-7.676"
             style="fill:#ffffff;fill-opacity:1;fill-rule:nonzero;stroke:none"
             id="path160" /></g><g
           id="g162"
           transform="translate(483.4995,330.3545)"><path
             d="m 0,0 8.471,-11.745 c 1.199,-1.183 2.408,-2.932 3.055,-4.14 0.61,-1.764 0.031,-2.356 -1.144,-3.559 l 0.566,-0.593 c 1.204,1.215 1.777,1.811 2.963,2.41 1.183,0.605 2.351,1.204 2.922,2.42 l -0.008,0.607 c -1.178,-0.622 -2.346,-1.247 -3.554,-0.653 -1.181,1.166 -2.981,2.907 -3.624,4.105 L 1.788,-0.597 23.284,-7.408 c 1.208,-0.602 2.392,-1.168 3.575,-1.153 l 0.586,0.589 -9.65,12.964 c -1.247,1.738 -3.646,4.66 -4.253,5.855 -0.632,1.746 0.568,1.761 1.152,2.967 l -0.607,0.627 C 12.895,13.791 12.318,13.22 11.752,12.014 10.541,11.406 9.363,10.792 8.187,10.185 L 8.796,9.583 c 1.76,0.633 2.385,1.232 4.152,0.054 1.216,-1.147 2.423,-3.532 3.623,-4.661 L 23.238,-3.871 -0.046,3.547 C -0.625,2.938 -1.792,2.338 -2.402,2.33 -2.996,1.149 -3.588,1.142 -4.763,0.555 l 0.625,-1.229 C -2.988,0.578 -1.77,0.594 0,0"
             style="fill:#ffffff;fill-opacity:1;fill-rule:nonzero;stroke:none"
             id="path164" /></g><g
           id="g166"
           transform="translate(189.2075,321.7324)"><path
             d="m 0,0 c -1.771,-2.983 -4.148,-3.599 -6.522,-1.854 -0.607,0.571 -1.209,0.563 -1.217,1.162 l 4.661,7.171 c 1.16,1.813 1.16,1.813 2.387,0.613 C 1.69,5.367 2.331,2.986 0,0 m 3.56,-1.724 c 2.932,4.215 0.489,7.729 -2.477,9.446 -1.191,0.593 -2.407,1.776 -3.59,2.332 -1.217,1.171 -3.009,1.736 -4.208,2.92 L -7.306,12.358 C -6.105,11.782 -4.914,11.209 -5.485,9.444 -6.066,8.791 -7.831,6.418 -8.39,5.237 l -5.81,-8.966 c -0.576,-1.216 -2.356,-3.579 -3.516,-4.218 -0.612,-1.199 -1.795,-0.024 -2.994,0.586 l 0.016,-1.221 c 1.198,-0.579 2.382,-1.727 3.582,-2.277 1.809,-1.211 3.028,-1.792 4.208,-2.943 l 0.585,0.582 c -1.217,1.173 -2.372,1.767 -1.797,2.966 -0.015,1.162 1.712,3.585 2.28,4.783 l 2.93,3.585 c 0,0 1.198,-1.175 1.8,-1.167 2.981,-2.318 7.749,-3.447 10.666,1.329"
             style="fill:#ffffff;fill-opacity:1;fill-rule:nonzero;stroke:none"
             id="path168" /></g><g
           id="g170"
           transform="translate(517.8135,341.6084)"><path
             d="M 0,0 -5.288,-4.23 -8.971,5.818 Z m -3.998,-12.507 c 0.024,-1.806 0.031,-2.387 -1.136,-3.568 l 0.599,-1.191 c 0.583,1.206 1.794,1.842 2.379,2.396 1.178,0.597 2.333,1.238 2.927,1.838 l -0.617,1.18 c -0.566,-0.609 -1.735,-1.802 -2.933,-0.639 -0.622,1.178 -1.871,4.133 -1.894,5.912 l -0.592,0.584 6.504,4.828 3.563,-2.333 c 0.627,-0.591 1.825,-1.16 2.4,-1.741 0.614,-1.176 -0.536,-2.398 -1.13,-2.979 l 0.61,-0.611 c 1.15,1.208 2.345,1.841 3.503,3.036 1.152,1.196 2.354,1.796 3.539,2.41 l -0.016,1.192 C 12.523,-2.811 11.322,-3.416 10.146,-2.842 9.537,-2.85 7.148,-1.09 6.574,-0.514 l -17.417,11.654 -0.566,-0.624 4.961,-15.345 c 0.596,-2.355 1.229,-4.728 2.45,-7.678"
             style="fill:#ffffff;fill-opacity:1;fill-rule:nonzero;stroke:none"
             id="path172" /></g><g
           id="g174"
           transform="translate(208.9902,318.1201)"><path
             d="m 0,0 0.015,-1.163 c 0.602,-0.609 1.811,-1.178 0.633,-2.981 -0.579,-1.172 -5.275,-5.42 -6.425,-6.62 l -7.662,-6.008 2.2,10.092 c 0.614,1.824 2.312,7.747 2.895,8.974 0.584,1.161 2.389,0.617 2.963,0.038 l 0.591,0.595 c -1.799,0.543 -2.985,1.719 -4.191,2.284 -1.181,0.584 -2.435,1.754 -3.601,2.346 l -0.565,-0.615 c 1.754,-1.762 1.203,-3.542 0.65,-5.921 l -5.05,-21.391 1.183,-0.609 15.273,13.268 c 2.361,1.803 4.707,4.786 7.098,3.07 L 6,-4.074 C 5.383,-3.482 4.218,-2.917 3.001,-2.325 2.384,-1.749 1.208,-1.147 0,0"
             style="fill:#ffffff;fill-opacity:1;fill-rule:nonzero;stroke:none"
             id="path176" /></g><g
           id="g178"
           transform="translate(444.2256,292.0957)"><path
             d="M 0,0 1.686,7.137 0.474,7.121 C -0.062,4.761 -0.046,3.562 -2.45,2.33 -3.626,1.733 -5.393,2.292 -7.196,2.269 c -3.567,0.56 -4.166,1.736 -3.644,6.471 l 1.631,11.326 c 0.602,1.163 0.563,4.152 1.14,5.335 0.558,1.168 2.368,0.61 2.97,0.618 l 0.558,1.198 c -1.777,-0.023 -3.551,-0.046 -5.352,0.557 -1.193,-0.015 -2.985,0.5 -4.15,0.486 l -0.603,-0.547 c 1.183,0.016 2.359,-0.597 3,-1.779 0.014,-1.163 -0.572,-4.124 -0.556,-5.332 L -13.806,9.899 c -0.593,-1.206 -1.156,-4.187 -1.149,-4.76 -1.173,-1.197 -2.361,-1.211 -3.517,-1.227 l 0.008,-0.589 C -12.54,2.199 -7.188,1.687 -1.216,0.565 -1.216,0.565 -0.007,0.581 0,0"
             style="fill:#ffffff;fill-opacity:1;fill-rule:nonzero;stroke:none"
             id="path180" /></g><g
           id="g182"
           transform="translate(169.4321,320.1006)"><path
             d="m 0,0 c -2.92,-2.945 -4.702,-2.388 -7.704,-0.636 -1.208,0.521 -2.4,1.749 -2.422,3.541 -0.016,1.163 1.144,2.387 1.731,3.561 l 3.508,5.388 c 2.982,-1.759 4.19,-2.927 1.859,-6.485 l 0.603,-0.611 c 1.164,1.223 1.751,2.387 2.904,4.184 0.601,1.191 1.787,2.38 2.921,4.21 L 2.809,13.145 C 1.065,11.307 -0.705,9.519 -4.293,12.453 l 5.242,7.783 c 1.186,1.199 1.186,1.199 1.76,0.599 L 4.514,19.673 C 7.49,17.332 8.722,16.157 6.376,12.592 l 0.599,-0.584 3.516,4.789 -12.597,8.765 -1.175,-0.652 c 1.191,-0.576 2.391,-1.16 1.813,-2.932 -0.584,-0.597 -2.327,-3.012 -2.894,-4.207 L -10.21,9.396 C -11.386,8.223 -13.158,5.827 -13.717,5.23 -14.91,4.596 -16.076,5.2 -16.71,5.781 L -17.269,5.185 -2.889,-5.31 0.594,0.008 Z"
             style="fill:#ffffff;fill-opacity:1;fill-rule:nonzero;stroke:none"
             id="path184" /></g><g
           id="g186"
           transform="translate(409.0122,308.6621)"><path
             d="M 0,0 4.65,9.564 6.563,-1.079 Z m 12.039,-10.508 c -0.585,1.192 -0.616,3.555 -1.266,4.73 L 6.955,14.349 5.772,14.897 -1.171,0.594 c -1.173,-2.398 -2.325,-4.777 -3.48,-7.163 -1.203,-1.788 -1.771,-2.412 -3.544,-2.436 l -0.569,-0.574 c 1.168,0.016 2.357,-0.586 3.578,-0.57 1.176,0.015 2.349,-0.551 3.549,-0.536 l -0.007,0.581 c -0.6,0.61 -2.375,0.586 -2.397,2.341 0.576,1.209 1.72,4.185 2.297,5.375 l 0.596,1.209 8.318,-1.092 0.643,-4.137 0.046,-3.572 c 0.016,-1.181 -1.756,-0.604 -2.358,-0.612 l -0.574,-1.224 c 1.775,0.023 3.532,0.045 4.748,-0.502 1.818,0.023 3.568,-0.556 4.743,-0.541 l -0.008,0.601 c -1.182,0.55 -1.782,0.542 -2.371,1.75"
             style="fill:#ffffff;fill-opacity:1;fill-rule:nonzero;stroke:none"
             id="path188" /></g><g
           id="g190"
           transform="translate(404.1958,318.9482)"><path
             d="m 0,0 0.625,-0.565 1.098,5.968 -20.231,3.299 -1.114,-5.967 1.199,-0.574 c 0.513,4.718 1.688,4.733 5.283,4.221 1.165,0.015 2.976,-0.569 2.384,-1.14 l -2.131,-18.426 c -0.527,-2.988 -1.155,-3.587 -4.716,-3.634 l 0.007,-0.581 c 1.796,-0.577 3.57,-0.553 5.378,-0.53 1.769,-0.566 3.567,-1.127 5.326,-1.104 l -0.007,0.584 c -2.965,1.15 -2.973,1.731 -3.012,4.722 l 2.712,18.415 c -0.015,1.164 1.803,0.624 3.58,0.647 C -0.643,4.773 0.571,3.57 0,0"
             style="fill:#ffffff;fill-opacity:1;fill-rule:nonzero;stroke:none"
             id="path192" /></g><g
           id="g194"
           transform="translate(454.7783,315.4648)"><path
             d="m 0,0 c 0.008,-0.622 0.638,-3.56 0.653,-4.732 l 0.765,-11.263 c 0.016,-1.189 0.61,-3.547 0.062,-4.753 0.023,-1.765 -1.755,-1.788 -2.371,-1.796 l 0.007,-0.581 c 1.775,0.022 2.958,0.038 4.743,0.643 l 4.743,0.061 -0.008,0.584 c -1.165,-0.015 -2.345,-0.03 -2.965,1.143 -0.623,1.19 -0.661,4.138 -0.676,5.319 L 3.628,-4.694 3.559,0.623 C 4.103,1.839 5.336,1.854 6.512,1.87 L 6.497,3.058 C 4.714,3.035 2.919,2.412 1.744,2.397 L -3,2.336 -2.984,1.127 C -1.808,1.143 -0.59,1.777 0,0"
             style="fill:#ffffff;fill-opacity:1;fill-rule:nonzero;stroke:none"
             id="path196" /></g></g></g></g></svg>
