<?xml version="1.0" encoding="utf-8"?>
<!-- Generator: Adobe Illustrator 22.1.0, SVG Export Plug-In . SVG Version: 6.00 Build 0)  -->
<svg version="1.1" id="Livello_1" xmlns="http://www.w3.org/2000/svg" xmlns:xlink="http://www.w3.org/1999/xlink" x="0px" y="0px"
	 viewBox="0 0 34 29" style="enable-background:new 0 0 34 29;" xml:space="preserve">
<style type="text/css">
	.st0{fill:#00A159;}
	.st1{fill:#D93832;}
	.st2{fill:#FFFFFF;}
</style>
<g>
	<path class="st0" d="M12.6,13.8c-4.1,1.7-7,5.8-7,10.5H3c0-5.8,3.5-10.7,8.4-12.9"/>
	<path class="st1" d="M22.5,11.4c5,2.1,8.6,7.1,8.6,12.9h-2.6c0-4.7-2.9-8.8-7-10.5"/>
	<path class="st2" d="M21.5,13.8c-2.8-1.2-6-1.3-9,0l-1-2.4c3.7-1.5,7.6-1.4,11,0L21.5,13.8L21.5,13.8z"/>
	<path class="st2" d="M28.4,24.5v-0.2h0.2h-0.2V24.5h-0.2v-0.2c0-3.1-1.3-5.9-3.3-7.9l0,0c-2-2-4.8-3.3-7.9-3.3l0,0
		c-3.1,0-5.9,1.3-7.9,3.3l0,0c-2,2-3.3,4.8-3.3,7.9l0,0v0.2H2.8v-0.2C2.8,16.4,9.1,10,17,10l0,0c7.9,0,14.3,6.4,14.3,14.3l0,0v0.2
		H28.4L28.4,24.5z M30.8,24.1c-0.1-3.7-1.6-7.1-4-9.5l0,0c-2.5-2.5-6-4-9.8-4l0,0c-3.8,0-7.3,1.5-9.8,4l0,0c-2.5,2.5-4,5.8-4,9.5
		l0,0h2.2c0.1-6.3,5.3-11.4,11.6-11.4l0,0c6.4,0,11.5,5.1,11.6,11.4l0,0H30.8L30.8,24.1L30.8,24.1z"/>
	<path class="st2" d="M32.6,17.5c-0.1-0.3-0.4-0.4-0.7-0.3l-12.8,5.4c-0.1-0.2-0.3-0.3-0.5-0.4L24,9.4c0.1-0.3,0-0.6-0.3-0.7
		c-0.3-0.1-0.6,0-0.7,0.3l-5.7,12.7c-0.1,0-0.2,0-0.3,0c-0.1,0-0.3,0-0.4,0L11,9c-0.1-0.3-0.4-0.4-0.7-0.3C10,8.8,9.9,9.1,10,9.4
		l5.4,12.9c-0.1,0.1-0.3,0.2-0.4,0.4L2.1,17.2c-0.3-0.1-0.6,0-0.7,0.3c-0.1,0.3,0,0.6,0.3,0.7l12.8,5.7c0,0.1,0,0.3,0,0.4h5.3
		c0-0.1,0-0.3,0-0.4l12.6-5.7C32.6,18.1,32.7,17.8,32.6,17.5"/>
	<path class="st2" d="M18.4,8.2h0.9l0.1-1.7c0-0.3,0-0.6,0-0.6h0c0,0,0.1,0.4,0.2,0.6L20,7.6h0.8l0.4-1.1c0.1-0.2,0.2-0.6,0.2-0.6h0
		c0,0,0,0.3,0,0.6l0.1,1.7h0.9l-0.3-3.7h-1L20.6,6c-0.1,0.2-0.2,0.6-0.2,0.6h0c0,0-0.1-0.4-0.2-0.6l-0.5-1.6h-1L18.4,8.2L18.4,8.2z"
		/>
	<path class="st2" d="M14,8.2h0.9l-1.2-3.7h-0.9l-1.2,3.7h0.9l0.2-0.8h1.1L14,8.2L14,8.2z M13.2,5.3c0,0,0.1,0.4,0.1,0.6l0.2,0.7
		h-0.7L13,6C13.1,5.7,13.2,5.3,13.2,5.3L13.2,5.3L13.2,5.3z M15,8.2h1.3c1.2,0,1.9-0.7,1.9-1.8c0-1.2-0.7-1.8-1.9-1.8H15V8.2L15,8.2
		z M15.9,7.4V5.3h0.4c0.6,0,1,0.4,1,1.1c0,0.7-0.4,1.1-1,1.1H15.9L15.9,7.4z"/>
</g>
</svg>
