<svg id="Livello_1" xmlns="http://www.w3.org/2000/svg" viewBox="0 0 34 29">
  <style>
    .st3{fill:#1f4e9b}
  </style>
  <path d="M12.6 13.8c-4.1 1.7-7 5.8-7 10.5H3c0-5.8 3.5-10.7 8.4-12.9" fill="#00a159"/>
  <path d="M22.5 11.4c5 2.1 8.6 7.1 8.6 12.9h-2.6c0-4.7-2.9-8.8-7-10.5" fill="#d93832"/>
  <path d="M21.5 13.8c-2.8-1.2-6-1.3-9 0l-1-2.4c3.7-1.5 7.6-1.4 11 0l-1 2.4z" fill="#fff"/>
  <path class="st3" d="M28.4 24.5v-.2h.2-.2v.2h-.2v-.2c0-3.1-1.3-5.9-3.3-7.9-2-2-4.8-3.3-7.9-3.3-3.1 0-5.9 1.3-7.9 3.3-2 2-3.3 4.8-3.3 7.9v.2h-3v-.2C2.8 16.4 9.1 10 17 10c7.9 0 14.3 6.4 14.3 14.3v.2h-2.9zm2.4-.4c-.1-3.7-1.6-7.1-4-9.5-2.5-2.5-6-4-9.8-4-3.8 0-7.3 1.5-9.8 4-2.5 2.5-4 5.8-4 9.5h2.2c.1-6.3 5.3-11.4 11.6-11.4 6.4 0 11.5 5.1 11.6 11.4h2.2z"/>
  <path class="st3" d="M32.6 17.5c-.1-.3-.4-.4-.7-.3l-12.8 5.4c-.1-.2-.3-.3-.5-.4L24 9.4c.1-.3 0-.6-.3-.7-.3-.1-.6 0-.7.3l-5.7 12.7h-.7L11 9c-.1-.3-.4-.4-.7-.3-.3.1-.4.4-.3.7l5.4 12.9c-.1.1-.3.2-.4.4L2.1 17.2c-.3-.1-.6 0-.7.3-.1.3 0 .6.3.7l12.8 5.7v.4h5.3v-.4l12.6-5.7c.2-.1.3-.4.2-.7"/>
  <path class="st3" d="M18.4 8.2h.9l.1-1.7v-.6s.1.4.2.6l.4 1.1h.8l.4-1.1c.1-.2.2-.6.2-.6v.6l.1 1.7h.9l-.3-3.7h-1L20.6 6c-.1.2-.2.6-.2.6s-.1-.4-.2-.6l-.5-1.6h-1l-.3 3.8z"/>
  <path class="st3" d="M14 8.2h.9l-1.2-3.7h-.9l-1.2 3.7h.9l.2-.8h1.1l.2.8zm-.8-2.9s.1.4.1.6l.2.7h-.7L13 6c.1-.3.2-.7.2-.7zM15 8.2h1.3c1.2 0 1.9-.7 1.9-1.8 0-1.2-.7-1.8-1.9-1.8H15v3.6zm.9-.8V5.3h.4c.6 0 1 .4 1 1.1 0 .7-.4 1.1-1 1.1h-.4v-.1z"/>
</svg>
