<svg id="Livello_1" data-name="Livello 1" xmlns="http://www.w3.org/2000/svg" xmlns:xlink="http://www.w3.org/1999/xlink" viewBox="0 0 124 40"><defs><clipPath id="clip-path"><circle cx="14.652" cy="21.118" r="12.45" style="fill:none"/></clipPath><clipPath id="clip-path-2"><path d="M21.953,25.387a1.441,1.441,0,0,1-1.577,1.285h0A1.439,1.439,0,0,1,19.087,25.1l.065-.636a1.442,1.442,0,0,1,1.577-1.288h0a1.441,1.441,0,0,1,1.289,1.576Z" style="fill:none"/></clipPath><clipPath id="clip-path-3"><path d="M20.587,24.576l-7.831-.792L12.834,23c1.936-.769,2.762-6.914,2.762-6.914.418-4.153,4.916-4.732,4.916-4.732.234-2.315,1.64-2.275,1.64-2.275M20.587,24.576l7.831.788.081-.779c-1.745-1.14-1.325-7.325-1.325-7.325.42-4.154-3.87-5.619-3.87-5.619.233-2.315-1.153-2.557-1.153-2.557" style="fill:none"/></clipPath><clipPath id="clip-path-4"><path d="M20.68,24.319l-7.692-.777.074-.744c1.9-.724,2.691-6.559,2.691-6.559.4-3.946,4.807-4.484,4.807-4.484.224-2.2,1.6-2.156,1.6-2.156M20.68,24.319l7.69.777.077-.747c-1.718-1.087-1.324-6.962-1.324-6.962.4-3.949-3.819-5.354-3.819-5.354.222-2.2-1.14-2.434-1.14-2.434" style="fill:none"/></clipPath><clipPath id="clip-path-5"><path d="M20.606,24.306l-7.693-.775.076-.745c1.9-.724,2.691-6.559,2.691-6.559.4-3.948,4.811-4.484,4.811-4.484.222-2.2,1.6-2.159,1.6-2.159M20.606,24.306l7.69.778.078-.747c-1.715-1.087-1.323-6.962-1.323-6.962.4-3.948-3.817-5.355-3.817-5.355.222-2.2-1.141-2.436-1.141-2.436" style="fill:none"/></clipPath></defs><title>gioco_responsabile_negative</title><g style="clip-path:url(#clip-path)"><rect x="2.202" y="8.669" width="24.898" height="24.9" style="fill:#d9d9d9"/><circle cx="14.651" cy="21.119" r="12.45" style="fill:#d9d9d9"/><circle cx="14.651" cy="21.119" r="12.122" style="fill:#dadada"/><circle cx="14.651" cy="21.119" r="11.794" style="fill:#dbdbdb"/><circle cx="14.651" cy="21.119" r="11.467" style="fill:#dcdcdc"/><circle cx="14.651" cy="21.119" r="11.139" style="fill:#ddd"/><circle cx="14.651" cy="21.119" r="10.811" style="fill:#dedede"/><circle cx="14.651" cy="21.119" r="10.484" style="fill:#dfdfdf"/><circle cx="14.651" cy="21.119" r="10.156" style="fill:#e0e0e0"/><circle cx="14.651" cy="21.119" r="9.829" style="fill:#e1e1e1"/><circle cx="14.651" cy="21.119" r="9.501" style="fill:#e2e2e2"/><circle cx="14.651" cy="21.119" r="9.173" style="fill:#e3e3e3"/><circle cx="14.651" cy="21.119" r="8.846" style="fill:#e4e4e4"/><circle cx="14.651" cy="21.119" r="8.518" style="fill:#e5e5e5"/><circle cx="14.651" cy="21.119" r="8.191" style="fill:#e6e6e6"/><circle cx="14.651" cy="21.119" r="7.863" style="fill:#e7e7e7"/><circle cx="14.651" cy="21.119" r="7.535" style="fill:#e8e8e8"/><circle cx="14.651" cy="21.119" r="7.208" style="fill:#e9e9e9"/><circle cx="14.651" cy="21.119" r="6.88" style="fill:#eaeaea"/><circle cx="14.651" cy="21.119" r="6.552" style="fill:#ebebeb"/><circle cx="14.651" cy="21.119" r="6.225" style="fill:#ededed"/><circle cx="14.651" cy="21.119" r="5.897" style="fill:#eee"/><circle cx="14.651" cy="21.119" r="5.57" style="fill:#efefef"/><circle cx="14.651" cy="21.119" r="5.242" style="fill:#f0f0f0"/><circle cx="14.651" cy="21.119" r="4.914" style="fill:#f1f1f1"/><circle cx="14.651" cy="21.119" r="4.587" style="fill:#f2f2f2"/><circle cx="14.651" cy="21.119" r="4.259" style="fill:#f3f3f3"/><circle cx="14.651" cy="21.119" r="3.931" style="fill:#f4f4f4"/><circle cx="14.651" cy="21.119" r="3.604" style="fill:#f5f5f5"/><circle cx="14.651" cy="21.119" r="3.276" style="fill:#f6f6f6"/><circle cx="14.651" cy="21.119" r="2.949" style="fill:#f7f7f7"/><circle cx="14.651" cy="21.119" r="2.621" style="fill:#f8f8f8"/><circle cx="14.651" cy="21.119" r="2.293" style="fill:#f9f9f9"/><circle cx="14.651" cy="21.119" r="1.966" style="fill:#fafafa"/><circle cx="14.651" cy="21.119" r="1.638" style="fill:#fbfbfb"/><circle cx="14.651" cy="21.119" r="1.31" style="fill:#fcfcfc"/><circle cx="14.651" cy="21.119" r="0.983" style="fill:#fdfdfd"/><circle cx="14.651" cy="21.119" r="0.655" style="fill:#fefefe"/><circle cx="14.651" cy="21.119" r="0.328" style="fill:#fff"/></g><path d="M39.179,19.89a5.57,5.57,0,0,1-2.29.5,5.261,5.261,0,0,1-3.078-.986,6.349,6.349,0,0,1-2.169-2.684,6.607,6.607,0,0,1-.591-2.7A5.39,5.39,0,0,1,34.326,9a6.8,6.8,0,0,1,2.82-.637q1.88,0,2.366,1.077a1.755,1.755,0,0,1,.136.667,1.22,1.22,0,0,1-.758,1.2,3.066,3.066,0,0,1-1.5.053,3.359,3.359,0,0,0-1.9.25,2.19,2.19,0,0,0-1.38,2.184,4.038,4.038,0,0,0,.379,1.653q.91,2.063,2.548,2.062a2.4,2.4,0,0,0,1.592-.607,1.855,1.855,0,0,0,.774-1.486,1.933,1.933,0,0,0-.076-.516l-1.046.482a1.438,1.438,0,0,1-.606.14,1.314,1.314,0,0,1-1.289-.868,1.479,1.479,0,0,1-.136-.609,1.328,1.328,0,0,1,.88-1.279l2.35-1.05a2.144,2.144,0,0,1,.849-.2A1.641,1.641,0,0,1,41.8,12.687a6.252,6.252,0,0,1,.546,2.5,4.974,4.974,0,0,1-.789,2.745A5.462,5.462,0,0,1,39.179,19.89Z" style="fill:#6f6f6e"/><path d="M44.047,18.813a1.56,1.56,0,0,1,.03-.3L45.427,10a1.557,1.557,0,0,1,.493-.978,1.4,1.4,0,0,1,.963-.356A1.573,1.573,0,0,1,48,9.085a1.416,1.416,0,0,1,.447,1.084,1.542,1.542,0,0,1-.03.3l-1.35,8.507a1.557,1.557,0,0,1-.493.978,1.4,1.4,0,0,1-.963.356,1.571,1.571,0,0,1-1.115-.417A1.414,1.414,0,0,1,44.047,18.813Z" style="fill:#6f6f6e"/><path d="M55,20.375a5.281,5.281,0,0,1-3.442-1.941,5.8,5.8,0,0,1-1.243-3.73,6.815,6.815,0,0,1,.091-1.092,6.121,6.121,0,0,1,1.873-3.662,5.149,5.149,0,0,1,3.632-1.418,5.9,5.9,0,0,1,.94.076,5.2,5.2,0,0,1,3.412,1.948,5.886,5.886,0,0,1,1.274,3.753,6.27,6.27,0,0,1-.091,1.062,6.164,6.164,0,0,1-1.865,3.654,5.128,5.128,0,0,1-3.64,1.426A5.9,5.9,0,0,1,55,20.375Zm1.41-8.947a1.739,1.739,0,0,0-.394-.046,2.131,2.131,0,0,0-1.668.758,3.845,3.845,0,0,0-.864,1.972,4.781,4.781,0,0,0-.061.758,3.045,3.045,0,0,0,.516,1.8,2.149,2.149,0,0,0,1.5.879,1.936,1.936,0,0,0,.409.045,2.157,2.157,0,0,0,1.683-.773,3.821,3.821,0,0,0,.834-1.956,4.433,4.433,0,0,0,.061-.728,3.111,3.111,0,0,0-.5-1.8A2.209,2.209,0,0,0,56.406,11.428Z" style="fill:#6f6f6e"/><path d="M68.355,20.511a5.268,5.268,0,0,1-3.427-1.941,5.736,5.736,0,0,1-1.259-3.715,6.63,6.63,0,0,1,.091-1.092,6.133,6.133,0,0,1,1.873-3.677A5.169,5.169,0,0,1,69.28,8.668a6.09,6.09,0,0,1,.94.076A5.78,5.78,0,0,1,72.3,9.5a2.026,2.026,0,0,1,1.213,1.653,1.392,1.392,0,0,1-.387.978,1.243,1.243,0,0,1-.948.417,2.782,2.782,0,0,1-1.2-.47,3.358,3.358,0,0,0-1.228-.425,2.725,2.725,0,0,0-.41-.03,2.152,2.152,0,0,0-1.653.728,3.583,3.583,0,0,0-.849,1.941,3.949,3.949,0,0,0-.061.682,2.856,2.856,0,0,0,.515,1.744,2.227,2.227,0,0,0,1.516.895,3.3,3.3,0,0,0,.44.031,4.048,4.048,0,0,0,.993-.152,3.883,3.883,0,0,1,.826-.152,1.309,1.309,0,0,1,1.054.508,1.329,1.329,0,0,1,.311,1.115A1.684,1.684,0,0,1,71.3,20.254a5.1,5.1,0,0,1-1.956.334A6,6,0,0,1,68.355,20.511Z" style="fill:#6f6f6e"/><path d="M79.7,20.375a5.281,5.281,0,0,1-3.443-1.941,5.806,5.806,0,0,1-1.243-3.73,6.771,6.771,0,0,1,.091-1.092,6.119,6.119,0,0,1,1.873-3.662,5.149,5.149,0,0,1,3.631-1.418,5.909,5.909,0,0,1,.941.076,5.2,5.2,0,0,1,3.412,1.948,5.885,5.885,0,0,1,1.274,3.753,6.27,6.27,0,0,1-.091,1.062,6.163,6.163,0,0,1-1.865,3.654,5.127,5.127,0,0,1-3.64,1.426A5.9,5.9,0,0,1,79.7,20.375Zm1.41-8.947a1.737,1.737,0,0,0-.394-.046,2.132,2.132,0,0,0-1.668.758,3.843,3.843,0,0,0-.864,1.972,4.758,4.758,0,0,0-.061.758,3.046,3.046,0,0,0,.516,1.8,2.148,2.148,0,0,0,1.5.879,1.941,1.941,0,0,0,.41.045,2.158,2.158,0,0,0,1.683-.773,3.821,3.821,0,0,0,.834-1.956,4.433,4.433,0,0,0,.061-.728,3.11,3.11,0,0,0-.5-1.8A2.208,2.208,0,0,0,81.108,11.428Z" style="fill:#6f6f6e"/><path d="M34.757,29.349a15.481,15.481,0,0,1-.075,1.986,1.166,1.166,0,0,1-.418.905,1.259,1.259,0,0,1-.943.268,1.234,1.234,0,0,1-.862-.431,1.207,1.207,0,0,1-.262-.955l.612-6.993a1.285,1.285,0,0,1,.418-.905,1.239,1.239,0,0,1,.955-.269l2.186.188a3.9,3.9,0,0,1,2.3.862,2.74,2.74,0,0,1,.862,2.148q0,.2-.013.412a2.439,2.439,0,0,1-.737,1.6,2.937,2.937,0,0,1-1.511.762l1.586,2.023a1.1,1.1,0,0,1,.262.786,1.257,1.257,0,0,1-.425.856,1.15,1.15,0,0,1-.924.306,1.182,1.182,0,0,1-.924-.524Zm1.411-3.859-.974-.087-.137,1.574.974.087q.849.075.912-.725Q37.017,25.565,36.168,25.49Z" style="fill:#2a3580"/><path d="M37.9,33.1q-.073,0-.149-.007a1.378,1.378,0,0,1-1.071-.611L34.962,30c-.01.372-.037.824-.081,1.351a1.356,1.356,0,0,1-.492,1.045,1.458,1.458,0,0,1-1.087.312,1.436,1.436,0,0,1-1-.5A1.405,1.405,0,0,1,32,31.1l.612-6.989a1.481,1.481,0,0,1,.487-1.039,1.426,1.426,0,0,1,1.1-.317l2.186.188a4.113,4.113,0,0,1,2.414.912,2.944,2.944,0,0,1,.929,2.3q0,.206-.013.424a2.65,2.65,0,0,1-.8,1.731,3.035,3.035,0,0,1-1.3.738l1.394,1.779a1.3,1.3,0,0,1,.3.929,1.455,1.455,0,0,1-.489.985A1.334,1.334,0,0,1,37.9,33.1Zm-3.382-4.456,2.492,3.611a.982.982,0,0,0,.776.439.955.955,0,0,0,.772-.254,1.054,1.054,0,0,0,.361-.723.9.9,0,0,0-.221-.649l-1.786-2.278.318-.065a2.752,2.752,0,0,0,1.411-.708,2.228,2.228,0,0,0,.677-1.473c.008-.131.012-.265.012-.394a2.528,2.528,0,0,0-.8-2,3.726,3.726,0,0,0-2.182-.811l-2.184-.188a1.036,1.036,0,0,0-.807.22,1.084,1.084,0,0,0-.35.771L32.4,31.14a1.01,1.01,0,0,0,.215.808,1.032,1.032,0,0,0,.728.361,1.063,1.063,0,0,0,.8-.224.967.967,0,0,0,.344-.758,15.48,15.48,0,0,0,.075-1.966Zm1.653-1.376q-.075,0-.155-.007l-1.174-.105.172-1.973,1.174.105a1.082,1.082,0,0,1,.772.342.953.953,0,0,1,.184.727.894.894,0,0,1-.973.912Zm-.895-.476.775.069a.694.694,0,0,0,.519-.108.606.606,0,0,0,.175-.432.577.577,0,0,0-.093-.436.71.71,0,0,0-.5-.2h0l-.774-.069Z" style="fill:#d9d9d9"/><path d="M44.11,32.87l-3.16-.612a1.3,1.3,0,0,1-.755-.419,1.154,1.154,0,0,1-.294-.793.994.994,0,0,1,.038-.262l1.311-6.744q.225-1.149,1.224-1.149a1.8,1.8,0,0,1,.3.025l3.035.587a1.206,1.206,0,0,1,.737.418,1.2,1.2,0,0,1-.088,1.567,1.1,1.1,0,0,1-.824.35,1.318,1.318,0,0,1-.262-.025l-1.861-.362-.225,1.174,1.7.337a1.26,1.26,0,0,1,.749.418,1.117,1.117,0,0,1,.262.73A1.173,1.173,0,0,1,44.809,29.3a1.449,1.449,0,0,1-.262-.025l-1.711-.337L42.6,30.186l1.961.387a1.121,1.121,0,0,1,.974,1.137,1.175,1.175,0,0,1-.331.837,1.1,1.1,0,0,1-.83.35A1.485,1.485,0,0,1,44.11,32.87Z" style="fill:#2a3580"/><path d="M44.372,33.1a1.672,1.672,0,0,1-.3-.028h0l-3.16-.612a1.5,1.5,0,0,1-.868-.483,1.353,1.353,0,0,1-.344-.925,1.2,1.2,0,0,1,.045-.315L41.054,24a1.386,1.386,0,0,1,1.421-1.311,2.017,2.017,0,0,1,.333.028l3.039.587a1.408,1.408,0,0,1,.857.492,1.4,1.4,0,0,1-.1,1.83,1.3,1.3,0,0,1-.969.411,1.533,1.533,0,0,1-.3-.029l-1.662-.323-.15.781,1.5.3a1.461,1.461,0,0,1,.865.487,1.316,1.316,0,0,1,.308.858,1.346,1.346,0,0,1-.4.985,1.38,1.38,0,0,1-1.283.374L43,29.172l-.163.855,1.765.349a1.321,1.321,0,0,1,1.136,1.333,1.375,1.375,0,0,1-.386.974A1.294,1.294,0,0,1,44.372,33.1Zm-.225-.423a.941.941,0,0,0,.91-.266.973.973,0,0,0,.276-.7.921.921,0,0,0-.81-.939l-2.159-.426.312-1.643,1.909.376a.983.983,0,0,0,.925-.264.947.947,0,0,0,.285-.7.913.913,0,0,0-.217-.6,1.056,1.056,0,0,0-.635-.349l-1.892-.376.3-1.567,2.058.4a1.1,1.1,0,0,0,.224.022.9.9,0,0,0,.68-.288.96.96,0,0,0,.281-.7.949.949,0,0,0-.207-.607,1,1,0,0,0-.62-.346l-3.032-.586a1.6,1.6,0,0,0-.262-.022c-.569,0-.9.314-1.027.987l-1.311,6.744a.856.856,0,0,0-.034.224.951.951,0,0,0,.243.66,1.1,1.1,0,0,0,.643.355Z" style="fill:#d9d9d9"/><path d="M50.392,32.8a5.837,5.837,0,0,1-2.073-.362q-1.274-.475-1.274-1.349a1.222,1.222,0,0,1,.318-.843,1.062,1.062,0,0,1,.83-.356,3.408,3.408,0,0,1,1.043.244,3.406,3.406,0,0,0,1.055.244q.961,0,.962-.762,0-.375-1.087-.687a8.123,8.123,0,0,1-2-.762,2.273,2.273,0,0,1-1.087-2.036,2.9,2.9,0,0,1,1.037-2.31,3.516,3.516,0,0,1,2.373-.837,4.405,4.405,0,0,1,1.686.35q1.074.462,1.074,1.211a1.308,1.308,0,0,1-.312.862,1.033,1.033,0,0,1-.837.375,2.743,2.743,0,0,1-.824-.188,2.75,2.75,0,0,0-.837-.187q-.712,0-.712.5,0,.263,1.087.575a6.4,6.4,0,0,1,2,.849,2.641,2.641,0,0,1,1.087,2.26,2.967,2.967,0,0,1-1.062,2.36A3.652,3.652,0,0,1,50.392,32.8Z" style="fill:#2a3580"/><path d="M50.392,33a6.06,6.06,0,0,1-2.144-.375c-.931-.347-1.4-.864-1.4-1.536a1.422,1.422,0,0,1,.37-.976,1.258,1.258,0,0,1,.98-.423,3.548,3.548,0,0,1,1.11.255,3.243,3.243,0,0,0,.988.232c.671,0,.761-.284.761-.561,0-.009-.011-.226-.942-.494a8.211,8.211,0,0,1-2.052-.786,2.471,2.471,0,0,1-1.178-2.2,3.1,3.1,0,0,1,1.107-2.463,3.726,3.726,0,0,1,2.5-.885,4.619,4.619,0,0,1,1.762.365c.8.342,1.2.812,1.2,1.4a1.51,1.51,0,0,1-.359.99,1.23,1.23,0,0,1-.991.447,2.889,2.889,0,0,1-.89-.2,2.586,2.586,0,0,0-.771-.176c-.511,0-.511.2-.511.3.005-.006.091.137.942.382a6.512,6.512,0,0,1,2.062.881A2.841,2.841,0,0,1,54.1,29.586,3.171,3.171,0,0,1,52.97,32.1,3.862,3.862,0,0,1,50.392,33Zm-2.2-2.91a.864.864,0,0,0-.681.289,1.021,1.021,0,0,0-.267.709c0,.495.374.874,1.143,1.161a5.661,5.661,0,0,0,2,.35,3.472,3.472,0,0,0,2.318-.8,2.752,2.752,0,0,0,.991-2.208,2.431,2.431,0,0,0-1-2.1,6.254,6.254,0,0,0-1.934-.818c-.876-.251-1.233-.474-1.233-.768,0-.261.118-.7.912-.7a2.9,2.9,0,0,1,.9.2,2.6,2.6,0,0,0,.758.176.835.835,0,0,0,.683-.3,1.1,1.1,0,0,0,.266-.733c0-.415-.312-.751-.953-1.027a4.22,4.22,0,0,0-1.607-.333,3.338,3.338,0,0,0-2.242.788,2.683,2.683,0,0,0-.967,2.158,2.066,2.066,0,0,0,.995,1.867,8,8,0,0,0,1.944.737c.841.242,1.233.522,1.233.88s-.151.962-1.162.962a3.547,3.547,0,0,1-1.123-.255A3.25,3.25,0,0,0,48.194,30.086Z" style="fill:#d9d9d9"/><path d="M58.4,29.661l-1.062.188.3,1.711a1.536,1.536,0,0,1,.025.275,1.145,1.145,0,0,1-.368.886,1.309,1.309,0,0,1-.918.337,1.168,1.168,0,0,1-.78-.281,1.28,1.28,0,0,1-.418-.793l-1.224-6.906a1.55,1.55,0,0,1-.025-.275A1.134,1.134,0,0,1,55,23.591l2.173-.387a4.487,4.487,0,0,1,.737-.062,3.361,3.361,0,0,1,2.167.724,3.143,3.143,0,0,1,1.13,1.973,4.135,4.135,0,0,1,.05.624,2.981,2.981,0,0,1-.806,2.1A3.581,3.581,0,0,1,58.4,29.661Zm-.862-4.208-.949.162.35,2,.949-.175a.86.86,0,0,0,.8-.936,1.17,1.17,0,0,0-.237-.749.889.889,0,0,0-.712-.325A.812.812,0,0,0,57.535,25.453Z" style="fill:#2a3580"/><path d="M56.374,33.258a1.367,1.367,0,0,1-.91-.329,1.478,1.478,0,0,1-.486-.912l-1.224-6.9a1.751,1.751,0,0,1-.028-.31,1.332,1.332,0,0,1,1.24-1.409l2.172-.387a3.786,3.786,0,0,1,3.064.7A3.353,3.353,0,0,1,61.4,25.8a4.383,4.383,0,0,1,.053.66A3.187,3.187,0,0,1,60.6,28.7a3.79,3.79,0,0,1-2.166,1.154h0l-.864.153.265,1.514a1.748,1.748,0,0,1,.028.309,1.342,1.342,0,0,1-.434,1.034A1.51,1.51,0,0,1,56.374,33.258Zm1.536-9.915a4.3,4.3,0,0,0-.7.06l-2.171.387a.939.939,0,0,0-.909,1.014,1.355,1.355,0,0,0,.022.24l1.224,6.906a1.08,1.08,0,0,0,.351.675.966.966,0,0,0,.651.233,1.106,1.106,0,0,0,.783-.285.944.944,0,0,0,.3-.738,1.337,1.337,0,0,0-.022-.239L57.1,29.686l1.258-.222A3.4,3.4,0,0,0,60.3,28.432a2.763,2.763,0,0,0,.752-1.968,3.972,3.972,0,0,0-.048-.594,2.956,2.956,0,0,0-1.057-1.847A3.179,3.179,0,0,0,57.91,23.343Zm-1.137,4.5-.419-2.4,1.14-.195a1.006,1.006,0,0,1,.241-.029,1.086,1.086,0,0,1,.865.4,1.374,1.374,0,0,1,.285.879,1.054,1.054,0,0,1-.966,1.134Zm.045-2.068.28,1.6.75-.139a.663.663,0,0,0,.635-.739.968.968,0,0,0-.194-.625.684.684,0,0,0-.705-.23l-.015,0Z" style="fill:#d9d9d9"/><path d="M65.615,32.733a4.347,4.347,0,0,1-2.835-1.6,4.781,4.781,0,0,1-1.024-3.072,5.619,5.619,0,0,1,.075-.9,5.043,5.043,0,0,1,1.542-3.016,4.242,4.242,0,0,1,2.991-1.168,4.863,4.863,0,0,1,.774.062,4.282,4.282,0,0,1,2.81,1.6A4.849,4.849,0,0,1,71,27.738a5.147,5.147,0,0,1-.075.874,5.072,5.072,0,0,1-1.536,3.009,4.223,4.223,0,0,1-3,1.174A4.866,4.866,0,0,1,65.615,32.733Zm1.161-7.368a1.458,1.458,0,0,0-.325-.037,1.754,1.754,0,0,0-1.374.624,3.165,3.165,0,0,0-.712,1.623,3.951,3.951,0,0,0-.05.625,2.505,2.505,0,0,0,.425,1.486,1.769,1.769,0,0,0,1.236.724,1.6,1.6,0,0,0,.337.038,1.777,1.777,0,0,0,1.386-.637,3.153,3.153,0,0,0,.687-1.611,3.647,3.647,0,0,0,.05-.6,2.56,2.56,0,0,0-.412-1.486A1.82,1.82,0,0,0,66.777,25.365Z" style="fill:#2a3580"/><path d="M66.39,33a5.067,5.067,0,0,1-.806-.065,4.559,4.559,0,0,1-2.96-1.671,5,5,0,0,1-1.068-3.2,5.85,5.85,0,0,1,.077-.931A5.26,5.26,0,0,1,63.237,24a4.455,4.455,0,0,1,3.128-1.221,5.071,5.071,0,0,1,.806.065,4.494,4.494,0,0,1,2.936,1.679A5.065,5.065,0,0,1,71.2,27.738a5.384,5.384,0,0,1-.078.908,5.289,5.289,0,0,1-1.6,3.121A4.435,4.435,0,0,1,66.39,33Zm-.025-9.816a4.066,4.066,0,0,0-2.855,1.114,4.869,4.869,0,0,0-1.481,2.9,5.44,5.44,0,0,0-.072.868,4.606,4.606,0,0,0,.98,2.947,4.172,4.172,0,0,0,2.709,1.525h0a4.726,4.726,0,0,0,.743.06,4.045,4.045,0,0,0,2.859-1.12,4.9,4.9,0,0,0,1.475-2.894,4.971,4.971,0,0,0,.073-.843,4.674,4.674,0,0,0-1.006-2.967,4.1,4.1,0,0,0-2.684-1.531A4.666,4.666,0,0,0,66.365,23.18Zm-.05,7.468a1.818,1.818,0,0,1-.379-.042,1.961,1.961,0,0,1-1.358-.8,2.712,2.712,0,0,1-.462-1.6,4.166,4.166,0,0,1,.052-.656,3.374,3.374,0,0,1,.759-1.724,1.955,1.955,0,0,1,1.524-.692,1.658,1.658,0,0,1,.363.041,2.02,2.02,0,0,1,1.374.83,2.768,2.768,0,0,1,.45,1.6,3.861,3.861,0,0,1-.052.633,3.359,3.359,0,0,1-.734,1.71A1.977,1.977,0,0,1,66.315,30.648Zm.137-5.12a1.55,1.55,0,0,0-1.223.556,2.982,2.982,0,0,0-.664,1.523,3.754,3.754,0,0,0-.047.593,2.321,2.321,0,0,0,.388,1.37,1.564,1.564,0,0,0,1.1.642,1.458,1.458,0,0,0,.307.035,1.571,1.571,0,0,0,1.236-.569,2.971,2.971,0,0,0,.639-1.51,3.476,3.476,0,0,0,.047-.568,2.377,2.377,0,0,0-.377-1.372,1.611,1.611,0,0,0-1.114-.665l-.014,0A1.276,1.276,0,0,0,66.452,25.528Z" style="fill:#d9d9d9"/><path d="M77.829,28.125q-.25-1-.625-3.959a2.054,2.054,0,0,1-.013-.225,1.135,1.135,0,0,1,.306-.811,1.275,1.275,0,0,1,.793-.387,1.241,1.241,0,0,1,.931.237,1.258,1.258,0,0,1,.468.887l.862,7.043a1.628,1.628,0,0,1,.013.2,1.189,1.189,0,0,1-.3.831,1.245,1.245,0,0,1-.8.393,1.147,1.147,0,0,1-.568-.081,1.423,1.423,0,0,1-.518-.318L74.269,27.7q.25,1,.625,3.909a2.156,2.156,0,0,1,.013.225,1.137,1.137,0,0,1-.306.811,1.276,1.276,0,0,1-.793.387,1.241,1.241,0,0,1-.931-.237,1.258,1.258,0,0,1-.468-.887l-.862-7.043a1.628,1.628,0,0,1-.013-.2,1.19,1.19,0,0,1,.3-.831,1.245,1.245,0,0,1,.8-.393,1.177,1.177,0,0,1,.575.081,1.3,1.3,0,0,1,.512.318Z" style="fill:#2a3580"/><path d="M73.628,33.244a1.4,1.4,0,0,1-.872-.289,1.457,1.457,0,0,1-.546-1.021l-.862-7.045a1.787,1.787,0,0,1-.014-.224,1.389,1.389,0,0,1,.352-.965,1.444,1.444,0,0,1,.923-.457,1.389,1.389,0,0,1,.668.092,1.5,1.5,0,0,1,.589.37l3.622,3.776c-.139-.751-.3-1.853-.483-3.289a2.263,2.263,0,0,1-.014-.25,1.334,1.334,0,0,1,.361-.949,1.473,1.473,0,0,1,.913-.449,1.441,1.441,0,0,1,1.078.277,1.457,1.457,0,0,1,.546,1.021l.862,7.045a1.787,1.787,0,0,1,.014.224,1.387,1.387,0,0,1-.352.965,1.444,1.444,0,0,1-.923.457,1.349,1.349,0,0,1-.663-.092,1.626,1.626,0,0,1-.59-.365L74.61,28.339c.139.745.3,1.832.483,3.245a2.388,2.388,0,0,1,.014.25,1.337,1.337,0,0,1-.361.949,1.477,1.477,0,0,1-.913.449A1.853,1.853,0,0,1,73.628,33.244Zm-.87-9.611a.665.665,0,0,0-.094.007,1.048,1.048,0,0,0-.68.33.989.989,0,0,0-.248.7,1.459,1.459,0,0,0,.011.175l.862,7.044a1.058,1.058,0,0,0,.391.752,1.043,1.043,0,0,0,.786.2,1.067,1.067,0,0,0,.67-.325.935.935,0,0,0,.252-.674,1.979,1.979,0,0,0-.011-.2c-.247-1.917-.456-3.224-.62-3.881l-.181-.723,4.628,4.768a1.23,1.23,0,0,0,.445.27.967.967,0,0,0,.468.071,1.048,1.048,0,0,0,.68-.33.987.987,0,0,0,.248-.7,1.459,1.459,0,0,0-.011-.175l-.862-7.044a1.058,1.058,0,0,0-.391-.752,1.032,1.032,0,0,0-.786-.2,1.065,1.065,0,0,0-.67.325.934.934,0,0,0-.252.674,1.848,1.848,0,0,0,.011.2c.247,1.952.456,3.276.62,3.932l.183.732L73.575,23.98a1.109,1.109,0,0,0-.436-.269A1.133,1.133,0,0,0,72.758,23.633Z" style="fill:#d9d9d9"/><path d="M84.647,32.8a5.834,5.834,0,0,1-2.073-.362Q81.3,31.959,81.3,31.084a1.222,1.222,0,0,1,.318-.843,1.061,1.061,0,0,1,.83-.356,3.409,3.409,0,0,1,1.043.244,3.407,3.407,0,0,0,1.055.244q.961,0,.962-.762,0-.375-1.087-.687a8.124,8.124,0,0,1-2-.762,2.273,2.273,0,0,1-1.087-2.036,2.9,2.9,0,0,1,1.037-2.31,3.516,3.516,0,0,1,2.373-.837,4.4,4.4,0,0,1,1.686.35q1.074.462,1.074,1.211a1.31,1.31,0,0,1-.312.862,1.034,1.034,0,0,1-.837.375,2.744,2.744,0,0,1-.824-.188A2.75,2.75,0,0,0,84.7,25.4q-.712,0-.712.5,0,.263,1.087.575a6.4,6.4,0,0,1,2,.849,2.64,2.64,0,0,1,1.087,2.26,2.967,2.967,0,0,1-1.062,2.36A3.651,3.651,0,0,1,84.647,32.8Z" style="fill:#2a3580"/><path d="M84.647,33a6.056,6.056,0,0,1-2.143-.375c-.931-.347-1.4-.864-1.4-1.536a1.422,1.422,0,0,1,.369-.976,1.259,1.259,0,0,1,.98-.423,3.549,3.549,0,0,1,1.11.255,3.247,3.247,0,0,0,.988.232c.671,0,.761-.284.761-.561,0-.009-.011-.226-.942-.494a8.2,8.2,0,0,1-2.052-.786,2.472,2.472,0,0,1-1.178-2.2,3.1,3.1,0,0,1,1.107-2.463,3.727,3.727,0,0,1,2.5-.885,4.617,4.617,0,0,1,1.762.365c.8.342,1.2.812,1.2,1.4a1.512,1.512,0,0,1-.358.99,1.231,1.231,0,0,1-.991.447,2.892,2.892,0,0,1-.891-.2,2.585,2.585,0,0,0-.77-.176c-.511,0-.511.2-.511.3h0a2.512,2.512,0,0,0,.941.382,6.508,6.508,0,0,1,2.062.881,2.841,2.841,0,0,1,1.168,2.421A3.171,3.171,0,0,1,87.226,32.1,3.861,3.861,0,0,1,84.647,33Zm-2.2-2.91a.863.863,0,0,0-.681.289,1.019,1.019,0,0,0-.267.709c0,.495.374.874,1.144,1.161a5.658,5.658,0,0,0,2,.35,3.47,3.47,0,0,0,2.318-.8,2.75,2.75,0,0,0,.991-2.208,2.429,2.429,0,0,0-1-2.1,6.234,6.234,0,0,0-1.934-.818c-.876-.252-1.233-.474-1.233-.768,0-.261.119-.7.913-.7a2.9,2.9,0,0,1,.9.2,2.591,2.591,0,0,0,.758.176.836.836,0,0,0,.683-.3,1.106,1.106,0,0,0,.265-.733c0-.415-.312-.751-.952-1.027a4.221,4.221,0,0,0-1.607-.333,3.336,3.336,0,0,0-2.242.788,2.683,2.683,0,0,0-.967,2.158,2.067,2.067,0,0,0,.995,1.867,7.984,7.984,0,0,0,1.944.737c.841.242,1.233.522,1.233.88s-.151.962-1.162.962a3.553,3.553,0,0,1-1.123-.255A3.249,3.249,0,0,0,82.449,30.086Z" style="fill:#d9d9d9"/><path d="M95.55,32.97a1.149,1.149,0,0,1-1.024-.687,11.478,11.478,0,0,1-.325-1.261l-3.009-.262a9.116,9.116,0,0,1-.537,1.174,1.13,1.13,0,0,1-1.112.512,1.269,1.269,0,0,1-.837-.418,1.092,1.092,0,0,1-.287-.88,1.3,1.3,0,0,1,.15-.5l3.085-6.556a2.084,2.084,0,0,1,.705-.824A1.534,1.534,0,0,1,93.389,23,1.634,1.634,0,0,1,94.9,24.378l1.848,6.981a1.928,1.928,0,0,1,.075.575,1.081,1.081,0,0,1-.425.786A1.2,1.2,0,0,1,95.55,32.97Zm-2.473-6.856q-.262.787-.936,2.373l1.511.125Z" style="fill:#2a3580"/><path d="M95.658,33.175c-.041,0-.082,0-.124-.005h0a1.342,1.342,0,0,1-1.189-.8,8.117,8.117,0,0,1-.305-1.158l-2.718-.237a6.5,6.5,0,0,1-.506,1.082,1.319,1.319,0,0,1-1.289.591,1.471,1.471,0,0,1-.967-.483,1.291,1.291,0,0,1-.339-1.035,1.5,1.5,0,0,1,.171-.57l3.083-6.552a2.292,2.292,0,0,1,.774-.9,1.735,1.735,0,0,1,1.161-.3,1.824,1.824,0,0,1,1.688,1.522l1.848,6.981a2.1,2.1,0,0,1,.081.637,1.284,1.284,0,0,1-.5.934A1.387,1.387,0,0,1,95.658,33.175Zm-.092-.4a1,1,0,0,0,.711-.209.883.883,0,0,0,.347-.647,1.749,1.749,0,0,0-.07-.5l-1.848-6.98A1.439,1.439,0,0,0,93.372,23.2a1.337,1.337,0,0,0-.9.228,1.9,1.9,0,0,0-.638.747L88.75,30.733a1.125,1.125,0,0,0-.132.426.9.9,0,0,0,.235.734,1.065,1.065,0,0,0,.708.354.94.94,0,0,0,.925-.425,8.126,8.126,0,0,0,.519-1.139l.056-.136,3.3.288.032.143a10.45,10.45,0,0,0,.311,1.222A.954.954,0,0,0,95.566,32.771Zm-1.657-3.936-2.061-.17.109-.255c.445-1.046.758-1.84.931-2.358l.226-.677Zm-1.475-.524.962.08-.36-1.566C92.878,27.233,92.677,27.73,92.433,28.31Z" style="fill:#d9d9d9"/><path d="M102.581,27.238a1.664,1.664,0,0,1,1.193.562,2.3,2.3,0,0,1,.656,1.374,4.836,4.836,0,0,1,.025.487,2.661,2.661,0,0,1-.774,1.986,3.473,3.473,0,0,1-2.073.924l-2.547.312a1.365,1.365,0,0,1-.974-.231A1.19,1.19,0,0,1,97.6,31.8l-.849-6.956a1.173,1.173,0,0,1,.25-.955,1.305,1.305,0,0,1,.887-.443l2.373-.3q.2-.012.387-.013a2.636,2.636,0,0,1,1.711.587,2.34,2.34,0,0,1,.849,1.6,2.868,2.868,0,0,1,.025.374A2.036,2.036,0,0,1,102.581,27.238Zm-2.573-1.773-.662.088.163,1.236.649-.075a.609.609,0,0,0,.612-.762Q100.707,25.377,100.008,25.465Zm.774,3.459-1,.125.175,1.436,1.149-.15q.862-.1.762-.874-.062-.562-.811-.562A1.705,1.705,0,0,0,100.782,28.924Z" style="fill:#2a3580"/><path d="M98.868,33.094a1.516,1.516,0,0,1-.9-.279,1.388,1.388,0,0,1-.569-.992l-.849-6.958a1.369,1.369,0,0,1,.3-1.11,1.506,1.506,0,0,1,1.018-.513l2.37-.3c.15-.01.283-.014.412-.014a2.842,2.842,0,0,1,1.837.631,2.542,2.542,0,0,1,.922,1.73,3.022,3.022,0,0,1,.027.4,2.262,2.262,0,0,1-.447,1.4,2.04,2.04,0,0,1,.932.57,2.508,2.508,0,0,1,.712,1.49,5.052,5.052,0,0,1,.026.511,2.866,2.866,0,0,1-.834,2.129,3.682,3.682,0,0,1-2.189.98l-2.548.312A1.932,1.932,0,0,1,98.868,33.094Zm1.777-9.764c-.121,0-.246,0-.375.012l-2.36.3a1.106,1.106,0,0,0-.759.374.973.973,0,0,0-.2.8l.849,6.958a.988.988,0,0,0,.4.716,1.156,1.156,0,0,0,.836.2l2.545-.312a3.294,3.294,0,0,0,1.957-.868,2.447,2.447,0,0,0,.714-1.843,4.656,4.656,0,0,0-.023-.466,2.086,2.086,0,0,0-.6-1.253,1.46,1.46,0,0,0-1.05-.5h-.505l.368-.347a1.828,1.828,0,0,0,.586-1.4,2.671,2.671,0,0,0-.023-.348,2.127,2.127,0,0,0-.777-1.469A2.418,2.418,0,0,0,100.645,23.33Zm-.862,7.38-.224-1.836,1.194-.149a1.892,1.892,0,0,1,.3-.027c.808,0,.98.464,1.011.741a.946.946,0,0,1-.163.728,1.1,1.1,0,0,1-.775.368Zm.223-1.487.127,1.037.948-.124a.729.729,0,0,0,.508-.217.562.562,0,0,0,.08-.433c-.013-.118-.043-.387-.613-.387a1.507,1.507,0,0,0-.242.022h-.007Zm-.671-2.213-.214-1.63.862-.114a.949.949,0,0,1,.726.146.732.732,0,0,1,.26.519.871.871,0,0,1-.145.666.915.915,0,0,1-.641.316Zm.235-1.285.111.842.453-.052a.539.539,0,0,0,.372-.164.5.5,0,0,0,.064-.373.35.35,0,0,0-.111-.251.59.59,0,0,0-.427-.062Z" style="fill:#d9d9d9"/><path d="M104.978,31.447A1.261,1.261,0,0,1,105,31.2l1.112-7.006a1.282,1.282,0,0,1,.406-.806,1.154,1.154,0,0,1,.793-.293,1.294,1.294,0,0,1,.918.343,1.165,1.165,0,0,1,.369.893,1.254,1.254,0,0,1-.025.249l-1.112,7.006a1.28,1.28,0,0,1-.406.805,1.154,1.154,0,0,1-.793.294,1.3,1.3,0,0,1-.918-.343A1.165,1.165,0,0,1,104.978,31.447Z" style="fill:#2a3580"/><path d="M106.264,32.884a1.5,1.5,0,0,1-1.055-.4,1.364,1.364,0,0,1-.432-1.04,1.469,1.469,0,0,1,.029-.289l1.11-7a1.483,1.483,0,0,1,.471-.924,1.353,1.353,0,0,1,.926-.344,1.492,1.492,0,0,1,1.055.4,1.362,1.362,0,0,1,.432,1.039,1.469,1.469,0,0,1-.029.289l-1.11,7a1.478,1.478,0,0,1-.471.924A1.355,1.355,0,0,1,106.264,32.884Zm1.049-9.591a.951.951,0,0,0-.66.243,1.078,1.078,0,0,0-.34.685L105.2,31.228a1.1,1.1,0,0,0-.023.219.965.965,0,0,0,.3.746,1.093,1.093,0,0,0,.781.289.951.951,0,0,0,.66-.243,1.077,1.077,0,0,0,.34-.684l1.112-7.009a1.093,1.093,0,0,0,.023-.218.966.966,0,0,0-.3-.746A1.093,1.093,0,0,0,107.313,23.293Z" style="fill:#d9d9d9"/><path d="M113.345,32.771l-3.11-.275a1.215,1.215,0,0,1-.9-.45,1.378,1.378,0,0,1-.262-1l.6-6.944a1.237,1.237,0,0,1,.437-.893,1.22,1.22,0,0,1,.924-.269,1.192,1.192,0,0,1,.862.419,1.262,1.262,0,0,1,.275.968l-.524,5.932,1.9.162a1.188,1.188,0,0,1,.824.381,1.134,1.134,0,0,1,.287.768,1.193,1.193,0,0,1-.337.862A1.151,1.151,0,0,1,113.345,32.771Z" style="fill:#2a3580"/><path d="M113.48,32.977c-.049,0-.1,0-.152-.007h0l-3.11-.275a1.411,1.411,0,0,1-1.039-.526,1.576,1.576,0,0,1-.3-1.139l.6-6.944a1.437,1.437,0,0,1,.51-1.031,1.414,1.414,0,0,1,1.07-.313,1.389,1.389,0,0,1,1,.488,1.46,1.46,0,0,1,.322,1.115l-.506,5.732,1.7.145a1.388,1.388,0,0,1,.958.45,1.333,1.333,0,0,1,.336.9,1.391,1.391,0,0,1-.394,1A1.315,1.315,0,0,1,113.48,32.977Zm-.117-.406a.964.964,0,0,0,.813-.277.991.991,0,0,0,.281-.722.932.932,0,0,0-.238-.636.989.989,0,0,0-.692-.313l-2.1-.179.542-6.132a1.062,1.062,0,0,0-.227-.82.991.991,0,0,0-.723-.349,1.01,1.01,0,0,0-1.147.979l-.6,6.944a1.176,1.176,0,0,0,.22.858,1.014,1.014,0,0,0,.758.373Z" style="fill:#d9d9d9"/><path d="M119.364,32.87l-3.159-.612a1.3,1.3,0,0,1-.755-.419,1.153,1.153,0,0,1-.294-.793.994.994,0,0,1,.038-.262l1.311-6.744q.225-1.149,1.224-1.149a1.794,1.794,0,0,1,.3.025l3.035.587a1.2,1.2,0,0,1,.737.418,1.2,1.2,0,0,1-.087,1.567,1.1,1.1,0,0,1-.824.35,1.316,1.316,0,0,1-.262-.025l-1.861-.362-.225,1.174,1.7.337a1.261,1.261,0,0,1,.75.418,1.118,1.118,0,0,1,.262.73,1.174,1.174,0,0,1-1.187,1.187,1.454,1.454,0,0,1-.262-.025l-1.711-.337-.237,1.249,1.961.387a1.121,1.121,0,0,1,.974,1.137,1.173,1.173,0,0,1-.331.837,1.1,1.1,0,0,1-.83.35A1.491,1.491,0,0,1,119.364,32.87Z" style="fill:#2a3580"/><path d="M119.627,33.1a1.673,1.673,0,0,1-.3-.028h0l-3.159-.612a1.5,1.5,0,0,1-.868-.483,1.352,1.352,0,0,1-.344-.925,1.2,1.2,0,0,1,.045-.315L116.307,24a1.387,1.387,0,0,1,1.421-1.311,2.005,2.005,0,0,1,.333.028l3.04.587a1.408,1.408,0,0,1,.857.492,1.4,1.4,0,0,1-.1,1.83,1.3,1.3,0,0,1-.969.411,1.531,1.531,0,0,1-.3-.029l-1.662-.323-.149.781,1.5.3a1.461,1.461,0,0,1,.865.487,1.319,1.319,0,0,1,.308.858,1.345,1.345,0,0,1-.4.985,1.373,1.373,0,0,1-1.283.374l-1.515-.3-.163.855,1.765.349a1.341,1.341,0,0,1,.844.479,1.355,1.355,0,0,1,.293.855,1.373,1.373,0,0,1-.386.974A1.293,1.293,0,0,1,119.627,33.1Zm-.226-.423a.939.939,0,0,0,.911-.266.972.972,0,0,0,.277-.7.921.921,0,0,0-.81-.939l-2.158-.426.312-1.643,1.909.376a.982.982,0,0,0,.925-.264.945.945,0,0,0,.285-.7.915.915,0,0,0-.217-.6,1.059,1.059,0,0,0-.635-.349l-1.892-.376.3-1.567,2.058.4a1.1,1.1,0,0,0,.224.022.9.9,0,0,0,.68-.288.961.961,0,0,0,.281-.7.948.948,0,0,0-.207-.607,1,1,0,0,0-.619-.346l-3.033-.586a1.589,1.589,0,0,0-.261-.022c-.569,0-.9.314-1.028.987l-1.311,6.744a.849.849,0,0,0-.034.224.95.95,0,0,0,.243.66,1.1,1.1,0,0,0,.643.355Z" style="fill:#d9d9d9"/><path d="M21.368,26.964a1.586,1.586,0,0,1-1.848,1.267h0a1.582,1.582,0,0,1-1.263-1.844l.125-.692a1.583,1.583,0,0,1,1.847-1.266h0A1.584,1.584,0,0,1,21.5,26.275Z" style="fill:#fff"/><path d="M19.809,28.459a1.805,1.805,0,0,1-.325-.03,1.784,1.784,0,0,1-1.424-2.078l.125-.69a1.784,1.784,0,0,1,2.081-1.427,1.787,1.787,0,0,1,1.427,2.079L21.565,27A1.788,1.788,0,0,1,19.809,28.459Zm.128-3.855a1.384,1.384,0,0,0-1.357,1.129l-.125.691a1.382,1.382,0,1,0,2.717.5l.128-.689a1.386,1.386,0,0,0-1.106-1.612A1.414,1.414,0,0,0,19.936,24.6Z" style="fill:#fff"/><path d="M19.946,26.843l-8.512-1.581.156-1.746c2.192-.662,3.659-7.322,3.659-7.322.84-4.515,5.821-4.738,5.821-4.738.468-2.516,2.009-2.344,2.009-2.344M19.946,26.843l8.513,1.583.157-.85c-1.806-1.408-.781-9.042-.781-9.042.839-4.515-3.731-6.513-3.731-6.513.468-2.517-1.026-2.91-1.026-2.91" style="fill:#fff"/><path d="M28.619,28.66l-17.4-3.235.184-2.062.13-.039c2.055-.621,3.507-7.108,3.521-7.173.772-4.15,4.977-4.793,5.849-4.882.532-2.512,2.182-2.358,2.2-2.357l-.022.194.05-.189c.067.018,1.609.454,1.2,2.989.783.4,4.477,2.51,3.7,6.664-.279,2.082-.7,7.75.707,8.847l.1.075Zm-8.637-2.014L28.3,28.193l.1-.54c-1.747-1.637-.8-8.835-.761-9.146a5.174,5.174,0,0,0-1.486-4.773A7.629,7.629,0,0,0,24.024,12.2l-.146-.064.029-.156c.405-2.178-.714-2.624-.867-2.675-.159-.009-1.368,0-1.774,2.183l-.029.156-.159.007a7.625,7.625,0,0,0-2.533.663,5.171,5.171,0,0,0-3.1,3.911c-.061.278-1.464,6.542-3.668,7.432L11.65,25.1l8.332,1.548-.038.207Z" style="fill:#fff"/><g style="clip-path:url(#clip-path-2)"><polygon points="19.01 26.534 21.171 26.752 19.01 26.752 19.01 26.534" style="fill:#008bc6"/><polygon points="19.01 26.493 21.578 26.752 21.171 26.752 19.01 26.534 19.01 26.493" style="fill:#008bc6"/><polygon points="19.01 26.452 21.985 26.752 21.578 26.752 19.01 26.493 19.01 26.452" style="fill:#0189c4"/><polygon points="19.01 26.411 22.097 26.722 22.097 26.752 21.985 26.752 19.01 26.452 19.01 26.411" style="fill:#0287c2"/><polygon points="19.01 26.37 22.097 26.681 22.097 26.722 19.01 26.411 19.01 26.37" style="fill:#0385c1"/><polygon points="19.01 26.329 22.097 26.64 22.097 26.681 19.01 26.37 19.01 26.329" style="fill:#0482bf"/><polygon points="19.01 26.288 22.097 26.599 22.097 26.64 19.01 26.329 19.01 26.288" style="fill:#0580bd"/><polygon points="19.01 26.247 22.097 26.558 22.097 26.599 19.01 26.288 19.01 26.247" style="fill:#067ebc"/><polygon points="19.01 26.205 22.097 26.517 22.097 26.558 19.01 26.247 19.01 26.205" style="fill:#077cba"/><polygon points="19.01 26.164 22.097 26.476 22.097 26.517 19.01 26.205 19.01 26.164" style="fill:#087ab8"/><polygon points="19.01 26.123 22.097 26.435 22.097 26.476 19.01 26.164 19.01 26.123" style="fill:#0978b7"/><polygon points="19.01 26.082 22.097 26.394 22.097 26.435 19.01 26.123 19.01 26.082" style="fill:#0a76b5"/><polygon points="19.01 26.041 22.097 26.353 22.097 26.394 19.01 26.082 19.01 26.041" style="fill:#0b75b4"/><polygon points="19.01 26 22.097 26.312 22.097 26.353 19.01 26.041 19.01 26" style="fill:#0c73b2"/><polygon points="19.01 25.959 22.097 26.271 22.097 26.312 19.01 26 19.01 25.959" style="fill:#0d71b1"/><polygon points="19.01 25.918 22.097 26.229 22.097 26.271 19.01 25.959 19.01 25.918" style="fill:#0e6faf"/><polygon points="19.01 25.877 22.097 26.188 22.097 26.229 19.01 25.918 19.01 25.877" style="fill:#0e6dae"/><polygon points="19.01 25.836 22.097 26.147 22.097 26.188 19.01 25.877 19.01 25.836" style="fill:#0f6cac"/><polygon points="19.01 25.795 22.097 26.106 22.097 26.147 19.01 25.836 19.01 25.795" style="fill:#106aab"/><polygon points="19.01 25.754 22.097 26.065 22.097 26.106 19.01 25.795 19.01 25.754" style="fill:#1168aa"/><polygon points="19.01 25.712 22.097 26.024 22.097 26.065 19.01 25.754 19.01 25.712" style="fill:#1267a8"/><polygon points="19.01 25.671 22.097 25.983 22.097 26.024 19.01 25.712 19.01 25.671" style="fill:#1365a7"/><polygon points="19.01 25.63 22.097 25.942 22.097 25.983 19.01 25.671 19.01 25.63" style="fill:#1363a6"/><polygon points="19.01 25.589 22.097 25.901 22.097 25.942 19.01 25.63 19.01 25.589" style="fill:#1462a4"/><polygon points="19.01 25.548 22.097 25.86 22.097 25.901 19.01 25.589 19.01 25.548" style="fill:#1560a3"/><polygon points="19.01 25.507 22.097 25.819 22.097 25.86 19.01 25.548 19.01 25.507" style="fill:#165fa2"/><polygon points="19.01 25.466 22.097 25.778 22.097 25.819 19.01 25.507 19.01 25.466" style="fill:#165da1"/><polygon points="19.01 25.425 22.097 25.736 22.097 25.778 19.01 25.466 19.01 25.425" style="fill:#175ca0"/><polygon points="19.01 25.384 22.097 25.695 22.097 25.736 19.01 25.425 19.01 25.384" style="fill:#185a9e"/><polygon points="19.01 25.343 22.097 25.654 22.097 25.695 19.01 25.384 19.01 25.343" style="fill:#18599d"/><polygon points="19.01 25.302 22.097 25.613 22.097 25.654 19.01 25.343 19.01 25.302" style="fill:#19589c"/><polygon points="19.01 25.261 22.097 25.572 22.097 25.613 19.01 25.302 19.01 25.261" style="fill:#1a569b"/><polygon points="19.01 25.22 22.097 25.531 22.097 25.572 19.01 25.261 19.01 25.22" style="fill:#1a559a"/><polygon points="19.01 25.178 22.097 25.49 22.097 25.531 19.01 25.22 19.01 25.178" style="fill:#1b5499"/><polygon points="19.01 25.137 22.097 25.449 22.097 25.49 19.01 25.178 19.01 25.137" style="fill:#1c5398"/><polygon points="19.01 25.096 22.097 25.408 22.097 25.449 19.01 25.137 19.01 25.096" style="fill:#1c5197"/><polygon points="19.01 25.055 22.097 25.367 22.097 25.408 19.01 25.096 19.01 25.055" style="fill:#1d5096"/><polygon points="19.01 25.014 22.097 25.326 22.097 25.367 19.01 25.055 19.01 25.014" style="fill:#1d4f95"/><polygon points="19.01 24.973 22.097 25.285 22.097 25.326 19.01 25.014 19.01 24.973" style="fill:#1e4e94"/><polygon points="19.01 24.932 22.097 25.243 22.097 25.285 19.01 24.973 19.01 24.932" style="fill:#1e4d93"/><polygon points="19.01 24.891 22.097 25.202 22.097 25.243 19.01 24.932 19.01 24.891" style="fill:#1f4c92"/><polygon points="19.01 24.85 22.097 25.161 22.097 25.202 19.01 24.891 19.01 24.85" style="fill:#1f4b92"/><polygon points="19.01 24.809 22.097 25.12 22.097 25.161 19.01 24.85 19.01 24.809" style="fill:#204a91"/><polygon points="19.01 24.768 22.097 25.079 22.097 25.12 19.01 24.809 19.01 24.768" style="fill:#204990"/><polygon points="19.01 24.727 22.097 25.038 22.097 25.079 19.01 24.768 19.01 24.727" style="fill:#21488f"/><polygon points="19.01 24.685 22.097 24.997 22.097 25.038 19.01 24.727 19.01 24.685" style="fill:#21478e"/><polygon points="19.01 24.644 22.097 24.956 22.097 24.997 19.01 24.685 19.01 24.644" style="fill:#22468e"/><polygon points="19.01 24.603 22.097 24.915 22.097 24.956 19.01 24.644 19.01 24.603" style="fill:#22458d"/><polygon points="19.01 24.562 22.097 24.874 22.097 24.915 19.01 24.603 19.01 24.562" style="fill:#23448c"/><polygon points="19.01 24.521 22.097 24.833 22.097 24.874 19.01 24.562 19.01 24.521" style="fill:#23438b"/><polygon points="19.01 24.48 22.097 24.792 22.097 24.833 19.01 24.521 19.01 24.48" style="fill:#24428b"/><polygon points="19.01 24.439 22.097 24.75 22.097 24.792 19.01 24.48 19.01 24.439" style="fill:#24418a"/><polygon points="19.01 24.398 22.097 24.709 22.097 24.75 19.01 24.439 19.01 24.398" style="fill:#24418a"/><polygon points="19.01 24.357 22.097 24.668 22.097 24.709 19.01 24.398 19.01 24.357" style="fill:#254089"/><polygon points="19.01 24.316 22.097 24.627 22.097 24.668 19.01 24.357 19.01 24.316" style="fill:#253f88"/><polygon points="19.01 24.275 22.097 24.586 22.097 24.627 19.01 24.316 19.01 24.275" style="fill:#253f88"/><polygon points="19.01 24.234 22.097 24.545 22.097 24.586 19.01 24.275 19.01 24.234" style="fill:#263e87"/><polygon points="19.01 24.192 22.097 24.504 22.097 24.545 19.01 24.234 19.01 24.192" style="fill:#263d87"/><polygon points="19.01 24.151 22.097 24.463 22.097 24.504 19.01 24.192 19.01 24.151" style="fill:#263d86"/><polygon points="19.01 24.11 22.097 24.422 22.097 24.463 19.01 24.151 19.01 24.11" style="fill:#273c86"/><polygon points="19.01 24.069 22.097 24.381 22.097 24.422 19.01 24.11 19.01 24.069" style="fill:#273c85"/><polygon points="19.01 24.028 22.097 24.34 22.097 24.381 19.01 24.069 19.01 24.028" style="fill:#273b85"/><polygon points="19.01 23.987 22.097 24.299 22.097 24.34 19.01 24.028 19.01 23.987" style="fill:#273a84"/><polygon points="19.01 23.946 22.097 24.257 22.097 24.299 19.01 23.987 19.01 23.946" style="fill:#283a84"/><polygon points="19.01 23.905 22.097 24.216 22.097 24.257 19.01 23.946 19.01 23.905" style="fill:#283a84"/><polygon points="19.01 23.864 22.097 24.175 22.097 24.216 19.01 23.905 19.01 23.864" style="fill:#283983"/><polygon points="19.01 23.823 22.097 24.134 22.097 24.175 19.01 23.864 19.01 23.823" style="fill:#283983"/><polygon points="19.01 23.782 22.097 24.093 22.097 24.134 19.01 23.823 19.01 23.782" style="fill:#283883"/><polygon points="19.01 23.741 22.097 24.052 22.097 24.093 19.01 23.782 19.01 23.741" style="fill:#293882"/><polygon points="19.01 23.699 22.097 24.011 22.097 24.052 19.01 23.741 19.01 23.699" style="fill:#293882"/><polygon points="19.01 23.658 22.097 23.97 22.097 24.011 19.01 23.699 19.01 23.658" style="fill:#293782"/><polygon points="19.01 23.617 22.097 23.929 22.097 23.97 19.01 23.658 19.01 23.617" style="fill:#293782"/><polygon points="19.01 23.576 22.097 23.888 22.097 23.929 19.01 23.617 19.01 23.576" style="fill:#293781"/><polygon points="19.01 23.535 22.097 23.847 22.097 23.888 19.01 23.576 19.01 23.535" style="fill:#293681"/><polygon points="19.01 23.494 22.097 23.806 22.097 23.847 19.01 23.535 19.01 23.494" style="fill:#293681"/><polygon points="19.01 23.453 22.097 23.764 22.097 23.806 19.01 23.494 19.01 23.453" style="fill:#2a3681"/><polygon points="19.01 23.412 22.097 23.723 22.097 23.764 19.01 23.453 19.01 23.412" style="fill:#2a3681"/><polygon points="19.01 23.371 22.097 23.682 22.097 23.723 19.01 23.412 19.01 23.371" style="fill:#2a3681"/><polygon points="19.01 23.33 22.097 23.641 22.097 23.682 19.01 23.371 19.01 23.33" style="fill:#2a3680"/><polygon points="19.01 23.289 22.097 23.6 22.097 23.641 19.01 23.33 19.01 23.289" style="fill:#2a3580"/><polygon points="19.01 23.248 22.097 23.559 22.097 23.6 19.01 23.289 19.01 23.248" style="fill:#2a3580"/><polygon points="19.01 23.206 22.097 23.518 22.097 23.559 19.01 23.248 19.01 23.206" style="fill:#2a3580"/><polygon points="19.01 23.165 22.097 23.477 22.097 23.518 19.01 23.206 19.01 23.165" style="fill:#2a3580"/><polygon points="19.01 23.124 22.097 23.436 22.097 23.477 19.01 23.165 19.01 23.124" style="fill:#2a3580"/><polygon points="19.135 23.096 22.097 23.395 22.097 23.436 19.01 23.124 19.01 23.096 19.135 23.096" style="fill:#2a3580"/><polygon points="19.542 23.096 22.097 23.354 22.097 23.395 19.135 23.096 19.542 23.096" style="fill:#2a3580"/><polygon points="19.949 23.096 22.097 23.313 22.097 23.354 19.542 23.096 19.949 23.096" style="fill:#2a3580"/><polygon points="22.097 23.313 19.949 23.096 22.097 23.096 22.097 23.313" style="fill:#2a3580"/></g><g style="clip-path:url(#clip-path-3)"><rect x="20.587" y="9.083" width="7.912" height="16.281" style="fill:#286438"/><path d="M29.159,17.615A7.834,7.834,0,0,1,17.613,23.7h2.573V9.346H19.062a7.834,7.834,0,0,1,10.1,8.27Z" style="fill:#286438"/><path d="M29.083,17.607A7.757,7.757,0,0,1,17.65,23.634h2.537V9.418h-1.1a7.757,7.757,0,0,1,10,8.189Z" style="fill:#296538"/><path d="M29.007,17.6a7.681,7.681,0,0,1-11.321,5.967h2.5V9.491h-1.08a7.681,7.681,0,0,1,9.9,8.109Z" style="fill:#2a6638"/><path d="M28.932,17.592A7.6,7.6,0,0,1,17.723,23.5h2.464V9.564H19.129a7.6,7.6,0,0,1,9.8,8.028Z" style="fill:#2a6739"/><path d="M28.856,17.585a7.529,7.529,0,0,1-11.1,5.849h2.427V9.637H19.152a7.529,7.529,0,0,1,9.7,7.948Z" style="fill:#2b6839"/><path d="M28.78,17.577A7.452,7.452,0,0,1,17.8,23.366h2.391V9.71H19.174a7.452,7.452,0,0,1,9.606,7.867Z" style="fill:#2c6939"/><path d="M28.7,17.569A7.376,7.376,0,0,1,17.832,23.3h2.354V9.783H19.2A7.376,7.376,0,0,1,28.7,17.569Z" style="fill:#2d6a39"/><path d="M28.628,17.562a7.3,7.3,0,0,1-10.759,5.671h2.317V9.855h-.968a7.3,7.3,0,0,1,9.409,7.706Z" style="fill:#2d6b3a"/><path d="M28.553,17.554a7.224,7.224,0,0,1-10.647,5.612h2.281V9.928h-.945a7.224,7.224,0,0,1,9.311,7.626Z" style="fill:#2e6c3a"/><path d="M28.477,17.546A7.147,7.147,0,0,1,17.942,23.1h2.244V10h-.923a7.147,7.147,0,0,1,9.213,7.545Z" style="fill:#2f6d3a"/><path d="M28.4,17.539a7.071,7.071,0,0,1-10.422,5.493h2.208V10.074h-.9A7.071,7.071,0,0,1,28.4,17.539Z" style="fill:#306e3a"/><path d="M28.325,17.531a6.995,6.995,0,0,1-10.31,5.434h2.171V10.147h-.878a6.995,6.995,0,0,1,9.016,7.384Z" style="fill:#316f3b"/><path d="M28.249,17.523a6.919,6.919,0,0,1-10.2,5.375h2.135V10.22h-.855a6.919,6.919,0,0,1,8.918,7.3Z" style="fill:#31703b"/><path d="M28.173,17.516a6.842,6.842,0,0,1-10.085,5.315h2.1V10.292h-.833a6.842,6.842,0,0,1,8.82,7.223Z" style="fill:#32713b"/><path d="M28.1,17.508a6.766,6.766,0,0,1-9.973,5.256h2.062v-12.4h-.81A6.766,6.766,0,0,1,28.1,17.508Z" style="fill:#33723b"/><path d="M28.022,17.5a6.69,6.69,0,0,1-9.86,5.2h2.025V10.438H19.4A6.69,6.69,0,0,1,28.022,17.5Z" style="fill:#34733b"/><path d="M27.946,17.493A6.614,6.614,0,0,1,18.2,22.63h1.988V10.511h-.765a6.614,6.614,0,0,1,8.525,6.982Z" style="fill:#35743c"/><path d="M27.87,17.485a6.537,6.537,0,0,1-9.636,5.078h1.952V10.584h-.743a6.537,6.537,0,0,1,8.427,6.9Z" style="fill:#35753c"/><path d="M27.794,17.477A6.461,6.461,0,0,1,18.271,22.5h1.915V10.657h-.72a6.461,6.461,0,0,1,8.328,6.821Z" style="fill:#36763c"/><path d="M27.718,17.47a6.385,6.385,0,0,1-9.411,4.96h1.879V10.73h-.7a6.385,6.385,0,0,1,8.23,6.74Z" style="fill:#37773c"/><path d="M27.643,17.462a6.309,6.309,0,0,1-9.3,4.9h1.842V11.946H17.381a6.305,6.305,0,0,1,10.261,5.517Z" style="fill:#38783d"/><path d="M27.567,17.454A6.232,6.232,0,0,1,18.381,22.3h1.806V12H17.429a6.229,6.229,0,0,1,10.137,5.45Z" style="fill:#38793d"/><path d="M27.491,17.447a6.156,6.156,0,0,1-9.074,4.782h1.769V12.064H17.478a6.153,6.153,0,0,1,10.013,5.383Z" style="fill:#397a3d"/><path d="M27.415,17.439a6.08,6.08,0,0,1-8.961,4.723h1.732V12.123H17.526a6.076,6.076,0,0,1,9.889,5.317Z" style="fill:#3a7b3d"/><path d="M27.339,17.432A6,6,0,0,1,18.491,22.1h1.7V12.182H17.574a6,6,0,0,1,9.765,5.25Z" style="fill:#3b7c3e"/><path d="M27.264,17.424a5.927,5.927,0,0,1-8.736,4.6h1.659V12.241H17.622a5.924,5.924,0,0,1,9.641,5.183Z" style="fill:#3c7d3e"/><path d="M27.188,17.416a5.851,5.851,0,0,1-8.624,4.545h1.623V12.3H17.67a5.848,5.848,0,0,1,9.517,5.116Z" style="fill:#3c7e3e"/><path d="M27.112,17.409A5.775,5.775,0,0,1,18.6,21.895h1.586V12.359H17.719a5.772,5.772,0,0,1,9.393,5.05Z" style="fill:#3d7f3e"/><path d="M27.036,17.4a5.7,5.7,0,0,1-8.4,4.427h1.55v-9.41h-2.42A5.7,5.7,0,0,1,27.036,17.4Z" style="fill:#3e803e"/><path d="M26.96,17.393a5.622,5.622,0,0,1-8.287,4.368h1.513V12.477H17.815a5.619,5.619,0,0,1,9.145,4.916Z" style="fill:#3f813f"/><path d="M26.884,17.386a5.546,5.546,0,0,1-8.175,4.308h1.476V12.536H17.863a5.543,5.543,0,0,1,9.021,4.85Z" style="fill:#40823f"/><path d="M26.809,17.378a5.47,5.47,0,0,1-8.062,4.249h1.44V12.595H17.911a5.467,5.467,0,0,1,8.9,4.783Z" style="fill:#40833f"/><path d="M26.733,17.37a5.394,5.394,0,0,1-7.95,4.19h1.4V12.654H17.96a5.391,5.391,0,0,1,8.773,4.716Z" style="fill:#41843f"/><path d="M26.657,17.363a5.317,5.317,0,0,1-7.837,4.131h1.367v-8.78H18.008a5.314,5.314,0,0,1,8.649,4.65Z" style="fill:#428640"/><path d="M26.581,17.355a5.241,5.241,0,0,1-7.725,4.071h1.33V12.772h-2.13a5.238,5.238,0,0,1,8.525,4.583Z" style="fill:#438740"/><path d="M26.505,17.347a5.165,5.165,0,0,1-7.613,4.012h1.294V12.831H18.1a5.162,5.162,0,0,1,8.4,4.516Z" style="fill:#438840"/><path d="M26.43,17.34a5.086,5.086,0,0,1-9,2.706h2.756V12.89H18.153a5.086,5.086,0,0,1,8.277,4.45Z" style="fill:#448940"/><path d="M26.354,17.332A5.01,5.01,0,0,1,17.489,20h2.7V12.949H18.2a5.01,5.01,0,0,1,8.153,4.383Z" style="fill:#458a41"/><path d="M26.278,17.324a4.933,4.933,0,0,1-8.729,2.625h2.638V13.008H18.249a4.933,4.933,0,0,1,8.029,4.316Z" style="fill:#468b41"/><path d="M26.2,17.317A4.857,4.857,0,0,1,17.607,19.9h2.579V13.067H18.3a4.857,4.857,0,0,1,7.9,4.25Z" style="fill:#478c41"/><path d="M26.126,17.309a4.781,4.781,0,0,1-8.46,2.544h2.52V13.126H18.345a4.781,4.781,0,0,1,7.781,4.183Z" style="fill:#478d41"/><path d="M26.05,17.3a4.7,4.7,0,0,1-8.325,2.5h2.461v-6.62H18.394A4.7,4.7,0,0,1,26.05,17.3Z" style="fill:#488e41"/><path d="M25.975,17.294a4.629,4.629,0,0,1-8.19,2.463h2.4V13.244H18.442a4.629,4.629,0,0,1,7.533,4.05Z" style="fill:#498f42"/><path d="M25.9,17.286a4.552,4.552,0,0,1-8.055,2.422h2.343V13.3h-1.7A4.552,4.552,0,0,1,25.9,17.286Z" style="fill:#4a9042"/><path d="M25.823,17.278A4.476,4.476,0,0,1,17.9,19.66h2.284v-6.3H18.538a4.476,4.476,0,0,1,7.285,3.916Z" style="fill:#4b9142"/><path d="M25.747,17.271a4.4,4.4,0,0,1-7.786,2.341h2.225V13.421h-1.6a4.4,4.4,0,0,1,7.161,3.85Z" style="fill:#4b9242"/><path d="M25.671,17.263a4.324,4.324,0,0,1-7.651,2.3h2.166V13.48H18.635a4.324,4.324,0,0,1,7.037,3.783Z" style="fill:#4c9343"/><path d="M25.6,17.256a4.247,4.247,0,0,1-7.516,2.26h2.107V13.539h-1.5A4.247,4.247,0,0,1,25.6,17.256Z" style="fill:#4d9443"/><path d="M25.52,17.248a4.171,4.171,0,0,1-7.381,2.22h2.048V13.6H18.731a4.171,4.171,0,0,1,6.789,3.65Z" style="fill:#4e9543"/><path d="M25.444,17.24A4.1,4.1,0,0,1,18.2,19.419h1.989V13.657H18.779a4.1,4.1,0,0,1,6.665,3.583Z" style="fill:#4e9643"/><path d="M25.368,17.233a4.019,4.019,0,0,1-7.111,2.139h1.93V13.716H18.827a4.019,4.019,0,0,1,6.541,3.516Z" style="fill:#4f9744"/><path d="M25.292,17.225a3.943,3.943,0,0,1-6.976,2.1h1.871v-2.89h-2.74a3.943,3.943,0,0,1,7.845.792Z" style="fill:#509844"/><path d="M25.216,17.217a3.866,3.866,0,0,1-6.842,2.057h1.812V16.441H17.523a3.866,3.866,0,1,1,7.694.776Z" style="fill:#519944"/><circle cx="21.369" cy="16.829" r="3.79" transform="matrix(0.1, -0.995, 0.995, 0.1, 2.48, 36.401)" style="fill:#529a44"/><circle cx="21.369" cy="16.829" r="3.714" transform="translate(2.48 36.401) rotate(-84.238)" style="fill:#529b44"/><circle cx="21.369" cy="16.829" r="3.638" transform="translate(2.48 36.401) rotate(-84.238)" style="fill:#539c45"/><circle cx="21.369" cy="16.829" r="3.562" transform="translate(2.48 36.401) rotate(-84.238)" style="fill:#549d45"/><circle cx="21.369" cy="16.829" r="3.485" transform="translate(2.48 36.401) rotate(-84.238)" style="fill:#559e45"/><circle cx="21.369" cy="16.829" r="3.409" transform="translate(2.48 36.401) rotate(-84.238)" style="fill:#569f45"/><circle cx="21.369" cy="16.829" r="3.333" transform="matrix(0.1, -0.995, 0.995, 0.1, 2.48, 36.401)" style="fill:#56a046"/><circle cx="21.369" cy="16.829" r="3.257" transform="translate(2.48 36.401) rotate(-84.238)" style="fill:#57a146"/><circle cx="21.369" cy="16.829" r="3.181" transform="translate(2.48 36.401) rotate(-84.238)" style="fill:#58a246"/><circle cx="21.369" cy="16.829" r="3.104" transform="translate(2.48 36.401) rotate(-84.238)" style="fill:#59a346"/><circle cx="21.369" cy="16.829" r="3.028" transform="translate(2.48 36.401) rotate(-84.238)" style="fill:#59a447"/><circle cx="21.369" cy="16.829" r="2.952" transform="translate(2.48 36.401) rotate(-84.238)" style="fill:#5aa547"/><circle cx="21.369" cy="16.829" r="2.876" transform="matrix(0.1, -0.995, 0.995, 0.1, 2.48, 36.401)" style="fill:#5ba647"/><rect x="12.756" y="9.042" width="9.395" height="15.534" style="fill:#286438"/><path d="M22.552,17.615v6.7h1.125A7.829,7.829,0,1,1,25.126,9.958H22.552Z" style="fill:#286438"/><path d="M22.552,17.607V24.24h1.1a7.753,7.753,0,1,1,1.435-14.215H22.552Z" style="fill:#296538"/><path d="M22.552,17.6v6.567h1.08a7.677,7.677,0,1,1,1.42-14.076h-2.5Z" style="fill:#2a6638"/><path d="M22.552,17.592v6.5H23.61a7.6,7.6,0,1,1,1.406-13.936H22.552Z" style="fill:#2a6739"/><path d="M22.552,17.585v6.437h1.035a7.524,7.524,0,1,1,1.392-13.8H22.552Z" style="fill:#2b6839"/><path d="M22.552,17.577v6.371h1.013a7.448,7.448,0,1,1,1.378-13.656H22.552Z" style="fill:#2c6939"/><path d="M22.552,17.569v6.306h.99a7.372,7.372,0,1,1,1.364-13.517H22.552Z" style="fill:#2d6a39"/><path d="M22.552,17.562V23.8h.968a7.3,7.3,0,1,1,1.35-13.377H22.552Z" style="fill:#2d6b3a"/><path d="M22.552,17.554V23.73H23.5a7.22,7.22,0,1,1,1.336-13.237H22.552Z" style="fill:#2e6c3a"/><path d="M22.552,17.546v6.111h.923a7.143,7.143,0,1,1,1.322-13.1H22.552Z" style="fill:#2f6d3a"/><path d="M22.552,17.539v6.046h.9A7.067,7.067,0,1,1,24.76,10.626H22.552Z" style="fill:#306e3a"/><path d="M22.552,17.531v5.98h.878a6.991,6.991,0,1,1,1.294-12.818H22.552Z" style="fill:#316f3b"/><path d="M22.552,17.523v5.915h.855A6.915,6.915,0,1,1,24.687,10.76H22.552Z" style="fill:#31703b"/><path d="M22.552,17.516v5.85h.833a6.839,6.839,0,1,1,1.265-12.539h-2.1Z" style="fill:#32713b"/><path d="M22.552,17.508v5.785h.81a6.762,6.762,0,1,1,1.251-12.4H22.552Z" style="fill:#33723b"/><path d="M22.552,17.5v5.72h.788a6.686,6.686,0,1,1,1.237-12.259H22.552Z" style="fill:#34733b"/><path d="M22.552,17.493v5.654h.765a6.61,6.61,0,1,1,1.223-12.119H22.552Z" style="fill:#35743c"/><path d="M22.552,17.485v5.589H23.3A6.534,6.534,0,1,1,24.5,11.095H22.552Z" style="fill:#35753c"/><path d="M22.552,17.477V23h.72a6.458,6.458,0,1,1,1.195-11.84H22.552Z" style="fill:#36763c"/><path d="M22.552,17.47v5.459h.7a6.381,6.381,0,1,1,1.181-11.7H22.552Z" style="fill:#37773c"/><path d="M22.552,17.462v4.25h2.805A6.3,6.3,0,1,1,24.395,11.3H22.552Z" style="fill:#38783d"/><path d="M22.552,17.454v4.2h2.757a6.227,6.227,0,1,1-.951-10.291H22.552Z" style="fill:#38793d"/><path d="M22.552,17.447v4.148h2.709a6.151,6.151,0,1,1-.94-10.165H22.552Z" style="fill:#397a3d"/><path d="M22.552,17.439v4.1h2.661a6.075,6.075,0,1,1-.928-10.04H22.552Z" style="fill:#3a7b3d"/><path d="M22.552,17.432v4.045h2.612a6,6,0,1,1-.917-9.914h-1.7Z" style="fill:#3b7c3e"/><path d="M22.552,17.424v3.994h2.564a5.922,5.922,0,1,1-.9-9.788H22.552Z" style="fill:#3c7d3e"/><path d="M22.552,17.416v3.942h2.516a5.846,5.846,0,1,1-.893-9.662H22.552Z" style="fill:#3c7e3e"/><path d="M22.552,17.409V21.3H25.02a5.77,5.77,0,1,1-.882-9.536H22.552Z" style="fill:#3d7f3e"/><path d="M22.552,17.4V21.24h2.42a5.694,5.694,0,1,1-.87-9.41h-1.55Z" style="fill:#3e803e"/><path d="M22.552,17.393v3.788h2.371a5.618,5.618,0,1,1-.858-9.284H22.552Z" style="fill:#3f813f"/><path d="M22.552,17.386v3.737h2.323a5.541,5.541,0,1,1-.847-9.158H22.552Z" style="fill:#40823f"/><path d="M22.552,17.378v3.685h2.275a5.465,5.465,0,1,1-.835-9.032h-1.44Z" style="fill:#40833f"/><path d="M22.552,17.37V21h2.227a5.389,5.389,0,1,1-.823-8.906h-1.4Z" style="fill:#41843f"/><path d="M22.552,17.363v3.583h2.179a5.313,5.313,0,1,1-.812-8.78H22.552Z" style="fill:#428640"/><path d="M22.552,17.355v3.531h2.13a5.237,5.237,0,1,1-.8-8.655h-1.33Z" style="fill:#438740"/><path d="M22.552,17.347v3.48h2.082a5.16,5.16,0,1,1-.788-8.529H22.552Z" style="fill:#438840"/><path d="M22.552,17.34v3.428h2.034a5.086,5.086,0,1,1,.722-7.156H22.552Z" style="fill:#448940"/><path d="M22.552,17.332v3.377h1.986a5.01,5.01,0,1,1,.711-7.049h-2.7Z" style="fill:#458a41"/><path d="M22.552,17.324V20.65H24.49a4.933,4.933,0,1,1,.7-6.942H22.552Z" style="fill:#468b41"/><path d="M22.552,17.317v3.274h1.889a4.857,4.857,0,1,1,.69-6.834H22.552Z" style="fill:#478c41"/><path d="M22.552,17.309v3.223h1.841a4.781,4.781,0,1,1,.679-6.727h-2.52Z" style="fill:#478d41"/><path d="M22.552,17.3v3.172h1.793a4.7,4.7,0,1,1,.668-6.62H22.552Z" style="fill:#488e41"/><path d="M22.552,17.294v3.12H24.3a4.629,4.629,0,1,1,.657-6.513h-2.4Z" style="fill:#498f42"/><path d="M22.552,17.286v3.069h1.7A4.552,4.552,0,1,1,24.9,13.95H22.552Z" style="fill:#4a9042"/><path d="M22.552,17.278V20.3H24.2a4.476,4.476,0,1,1,.636-6.3H22.552Z" style="fill:#4b9142"/><path d="M22.552,17.271v2.966h1.6a4.4,4.4,0,1,1,.625-6.191H22.552Z" style="fill:#4b9242"/><path d="M22.552,17.263v2.915H24.1a4.324,4.324,0,1,1,.614-6.084H22.552Z" style="fill:#4c9343"/><path d="M22.552,17.256v2.863h1.5a4.247,4.247,0,1,1,.6-5.977H22.552Z" style="fill:#4d9443"/><path d="M22.552,17.248V20.06h1.456a4.171,4.171,0,1,1,.592-5.869H22.552Z" style="fill:#4e9543"/><path d="M22.552,17.24V20H23.96a4.1,4.1,0,1,1,.581-5.762H22.552Z" style="fill:#4e9643"/><path d="M22.552,17.233v2.709h1.359a4.019,4.019,0,1,1,.571-5.655h-1.93Z" style="fill:#4f9744"/><path d="M25.292,17.225a3.943,3.943,0,1,1-.869-2.89H22.552v2.89Z" style="fill:#509844"/><path d="M25.216,17.217a3.866,3.866,0,1,1-.852-2.834H22.552v2.834Z" style="fill:#519944"/><circle cx="21.369" cy="16.829" r="3.79" transform="matrix(0.1, -0.995, 0.995, 0.1, 2.48, 36.401)" style="fill:#529a44"/><circle cx="21.369" cy="16.829" r="3.714" transform="translate(2.48 36.401) rotate(-84.238)" style="fill:#529b44"/><circle cx="21.369" cy="16.829" r="3.638" transform="translate(2.48 36.401) rotate(-84.238)" style="fill:#539c45"/><circle cx="21.369" cy="16.829" r="3.562" transform="translate(2.48 36.401) rotate(-84.238)" style="fill:#549d45"/><circle cx="21.369" cy="16.829" r="3.485" transform="translate(2.48 36.401) rotate(-84.238)" style="fill:#559e45"/><circle cx="21.369" cy="16.829" r="3.409" transform="translate(2.48 36.401) rotate(-84.238)" style="fill:#569f45"/><circle cx="21.369" cy="16.829" r="3.333" transform="matrix(0.1, -0.995, 0.995, 0.1, 2.48, 36.401)" style="fill:#56a046"/><circle cx="21.369" cy="16.829" r="3.257" transform="translate(2.48 36.401) rotate(-84.238)" style="fill:#57a146"/><circle cx="21.369" cy="16.829" r="3.181" transform="translate(2.48 36.401) rotate(-84.238)" style="fill:#58a246"/><circle cx="21.369" cy="16.829" r="3.104" transform="translate(2.48 36.401) rotate(-84.238)" style="fill:#59a346"/><circle cx="21.369" cy="16.829" r="3.028" transform="translate(2.48 36.401) rotate(-84.238)" style="fill:#59a447"/><circle cx="21.369" cy="16.829" r="2.952" transform="translate(2.48 36.401) rotate(-84.238)" style="fill:#5aa547"/><circle cx="21.369" cy="16.829" r="2.876" transform="matrix(0.1, -0.995, 0.995, 0.1, 2.48, 36.401)" style="fill:#5ba647"/></g><path d="M28.6,25.584l-8.03-.809.02-.2-.02.2-8.03-.811.109-1.1.113-.045c1.5-.6,2.411-5.078,2.637-6.755.383-3.807,4.117-4.722,4.932-4.877.3-2.322,1.761-2.3,1.828-2.3l-.006.195.034-.192c.063.011,1.5.291,1.331,2.623.768.314,4.242,1.957,3.857,5.772-.114,1.681-.115,6.255,1.235,7.137l.1.067Zm-7.99-1.207,7.632.768.048-.465c-1.706-1.346-1.331-7.181-1.314-7.434.4-3.957-3.693-5.4-3.735-5.416l-.151-.052.016-.158c.2-1.979-.828-2.3-.974-2.337-.146.005-1.219.111-1.42,2.094l-.016.158-.158.021c-.177.023-4.345.61-4.742,4.553-.034.257-.834,6.05-2.773,7.029l-.046.467Z" style="fill:#868686"/><g style="clip-path:url(#clip-path-4)"><rect x="20.68" y="9.599" width="7.766" height="15.498" style="fill:#2a3580"/><path d="M28.949,17.719A7.571,7.571,0,0,1,17.791,23.6h2.488V9.727H19.191a7.571,7.571,0,0,1,9.759,7.992Z" style="fill:#2a3580"/><path d="M28.886,17.713a7.507,7.507,0,0,1-11.065,5.832h2.457V9.788H19.21a7.507,7.507,0,0,1,9.676,7.925Z" style="fill:#293681"/><path d="M28.822,17.706a7.443,7.443,0,0,1-10.97,5.782h2.427V9.849h-1.05a7.443,7.443,0,0,1,9.594,7.857Z" style="fill:#293782"/><path d="M28.759,17.7a7.379,7.379,0,0,1-10.876,5.732h2.4V9.91H19.247a7.379,7.379,0,0,1,9.512,7.79Z" style="fill:#283882"/><path d="M28.7,17.694a7.315,7.315,0,0,1-10.782,5.683h2.365V9.971H19.266A7.315,7.315,0,0,1,28.7,17.694Z" style="fill:#283983"/><path d="M28.632,17.687A7.251,7.251,0,0,1,17.944,23.32h2.335V10.032h-.994a7.251,7.251,0,0,1,9.347,7.655Z" style="fill:#273a84"/><path d="M28.568,17.681a7.187,7.187,0,0,1-10.594,5.584h2.3V10.093H19.3a7.187,7.187,0,0,1,9.265,7.588Z" style="fill:#273b85"/><path d="M28.5,17.674a7.124,7.124,0,0,1-10.5,5.534h2.273V10.154h-.956a7.124,7.124,0,0,1,9.182,7.52Z" style="fill:#263c86"/><path d="M28.441,17.668a7.06,7.06,0,0,1-10.405,5.484h2.243V10.215h-.937a7.06,7.06,0,0,1,9.1,7.453Z" style="fill:#263d87"/><path d="M28.378,17.662A7,7,0,0,1,18.066,23.1h2.212V10.276H19.36a7,7,0,0,1,9.018,7.385Z" style="fill:#253e87"/><path d="M28.314,17.655A6.932,6.932,0,0,1,18.1,23.04h2.181v-12.7h-.9a6.932,6.932,0,0,1,8.935,7.318Z" style="fill:#253f88"/><path d="M28.251,17.649a6.868,6.868,0,0,1-10.123,5.335h2.151V10.4H19.4a6.868,6.868,0,0,1,8.853,7.25Z" style="fill:#244089"/><path d="M28.187,17.642a6.8,6.8,0,0,1-10.029,5.286h2.12V10.46h-.862a6.8,6.8,0,0,1,8.77,7.183Z" style="fill:#24418a"/><path d="M28.123,17.636a6.74,6.74,0,0,1-9.935,5.236h2.09V10.521h-.843a6.74,6.74,0,0,1,8.688,7.115Z" style="fill:#23428b"/><path d="M28.06,17.63a6.676,6.676,0,0,1-9.84,5.186h2.059V10.582h-.824A6.676,6.676,0,0,1,28.06,17.63Z" style="fill:#22438b"/><path d="M28,17.623A6.612,6.612,0,0,1,18.25,22.76h2.028V10.643h-.805A6.612,6.612,0,0,1,28,17.623Z" style="fill:#22448c"/><path d="M27.933,17.617A6.549,6.549,0,0,1,18.281,22.7h2v-12h-.787a6.549,6.549,0,0,1,8.441,6.913Z" style="fill:#21458d"/><path d="M27.869,17.61a6.485,6.485,0,0,1-9.558,5.038h1.967V10.765h-.768a6.485,6.485,0,0,1,8.359,6.846Z" style="fill:#21468e"/><path d="M27.806,17.6a6.421,6.421,0,0,1-9.464,4.988h1.936V10.826h-.749A6.421,6.421,0,0,1,27.806,17.6Z" style="fill:#20478f"/><path d="M27.742,17.6a6.357,6.357,0,0,1-9.37,4.938h1.906V10.887h-.73A6.357,6.357,0,0,1,27.742,17.6Z" style="fill:#204890"/><path d="M27.679,17.591A6.293,6.293,0,0,1,18.4,22.48h1.875V10.948h-.711a6.293,6.293,0,0,1,8.112,6.643Z" style="fill:#1f4990"/><path d="M27.615,17.585a6.229,6.229,0,0,1-9.181,4.839h1.844V12.138h-2.8a6.226,6.226,0,0,1,10.132,5.447Z" style="fill:#1f4a91"/><path d="M27.552,17.578a6.165,6.165,0,0,1-9.087,4.789h1.814V12.187H17.523a6.162,6.162,0,0,1,10.028,5.391Z" style="fill:#1e4b92"/><path d="M27.488,17.572a6.1,6.1,0,0,1-8.993,4.74h1.783V12.237H17.564a6.1,6.1,0,0,1,9.924,5.335Z" style="fill:#1e4c93"/><path d="M27.425,17.565a6.037,6.037,0,0,1-8.9,4.69h1.753v-9.97H17.6a6.034,6.034,0,0,1,9.82,5.279Z" style="fill:#1d4d94"/><path d="M27.361,17.559a5.974,5.974,0,0,1-8.8,4.641h1.722V12.335H17.645a5.97,5.97,0,0,1,9.716,5.224Z" style="fill:#1d4e95"/><path d="M27.3,17.553a5.91,5.91,0,0,1-8.71,4.591h1.691V12.385H17.685A5.906,5.906,0,0,1,27.3,17.553Z" style="fill:#1c4f95"/><path d="M27.234,17.546a5.846,5.846,0,0,1-8.616,4.541h1.661V12.434H17.725a5.843,5.843,0,0,1,9.509,5.112Z" style="fill:#1b5096"/><path d="M27.171,17.54a5.782,5.782,0,0,1-8.522,4.492h1.63V12.484H17.766a5.779,5.779,0,0,1,9.4,5.056Z" style="fill:#1b5197"/><path d="M27.107,17.533a5.718,5.718,0,0,1-8.428,4.442h1.6V12.533H17.806a5.715,5.715,0,0,1,9.3,5Z" style="fill:#1a5298"/><path d="M27.043,17.527a5.654,5.654,0,0,1-8.334,4.392h1.569V12.583H17.847a5.651,5.651,0,0,1,9.2,4.944Z" style="fill:#1a5399"/><path d="M26.98,17.521a5.59,5.59,0,0,1-8.24,4.343h1.538V12.632H17.887a5.587,5.587,0,0,1,9.093,4.888Z" style="fill:#195499"/><path d="M26.916,17.514a5.526,5.526,0,0,1-8.145,4.293h1.507V12.682H17.927a5.523,5.523,0,0,1,8.989,4.833Z" style="fill:#19559a"/><path d="M26.853,17.508A5.462,5.462,0,0,1,18.8,21.751h1.477v-9.02H17.968a5.459,5.459,0,0,1,8.885,4.777Z" style="fill:#18569b"/><path d="M26.789,17.5A5.4,5.4,0,0,1,18.832,21.7h1.446V12.781h-2.27A5.4,5.4,0,0,1,26.789,17.5Z" style="fill:#18579c"/><path d="M26.726,17.495a5.335,5.335,0,0,1-7.863,4.144h1.416V12.83h-2.23a5.332,5.332,0,0,1,8.677,4.665Z" style="fill:#17589d"/><path d="M26.662,17.488a5.271,5.271,0,0,1-7.769,4.095h1.385v-8.7h-2.19a5.268,5.268,0,0,1,8.573,4.609Z" style="fill:#17599e"/><path d="M26.6,17.482a5.207,5.207,0,0,1-7.675,4.045h1.354v-8.6H18.129A5.2,5.2,0,0,1,26.6,17.482Z" style="fill:#165a9e"/><path d="M26.535,17.476a5.143,5.143,0,0,1-7.58,4h1.324V12.978H18.17a5.14,5.14,0,0,1,8.366,4.5Z" style="fill:#165b9f"/><path d="M26.472,17.469a5.076,5.076,0,0,1-8.982,2.7h2.789V13.028H18.21a5.076,5.076,0,0,1,8.262,4.441Z" style="fill:#155da0"/><path d="M26.408,17.463a5.012,5.012,0,0,1-8.869,2.667h2.74V13.077H18.25a5.012,5.012,0,0,1,8.158,4.386Z" style="fill:#145ea1"/><path d="M26.345,17.456a4.949,4.949,0,0,1-8.756,2.633h2.69V13.127H18.291a4.949,4.949,0,0,1,8.054,4.33Z" style="fill:#145fa2"/><path d="M26.281,17.45a4.885,4.885,0,0,1-8.643,2.6h2.641V13.176H18.331a4.885,4.885,0,0,1,7.95,4.274Z" style="fill:#1360a2"/><path d="M26.218,17.444a4.821,4.821,0,0,1-8.53,2.565h2.591V13.226H18.372a4.821,4.821,0,0,1,7.846,4.218Z" style="fill:#1361a3"/><path d="M26.154,17.437a4.757,4.757,0,0,1-8.417,2.531h2.542V13.275H18.412a4.757,4.757,0,0,1,7.742,4.162Z" style="fill:#1262a4"/><path d="M26.091,17.431a4.693,4.693,0,0,1-8.3,2.5h2.492v-6.6H18.452a4.693,4.693,0,0,1,7.638,4.106Z" style="fill:#1263a5"/><path d="M26.027,17.424a4.629,4.629,0,0,1-8.192,2.463h2.443V13.374H18.493a4.629,4.629,0,0,1,7.534,4.05Z" style="fill:#1164a6"/><path d="M25.963,17.418a4.565,4.565,0,0,1-8.079,2.429h2.394V13.423H18.533a4.565,4.565,0,0,1,7.43,3.995Z" style="fill:#1165a7"/><path d="M25.9,17.412a4.5,4.5,0,0,1-7.966,2.4h2.344V13.473h-1.7A4.5,4.5,0,0,1,25.9,17.412Z" style="fill:#1066a7"/><path d="M25.836,17.405a4.438,4.438,0,0,1-7.853,2.361h2.295V13.522H18.614a4.438,4.438,0,0,1,7.222,3.883Z" style="fill:#1067a8"/><path d="M25.773,17.4a4.374,4.374,0,0,1-7.74,2.328h2.245V13.572H18.654A4.374,4.374,0,0,1,25.773,17.4Z" style="fill:#0f68a9"/><path d="M25.709,17.392a4.31,4.31,0,0,1-7.627,2.294h2.2V13.621H18.695a4.31,4.31,0,0,1,7.015,3.771Z" style="fill:#0f69aa"/><path d="M25.646,17.386a4.246,4.246,0,0,1-7.514,2.26h2.146V13.671H18.735a4.246,4.246,0,0,1,6.911,3.715Z" style="fill:#0e6aab"/><path d="M25.582,17.379a4.182,4.182,0,0,1-7.4,2.226h2.1V13.72h-1.5a4.182,4.182,0,0,1,6.807,3.659Z" style="fill:#0d6bab"/><path d="M25.519,17.373a4.119,4.119,0,0,1-7.288,2.192h2.047v-5.8H18.816a4.119,4.119,0,0,1,6.7,3.6Z" style="fill:#0d6cac"/><path d="M25.455,17.367a4.055,4.055,0,0,1-7.175,2.158h2V13.819H18.856a4.055,4.055,0,0,1,6.6,3.548Z" style="fill:#0c6dad"/><path d="M25.392,17.36a3.991,3.991,0,0,1-7.062,2.124h1.948V13.869H18.9a3.991,3.991,0,0,1,6.495,3.492Z" style="fill:#0c6eae"/><path d="M25.328,17.354a3.927,3.927,0,0,1-6.949,2.09h1.9V16.565H17.514a3.927,3.927,0,1,1,7.814.789Z" style="fill:#0b6faf"/><path d="M25.265,17.347A3.863,3.863,0,0,1,18.429,19.4h1.85V16.572h-2.7a3.863,3.863,0,0,1,7.687.776Z" style="fill:#0b70b0"/><path d="M25.2,17.341a3.8,3.8,0,0,1-6.723,2.022h1.8V16.578H17.641a3.8,3.8,0,1,1,7.56.763Z" style="fill:#0a71b0"/><circle cx="21.421" cy="16.96" r="3.735" transform="translate(2.396 36.57) rotate(-84.238)" style="fill:#0a72b1"/><circle cx="21.421" cy="16.96" r="3.672" transform="translate(2.396 36.57) rotate(-84.238)" style="fill:#0973b2"/><circle cx="21.421" cy="16.96" r="3.608" transform="translate(2.396 36.57) rotate(-84.238)" style="fill:#0974b3"/><circle cx="21.421" cy="16.96" r="3.544" transform="translate(2.396 36.57) rotate(-84.238)" style="fill:#0875b4"/><circle cx="21.421" cy="16.96" r="3.48" transform="translate(2.396 36.57) rotate(-84.238)" style="fill:#0876b5"/><circle cx="21.421" cy="16.96" r="3.416" transform="translate(2.396 36.57) rotate(-84.238)" style="fill:#0777b5"/><circle cx="21.421" cy="16.96" r="3.352" transform="translate(2.396 36.57) rotate(-84.238)" style="fill:#0678b6"/><circle cx="21.421" cy="16.96" r="3.288" transform="translate(2.396 36.57) rotate(-84.238)" style="fill:#0679b7"/><circle cx="21.421" cy="16.96" r="3.225" transform="translate(2.396 36.57) rotate(-84.238)" style="fill:#057ab8"/><circle cx="21.421" cy="16.96" r="3.161" transform="matrix(0.1, -0.995, 0.995, 0.1, 2.396, 36.57)" style="fill:#057bb9"/><circle cx="21.421" cy="16.96" r="3.097" transform="translate(2.396 36.57) rotate(-84.238)" style="fill:#047cb9"/><circle cx="21.421" cy="16.96" r="3.033" transform="translate(2.396 36.57) rotate(-84.238)" style="fill:#047dba"/><circle cx="21.421" cy="16.96" r="2.969" transform="translate(2.396 36.57) rotate(-84.238)" style="fill:#037ebb"/><circle cx="21.421" cy="16.96" r="2.905" transform="translate(2.396 36.57) rotate(-84.238)" style="fill:#037fbc"/><circle cx="21.421" cy="16.96" r="2.841" transform="translate(2.396 36.57) rotate(-84.238)" style="fill:#0280bd"/><circle cx="21.421" cy="16.96" r="2.778" transform="translate(2.396 36.57) rotate(-84.238)" style="fill:#0281be"/><circle cx="21.421" cy="16.96" r="2.714" transform="translate(2.396 36.57) rotate(-84.238)" style="fill:#0182be"/><circle cx="21.421" cy="16.96" r="2.65" transform="matrix(0.1, -0.995, 0.995, 0.1, 2.396, 36.57)" style="fill:#0183bf"/><circle cx="21.421" cy="16.96" r="2.586" transform="translate(2.396 36.57) rotate(-84.238)" style="fill:#0084c0"/><rect x="12.988" y="9.556" width="9.176" height="14.762" style="fill:#2a3580"/><path d="M22.564,17.719v6.473h1.087a7.567,7.567,0,1,1,1.4-13.873H22.564Z" style="fill:#2a3580"/><path d="M22.564,17.713v6.418h1.068a7.5,7.5,0,1,1,1.388-13.756H22.564Z" style="fill:#293681"/><path d="M22.564,17.706V24.07h1.05A7.439,7.439,0,1,1,24.99,10.431H22.564Z" style="fill:#293782"/><path d="M22.564,17.7v6.309h1.031A7.375,7.375,0,1,1,24.96,10.487h-2.4Z" style="fill:#283882"/><path d="M22.564,17.694v6.254h1.012a7.311,7.311,0,1,1,1.353-13.405H22.564Z" style="fill:#283983"/><path d="M22.564,17.687v6.2h.993A7.247,7.247,0,1,1,24.9,10.6H22.564Z" style="fill:#273a84"/><path d="M22.564,17.681v6.145h.974a7.183,7.183,0,1,1,1.329-13.171h-2.3Z" style="fill:#273b85"/><path d="M22.564,17.674v6.09h.956a7.12,7.12,0,1,1,1.317-13.054H22.564Z" style="fill:#263c86"/><path d="M22.564,17.668V23.7H23.5a7.056,7.056,0,1,1,1.306-12.937H22.564Z" style="fill:#263d87"/><path d="M22.564,17.662v5.981h.918a6.992,6.992,0,1,1,1.294-12.82H22.564Z" style="fill:#253e87"/><path d="M22.564,17.655v5.927h.9a6.928,6.928,0,1,1,1.282-12.7H22.564Z" style="fill:#253f88"/><path d="M22.564,17.649v5.872h.88a6.864,6.864,0,1,1,1.27-12.586h-2.15Z" style="fill:#244089"/><path d="M22.564,17.642V23.46h.861a6.8,6.8,0,1,1,1.258-12.469h-2.12Z" style="fill:#24418a"/><path d="M22.564,17.636V23.4h.843a6.736,6.736,0,1,1,1.246-12.351H22.564Z" style="fill:#23428b"/><path d="M22.564,17.63v5.708h.824A6.673,6.673,0,1,1,24.623,11.1H22.564Z" style="fill:#22438b"/><path d="M22.564,17.623v5.653h.8a6.609,6.609,0,1,1,1.223-12.117H22.564Z" style="fill:#22448c"/><path d="M22.564,17.617v5.6h.786a6.545,6.545,0,1,1,1.211-12h-2Z" style="fill:#21458d"/><path d="M22.564,17.61v5.544h.767a6.481,6.481,0,1,1,1.2-11.883H22.564Z" style="fill:#21468e"/><path d="M22.564,17.6v5.49h.748A6.417,6.417,0,1,1,24.5,11.327H22.564Z" style="fill:#20478f"/><path d="M22.564,17.6v5.435h.73a6.353,6.353,0,1,1,1.176-11.649H22.564Z" style="fill:#204890"/><path d="M22.564,17.591v5.38h.711a6.29,6.29,0,1,1,1.164-11.532H22.564Z" style="fill:#1f4990"/><path d="M22.564,17.585v4.2h2.795A6.224,6.224,0,1,1,24.408,11.5H22.564Z" style="fill:#1f4a91"/><path d="M22.564,17.578v4.154h2.754a6.16,6.16,0,1,1-.941-10.181H22.564Z" style="fill:#1e4b92"/><path d="M22.564,17.572v4.111h2.714a6.1,6.1,0,1,1-.931-10.075H22.564Z" style="fill:#1e4c93"/><path d="M22.564,17.565v4.068h2.674a6.032,6.032,0,1,1-.922-9.97H22.564Z" style="fill:#1d4d94"/><path d="M22.564,17.559v4.025H25.2a5.968,5.968,0,1,1-.912-9.864H22.564Z" style="fill:#1d4e95"/><path d="M22.564,17.553v3.982h2.593a5.9,5.9,0,1,1-.9-9.759H22.564Z" style="fill:#1c4f95"/><path d="M22.564,17.546v3.939h2.553a5.841,5.841,0,1,1-.892-9.653h-1.66Z" style="fill:#1b5096"/><path d="M22.564,17.54v3.9h2.512a5.777,5.777,0,1,1-.883-9.548H22.564Z" style="fill:#1b5197"/><path d="M22.564,17.533v3.853h2.472a5.713,5.713,0,1,1-.873-9.442h-1.6Z" style="fill:#1a5298"/><path d="M22.564,17.527v3.809H25A5.649,5.649,0,1,1,24.132,12H22.564Z" style="fill:#1a5399"/><path d="M22.564,17.521v3.766h2.391a5.585,5.585,0,1,1-.853-9.231H22.564Z" style="fill:#195499"/><path d="M22.564,17.514v3.723h2.351a5.522,5.522,0,1,1-.844-9.126H22.564Z" style="fill:#19559a"/><path d="M22.564,17.508v3.68h2.31a5.458,5.458,0,1,1-.834-9.02H22.564Z" style="fill:#18569b"/><path d="M22.564,17.5v3.637h2.27a5.394,5.394,0,1,1-.824-8.915H22.564Z" style="fill:#18579c"/><path d="M22.564,17.495v3.594h2.229a5.33,5.33,0,1,1-.814-8.809H22.564Z" style="fill:#17589d"/><path d="M22.564,17.488V21.04h2.189a5.266,5.266,0,1,1-.8-8.7H22.564Z" style="fill:#17599e"/><path d="M22.564,17.482V20.99h2.149a5.2,5.2,0,1,1-.795-8.6H22.564Z" style="fill:#165a9e"/><path d="M22.564,17.476v3.465h2.108a5.139,5.139,0,1,1-.785-8.493H22.564Z" style="fill:#165b9f"/><path d="M22.564,17.469v3.422h2.068a5.076,5.076,0,1,1,.721-7.143H22.564Z" style="fill:#155da0"/><path d="M22.564,17.463v3.379h2.027a5.012,5.012,0,1,1,.712-7.053H22.564Z" style="fill:#145ea1"/><path d="M22.564,17.456v3.336h1.987a4.949,4.949,0,1,1,.7-6.963h-2.69Z" style="fill:#145fa2"/><path d="M22.564,17.45v3.293h1.947A4.885,4.885,0,1,1,25.2,13.87h-2.64Z" style="fill:#1360a2"/><path d="M22.564,17.444v3.25H24.47a4.821,4.821,0,1,1,.685-6.783H22.564Z" style="fill:#1361a3"/><path d="M22.564,17.437v3.207H24.43a4.757,4.757,0,1,1,.675-6.693H22.564Z" style="fill:#1262a4"/><path d="M22.564,17.431v3.164H24.39a4.693,4.693,0,1,1,.666-6.6H22.564Z" style="fill:#1263a5"/><path d="M22.564,17.424v3.121h1.785a4.629,4.629,0,1,1,.657-6.514H22.564Z" style="fill:#1164a6"/><path d="M22.564,17.418V20.5h1.745a4.565,4.565,0,1,1,.648-6.424H22.564Z" style="fill:#1165a7"/><path d="M22.564,17.412v3.035h1.7a4.5,4.5,0,1,1,.639-6.334H22.564Z" style="fill:#1066a7"/><path d="M22.564,17.405V20.4h1.664a4.438,4.438,0,1,1,.63-6.244H22.564Z" style="fill:#1067a8"/><path d="M22.564,17.4v2.949h1.624a4.374,4.374,0,1,1,.621-6.154H22.564Z" style="fill:#0f68a9"/><path d="M22.564,17.392V20.3h1.583a4.31,4.31,0,1,1,.612-6.065h-2.2Z" style="fill:#0f69aa"/><path d="M22.564,17.386v2.862h1.543a4.246,4.246,0,1,1,.6-5.975H22.564Z" style="fill:#0e6aab"/><path d="M22.564,17.379V20.2h1.5a4.182,4.182,0,1,1,.594-5.885h-2.1Z" style="fill:#0d6bab"/><path d="M22.564,17.373v2.776h1.462a4.119,4.119,0,1,1,.585-5.8H22.564Z" style="fill:#0d6cac"/><path d="M22.564,17.367V20.1h1.422a4.055,4.055,0,1,1,.576-5.705h-2Z" style="fill:#0c6dad"/><path d="M22.564,17.36v2.69h1.381a3.991,3.991,0,1,1,.567-5.615H22.564Z" style="fill:#0c6eae"/><path d="M25.328,17.354a3.927,3.927,0,1,1-.866-2.878h-1.9v2.878Z" style="fill:#0b6faf"/><path d="M25.265,17.347a3.863,3.863,0,1,1-.851-2.831H22.564v2.831Z" style="fill:#0b70b0"/><path d="M25.2,17.341a3.8,3.8,0,1,1-.837-2.785h-1.8v2.785Z" style="fill:#0a71b0"/><circle cx="21.421" cy="16.96" r="3.735" transform="translate(2.396 36.57) rotate(-84.238)" style="fill:#0a72b1"/><circle cx="21.421" cy="16.96" r="3.672" transform="translate(2.396 36.57) rotate(-84.238)" style="fill:#0973b2"/><circle cx="21.421" cy="16.96" r="3.608" transform="translate(2.396 36.57) rotate(-84.238)" style="fill:#0974b3"/><circle cx="21.421" cy="16.96" r="3.544" transform="translate(2.396 36.57) rotate(-84.238)" style="fill:#0875b4"/><circle cx="21.421" cy="16.96" r="3.48" transform="translate(2.396 36.57) rotate(-84.238)" style="fill:#0876b5"/><circle cx="21.421" cy="16.96" r="3.416" transform="translate(2.396 36.57) rotate(-84.238)" style="fill:#0777b5"/><circle cx="21.421" cy="16.96" r="3.352" transform="translate(2.396 36.57) rotate(-84.238)" style="fill:#0678b6"/><circle cx="21.421" cy="16.96" r="3.288" transform="translate(2.396 36.57) rotate(-84.238)" style="fill:#0679b7"/><circle cx="21.421" cy="16.96" r="3.225" transform="translate(2.396 36.57) rotate(-84.238)" style="fill:#057ab8"/><circle cx="21.421" cy="16.96" r="3.161" transform="matrix(0.1, -0.995, 0.995, 0.1, 2.396, 36.57)" style="fill:#057bb9"/><circle cx="21.421" cy="16.96" r="3.097" transform="translate(2.396 36.57) rotate(-84.238)" style="fill:#047cb9"/><circle cx="21.421" cy="16.96" r="3.033" transform="translate(2.396 36.57) rotate(-84.238)" style="fill:#047dba"/><circle cx="21.421" cy="16.96" r="2.969" transform="translate(2.396 36.57) rotate(-84.238)" style="fill:#037ebb"/><circle cx="21.421" cy="16.96" r="2.905" transform="translate(2.396 36.57) rotate(-84.238)" style="fill:#037fbc"/><circle cx="21.421" cy="16.96" r="2.841" transform="translate(2.396 36.57) rotate(-84.238)" style="fill:#0280bd"/><circle cx="21.421" cy="16.96" r="2.778" transform="translate(2.396 36.57) rotate(-84.238)" style="fill:#0281be"/><circle cx="21.421" cy="16.96" r="2.714" transform="translate(2.396 36.57) rotate(-84.238)" style="fill:#0182be"/><circle cx="21.421" cy="16.96" r="2.65" transform="matrix(0.1, -0.995, 0.995, 0.1, 2.396, 36.57)" style="fill:#0183bf"/><circle cx="21.421" cy="16.96" r="2.586" transform="translate(2.396 36.57) rotate(-84.238)" style="fill:#0084c0"/></g><g style="clip-path:url(#clip-path-5)"><g style="opacity:0.64"><ellipse cx="21.439" cy="11.479" rx="5.323" ry="9.696" transform="translate(7.869 31.66) rotate(-84.25)" style="fill:#adc8df"/></g></g></svg>