<svg id="Layer_1" data-name="Layer 1" xmlns="http://www.w3.org/2000/svg" viewBox="0 0 473.9 152.1"><defs><style>.cls-1{fill:#fff;}.cls-2{fill:#ff5f00;}.cls-3{fill:#ff8300;}</style></defs><path class="cls-1" d="M71.5,112.9c9.1,0,13.7,4.5,13.7,4.5l-4.4,8.1a12.74,12.74,0,0,0-8.5-3.2c-6.6,0-9.3,4-9.3,8.6,0,5.4,3.6,9.2,8.9,9.2,3.3,0,5.9-1.7,6.2-2.2v-1.6H73.6v-7.6H87v19.9H78.5v-1.5a2.81,2.81,0,0,1,.1-1.1h-.2c-.4.6-3.3,3.3-8.9,3.3-9.6,0-17.4-7.2-17.4-18.2C52.1,120.8,59.7,112.9,71.5,112.9Z"/><path class="cls-1" d="M108.3,112.9c11.3,0,18.9,7.7,18.9,18,0,10.5-7.6,18.5-18.9,18.5s-18.9-7.9-18.9-18.5C89.3,120.6,96.9,112.9,108.3,112.9Zm0,27c4.6,0,8-3.7,8-9,0-5.1-3.4-8.6-8-8.6s-8,3.5-8,8.6C100.3,136.3,103.7,139.9,108.3,139.9Z"/><path class="cls-1" d="M130.6,113.5H146c7.7,0,13,4.2,13,11.6a11.85,11.85,0,0,1-5.4,9.9v.1c.1.2.8,1.1,1.5,2.4l6.2,11.3H149.7l-5.5-11.1h-3v11.1H130.5V113.5Zm13.9,16c2.4,0,3.7-1.4,3.7-3.8,0-2.2-.9-3.7-4.1-3.7h-2.8v7.4h3.2v.1Z"/><path class="cls-1" d="M163.4,113.5h14.3c10.9,0,17.9,6.5,17.9,17.6s-7,17.7-17.9,17.7H163.4ZM177,140.1c4.8,0,7.6-3.1,7.6-9s-3-8.9-7.6-8.9h-3v17.9Z"/><path class="cls-1" d="M216.4,112.9c11.3,0,18.9,7.7,18.9,18,0,10.5-7.6,18.5-18.9,18.5s-18.9-7.9-18.9-18.5C197.4,120.6,205,112.9,216.4,112.9Zm0,27c4.6,0,8-3.7,8-9,0-5.1-3.4-8.6-8-8.6s-8,3.5-8,8.6C208.4,136.3,211.7,139.9,216.4,139.9Z"/><path class="cls-1" d="M238.8,113.5H249l8.7,14.5a29.34,29.34,0,0,1,2.5,5.4h.2s-.4-3.2-.4-5.4V113.5h10.3v35.3H259.9l-8.7-15.1a36.93,36.93,0,0,1-2.5-5.3h-.2a51.46,51.46,0,0,1,.4,5.3v15.1H238.8V113.5Z"/><path class="cls-1" d="M286.3,113.5h11.6l4.4,14.2c.7,2.3,1.5,5.7,1.5,5.7h.2a55.66,55.66,0,0,1,1.5-5.7l4.4-14.2h11.6l2.6,35.3h-9.9l-1-14.7a47.36,47.36,0,0,1,0-5.7H313s-.9,3.5-1.6,5.7l-3.2,10h-8.6l-3.3-10c-.7-2.2-1.6-5.7-1.6-5.7h-.2s.1,3,0,5.7l-.9,14.7h-10Z"/><path class="cls-1" d="M345.5,112.9c11.3,0,18.9,7.7,18.9,18,0,10.5-7.6,18.5-18.9,18.5s-18.9-7.9-18.9-18.5C326.5,120.6,334.1,112.9,345.5,112.9Zm0,27c4.6,0,8-3.7,8-9,0-5.1-3.4-8.6-8-8.6s-8,3.5-8,8.6C337.5,136.3,340.9,139.9,345.5,139.9Z"/><path class="cls-1" d="M385.1,112.9c11.3,0,18.9,7.7,18.9,18,0,10.5-7.6,18.5-18.9,18.5s-18.9-7.9-18.9-18.5C366.2,120.6,373.8,112.9,385.1,112.9Zm0,27c4.6,0,8-3.7,8-9,0-5.1-3.4-8.6-8-8.6s-8,3.5-8,8.6C377.1,136.3,380.5,139.9,385.1,139.9Z"/><path class="cls-1" d="M407.5,113.5h14.3c10.9,0,17.9,6.5,17.9,17.6s-7,17.7-17.9,17.7H407.5Zm13.6,26.6c4.8,0,7.6-3.1,7.6-9s-3-8.9-7.6-8.9h-3v17.9Z"/><path class="cls-1" d="M449.1,134.8l-11.6-21.3h11.4l3.4,7.3c1,2.2,2,5.3,2,5.3h.2a45.79,45.79,0,0,1,2.1-5.3l3.3-7.3h11.5l-11.6,21.3v14H449.1v-14Z"/><circle class="cls-2" cx="21" cy="131.1" r="9.3"/><polygon class="cls-2" points="21 119.3 25.2 115.1 25.2 110.1 16.8 110.1 16.8 115.1 21 119.3"/><polygon class="cls-3" points="15.2 120.9 16.7 115.2 14.2 110.8 6.9 115 9.4 119.4 15.2 120.9"/><polygon class="cls-2" points="10.9 125.2 9.3 119.4 4.9 116.9 0.7 124.2 5.1 126.7 10.9 125.2"/><polygon class="cls-3" points="9.3 131.1 5.1 126.9 0 126.9 0 135.3 5.1 135.3 9.3 131.1"/><polygon class="cls-2" points="10.9 136.9 5.1 135.4 0.7 137.9 4.9 145.2 9.3 142.7 10.9 136.9"/><polygon class="cls-3" points="15.2 141.3 9.4 142.8 6.9 147.2 14.2 151.4 16.7 147 15.2 141.3"/><polygon class="cls-2" points="21 142.8 16.8 147 16.8 152.1 25.2 152.1 25.2 147 21 142.8"/><polygon class="cls-3" points="26.9 141.3 25.4 147 27.9 151.4 35.2 147.2 32.7 142.8 26.9 141.3"/><polygon class="cls-2" points="31.2 137 32.7 142.7 37.1 145.3 41.4 138 37 135.4 31.2 137"/><polygon class="cls-3" points="32.8 131.1 37 135.3 42.1 135.3 42.1 126.9 37 126.9 32.8 131.1"/><polygon class="cls-2" points="31.2 125.2 37 126.7 41.4 124.2 37.1 116.9 32.8 119.4 31.2 125.2"/><polygon class="cls-3" points="26.9 120.9 32.7 119.4 35.2 115 27.9 110.8 25.4 115.2 26.9 120.9"/><path class="cls-1" d="M147.5,11.2h-3V23.4h2.9c3.2,0,5.3-2.5,5.3-6.1S150.5,11.2,147.5,11.2Z"/><path class="cls-1" d="M229.6,10.9c-5,0-7.9,4.7-7.9,12,0,7.7,2.9,12.6,7.9,12.6s7.9-5,7.9-12.5S234.6,10.9,229.6,10.9Z"/><path class="cls-1" d="M122.3,11.9h0c-.1,0-.6,3.4-1.1,5.4l-2.3,9.4h6.6l-2.2-9.4C122.8,15.3,122.3,11.9,122.3,11.9Z"/><path class="cls-1" d="M98.8,12a5.6,5.6,0,0,0-2.7-.8H92.8V22.4H96c2.5,0,4.7-2.1,4.7-5.7A5.73,5.73,0,0,0,98.8,12Z"/><path class="cls-1" d="M261,12a5.6,5.6,0,0,0-2.7-.8H255V22.4h3.2c2.5,0,4.7-2.1,4.7-5.7A5.73,5.73,0,0,0,261,12Z"/><path class="cls-1" d="M277.2,0H0V46.3H278l22.5-23.4ZM30.8,11.1H22.4V40.7H16.5V11.1H8V5.8H30.8ZM57.7,40.7H51.8V26H41V40.7H35V5.8h6V20.6H51.8V5.8h5.9Zm24-.1H64.5V5.8H81.1v5.3H70.5v9.3H79v5.3H70.5v9.6H81.7Zm20.2.2-5.3-13H92.8v13h-6V5.8H96.9a10.29,10.29,0,0,1,4.6,1.1c3.1,1.5,5.3,4.8,5.3,9.3a11.11,11.11,0,0,1-5.1,9.6v.1a15.5,15.5,0,0,1,1,1.9l5.8,13Zm26.7-.1-2.2-9h-8.5l-2.1,9h-6l9.1-34.9h6.5l9.2,34.9Zm19.8-12.1h-3.9v12h-6V5.8h9.9c6.1,0,10.3,4.6,10.3,11.4S154.5,28.6,148.4,28.6Zm26.4-2.5V40.7h-5.9V26.1h-.1L159.9,5.8h6.6L170.4,16c.8,2.2,1.4,4.6,1.4,4.6h.1a44,44,0,0,1,1.4-4.6l3.8-10.2h6.6Zm37.5-15H202.1V21.2h8.5v5.3h-8.5V40.7h-6V5.8h16.2Zm17.3,30.1c-8.6,0-14-7.6-14-18.3-.1-10.3,5.3-17.7,14-17.7s14,7.3,14,17.8S238.1,41.2,229.6,41.2Zm34.5-.4-5.3-13H255v13h-6V5.8h10.1a10.29,10.29,0,0,1,4.6,1.1c3.1,1.5,5.3,4.8,5.3,9.3a11.11,11.11,0,0,1-5.1,9.6v.1a15.5,15.5,0,0,1,1,1.9l5.8,13Z"/><path class="cls-1" d="M110.7,78.9h-4.2V89.2H110c3.1,0,4.5-2.2,4.5-5.1C114.5,81,113,78.9,110.7,78.9Z"/><path class="cls-1" d="M263.8,65h-3.4V89.2l3.4-.1c5.1,0,8.1-4.2,8.1-12.1S268.8,65,263.8,65Z"/><path class="cls-1" d="M238.2,65.7H238s-.5,3.4-1,5.4l-2.3,9.4h6.7l-2.2-9.4C238.7,69.1,238.2,65.7,238.2,65.7Z"/><path class="cls-1" d="M293,65h-3.4V89.2l3.4-.1c5.1,0,8.1-4.2,8.1-12.1S298,65,293,65Z"/><path class="cls-1" d="M113.4,69.3c0-2.6-1.3-4.4-3.7-4.4h-3.2v9h3.7C112.2,73.9,113.4,71.9,113.4,69.3Z"/><path class="cls-1" d="M50.1,65.7h0c-.1,0-.6,3.4-1.1,5.4l-2.3,9.4h6.6l-2.2-9.4C50.6,69.1,50.1,65.7,50.1,65.7Z"/><path class="cls-1" d="M450.6,53.8H0v46.3H451.4l22.5-23.4ZM34.7,94.4H30V93.1a10.87,10.87,0,0,1,.1-1.3H30A9.15,9.15,0,0,1,22.7,95C15.7,95.1,9,88.4,9,77.1,9,66.3,15,59,24.1,59a15.58,15.58,0,0,1,9.2,3l-2.6,5.1a9.44,9.44,0,0,0-6.4-2.5c-5.9,0-9.2,5.1-9.2,12.3,0,7.5,3.7,12.4,8.7,12.4a6.89,6.89,0,0,0,5.6-2.5V81.3H25.5V76h9.2Zm21.7.1-2.2-9H45.7l-2.1,9h-6l9.1-34.9h6.5l9.2,34.9Zm32.6,0L87.8,75.1c-.1-2.3,0-5.4,0-5.4h-.1s-.6,3.5-1.2,5.6L82.8,88.5H77L73.3,75.3c-.5-2-1.1-5.6-1.1-5.6H72a43.69,43.69,0,0,1,0,5.4L70.8,94.5H65.2l2.3-34.9h6.6l4.7,16.9c.5,2.1,1.1,5.3,1.1,5.3H80s.6-3.2,1.1-5.3l4.7-16.9h6.6l2.2,34.9Zm21.1.1h-9.6v-35h9.4c5.6,0,9.6,3.2,9.6,9a8.22,8.22,0,0,1-4.1,7.5v.1c3.6,1.1,5.2,4.5,5.2,8.3C120.6,91.5,116.2,94.6,110.1,94.6Zm33-.1H125.9V59.6h6V89.2h11.2Zm10.3,0h-6V59.6h6Zm29.4,0h-6.2l-9-19.8c-.9-2.2-1.8-5.3-1.8-5.3h-.2s.3,3.3.3,5.4V94.5h-5.6V59.6h6.2l9,19.7a53.58,53.58,0,0,1,1.8,5.3h.2s-.3-3.3-.3-5.4V59.6h5.6Zm30.9-.1H209V93.1a10.87,10.87,0,0,1,.1-1.3H209a9.15,9.15,0,0,1-7.3,3.2c-7.1,0-13.7-6.6-13.7-17.9,0-10.8,6-18.1,15.1-18.1a15.58,15.58,0,0,1,9.2,3l-2.6,5.1a9.44,9.44,0,0,0-6.4-2.5c-5.9,0-9.2,5.1-9.2,12.3,0,7.5,3.7,12.4,8.7,12.4a6.89,6.89,0,0,0,5.6-2.5V81.3h-3.9V76h9.2V94.4Zm30.8.1-2.2-9h-8.5l-2.1,9h-6l9.1-34.9h6.5l9.2,34.9Zm19.6,0h-9.7V59.6h9.7c8.6,0,14,6.4,14,17.4S272.6,94.5,264.1,94.5Zm29.1,0h-9.7V59.6h9.7c8.6,0,14,6.4,14,17.4S301.7,94.5,293.2,94.5Zm25.5,0h-6V59.6h6Zm20.3.6c-9.4,0-14.9-7.8-14.9-18.1s5.5-18,15.2-18a13.09,13.09,0,0,1,8.5,2.9l-2.5,5.2a8.57,8.57,0,0,0-5.8-2.4c-6,0-9.3,5.4-9.3,12.1s3.5,12.7,9.2,12.7a10,10,0,0,0,6.5-2.6l2.5,5.1A14.09,14.09,0,0,1,339,95.1Zm34-30.2h-8.4V94.5h-5.9V64.9h-8.5V59.6H373Zm10.2,29.6h-6V59.6h6Zm19.4.5c-8.6,0-14-7.6-14-18.3,0-10.3,5.4-17.7,14-17.7s14,7.3,14,17.8S411.1,95,402.6,95Zm42-.5h-6.2l-9-19.8c-.9-2.2-1.8-5.3-1.8-5.3h-.2s.3,3.3.3,5.4V94.5H422V59.6h6.3l9,19.7a53.58,53.58,0,0,1,1.8,5.3h.2s-.3-3.3-.3-5.4V59.6h5.6Z"/><path class="cls-1" d="M402.6,64.7c-5,0-7.9,4.7-7.9,12,0,7.7,3,12.6,7.9,12.6s7.9-5,7.9-12.5S407.6,64.7,402.6,64.7Z"/></svg>